<svg width="21" height="20" viewBox="0 0 21 20" fill="none" xmlns="http://www.w3.org/2000/svg">
<g opacity="0.8">
<path d="M19.4455 0H1.55039C0.693164 0 0 0.644531 0 1.44141V18.5547C0 19.3516 0.693164 20 1.55039 20H19.4455C20.3027 20 21 19.3516 21 18.5586V1.44141C21 0.644531 20.3027 0 19.4455 0ZM6.23027 17.043H3.11309V7.49609H6.23027V17.043ZM4.67168 6.19531C3.6709 6.19531 2.86289 5.42578 2.86289 4.47656C2.86289 3.52734 3.6709 2.75781 4.67168 2.75781C5.66836 2.75781 6.47637 3.52734 6.47637 4.47656C6.47637 5.42188 5.66836 6.19531 4.67168 6.19531ZM17.8951 17.043H14.782V12.4023C14.782 11.2969 14.7615 9.87109 13.1619 9.87109C11.5418 9.87109 11.2957 11.0781 11.2957 12.3242V17.043H8.18672V7.49609H11.1727V8.80078H11.2137C11.6279 8.05078 12.6451 7.25781 14.1586 7.25781C17.3127 7.25781 17.8951 9.23438 17.8951 11.8047V17.043Z" fill="white"/>
</g>
</svg>
