<svg width="20" height="20" viewBox="0 0 20 20" fill="none" xmlns="http://www.w3.org/2000/svg">
<g opacity="0.8">
<path fill-rule="evenodd" clip-rule="evenodd" d="M20 10C20 15.5228 15.5228 20 10 20C4.47715 20 0 15.5228 0 10C0 4.47715 4.47715 0 10 0C15.5228 0 20 4.47715 20 10ZM15.2091 8.40862C16.0097 8.40862 16.6667 9.06374 16.6667 9.88868C16.6667 10.4952 16.3083 11.0169 15.8066 11.2475C15.8304 11.3929 15.8425 11.5508 15.8425 11.6964C15.8425 13.9892 13.2259 15.8333 10.0001 15.8333C6.77429 15.8333 4.15777 13.977 4.15777 11.6964C4.15777 11.5386 4.16958 11.3929 4.19363 11.2475C3.69166 11.0169 3.33333 10.5074 3.33333 9.90089C3.33333 9.08793 3.9785 8.42083 4.79091 8.42083C5.18509 8.42083 5.54364 8.57845 5.80643 8.8333C6.82194 8.09316 8.21984 7.62009 9.77296 7.57147L10.5139 4.02905C10.5257 3.95624 10.5615 3.89563 10.6212 3.85922C10.6691 3.82282 10.7408 3.8106 10.8125 3.82282L13.2377 4.34451C13.405 3.99264 13.7635 3.75 14.1697 3.75C14.7432 3.75 15.2091 4.22308 15.2091 4.80538C15.2091 5.3879 14.7432 5.86098 14.1697 5.86098C13.6081 5.86098 13.1542 5.4121 13.1302 4.85399L10.9557 4.38092L10.2867 7.55948C11.816 7.62009 13.1901 8.09316 14.1936 8.82109C14.4564 8.56624 14.8149 8.40862 15.2091 8.40862ZM7.69426 9.88868C7.12059 9.88868 6.6547 10.3618 6.6547 10.9441C6.6547 11.5264 7.12059 12.0116 7.69426 11.9997C8.26772 11.9997 8.73361 11.5264 8.73361 10.9441C8.73361 10.3618 8.26772 9.88868 7.69426 9.88868ZM10.0001 14.5231C10.3943 14.5231 11.7563 14.4745 12.4732 13.7466C12.5687 13.6373 12.5687 13.4675 12.4732 13.3583C12.3656 13.2493 12.1984 13.2493 12.0908 13.3583C11.6488 13.8194 10.6811 13.977 10.0001 13.977C9.31909 13.977 8.36326 13.8194 7.90917 13.3583C7.80161 13.2493 7.63436 13.2493 7.52679 13.3583C7.41945 13.4675 7.41945 13.6373 7.52679 13.7466C8.23186 14.4623 9.5939 14.5231 10.0001 14.5231ZM11.2426 10.9563C11.2426 11.5386 11.7085 12.0116 12.2819 12.0116C12.8556 12.0116 13.3215 11.5264 13.3215 10.9563C13.3215 10.374 12.8556 9.90089 12.2819 9.90089C11.7085 9.90089 11.2426 10.374 11.2426 10.9563Z" fill="white"/>
</g>
</svg>
