<!-- Generated by IcoMoon.io -->
<svg version="1.1" xmlns="http://www.w3.org/2000/svg" width="512" height="512" viewBox="0 0 512 512">
<title></title>
<g id="icomoon-ignore">
</g>
<path fill="#fff" d="M487.759 48.913c-6.701-5.672-17.531-6.188-36.094-0.516 0 0 0 0 0 0-12.894 4.125-127.361 47.438-228.425 89.204-90.751 37.641-164.487 70.639-173.252 74.769-9.794 3.094-30.936 12.377-31.966 26.813-0.515 9.279 7.216 17.531 22.172 24.235 15.984 8.248 86.626 31.966 101.579 36.61 5.156 17.531 35.581 120.144 37.126 126.329 2.063 9.279 8.248 14.44 11.346 16.5 0.516 0.515 1.547 1.547 2.578 2.063 1.547 1.031 3.609 1.547 6.188 1.547 3.609 0 7.732-1.547 11.346-4.125 19.078-15.469 52.076-50.014 61.36-59.813 40.735 31.966 85.079 67.548 89.204 71.671 0 0 0.515 0.515 0.515 0.515 9.795 8.248 20.11 12.894 29.389 12.894 3.094 0 6.188-0.515 9.279-1.547 10.831-3.61 18.563-13.925 21.141-27.841 0-0.515 0.515-2.578 1.547-6.188 17.531-76.316 31.451-143.346 42.798-199.547 10.831-55.175 19.594-109.314 24.75-138.186 1.031-7.216 2.063-12.894 2.578-16.501 1.547-10.31 2.578-22.172-5.156-28.873zM152.598 298.476l245.959-162.942c0.515-0.516 1.547-1.031 2.063-1.547 0 0 0 0 0 0 0.515 0 0.515-0.516 1.031-0.516s0.515 0 1.031-0.516c-0.515 0.516-1.031 2.063-2.063 3.094l-62.392 58.267c-43.313 39.703-100.032 91.78-137.671 125.814 0 0 0 0 0 0.515 0 0-0.516 0.515-0.516 0.515s0 0.515-0.516 0.515c0 0.515 0 0.515-0.516 1.031 0 0 0 0.515 0 0.515s0 0 0 0.515c-2.578 28.873-7.216 78.378-9.279 100.548 0 0 0 0 0-0.515-2.063-6.188-30.935-104.673-37.126-125.298z"></path>
</svg>
