<svg width="210" height="50" viewBox="0 0 210 50" fill="none" xmlns="http://www.w3.org/2000/svg">
<path d="M76.7296 31.6891H67.4032L66.1155 35.4958H61L69.6999 11.0479H74.4326L83.1324 35.4958H78.0169L76.7296 31.6891ZM75.1639 27.1488L72.1013 18.1381H72.0316L68.969 27.1488H75.1639Z" fill="black"/>
<path d="M91.4153 15.9058H86.3691V11.0161H91.4153V15.9058ZM91.3456 35.4956H86.3691V15.9058L91.3456 18.7936V35.4956Z" fill="black"/>
<path d="M104.568 11.0479H115.147C119.358 11.0479 122.386 13.8069 122.386 17.6141C122.386 19.6048 121.446 21.2461 119.915 22.1891V22.2591C122.003 23.2369 123.291 25.3327 123.291 27.8823C123.291 33.0162 120.263 35.4962 114.034 35.4962H104.568V11.0479ZM114.417 20.7924C116.262 20.7924 117.27 19.8842 117.27 18.2081C117.27 16.5667 116.261 15.6585 114.417 15.6585H109.719V20.7924H114.417ZM114.974 30.8856C117.166 30.8856 118.175 29.9078 118.175 27.8471C118.175 25.9264 117.062 24.8786 115.008 24.8786H109.719V30.886H114.974V30.8856Z" fill="black"/>
<path d="M143.58 16.4614C149.009 16.4614 152.732 20.4081 152.732 26.2408C152.732 32.0735 149.008 36.0201 143.58 36.0201C138.186 36.0201 134.462 32.0387 134.462 26.2408C134.462 20.4429 138.186 16.4614 143.58 16.4614ZM143.58 21.0017C140.969 21.0017 139.438 22.9225 139.438 26.2404C139.438 29.5582 140.969 31.479 143.58 31.479C146.224 31.479 147.755 29.5582 147.755 26.2404C147.756 22.9225 146.224 21.0017 143.58 21.0017Z" fill="black"/>
<path d="M164.042 16.4614C168.497 16.4614 171.698 19.1157 172.359 23.3071L167.661 24.1453C167.278 22.0846 166.026 21.0021 164.042 21.0021C161.572 21.0021 160.075 22.9229 160.075 26.2408C160.075 29.5587 161.572 31.4794 164.042 31.4794C166.096 31.4794 167.278 30.3969 167.661 28.3362L172.359 29.1745C171.698 33.3654 168.497 36.0197 164.042 36.0197C158.857 36.0197 155.099 32.0383 155.099 26.2404C155.099 20.4425 158.857 16.4614 164.042 16.4614Z" fill="black"/>
<path d="M175.317 10H180.293V23.9703H180.363L186.279 16.9851H192.613L185.966 24.3892L192.786 35.4957H187.183L182.799 27.7075H182.729L180.293 30.5713V35.4957H175.316V10H175.317Z" fill="black"/>
<path d="M205.941 25.1225C205.001 24.7036 203.783 24.2843 202.356 23.8653C199.955 23.167 199.05 22.8176 199.05 21.9793C199.05 21.1411 199.955 20.5123 201.382 20.5123C202.942 20.5123 204.191 21.4139 204.786 23.1823L208.799 20.8567C208.278 19.7022 207.465 18.748 206.358 17.9623C204.932 16.9493 203.261 16.4604 201.382 16.4604C197.415 16.4604 194.422 18.9053 194.422 22.0485C194.596 25.6806 197.032 26.6587 200.86 27.7412C202.843 28.4048 203.679 28.6842 204.34 29.2779C204.688 29.592 204.862 29.9762 204.862 30.4303C204.862 31.3733 203.853 31.9322 202.078 31.9322C199.711 31.9322 198.458 30.8497 197.867 28.3349L197.817 28.3485L193.75 30.7048C194.874 34.1448 197.811 36.0188 202.077 36.0188C204.339 36.0188 206.114 35.4947 207.471 34.447C208.828 33.3645 209.489 31.9673 209.489 30.256C209.49 27.6026 207.889 25.9608 205.941 25.1225Z" fill="black"/>
<path d="M126.423 10H131.399V35.4957H126.423V10Z" fill="black"/>
<path d="M18.3454 33.311H47.0662V44.437H11.8643L18.3454 33.311Z" fill="url(#paint0_linear)"/>
<path d="M44.4835 33.3109L26.7023 2.40186L17.1016 7.96505L31.682 33.3109H44.4835Z" fill="url(#paint1_linear)"/>
<path d="M47.0657 44.4369C50.1271 44.4369 52.6089 41.9462 52.6089 38.8737C52.6089 35.8013 50.1271 33.3105 47.0657 33.3105C44.0042 33.3105 41.5225 35.8013 41.5225 38.8737C41.5225 41.9462 44.0042 44.4369 47.0657 44.4369Z" fill="#4A7EFF"/>
<path d="M22.1223 11.1264C25.1837 11.1264 27.6655 8.63566 27.6655 5.56319C27.6655 2.49073 25.1837 0 22.1223 0C19.0609 0 16.5791 2.49073 16.5791 5.56319C16.5791 8.63566 19.0609 11.1264 22.1223 11.1264Z" fill="#43FFE8"/>
<path d="M0.743164 41.6557L18.6135 10.5923L25.0142 21.7183L10.3443 47.2189L0.743164 41.6557Z" fill="url(#paint2_linear)"/>
<path d="M5.54321 49.9999C8.60463 49.9999 11.0864 47.5092 11.0864 44.4367C11.0864 41.3643 8.60463 38.8735 5.54321 38.8735C2.48178 38.8735 0 41.3643 0 44.4367C0 47.5092 2.48178 49.9999 5.54321 49.9999Z" fill="#765AFF"/>
<defs>
<linearGradient id="paint0_linear" x1="11.8643" y1="38.874" x2="47.0662" y2="38.874" gradientUnits="userSpaceOnUse">
<stop stop-color="#4A7EFF" stop-opacity="0"/>
<stop offset="0.82" stop-color="#4A7EFF"/>
</linearGradient>
<linearGradient id="paint1_linear" x1="39.6874" y1="36.0993" x2="21.8101" y2="5.24717" gradientUnits="userSpaceOnUse">
<stop stop-color="#43FFE8" stop-opacity="0"/>
<stop offset="0.88" stop-color="#43FFE8"/>
</linearGradient>
<linearGradient id="paint2_linear" x1="5.54872" y1="44.4366" x2="23.5156" y2="13.4297" gradientUnits="userSpaceOnUse">
<stop offset="0.18" stop-color="#765AFF"/>
<stop offset="1" stop-color="#765AFF" stop-opacity="0"/>
</linearGradient>
</defs>
</svg>
