<svg width="61" height="85" viewBox="0 0 61 85" fill="none" xmlns="http://www.w3.org/2000/svg">
<circle cx="26" cy="19" r="18" fill="white" stroke="#040F56" stroke-width="2"/>
<path fill-rule="evenodd" clip-rule="evenodd" d="M27.8536 2.12362C19.4366 3.14066 12.9142 10.3087 12.9142 19C12.9142 27.6914 19.4366 34.8594 27.8536 35.8764C27.1781 35.958 26.4905 36 25.793 36C16.4041 36 8.79297 28.3889 8.79297 19C8.79297 9.61116 16.4041 2 25.793 2C26.4905 2 27.1781 2.042 27.8536 2.12362Z" fill="#DCE1E5"/>
<path d="M0 48.4286H26.0714" stroke="#040F56" stroke-width="2"/>
<path d="M0 73.2245H7.95918L17.6112 80.8657C20.7606 83.3589 24.9486 84.1111 28.7687 82.8696L44.5193 77.7506C45.8132 77.3301 46.3187 75.7685 45.5168 74.6696L30.6122 54.2449L25.9977 56.4164C22.5679 58.0305 18.4838 57.1768 15.9876 54.324V54.324C15.952 54.2833 15.963 54.2201 16.0103 54.1938L33.0336 44.7364C36.1539 43.0029 39.8839 42.7485 43.2107 44.0423L60 50.5714" stroke="#040F56" stroke-width="2"/>
<path d="M17.8574 72.862L28.9289 82.7143M23.3931 68.5517L34.4646 80.867M28.9289 64.8571L40.0003 79.0197" stroke="#040F56" stroke-width="2" stroke-linecap="round"/>
<path d="M45.7139 74.8571L59.9996 71.2857" stroke="#040F56" stroke-width="2"/>
<path d="M25.3084 24.6275C23.359 24.3467 21.971 23.1584 21.6279 21.209H23.6397C24.0234 22.416 24.9871 22.9588 26.2535 22.9588C27.6196 22.9588 28.4649 22.335 28.4649 21.2495C28.4649 20.4261 28.0033 19.9426 26.7962 19.6619L24.825 19.1785C23.2374 18.7948 21.9274 17.8716 21.9274 15.9596C21.9274 14.11 23.2561 12.7221 25.3053 12.5193V10.7103H27.1143V12.6222C28.8454 12.9841 29.8903 14.1319 30.2521 15.7787H28.3027C28.022 14.8929 27.236 14.1911 25.848 14.1911C24.6004 14.1911 23.8175 14.8555 23.8175 15.8193C23.8175 16.624 24.3197 17.1074 25.3458 17.3694L27.3576 17.8529C29.1667 18.274 30.355 19.3812 30.355 21.1528C30.355 23.1022 29.0481 24.3499 27.1174 24.6337V26.6236H25.3084V24.6275Z" fill="#4A7EFF"/>
<path d="M14.6703 25.1602C12.5432 21.3298 12.4106 16.5383 14.7422 12.5C17.0737 8.46161 21.2895 6.18068 25.6703 6.10762M26.3307 31.8923C30.7115 31.8193 34.9273 29.5383 37.2588 25.5C39.5904 21.4616 39.4578 16.6702 37.3307 12.8398" stroke="#040F56" stroke-width="2"/>
</svg>
