<svg width="52" height="73" viewBox="0 0 52 73" fill="none" xmlns="http://www.w3.org/2000/svg">
<path d="M7.06061 61.6617V12.4586L2.13636 12L1 14.2932V70.2481L2.51515 72.5414L49.4848 73L51 70.7068V65.6617H11.0606C8.85147 65.6617 7.06061 63.8708 7.06061 61.6617Z" fill="#DCE1E5"/>
<rect x="1" y="12" width="50" height="60" rx="4" stroke="#141E61" stroke-width="2"/>
<rect x="20" y="1" width="12" height="21" rx="2" fill="white" stroke="#141E61" stroke-width="2"/>
<circle cx="26" cy="35" r="5" fill="#4A7EFF"/>
<path d="M26.5 43C20.7992 43 16.0673 47.3284 15.1578 53.0076C14.9831 54.0983 15.8954 55 17 55H36C37.1046 55 38.0169 54.0983 37.8422 53.0076C36.9327 47.3284 32.2008 43 26.5 43Z" fill="#4A7EFF"/>
</svg>
