<svg width="68" height="88" viewBox="0 0 68 88" fill="none" xmlns="http://www.w3.org/2000/svg">
<path d="M8 9V3C8 1.89543 8.89543 1 10 1H65C66.1046 1 67 1.89543 67 3V77C67 78.1046 66.1046 79 65 79H60" stroke="#141E61" stroke-width="2"/>
<path d="M8.15152 74.3542V9.77964L2.34091 9.18848L1 12.1443V84.2658L2.78788 87.2216L58.2121 87.8128L60 84.857V78.3542H12.1515C9.94238 78.3542 8.15152 76.5633 8.15152 74.3542Z" fill="#DCE1E5"/>
<path d="M3 86.5239H58C59.1046 86.5239 60 85.6284 60 84.5239V22.1787C60 21.6598 59.7983 21.1612 59.4376 20.7882L48.8081 9.79805C48.4312 9.40845 47.9125 9.18848 47.3705 9.18848H3C1.89543 9.18848 1 10.0839 1 11.1885V84.5239C1 85.6284 1.89543 86.5239 3 86.5239Z" stroke="#141E61" stroke-width="2"/>
<path d="M29.3394 61.5546C25.2618 60.9674 22.3585 58.4816 21.6409 54.404H25.849C26.6514 56.9289 28.6674 58.0641 31.3162 58.0641C34.1738 58.0641 35.9419 56.7593 35.9419 54.4888C35.9419 52.7665 34.9763 51.7552 32.4515 51.168L28.3282 50.1568C25.0074 49.3543 22.2672 47.4232 22.2672 43.4238C22.2672 39.555 25.0465 36.6517 29.3329 36.2276V32.4436H33.1169V36.4429C36.7378 37.1997 38.9235 39.6006 39.6803 43.0454H35.6026C35.0155 41.1925 33.3714 39.7246 30.4681 39.7246C27.8584 39.7246 26.2209 41.1143 26.2209 43.1302C26.2209 44.8135 27.2712 45.8247 29.4177 46.3728L33.6258 47.384C37.4098 48.2648 39.8956 50.5809 39.8956 54.2866C39.8956 58.3642 37.1619 60.9739 33.1234 61.5676V65.73H29.3394V61.5546Z" fill="#4A7EFF"/>
<path d="M48.2188 9.18848V21.3697H59.8463" stroke="#141E61" stroke-width="2"/>
</svg>
