<svg width="92" height="92" viewBox="0 0 92 92" fill="none" xmlns="http://www.w3.org/2000/svg">
<path d="M22 67.5V13.5L15.5 13L14 15.5V76.5L16 79L78 79.5L80 77V71.5H26C23.7909 71.5 22 69.7091 22 67.5Z" fill="#DCE1E5"/>
<rect x="14" y="13" width="66" height="66" rx="4" stroke="#141E61" stroke-width="2"/>
<rect x="27" y="26" width="40" height="40" rx="3" stroke="#141E61" stroke-width="2"/>
<path d="M55.6294 43.7162H50.2583C49.9937 43.7162 49.8085 43.4729 49.8879 43.2026L52.9306 32.4996C53.0364 32.1212 52.5602 31.8239 52.2956 32.1212L38.1137 46.6081C37.8756 46.8514 38.0343 47.2838 38.3783 47.2838H43.7494C44.014 47.2838 44.1992 47.5271 44.1198 47.7974L41.0506 58.5004C40.9448 58.8788 41.421 59.1761 41.6856 58.8788L55.8675 44.3919C56.1321 44.1486 55.9734 43.7162 55.6294 43.7162Z" fill="#4A7EFF"/>
<line x1="23" y1="84" x2="23" y2="92" stroke="#141E61" stroke-width="2"/>
<line x1="31" y1="84" x2="31" y2="92" stroke="#141E61" stroke-width="2"/>
<line x1="39" y1="84" x2="39" y2="92" stroke="#141E61" stroke-width="2"/>
<line x1="47" y1="84" x2="47" y2="92" stroke="#141E61" stroke-width="2"/>
<line x1="55" y1="84" x2="55" y2="92" stroke="#141E61" stroke-width="2"/>
<line x1="63" y1="84" x2="63" y2="92" stroke="#141E61" stroke-width="2"/>
<line x1="71" y1="84" x2="71" y2="92" stroke="#141E61" stroke-width="2"/>
<line x1="23" y1="-4.37114e-08" x2="23" y2="8" stroke="#141E61" stroke-width="2"/>
<line x1="31" y1="-4.37114e-08" x2="31" y2="8" stroke="#141E61" stroke-width="2"/>
<line x1="39" y1="-4.37114e-08" x2="39" y2="8" stroke="#141E61" stroke-width="2"/>
<line x1="47" y1="-4.37114e-08" x2="47" y2="8" stroke="#141E61" stroke-width="2"/>
<line x1="55" y1="-4.37114e-08" x2="55" y2="8" stroke="#141E61" stroke-width="2"/>
<line x1="63" y1="-4.37114e-08" x2="63" y2="8" stroke="#141E61" stroke-width="2"/>
<line x1="71" y1="-4.37114e-08" x2="71" y2="8" stroke="#141E61" stroke-width="2"/>
<line x1="8" y1="23" y2="23" stroke="#141E61" stroke-width="2"/>
<line x1="8" y1="31" y2="31" stroke="#141E61" stroke-width="2"/>
<line x1="8" y1="39" y2="39" stroke="#141E61" stroke-width="2"/>
<line x1="8" y1="47" y2="47" stroke="#141E61" stroke-width="2"/>
<line x1="8" y1="55" y2="55" stroke="#141E61" stroke-width="2"/>
<line x1="8" y1="63" y2="63" stroke="#141E61" stroke-width="2"/>
<line x1="8" y1="71" y2="71" stroke="#141E61" stroke-width="2"/>
<line x1="92" y1="23" x2="84" y2="23" stroke="#141E61" stroke-width="2"/>
<line x1="92" y1="31" x2="84" y2="31" stroke="#141E61" stroke-width="2"/>
<line x1="92" y1="39" x2="84" y2="39" stroke="#141E61" stroke-width="2"/>
<line x1="92" y1="47" x2="84" y2="47" stroke="#141E61" stroke-width="2"/>
<line x1="92" y1="55" x2="84" y2="55" stroke="#141E61" stroke-width="2"/>
<line x1="92" y1="63" x2="84" y2="63" stroke="#141E61" stroke-width="2"/>
<line x1="92" y1="71" x2="84" y2="71" stroke="#141E61" stroke-width="2"/>
</svg>
