<svg width="73" height="88" viewBox="0 0 73 88" fill="none" xmlns="http://www.w3.org/2000/svg">
<path d="M36.5 73C55.5538 73 71 57.5538 71 38.5C71 69.3 48 83.3333 36.5 86.5C9.50684 78.2847 2.31343 52.1826 2.01015 39.3453C2.0034 39.0644 2 38.7826 2 38.5C2 38.7748 2.00334 39.0567 2.01015 39.3453C2.45895 58.0086 17.7288 73 36.5 73Z" fill="#DCE1E5"/>
<path d="M2.01015 39.3453C2.0034 39.0644 2 38.7826 2 38.5C2 38.7748 2.00334 39.0567 2.01015 39.3453Z" fill="#DCE1E5"/>
<path d="M32.5264 3.62918C34.9696 2.20486 38.0059 2.20486 40.449 3.62918C48.7114 8.44594 56.9719 11.6471 65.2249 13.8214C67.7222 14.4794 69.7073 16.2986 70.2598 18.6931C76.2018 44.4446 66.9669 74.0346 38.8466 85.9883C37.3411 86.6283 35.6343 86.6283 34.1288 85.9883C6.00858 74.0346 -3.22625 44.4446 2.71574 18.6931C3.26827 16.2986 5.25336 14.4794 7.75062 13.8214C16.0036 11.6471 24.2641 8.44594 32.5264 3.62918Z" stroke="#040F56" stroke-width="2"/>
<circle cx="36.5" cy="44.5" r="4.5" fill="#4A7EFF"/>
<path d="M40 55H33L35.3333 46H37.6667L40 55Z" fill="#4A7EFF"/>
<path d="M24.3684 47.9807V33.4084C20.4316 31.9954 19.1491 34.586 19 36.058V47.9807C21.5053 60.3451 31.3772 63.1418 36 62.9946C26.6947 62.9946 24.3684 52.9853 24.3684 47.9807Z" fill="#DCE1E5"/>
<path d="M19 34.1538C19 33.5166 19.5166 33 20.1538 33H52.8462C53.4834 33 54 33.5166 54 34.1538V45.5C54 55.165 46.165 63 36.5 63V63C26.835 63 19 55.165 19 45.5V34.1538Z" stroke="#040F56" stroke-width="2"/>
<path d="M26 32V30.5C26 24.701 30.701 20 36.5 20V20C42.299 20 47 24.701 47 30.5V32" stroke="#040F56" stroke-width="2"/>
</svg>
