<svg width="97" height="75" viewBox="0 0 97 75" fill="none" xmlns="http://www.w3.org/2000/svg">
<path d="M57.0231 33.3171L70.9693 21.1616L64.4741 17.4116L50.9609 29.8171L48.5853 61.9318L49.8173 63.7978L53.0673 58.1687L57.0231 33.3171Z" fill="#DCE1E5"/>
<path d="M61.9644 15.3856L65.9747 3.26717L95.0245 20.0391L86.5348 29.5713L61.9644 15.3856Z" stroke="#141E61" stroke-width="2"/>
<line x1="49.8166" y1="63.7977" x2="62.3166" y2="42.1471" stroke="#4A7EFF" stroke-width="2"/>
<circle cx="64.3174" cy="38.683" r="5" transform="rotate(30 64.3174 38.683)" stroke="#4A7EFF" stroke-width="2"/>
<path d="M64.7235 16.9785L51.0274 28.7008L48.8265 62.0295C48.7186 63.6632 50.5122 64.7273 51.8943 63.8496L80.4723 45.7008L83.7761 27.9785" stroke="#141E61" stroke-width="2"/>
<path d="M0 65.5H17.8561C18.5648 65.5 19.2206 65.8751 19.58 66.486L22.019 70.6324C22.8458 72.0379 24.9168 71.9164 25.5735 70.4238L33.7923 51.7449C34.1793 50.8653 35.4631 50.9846 35.6814 51.9204L37.7787 60.9089C38.2012 62.7193 39.8151 64 41.6741 64H51" stroke="#141E61" stroke-width="2"/>
<circle cx="21.5" cy="21.5" r="20.5" stroke="#141E61" stroke-width="2"/>
<circle cx="21" cy="15" r="4" fill="#4A7EFF"/>
<path d="M21.5 22C16.9001 22 13.0638 25.4413 12.1878 30.0115C11.9799 31.0964 12.8954 32 14 32H29C30.1046 32 31.0201 31.0964 30.8122 30.0115C29.9362 25.4413 26.0999 22 21.5 22Z" fill="#4A7EFF"/>
</svg>
