<svg width="116" height="116" viewBox="0 0 116 116" fill="none" xmlns="http://www.w3.org/2000/svg">
<circle cx="58" cy="58" r="34" fill="white" stroke="#040F56" stroke-width="2"/>
<path fill-rule="evenodd" clip-rule="evenodd" d="M65.6442 25.8899C65.5605 25.8892 65.4767 25.8889 65.3928 25.8889C47.6583 25.8889 33.2817 40.2655 33.2817 58C33.2817 75.7345 47.6583 90.1111 65.3928 90.1111C65.4766 90.1111 65.5604 90.1108 65.644 90.1102C63.1907 90.692 60.6313 91 58 91C39.7746 91 25 76.2254 25 58C25 39.7746 39.7746 25 58 25C60.6314 25 63.1908 25.308 65.6442 25.8899Z" fill="#DCE1E5"/>
<path d="M56.6942 68.6297C53.012 68.0995 50.3903 65.8548 49.7422 62.1726H53.5422C54.2669 64.4526 56.0874 65.4777 58.4793 65.4777C61.0598 65.4777 62.6564 64.2994 62.6564 62.2492C62.6564 60.6938 61.7845 59.7806 59.5045 59.2504L55.781 58.3372C52.7822 57.6125 50.3078 55.8686 50.3078 52.2571C50.3078 48.7635 52.8176 46.1417 56.6883 45.7588V42.3417H60.1054V45.9532C63.3752 46.6366 65.3489 48.8047 66.0323 51.9154H62.3501C61.8198 50.2422 60.3352 48.9166 57.7134 48.9166C55.3568 48.9166 53.878 50.1715 53.878 51.992C53.878 53.512 54.8266 54.4252 56.7649 54.9201L60.5649 55.8333C63.982 56.6286 66.2267 58.7201 66.2267 62.0665C66.2267 65.7487 63.7581 68.1053 60.1113 68.6415V72.4003H56.6942V68.6297Z" fill="#4A7EFF"/>
<path d="M36.0293 69.9466C31.9041 62.5183 31.647 53.2261 36.1687 45.3944C40.6903 37.5627 48.8661 33.1392 57.3619 32.9975M58.6426 83.0025C67.1384 82.8608 75.3142 78.4373 79.8358 70.6056C84.3575 62.7739 84.1004 53.4817 79.9752 46.0533" stroke="#040F56" stroke-width="2"/>
<path d="M19.8623 36.0488L20.7294 36.5469L19.8623 36.0488ZM50.9924 101.442L51.1526 100.455L50.9924 101.442ZM65.6608 102.063C65.9856 101.616 65.8867 100.991 65.44 100.666L58.1607 95.3735C57.714 95.0488 57.0886 95.1476 56.7638 95.5943C56.439 96.041 56.5379 96.6664 56.9846 96.9912L63.4551 101.696L58.7506 108.166C58.4258 108.613 58.5247 109.238 58.9714 109.563C59.4181 109.888 60.0435 109.789 60.3683 109.342L65.6608 102.063ZM65.0079 14.5576L64.8477 15.5447L65.0079 14.5576ZM96.138 79.9512L97.0052 80.4493L97.0052 80.4493L96.138 79.9512ZM50.3395 13.9371C50.0147 14.3838 50.1136 15.0092 50.5603 15.3339L57.8396 20.6265C58.2863 20.9513 58.9117 20.8524 59.2365 20.4057C59.5613 19.959 59.4624 19.3336 59.0157 19.0089L52.5452 14.3044L57.2497 7.83384C57.5745 7.38714 57.4756 6.76173 57.0289 6.43696C56.5822 6.11218 55.9568 6.21102 55.6321 6.65771L50.3395 13.9371ZM19.1749 76.4825C12.8684 63.2346 13.9338 48.3779 20.7294 36.5469L18.9951 35.5508C11.8865 47.9267 10.7685 63.4765 17.3691 77.3421L19.1749 76.4825ZM51.1526 100.455C37.6849 98.2706 25.4815 89.7304 19.1749 76.4825L17.3691 77.3421C23.9698 91.2078 36.7442 100.144 50.8323 102.43L51.1526 100.455ZM20.7294 36.5469C22.9666 32.652 25.8244 29.0862 29.2438 26.0147L27.9073 24.5268C24.3273 27.7426 21.3361 31.4752 18.9951 35.5508L20.7294 36.5469ZM64.6959 100.487C60.1559 101.205 55.5863 101.175 51.1526 100.455L50.8323 102.43C55.4718 103.182 60.2548 103.214 65.0081 102.463L64.6959 100.487ZM64.8477 15.5447C78.3155 17.7294 90.5188 26.2697 96.8254 39.5175L98.6312 38.6579C92.0306 24.7922 79.2561 15.8559 65.168 13.5705L64.8477 15.5447ZM96.8254 39.5175C103.132 52.7654 102.067 67.6222 95.2709 79.4531L97.0052 80.4493C104.114 68.0733 105.232 52.5235 98.6312 38.6579L96.8254 39.5175ZM51.3044 15.5129C55.8445 14.7954 60.414 14.8254 64.8477 15.5447L65.168 13.5705C60.5286 12.8179 55.7455 12.7862 50.9922 13.5374L51.3044 15.5129ZM95.2709 79.4531C93.0337 83.348 90.1759 86.9138 86.7565 89.9854L88.093 91.4732C91.673 88.2574 94.6642 84.5249 97.0052 80.4493L95.2709 79.4531Z" fill="#040F56"/>
</svg>
