<svg width="700" height="529" viewBox="0 0 700 529" fill="none" xmlns="http://www.w3.org/2000/svg">
<path d="M211.369 454.432C211.369 454.432 203.636 451.709 204.344 444.769C205.051 437.83 209.063 432.119 213.392 427.75C217.721 423.381 226.882 414.611 235.884 411.517C235.884 411.517 234.681 421.676 232.678 428.728C230.669 435.787 228.164 445.926 222.619 451.458C217.067 456.997 211.369 454.432 211.369 454.432Z" fill="#282828"/>
<path d="M203.881 420.434L191.627 364.703C191.627 364.703 181.825 379.237 181.343 393.93C180.86 408.622 191.62 418.96 203.881 420.434Z" fill="#282828"/>
<path d="M191.674 452.767C191.674 452.767 196.578 450.103 196.122 443.6C195.666 437.096 191.588 433.038 183.689 427.05C175.791 421.068 160.973 416.369 160.973 416.369C160.973 416.369 163.445 424.472 164.628 427.803C165.804 431.141 171.495 445.43 176.941 450.513C182.381 455.602 187.384 456.376 191.674 452.767Z" fill="#4A7EFF"/>
<path d="M209.472 424.479C209.268 424.452 194.714 422.086 188.937 409.964C184.039 399.68 186.716 385.628 196.901 368.199C196.974 368.067 197.119 367.988 197.271 368.027C197.417 368.047 197.536 368.16 197.569 368.305L209.823 424.036C209.849 424.155 209.816 424.274 209.73 424.36C209.671 424.439 209.572 424.479 209.472 424.479ZM197.067 369.376C187.39 386.21 184.879 399.759 189.598 409.654C194.595 420.136 206.373 423.117 209.003 423.659L197.067 369.376Z" fill="black"/>
<path d="M188.263 452.992C184.475 452.992 180.682 450.46 176.934 445.404C176.815 445.246 176.848 445.021 177.007 444.895C177.165 444.776 177.397 444.809 177.516 444.968C183.002 452.351 188.52 454.115 193.934 450.203C197.853 447.367 199.32 443.858 198.309 439.766C195.533 428.583 175.368 416.256 164.171 414.373C164.627 416.038 166.161 421.399 168.527 427.526C168.6 427.711 168.507 427.922 168.322 427.995C168.137 428.068 167.925 427.975 167.853 427.783C164.991 420.374 163.345 414.082 163.325 414.022C163.292 413.903 163.325 413.778 163.405 413.692C163.484 413.606 163.616 413.553 163.728 413.573C174.984 415.159 196.134 427.975 199.016 439.594C200.107 444.003 198.547 447.77 194.363 450.791C192.334 452.258 190.298 452.992 188.263 452.992Z" fill="black"/>
<path d="M218.673 457.975C217.106 457.975 215.494 457.565 213.841 456.752C209.353 454.538 207.252 451.148 207.589 446.673C208.507 434.518 228.078 417.168 239.354 413.586C239.473 413.546 239.598 413.573 239.691 413.652C239.783 413.725 239.836 413.85 239.823 413.976C239.658 415.443 235.593 449.991 223.081 456.819C221.667 457.585 220.193 457.975 218.673 457.975ZM239.03 414.459C227.853 418.345 209.195 435.021 208.309 446.726C207.992 450.877 209.961 454.029 214.158 456.098C217.199 457.598 220.081 457.625 222.731 456.177C234.066 449.998 238.442 419.046 239.03 414.459Z" fill="black"/>
<path d="M204.866 477.678C204.707 477.678 204.562 477.572 204.515 477.414C194.608 442.047 175.659 423.943 175.467 423.765C175.321 423.626 175.315 423.395 175.454 423.256C175.592 423.11 175.824 423.104 175.969 423.236C176.161 423.414 195.256 441.657 205.223 477.222C205.275 477.414 205.163 477.619 204.971 477.671C204.932 477.671 204.899 477.678 204.866 477.678Z" fill="black"/>
<path d="M209.473 477.678C209.262 477.671 209.103 477.5 209.11 477.301L209.989 453.864C209.995 453.673 210.154 453.514 210.352 453.514C210.564 453.521 210.722 453.692 210.716 453.891L209.837 477.328C209.83 477.526 209.671 477.678 209.473 477.678Z" fill="black"/>
<path d="M209.929 439.938C209.731 439.938 209.572 439.786 209.566 439.588L209.11 424.135C209.103 423.937 209.262 423.765 209.46 423.765C209.652 423.745 209.83 423.917 209.83 424.115L210.286 439.568C210.293 439.766 210.134 439.938 209.936 439.938C209.936 439.938 209.936 439.938 209.929 439.938Z" fill="black"/>
<path d="M215.501 477.79C215.329 477.79 215.171 477.665 215.144 477.486C209.123 440.15 231.661 421.584 231.893 421.399C232.045 421.273 232.276 421.299 232.401 421.458C232.527 421.617 232.501 421.841 232.342 421.967C232.117 422.145 209.909 440.467 215.858 477.367C215.891 477.566 215.752 477.751 215.554 477.784C215.541 477.79 215.521 477.79 215.501 477.79Z" fill="black"/>
<path d="M425.787 301.986V281.695L407.988 274.014L400.301 255.997L408.556 237.748L394.584 223.274L376.487 231.093L358.417 224.305L350.803 205.732H330.36L322.832 224.338L304.801 231.456L286.196 223.399L272.051 237.484L279.903 255.64L272.051 273.486L252.064 281.582V301.668L270.934 308.959L279.903 327.135L271.972 346.004L280.697 354.597L288.853 351.543L292.012 358.087L304.477 352.363L322.911 360.611L330.466 379.521H350.473L357.498 360.677L375.793 352.363L394.756 360.915L408.741 345.727L401.108 326.897L408.365 309.196L425.787 301.986ZM340.492 324.253C322.581 324.253 308.066 309.732 308.066 291.827C308.066 273.915 322.587 259.401 340.492 259.401C358.404 259.401 372.918 273.922 372.918 291.827C372.918 309.732 358.404 324.253 340.492 324.253Z" fill="#4A7EFF"/>
<path d="M285.951 358.761C284.325 359.6 282.355 359.296 281.053 358.014C277.59 354.597 271.899 349.065 269.949 347.214C268.502 345.833 268.29 344.517 269.216 342.66C270.253 340.572 271.245 338.457 272.243 336.341C273.3 334.088 274.364 331.834 275.475 329.606C276.142 328.271 276.116 327.326 275.376 325.859C274.206 323.539 273.161 321.12 272.15 318.78C271.344 316.903 270.531 315.026 269.652 313.182C269.163 312.158 268.29 311.226 267.57 310.948C262.401 308.978 257.127 307.233 252.646 305.793C250.795 305.198 250.055 304.167 250.094 302.217C250.194 296.526 250.194 291.437 250.088 286.665C250.028 284.2 251.383 283.413 252.857 282.937C257.576 281.397 262.626 279.718 267.517 277.854C268.277 277.57 269.176 276.652 269.665 275.687C271.787 271.443 273.829 267.055 275.719 262.64C276.063 261.84 276.103 260.637 275.805 259.963C273.631 254.986 271.298 250.201 269.308 246.169C268.508 244.556 268.317 243.161 269.976 241.595C273.366 238.389 276.962 234.794 280.967 230.61C282.091 229.44 283.842 229.123 285.29 229.85C287.484 230.947 289.698 232.005 291.906 233.062C294.298 234.206 296.684 235.349 299.057 236.539C300.247 237.134 301.033 237.147 302.309 236.559C306.328 234.715 310.611 233.003 315.039 231.463C316.414 230.987 316.989 230.438 317.398 229.229C318.205 226.856 319.071 224.496 319.936 222.137C320.736 219.969 321.529 217.801 322.283 215.613C322.964 213.624 324.074 212.837 326.044 212.87C331.549 212.989 336.639 212.989 341.589 212.864C343.849 212.844 344.715 213.935 345.304 215.633C347.2 221.198 348.76 225.448 350.366 229.42C350.637 230.095 351.523 230.894 352.429 231.278C356.811 233.135 361.318 234.9 365.826 236.519C366.54 236.777 367.637 236.731 368.364 236.4C372.601 234.503 377.194 232.329 382.389 229.751C384.028 228.938 385.244 229.143 386.48 230.425C388.08 232.091 389.706 233.736 391.325 235.376C393.486 237.557 395.648 239.744 397.743 241.985C398.569 242.864 398.708 244.688 398.272 245.673C397.141 248.205 395.952 250.703 394.762 253.208C393.645 255.554 392.535 257.901 391.464 260.273C391.213 260.829 391.226 261.827 391.484 262.54C393.394 267.749 395.046 271.919 396.659 275.667C397.062 276.599 397.954 277.544 398.734 277.861C403.559 279.837 408.49 281.576 412.251 282.878C414.227 283.558 415.007 284.656 414.967 286.652C414.868 291.576 414.868 296.658 414.967 302.204C415 304.114 414.253 305.198 412.462 305.819C408.655 307.141 403.652 308.912 398.681 310.922C397.921 311.226 397.075 312.105 396.738 312.918C395.013 317.128 393.321 321.616 391.576 326.632C391.358 327.26 391.437 328.265 391.755 328.972C392.759 331.193 393.81 333.394 394.861 335.595C396.044 338.08 397.234 340.565 398.351 343.07C398.814 344.101 398.734 345.958 397.941 346.804C394.769 350.182 391.438 353.526 388.225 356.771L385.271 359.759C385 360.03 384.603 360.102 384.26 359.937L380.076 357.954C376.031 356.038 372.217 354.227 368.285 352.475C367.67 352.204 366.573 352.231 365.799 352.548C361.087 354.451 356.566 356.414 352.343 358.384C351.477 358.787 350.618 359.64 350.34 360.36C348.608 364.907 346.936 369.699 345.231 375C344.61 376.943 343.572 377.743 341.662 377.743C336.758 377.644 331.668 377.637 325.958 377.736C324.001 377.736 322.957 376.963 322.362 375.159C320.445 369.349 318.8 364.61 317.167 360.241C316.916 359.567 316.136 358.767 315.402 358.417C313.472 357.505 311.523 356.652 309.566 355.806C307.147 354.755 304.649 353.665 302.236 352.475C300.928 351.827 300.148 351.801 299.004 352.369C296.784 353.473 294.754 354.432 292.679 355.41C291.417 356.011 290.128 356.619 288.766 357.274L285.951 358.761Z" fill="white"/>
<path d="M341.682 377.77C336.778 377.67 331.689 377.664 325.978 377.763C324.022 377.763 322.977 376.99 322.383 375.185C320.466 369.376 318.82 364.637 317.187 360.268C316.936 359.594 316.156 358.794 315.423 358.444C313.493 357.531 311.543 356.679 309.587 355.833C307.168 354.782 304.669 353.691 302.257 352.502C300.948 351.854 300.168 351.827 299.025 352.396C296.804 353.5 294.775 354.458 292.699 355.436C291.437 356.038 290.148 356.646 288.787 357.3C288.331 357.512 287.815 357.32 287.604 356.884C287.392 356.441 287.577 355.912 288.013 355.701C289.382 355.046 290.67 354.432 291.939 353.837C294.008 352.859 296.031 351.907 298.238 350.81C299.897 349.99 301.239 350.016 303.043 350.909C305.416 352.079 307.901 353.163 310.294 354.207C312.27 355.066 314.24 355.925 316.183 356.844C317.346 357.393 318.443 358.549 318.853 359.653C320.492 364.042 322.151 368.801 324.075 374.637C324.438 375.734 324.861 375.998 325.958 375.992C331.689 375.892 336.804 375.892 341.583 375.998C342.806 376.011 343.176 375.74 343.572 374.485C345.284 369.151 346.963 364.333 348.708 359.752C349.217 358.41 350.539 357.3 351.616 356.791C355.866 354.808 360.42 352.832 365.159 350.922C366.163 350.512 367.803 350.334 369.025 350.869C372.978 352.621 376.798 354.438 380.856 356.368L384.472 358.08L386.99 355.535C390.195 352.303 393.513 348.959 396.673 345.601C396.878 345.383 396.997 344.339 396.759 343.81C395.642 341.312 394.465 338.84 393.282 336.375C392.231 334.16 391.174 331.953 390.162 329.719C389.653 328.589 389.554 327.121 389.924 326.064C391.676 321.014 393.381 316.5 395.12 312.257C395.642 310.994 396.838 309.772 398.041 309.289C403.044 307.267 408.074 305.482 411.901 304.16C412.978 303.783 413.236 303.413 413.216 302.25C413.117 296.678 413.117 291.569 413.216 286.625C413.243 285.416 412.925 284.999 411.689 284.57C407.909 283.268 402.945 281.516 398.081 279.52C396.884 279.024 395.642 277.736 395.053 276.387C393.421 272.607 391.762 268.403 389.839 263.168C389.482 262.197 389.349 260.696 389.865 259.56C390.936 257.18 392.053 254.821 393.176 252.461C394.359 249.969 395.549 247.484 396.666 244.966C396.871 244.516 396.712 243.479 396.468 243.214C394.379 240.98 392.231 238.812 390.076 236.638C388.444 234.992 386.811 233.34 385.205 231.668C384.505 230.947 384.141 230.888 383.183 231.35C377.961 233.941 373.355 236.129 369.091 238.033C367.955 238.542 366.368 238.621 365.225 238.204C360.691 236.572 356.15 234.794 351.735 232.923C350.605 232.448 349.237 231.39 348.721 230.101C347.108 226.096 345.535 221.82 343.625 216.221C343.176 214.9 342.878 214.595 341.636 214.648C336.659 214.774 331.543 214.774 326.004 214.655C324.808 214.642 324.392 214.946 323.956 216.195C323.202 218.396 322.402 220.577 321.603 222.758C320.743 225.098 319.884 227.444 319.084 229.804C318.49 231.542 317.525 232.481 315.628 233.142C311.246 234.662 307.016 236.354 303.05 238.171C301.285 238.984 299.943 238.965 298.265 238.125C295.905 236.935 293.526 235.799 291.146 234.662C288.932 233.604 286.711 232.54 284.51 231.443C283.486 230.921 283.056 231 282.257 231.833C278.225 236.037 274.609 239.652 271.199 242.884C270.293 243.743 270.32 244.212 270.902 245.382C272.904 249.427 275.251 254.239 277.438 259.249C277.934 260.379 277.901 262.065 277.359 263.334C275.449 267.782 273.4 272.203 271.258 276.48C270.73 277.537 269.599 278.965 268.152 279.513C263.221 281.391 258.152 283.083 253.413 284.623C252.137 285.039 251.833 285.429 251.866 286.625C251.972 291.424 251.972 296.533 251.873 302.257C251.853 303.413 252.098 303.757 253.195 304.114C257.696 305.561 262.997 307.319 268.205 309.296C269.613 309.831 270.73 311.318 271.258 312.422C272.144 314.286 272.964 316.183 273.783 318.08C274.781 320.393 275.819 322.792 276.962 325.066C277.947 327.022 277.98 328.569 277.062 330.4C275.958 332.62 274.9 334.861 273.843 337.102C272.845 339.223 271.84 341.351 270.796 343.453C270.221 344.617 270.293 345.106 271.173 345.938C273.499 348.159 275.442 350.043 277.927 352.568C278.271 352.918 278.264 353.48 277.914 353.824C277.564 354.167 277.009 354.161 276.658 353.81C274.279 351.391 272.395 349.567 269.937 347.221C268.489 345.839 268.278 344.524 269.203 342.667C270.241 340.578 271.232 338.463 272.23 336.348C273.288 334.094 274.352 331.84 275.462 329.613C276.13 328.278 276.103 327.333 275.363 325.866C274.193 323.546 273.149 321.127 272.137 318.787C271.331 316.91 270.518 315.033 269.639 313.189C269.15 312.164 268.278 311.232 267.557 310.955C262.389 308.985 257.114 307.24 252.633 305.799C250.782 305.204 250.042 304.173 250.082 302.224C250.181 296.533 250.181 291.444 250.075 286.672C250.016 284.206 251.371 283.42 252.844 282.944C257.564 281.404 262.613 279.725 267.504 277.861C268.264 277.577 269.163 276.658 269.652 275.693C271.774 271.45 273.816 267.061 275.707 262.646C276.05 261.846 276.09 260.643 275.793 259.969C273.618 254.992 271.285 250.207 269.295 246.175C268.496 244.563 268.304 243.168 269.963 241.602C273.354 238.396 276.949 234.801 280.961 230.61C282.303 229.209 283.559 228.991 285.29 229.857C287.478 230.954 289.692 232.005 291.893 233.062C294.286 234.206 296.672 235.349 299.045 236.539C300.234 237.134 301.021 237.147 302.296 236.559C306.315 234.715 310.598 233.003 315.026 231.463C316.401 230.987 316.976 230.438 317.386 229.229C318.192 226.856 319.058 224.496 319.924 222.137C320.724 219.969 321.517 217.801 322.27 215.613C322.951 213.624 324.061 212.837 326.031 212.87C331.537 212.989 336.626 212.989 341.576 212.864C343.837 212.844 344.703 213.935 345.291 215.633C347.188 221.198 348.748 225.448 350.354 229.42C350.625 230.095 351.51 230.894 352.416 231.278C356.798 233.135 361.306 234.9 365.813 236.519C366.527 236.777 367.624 236.731 368.351 236.4C372.588 234.503 377.181 232.329 382.377 229.751C384.016 228.938 385.232 229.143 386.468 230.425C388.067 232.091 389.693 233.736 391.312 235.376C393.474 237.557 395.635 239.744 397.73 241.985C398.556 242.864 398.695 244.688 398.259 245.673C397.129 248.205 395.939 250.703 394.749 253.208C393.632 255.554 392.522 257.901 391.451 260.273C391.2 260.829 391.213 261.827 391.471 262.54C393.381 267.749 395.034 271.919 396.646 275.667C397.049 276.599 397.942 277.544 398.722 277.861C403.547 279.837 408.477 281.576 412.238 282.878C414.214 283.558 414.994 284.656 414.954 286.652C414.855 291.576 414.855 296.658 414.954 302.204C414.988 304.114 414.241 305.198 412.449 305.819C408.642 307.141 403.639 308.912 398.669 310.922C397.909 311.226 397.063 312.105 396.726 312.918C395.001 317.128 393.309 321.616 391.564 326.632C391.346 327.26 391.425 328.265 391.742 328.972C392.747 331.193 393.798 333.394 394.849 335.595C396.032 338.08 397.221 340.565 398.338 343.07C398.801 344.101 398.722 345.958 397.929 346.804C394.756 350.182 391.425 353.526 388.213 356.771L385.258 359.759C384.987 360.03 384.591 360.102 384.247 359.937L380.063 357.954C376.018 356.038 372.205 354.227 368.272 352.475C367.657 352.204 366.56 352.231 365.787 352.548C361.074 354.451 356.553 356.414 352.33 358.384C351.464 358.787 350.605 359.64 350.327 360.36C348.596 364.908 346.923 369.699 345.218 375C344.63 376.97 343.592 377.77 341.682 377.77Z" fill="black"/>
<path d="M140.034 315.158C140.034 315.158 129.485 313.658 127.496 315.647C127.496 315.647 125.42 324.815 124.469 325.865C124.469 325.865 124.997 326.804 122.929 325.865C120.866 324.927 113.57 326.255 113.57 326.255L111.58 337.525L104.032 348.576C104.032 348.576 110.007 351.47 114.442 350.796C114.442 350.796 115.962 350.453 115.434 352.277C114.898 354.101 112.248 364.709 112.248 364.709C112.248 364.709 116.888 373.989 117.549 373.989C118.209 373.989 120.86 375.317 122.188 375.978C123.517 376.639 126.828 376.639 128.157 376.639C129.485 376.639 134.786 376.639 134.786 375.311C134.786 373.982 137.436 370.671 136.775 369.342C136.114 368.014 133.464 360.063 133.464 360.063L132.902 358.602L134.066 353.255C134.066 353.255 133.854 351.933 135.982 353.017C138.104 354.094 145.844 355.74 148.573 349.93C150.041 346.804 145.401 340.836 145.401 340.836L146.894 335.601L150.702 322.937L150.041 314.319C150.041 314.319 143.411 310.34 142.75 310.34C142.083 310.346 137.985 311.358 140.034 315.158Z" fill="white"/>
<path d="M148.732 327.214C148.732 327.214 156.287 320.796 153.306 313.341C151.224 308.132 145.322 305.905 139.413 304.107C133.504 302.309 128.56 302.105 124.72 303.268C120.88 304.425 117.424 308.536 117.424 308.536C117.424 308.536 112.585 307.227 110.147 310.221C107.708 313.208 105.513 317.895 105.408 322.019C105.308 326.143 106.974 328.747 104.588 331.629C102.202 334.511 98.8179 339.547 99.6639 343.486C100.51 347.426 104.39 349.369 110.028 350.453C115.665 351.537 120.266 351.18 122.586 348.847C124.899 346.513 125.646 343.962 123.299 340.301C123.299 340.301 119.644 341.827 118.435 336.837C118.435 336.837 113.372 334.464 114.912 329.243C116.452 324.022 122.804 325.317 123.993 326.817C123.993 326.817 126.525 322.032 127.192 315.621C127.192 315.621 133.075 313.552 139.347 315.224C145.626 316.91 150.682 320.796 148.732 327.214Z" fill="#282828"/>
<path d="M132.916 358.556L132.592 359.964C132.592 359.964 133.901 374.042 130.881 374.095C127.86 374.147 120.649 368.291 117.913 364.167C115.17 360.043 113.894 359.289 113.894 359.289V358.344C113.894 358.344 105.89 357.346 98.263 359.785C90.6423 362.231 84.9318 366.368 76.399 383.539C67.8662 400.717 66.6236 412.601 65.3414 417.406C64.0591 422.211 61.3096 438.96 62.0168 444.082C62.724 449.204 68.8047 473.891 86.5907 478.081H166.38L165.455 463.54C165.455 463.54 177.001 465.926 186.81 450.625C196.618 435.325 196.803 428.847 196.803 428.847C196.803 428.847 186.585 430.949 182.567 429.065C178.541 427.182 170.868 384.557 170.868 384.557C170.868 384.557 166.486 360.664 132.916 358.556Z" fill="#4A7EFF"/>
<path d="M195.085 403.051L199.275 393.672C199.275 393.672 199.612 388.008 194.714 386.996L123.28 392.826C123.28 392.826 119.261 393.11 117.569 398.041L93.8873 447.949C93.8873 447.949 91.9111 455.569 99.1021 456.481L169.949 450.13C169.949 450.13 172.983 450.057 174.39 446.534L195.085 403.051Z" fill="#282828"/>
<path d="M195.329 386.811L191.35 383.546H187.563L125.745 389.164C125.745 389.164 118.342 389.448 116.796 390.783C115.242 392.125 111.435 399.944 109.254 404.809C107.067 409.673 90.0076 445.338 90.0076 445.338C90.0076 445.338 89.0228 448.372 90.7148 450.202L93.6362 453.13C93.6362 453.13 92.8298 450.275 94.0989 447.592C95.3679 444.915 119.473 394.439 119.473 394.439C119.473 394.439 122.572 392.958 127.159 392.674C131.74 392.39 192.93 386.798 192.93 386.798H195.329V386.811Z" fill="white"/>
<path d="M148.263 422.562C146.504 425.609 146.703 429.019 148.705 430.182C150.715 431.339 153.768 429.806 155.526 426.759C157.284 423.712 157.086 420.301 155.084 419.138C153.074 417.981 150.021 419.515 148.263 422.562Z" fill="white"/>
<path d="M125.057 337.425C125.057 339.21 123.609 340.657 121.825 340.657C120.04 340.657 118.593 339.21 118.593 337.425C118.593 335.641 120.04 334.193 121.825 334.193C123.609 334.193 125.057 335.641 125.057 337.425Z" fill="white"/>
<path d="M145.982 341.847C145.982 341.847 151.997 348.457 146.769 352.508C141.541 356.56 134.185 353.044 134.185 353.044L134.846 351.16C134.846 351.16 139.922 351.437 141.785 349.448C143.656 347.465 145.982 341.847 145.982 341.847Z" fill="#282828"/>
<path d="M148.732 327.214C148.732 327.214 156.287 320.796 153.312 313.341C151.23 308.132 145.328 305.905 139.419 304.107C139.294 304.068 139.175 304.041 139.056 304.008C141.957 305.568 144.489 307.643 145.064 310.274C145.672 313.089 142.75 314.491 139.102 315.171C139.188 315.191 139.274 315.211 139.36 315.231C145.625 316.903 150.682 320.796 148.732 327.214Z" fill="white"/>
<path d="M123.299 340.3C123.299 340.3 121.792 340.922 120.391 340.049C120.993 342.594 120.755 350.492 105.302 348.979C105.857 349.111 109.439 350.334 110.034 350.453C115.672 351.537 120.272 351.18 122.592 348.847C124.905 346.513 125.646 343.962 123.299 340.3Z" fill="white"/>
<path d="M145.983 341.847C145.983 341.847 145.467 343.09 144.727 344.603C145.368 347.036 146.148 353.136 136.67 353.909C139.281 354.603 143.445 355.079 146.769 352.508C151.997 348.45 145.983 341.847 145.983 341.847Z" fill="white"/>
<path d="M198.614 395.589L195.085 403.057C195.085 403.057 191.245 403.784 187.986 404.069C184.728 404.353 180.736 403.071 179.268 406.884C177.801 410.698 180.127 412.172 180.127 412.172C180.127 412.172 175.21 417.261 179.493 420.427C179.493 420.427 174.523 424.234 179.863 427.565C185.204 430.896 195.389 429.37 197.775 428.517C200.161 427.671 204.371 424.406 204.959 416.468C205.547 408.53 205.475 404.34 204.14 401.729C202.811 399.118 198.614 395.589 198.614 395.589Z" fill="white"/>
<path d="M166.631 464.135C166.227 464.135 165.831 464.122 165.428 464.102C165.124 464.082 164.886 463.818 164.899 463.514C164.919 463.21 165.19 463.012 165.487 462.985C167.331 463.097 169.208 462.939 171.085 462.536C182.487 460.077 191.945 443.765 196.261 428.695C196.347 428.398 196.644 428.226 196.955 428.312C197.246 428.398 197.417 428.702 197.338 428.999C192.93 444.393 183.174 461.068 171.317 463.62C169.757 463.97 168.184 464.135 166.631 464.135Z" fill="black"/>
<path d="M91.1047 472.82C89.6175 472.82 88.0775 472.661 86.478 472.311C86.1806 472.245 85.9889 471.948 86.055 471.644C86.1211 471.346 86.3855 471.148 86.716 471.221C101.931 474.552 111.911 459.727 114.614 455.107C114.766 454.842 115.11 454.75 115.375 454.908C115.639 455.067 115.731 455.404 115.573 455.675C113.061 459.971 104.416 472.82 91.1047 472.82Z" fill="black"/>
<path d="M61.7453 444.651C61.4479 444.651 61.1967 444.413 61.1901 444.115C61.0778 441.346 61.2628 439.185 61.5999 436.594C66.2992 400.341 74.7263 385.37 82.1685 372.158C90.9789 356.514 108.719 357.201 113.96 357.789C114.264 357.822 114.489 358.1 114.449 358.404C114.416 358.715 114.158 358.953 113.834 358.893C108.778 358.318 91.62 357.65 83.1401 372.7C75.7507 385.827 67.3766 400.698 62.7103 436.732C62.3798 439.264 62.1947 441.372 62.3071 444.062C62.3203 444.373 62.0824 444.631 61.7717 444.644C61.7585 444.651 61.7519 444.651 61.7453 444.651Z" fill="black"/>
<path d="M170.867 385.126C170.629 385.126 170.411 384.974 170.332 384.736C165.051 367.842 152.169 362.918 141.528 360.519C141.482 360.512 135.692 359.329 132.876 359.118C132.572 359.098 132.341 358.827 132.361 358.516C132.387 358.212 132.658 357.954 132.962 358.001C135.844 358.219 141.521 359.376 141.766 359.422C152.704 361.887 165.95 366.957 171.403 384.399C171.495 384.69 171.33 385.007 171.032 385.099C170.98 385.119 170.927 385.126 170.867 385.126Z" fill="black"/>
<path d="M136.967 351.927C135.87 351.927 134.667 351.748 133.266 351.378C131.448 350.902 128.805 350.103 126.987 349.395C126.696 349.283 126.557 348.959 126.67 348.675C126.782 348.391 127.113 348.252 127.39 348.358C129.168 349.052 131.766 349.832 133.55 350.301C135.355 350.777 136.776 350.915 138.038 350.744C140.1 350.466 141.7 349.217 142.909 346.93C143.993 344.901 144.793 342.535 145.434 339.481C145.474 339.336 148.593 327.432 148.421 322.521C148.408 322.211 148.653 321.953 148.957 321.946C149.221 321.96 149.525 322.178 149.538 322.482C149.717 327.551 146.657 339.237 146.525 339.732C145.87 342.865 145.037 345.324 143.901 347.452C142.506 350.083 140.642 351.517 138.19 351.847C137.8 351.9 137.39 351.927 136.967 351.927Z" fill="black"/>
<path d="M118.435 337.399C118.375 337.399 118.316 337.393 118.256 337.366C115.137 336.295 113.365 333.063 114.132 329.858C114.529 328.205 115.547 326.804 116.994 325.912C118.442 325.02 120.153 324.749 121.812 325.145C123.055 325.443 124.165 326.097 125.025 327.035C125.229 327.26 125.216 327.617 124.991 327.822C124.76 328.034 124.41 328.014 124.198 327.789C123.491 327.016 122.572 326.48 121.548 326.236C120.193 325.912 118.772 326.13 117.569 326.87C116.373 327.604 115.533 328.761 115.209 330.129C114.575 332.779 116.029 335.443 118.607 336.322C118.898 336.421 119.056 336.738 118.957 337.029C118.878 337.254 118.666 337.399 118.435 337.399Z" fill="black"/>
<path d="M118.56 334.59C118.362 334.59 118.164 334.484 118.064 334.293C117.919 334.022 118.025 333.685 118.296 333.539L122.03 331.57L118.825 328.199C118.606 327.974 118.62 327.624 118.844 327.412C119.069 327.201 119.426 327.214 119.631 327.432L123.352 331.338C123.478 331.464 123.53 331.642 123.497 331.814C123.471 331.986 123.365 332.138 123.207 332.217L118.818 334.531C118.732 334.57 118.646 334.59 118.56 334.59Z" fill="black"/>
<path d="M100.484 423.884C100.034 423.778 99.8622 423.474 99.9481 423.176C104.046 408.708 103.689 387.155 103.682 386.937C103.676 386.626 103.92 386.375 104.231 386.368C104.548 386.368 104.793 386.613 104.799 386.917C104.806 387.135 105.17 408.854 101.025 423.48C100.953 423.725 100.728 423.884 100.484 423.884Z" fill="black"/>
<path d="M137.516 343.5C136.287 343.5 135.282 343.143 134.529 342.442C133.015 341.028 133.114 338.747 133.121 338.655C133.134 338.357 133.385 338.126 133.676 338.126C134.013 338.139 134.251 338.404 134.231 338.714C134.231 338.734 134.158 340.585 135.289 341.636C135.969 342.264 136.961 342.501 138.256 342.343C138.56 342.323 138.838 342.521 138.878 342.832C138.917 343.136 138.699 343.414 138.388 343.453C138.084 343.48 137.794 343.5 137.516 343.5Z" fill="black"/>
<path d="M99.4722 457.043C97.3175 457.043 95.3413 456.019 94.0855 454.221C92.7174 452.258 92.5059 449.793 93.5303 447.631L104.495 424.426C104.628 424.142 104.958 424.029 105.242 424.161C105.52 424.294 105.639 424.624 105.507 424.902L94.5416 448.107C93.6889 449.905 93.8608 451.954 95.0042 453.587C96.1411 455.219 97.9983 456.092 99.9878 455.907L169.446 449.674C171.376 449.502 173.088 448.306 173.908 446.554L182.064 429.303C182.196 429.026 182.527 428.9 182.811 429.039C183.088 429.171 183.207 429.502 183.075 429.779L174.919 447.03C173.921 449.138 171.865 450.573 169.546 450.784L100.087 457.01C99.882 457.03 99.6771 457.043 99.4722 457.043Z" fill="black"/>
<path d="M110.807 412.925C110.728 412.925 110.642 412.912 110.569 412.872C110.292 412.74 110.173 412.41 110.305 412.132L117.807 396.263C118.805 394.154 120.86 392.72 123.18 392.509L192.639 386.282C194.985 386.078 197.266 387.109 198.634 389.072C200.002 391.035 200.213 393.5 199.189 395.668L195.587 403.289C195.455 403.566 195.111 403.685 194.84 403.553C194.562 403.421 194.443 403.09 194.575 402.813L198.178 395.192C199.03 393.394 198.858 391.345 197.715 389.713C196.585 388.087 194.767 387.208 192.738 387.393L123.279 393.619C121.349 393.791 119.638 394.987 118.811 396.739L111.31 412.608C111.217 412.806 111.019 412.925 110.807 412.925Z" fill="black"/>
<path d="M95.487 455.516C95.3482 455.516 95.2028 455.464 95.097 455.358L90.2721 450.592C89.089 448.577 88.9965 446.349 89.935 444.366L114.205 393.004C115.203 390.896 117.258 389.462 119.578 389.25L189.037 383.017C190.015 382.938 190.967 383.05 191.859 383.368C191.919 383.388 191.972 383.421 192.025 383.46L197.068 387.485C197.306 387.677 197.345 388.027 197.154 388.272C196.955 388.516 196.612 388.55 196.367 388.358L191.397 384.392C190.676 384.148 189.916 384.055 189.136 384.128L119.678 390.361C117.754 390.532 116.042 391.729 115.216 393.48L90.9463 444.842C90.173 446.468 90.2391 448.292 91.1115 449.852L95.8769 454.565C96.095 454.783 96.1017 455.133 95.8835 455.351C95.7712 455.457 95.6258 455.516 95.487 455.516Z" fill="black"/>
<path d="M123.993 327.379C123.867 327.379 123.742 327.34 123.636 327.254C123.398 327.055 123.365 326.705 123.563 326.467C125.526 324.088 126.63 315.641 126.643 315.555C126.67 315.33 126.835 315.145 127.053 315.086C127.225 315.039 144.423 310.657 149.499 322.27C149.624 322.554 149.492 322.878 149.208 323.004C148.93 323.123 148.6 322.997 148.474 322.713C144.178 312.858 130.126 315.529 127.694 316.077C127.45 317.822 126.359 324.828 124.422 327.168C124.31 327.313 124.151 327.379 123.993 327.379Z" fill="black"/>
<path d="M115.586 351.563C114.376 351.563 113.061 351.464 111.627 351.259C106.874 350.598 101.204 349.329 99.5313 345.397C99.0621 344.299 99.0554 343.096 99.0951 342.29C99.2669 338.767 100.609 335.33 102.777 332.858L103.2 332.383C104.892 330.479 106.121 329.098 105.394 326.441C104.059 321.523 105.209 315.376 108.176 311.483C109.935 309.183 112.122 307.967 114.508 307.967H117.423C117.727 307.967 117.978 308.218 117.978 308.522C117.978 308.833 117.727 309.078 117.423 309.078H114.508C111.95 309.078 110.133 310.75 109.062 312.151C106.332 315.72 105.242 321.603 106.471 326.137C107.35 329.375 105.81 331.107 104.026 333.11L103.609 333.579C101.6 335.859 100.358 339.045 100.205 342.323C100.172 343.024 100.172 344.055 100.549 344.941C102.003 348.358 107.317 349.508 111.779 350.136C117.146 350.896 120.748 350.195 122.519 348.087C124.898 345.251 124.376 342.257 122.896 340.671C122.684 340.446 122.697 340.096 122.922 339.884C123.147 339.679 123.504 339.686 123.709 339.911C125.52 341.841 126.194 345.449 123.378 348.807C121.845 350.644 119.234 351.563 115.586 351.563Z" fill="black"/>
<path d="M166.386 478.187C166.108 478.187 165.864 477.982 165.83 477.698C164.244 465.265 164.403 450.771 164.403 450.625C164.409 450.321 164.654 450.077 164.958 450.077C165.249 450.11 165.52 450.328 165.513 450.639C165.513 450.784 165.355 465.206 166.934 477.559C166.974 477.863 166.756 478.147 166.452 478.18C166.432 478.187 166.412 478.187 166.386 478.187Z" fill="black"/>
<path d="M141.178 354.564C138.64 354.564 136.076 353.969 134.37 353.249C134.086 353.13 133.954 352.799 134.073 352.515C134.199 352.224 134.522 352.099 134.807 352.218C138.177 353.652 145.706 354.617 147.827 350.413C149.929 346.249 145.778 342.416 145.606 342.257C145.375 342.046 145.362 341.695 145.567 341.471C145.772 341.239 146.129 341.226 146.353 341.431C146.4 341.477 151.31 345.985 148.825 350.922C147.457 353.645 144.331 354.564 141.178 354.564Z" fill="black"/>
<path d="M189.295 430.394C187.814 430.394 186.254 430.301 184.642 430.116C181.225 429.72 176.367 427.261 176.81 423.236C176.955 421.874 177.748 420.711 178.971 420.037C179.242 419.892 179.579 419.984 179.731 420.262C179.876 420.533 179.777 420.87 179.506 421.022C178.601 421.511 178.026 422.363 177.913 423.362C177.543 426.752 182.196 428.715 184.767 429.013C193.373 430.004 199.011 428.147 200.789 425.867C202.124 424.161 203.128 421.914 203.855 419.006C204.959 414.578 205.283 409.667 204.754 405.172C204.199 400.42 198.336 396.078 198.284 396.038C198.032 395.853 197.98 395.509 198.158 395.258C198.343 395.007 198.693 394.954 198.938 395.139C199.196 395.331 205.25 399.819 205.865 405.047C206.413 409.739 206.096 414.664 204.939 419.284C204.179 422.344 203.109 424.723 201.674 426.561C199.751 429.006 195.118 430.394 189.295 430.394Z" fill="black"/>
<path d="M185.012 413.817C184.397 413.817 183.888 413.791 183.545 413.745L183.148 413.692C181.905 413.527 180.022 413.282 179.202 411.96C178.25 410.433 178.019 408.669 178.574 407.122C179.037 405.833 180.022 404.782 181.489 403.989C182.745 403.308 184.067 403.381 185.356 403.454C185.646 403.474 185.937 403.487 186.221 403.493C197.101 403.758 199.11 401.425 199.123 401.398C199.315 401.167 199.658 401.114 199.896 401.293C200.134 401.471 200.194 401.801 200.029 402.053C199.824 402.343 197.702 404.895 186.188 404.61C185.891 404.604 185.587 404.584 185.283 404.571C184.093 404.505 182.989 404.439 182.005 404.967C180.782 405.628 179.982 406.481 179.612 407.499C179.169 408.722 179.361 410.136 180.134 411.372C180.676 412.244 182.242 412.456 183.28 412.588L183.697 412.648C186.102 413.005 196.73 411.854 197.662 411.491C197.953 411.392 198.27 411.524 198.383 411.808C198.495 412.099 198.356 412.423 198.066 412.529C197.015 412.932 188.852 413.817 185.012 413.817Z" fill="black"/>
<path d="M159.419 386.792C159.115 386.792 158.864 386.54 158.864 386.236V384.042C158.864 383.731 159.115 383.487 159.419 383.487C159.723 383.487 159.975 383.738 159.975 384.042V386.236C159.975 386.54 159.723 386.792 159.419 386.792Z" fill="black"/>
<path d="M187.008 422.396C185.527 422.396 184.047 422.344 182.672 422.205C179.837 421.914 176.922 420.01 177.226 416.501C177.378 414.815 178.508 413.018 180.114 411.927C180.359 411.749 180.716 411.815 180.888 412.072C181.059 412.33 180.993 412.674 180.742 412.846C179.42 413.745 178.455 415.252 178.336 416.6C178.098 419.356 180.471 420.863 182.785 421.094C189.189 421.755 198.033 420.513 198.125 420.5C198.422 420.44 198.713 420.671 198.76 420.975C198.799 421.279 198.588 421.564 198.284 421.603C198.211 421.61 192.593 422.396 187.008 422.396Z" fill="black"/>
<path d="M149.049 427.856C148.408 427.856 147.813 427.704 147.271 427.393C145.004 426.085 144.707 422.324 146.617 419.013C148.527 415.708 151.924 414.069 154.205 415.384C156.472 416.699 156.769 420.453 154.852 423.765C153.947 425.331 152.684 426.58 151.303 427.274C150.536 427.658 149.77 427.856 149.049 427.856ZM147.589 419.568C145.989 422.344 146.095 425.424 147.833 426.422C148.626 426.884 149.684 426.838 150.807 426.276C151.997 425.682 153.094 424.584 153.894 423.203C155.474 420.473 155.361 417.334 153.656 416.349C151.918 415.351 149.195 416.785 147.589 419.568Z" fill="black"/>
<path d="M130.292 374.742C125.21 374.742 114.694 361.246 113.458 359.627C113.359 359.494 113.319 359.323 113.359 359.164L115.262 350.829C115.335 350.525 115.633 350.34 115.93 350.406C116.227 350.473 116.419 350.777 116.353 351.074L114.509 359.157C119.294 365.357 127.801 374.604 130.715 373.566C132.659 372.892 132.612 365.516 131.951 360.492C131.945 360.426 131.945 360.36 131.965 360.294L134.066 351.127C134.139 350.823 134.436 350.638 134.734 350.71C135.031 350.777 135.223 351.081 135.157 351.378L133.075 360.446C133.379 362.832 134.542 373.421 131.085 374.623C130.828 374.703 130.563 374.742 130.292 374.742Z" fill="black"/>
<path d="M146.2 328.133C145.764 328.02 145.447 328.179 145.163 329.765C144.846 331.53 145.275 331.893 145.678 331.913C146.082 331.933 146.531 331.424 146.637 330.149C146.742 328.88 146.769 328.285 146.2 328.133Z" fill="black"/>
<path d="M134.766 326.103C134.323 326.004 134.013 326.17 133.775 327.762C133.504 329.54 133.947 329.884 134.35 329.897C134.753 329.911 135.189 329.388 135.262 328.113C135.328 326.837 135.341 326.236 134.766 326.103Z" fill="black"/>
<path d="M148.448 328.78C148.296 328.78 148.131 328.714 148.025 328.589C147.827 328.357 147.853 328 148.085 327.802C150.999 325.297 153.967 319.996 153.571 316.394C152.89 310.241 146.644 306.037 134.482 303.559C122.956 301.193 117.972 308.245 117.761 308.542C117.582 308.8 117.232 308.859 116.987 308.688C116.736 308.516 116.663 308.165 116.842 307.914C116.895 307.828 122.387 299.95 134.714 302.462C147.411 305.052 153.941 309.567 154.681 316.269C155.124 320.281 152.004 325.905 148.812 328.648C148.706 328.741 148.574 328.78 148.448 328.78Z" fill="black"/>
<path d="M121.825 341.213C119.737 341.213 118.038 339.514 118.038 337.425C118.038 335.337 119.737 333.638 121.825 333.638C123.914 333.638 125.613 335.337 125.613 337.425C125.613 339.514 123.914 341.213 121.825 341.213ZM121.825 334.755C120.351 334.755 119.148 335.958 119.148 337.425C119.148 338.899 120.351 340.102 121.825 340.102C123.299 340.102 124.496 338.899 124.496 337.425C124.502 335.951 123.299 334.755 121.825 334.755Z" fill="black"/>
<path d="M130.92 324.398C130.781 324.398 130.636 324.345 130.53 324.24C130.312 324.022 130.305 323.671 130.524 323.453C130.557 323.42 133.815 320.155 138.395 322.442C138.673 322.581 138.779 322.918 138.64 323.189C138.501 323.466 138.164 323.572 137.893 323.44C134.073 321.523 131.429 324.121 131.323 324.233C131.211 324.339 131.066 324.398 130.92 324.398Z" fill="black"/>
<path d="M148.587 327.148C148.362 327.148 148.151 327.016 148.065 326.791C147.338 324.927 145.295 325.013 145.249 325.013C144.958 325.059 144.681 324.788 144.668 324.484C144.654 324.173 144.892 323.916 145.203 323.902C146.128 323.863 148.303 324.312 149.102 326.388C149.215 326.678 149.076 326.996 148.785 327.108C148.719 327.135 148.653 327.148 148.587 327.148Z" fill="black"/>
<path d="M132.923 389.164C132.645 389.23 132.361 388.913 132.367 388.602C132.407 385.126 130.616 378.397 130.596 378.331C130.517 378.034 130.695 377.73 130.993 377.651C131.316 377.565 131.601 377.75 131.68 378.047C131.753 378.331 133.524 384.994 133.484 388.616C133.471 388.92 133.227 389.164 132.923 389.164Z" fill="black"/>
<path d="M140.047 339.666C139.743 339.666 139.492 339.415 139.492 339.111C139.492 338.8 139.743 338.556 140.047 338.556C142.361 338.556 143.788 336.685 144.317 335.832C143.041 334.947 141.323 333.579 141.323 332.627C141.323 331.675 142.599 326.044 142.751 325.403C142.823 325.099 143.127 324.907 143.418 324.98C143.716 325.046 143.907 325.343 143.841 325.647C143.299 328.014 142.447 331.999 142.447 332.627C142.519 332.997 143.887 334.207 145.375 335.191C145.606 335.343 145.685 335.641 145.566 335.892C145.487 336.051 143.742 339.666 140.047 339.666Z" fill="black"/>
<path d="M332.541 337.022C355.571 337.022 374.24 318.353 374.24 295.323C374.24 272.294 355.571 253.624 332.541 253.624C309.511 253.624 290.842 272.294 290.842 295.323C290.842 318.353 309.511 337.022 332.541 337.022Z" fill="white"/>
<path fill-rule="evenodd" clip-rule="evenodd" d="M332.541 254.624C310.063 254.624 291.842 272.846 291.842 295.323C291.842 317.801 310.063 336.022 332.541 336.022C355.018 336.022 373.24 317.801 373.24 295.323C373.24 272.846 355.018 254.624 332.541 254.624ZM289.842 295.323C289.842 271.741 308.959 252.624 332.541 252.624C356.123 252.624 375.24 271.741 375.24 295.323C375.24 318.905 356.123 338.022 332.541 338.022C308.959 338.022 289.842 318.905 289.842 295.323Z" fill="black"/>
<path d="M325.713 301.272H352.204V311.497H319.738L325.713 301.272Z" fill="url(#paint0_linear)"/>
<path d="M349.824 301.272L333.426 272.864L324.569 277.98L338.013 301.272H349.824Z" fill="url(#paint1_linear)"/>
<path d="M352.204 311.497C355.029 311.497 357.319 309.206 357.319 306.381C357.319 303.556 355.029 301.265 352.204 301.265C349.378 301.265 347.088 303.556 347.088 306.381C347.088 309.206 349.378 311.497 352.204 311.497Z" fill="#1D1D1B"/>
<path d="M329.197 280.888C332.022 280.888 334.312 278.598 334.312 275.772C334.312 272.947 332.022 270.657 329.197 270.657C326.371 270.657 324.081 272.947 324.081 275.772C324.081 278.598 326.371 280.888 329.197 280.888Z" fill="#1D1D1B"/>
<path d="M309.48 308.939L325.964 280.393L331.867 290.617L318.337 314.054L309.48 308.939Z" fill="url(#paint2_linear)"/>
<path d="M313.909 316.612C316.734 316.612 319.024 314.322 319.024 311.497C319.024 308.671 316.734 306.381 313.909 306.381C311.083 306.381 308.793 308.671 308.793 311.497C308.793 314.322 311.083 316.612 313.909 316.612Z" fill="#1D1D1B"/>
<path d="M516.389 367.822L505.973 351.371L504.565 349.151C503.726 347.822 502.285 347.029 500.712 347.029H472.595C470.91 347.029 469.416 347.915 468.603 349.389C467.79 350.869 467.843 352.601 468.749 354.028L480.566 372.707C481.406 374.035 482.846 374.828 484.42 374.828H497.962H500.956H512.536C514.222 374.828 515.715 373.949 516.528 372.469C517.348 370.982 517.295 369.243 516.389 367.822Z" fill="#4A7EFF"/>
<path d="M581.942 320.096C581.942 320.096 584.328 319.263 587.276 320.096C590.224 320.928 591.209 322.918 591.447 325.932C591.685 328.946 589.114 332.951 583.159 331.484C583.159 331.484 573.998 332.713 571.691 337.201C569.384 341.689 569.371 342.416 569.371 342.416C569.371 342.416 567.633 349.217 570.178 352.588C570.178 352.588 559.827 354.029 558.175 357.822C558.175 357.822 552.358 355.879 550.27 355.278C548.181 354.676 545.511 351.563 543.522 349.422C541.526 347.28 537.818 343.956 537.791 342.812C537.765 341.669 538.102 339.845 539.457 339.508C540.812 339.17 543.555 339.329 546.463 342.72C549.371 346.11 551.255 347.029 551.36 346.381C551.466 345.734 547.454 341.015 543.832 338.159C540.217 335.304 534.843 331.114 534.057 330.195C533.27 329.276 534.414 326.725 535.544 326.203C536.668 325.681 538.399 325.291 541.486 327.551C544.573 329.812 547.025 331.775 547.025 331.775C547.025 331.775 551.208 328.331 555.914 331.1C555.914 331.1 557.818 329.613 560.363 330.684L560.693 328.913C560.693 328.913 556.344 325.006 556.522 323.533C556.701 322.059 563.826 317.022 563.826 317.022L565.32 305.859C565.32 305.859 567.666 312.607 573.727 316.546C579.781 320.492 581.942 320.096 581.942 320.096Z" fill="white"/>
<path d="M469.753 365.238C469.753 365.238 466.151 367.498 467.374 371.484C467.374 371.484 463.844 373.513 465.47 379.442C467.089 385.37 469.211 390.248 473.23 394.24C477.248 398.232 483.388 401.484 483.805 402.905C483.805 402.905 486.997 399.422 492.1 395.628C497.195 391.834 501.075 389.997 501.075 389.997C501.075 389.997 493.316 377.558 491.862 374.187C490.408 370.81 488.101 365.932 484.704 366.824C481.306 367.717 481.921 371.378 482.932 374.121C483.943 376.864 486.838 382.251 483.805 382.846C480.771 383.44 478.577 377.703 478.577 377.703C478.577 377.703 477.433 377.247 475.008 373.044C472.582 368.847 469.753 365.529 469.753 365.529V365.238Z" fill="white"/>
<path d="M568.736 296.354C574.262 291.087 581.777 292.917 585.861 294.53C589.946 296.149 593.046 297.392 594.757 299.573C594.757 299.573 601.261 301.754 604.414 303.691C607.56 305.627 609.814 309.646 608.849 315.125C607.884 320.604 604.434 325.409 604.434 325.409C604.434 325.409 602.775 328.608 605.048 330.142C607.322 331.675 613.608 335.839 614.011 345.615C614.421 355.39 607.91 360.717 601.149 360.922C594.387 361.134 585.934 358.781 585.425 357.478C585.425 357.478 576.463 361.563 570.924 354.313C565.392 347.062 570.957 336.546 574.288 334.788C577.619 333.03 581.162 333.162 581.162 333.162C581.162 333.162 583.198 331.206 584.321 328.027C584.969 326.196 583.211 322.786 580.831 321.675C579.212 320.915 577.249 320.816 577.249 320.816C577.249 320.816 569.529 318.952 565.55 308.648C565.544 308.641 563.211 301.622 568.736 296.354Z" fill="#4A7EFF"/>
<path d="M608.393 358.49C608.393 358.49 612.392 362.118 614.877 370.922C614.877 370.922 624.831 388.464 628.493 398.88C632.154 409.297 638.426 423.937 632.815 433.811C627.204 443.692 617.038 442.859 614.831 442.159C614.831 442.159 613.939 449.548 614.613 457.546C615.287 465.55 617.151 477.619 617.151 477.619H537.831C537.831 477.619 539.701 469.31 540.21 465.953C540.726 462.602 541.393 456.865 541.393 456.865C541.393 456.865 534.605 461.24 520.382 454.433C506.158 447.631 493.21 427.301 490.263 422.132C487.315 416.964 481.65 405.377 481.65 405.377C481.65 405.377 494.717 391.226 506.753 387.3L529.053 412.092C529.053 412.092 535.061 398.841 539.47 388.979C543.878 379.118 549.853 364.584 556.331 359.521C562.801 354.458 565.405 353.182 570.164 352.594C570.164 352.594 572.881 357.802 577.514 358.503C582.147 359.204 585.419 357.472 585.419 357.472C585.419 357.472 592.808 361.292 599.001 361.028C605.194 360.77 608.393 358.49 608.393 358.49Z" fill="#282828"/>
<path d="M533.792 329.785C533.792 329.785 532.04 332.587 535.92 334.359L538.128 333.658C538.121 333.658 533.494 330.32 533.792 329.785Z" fill="#CCCCCC"/>
<path d="M568.736 296.354C563.211 301.622 565.544 308.641 565.544 308.641C569.529 318.946 577.243 320.809 577.243 320.809C577.243 320.809 577.857 320.842 578.67 321.001C575.742 318.701 570.118 312.964 572.14 303.83C573.766 296.48 578.571 294.101 582.127 293.374C578.049 292.448 572.847 292.442 568.736 296.354Z" fill="white"/>
<path d="M578.816 358.589C565.683 350.823 574.983 336.19 579.834 333.215C578.499 333.334 576.357 333.698 574.295 334.788C570.964 336.546 565.392 347.062 570.931 354.313C573.258 357.36 576.192 358.404 578.816 358.589Z" fill="white"/>
<path d="M515.471 451.544C515.471 451.544 528.908 461.908 541.393 456.865C541.393 456.865 549.146 453.692 551.73 450.672C551.73 450.672 547.494 439.76 534.142 440.116C520.785 440.48 517.255 447.532 515.471 451.544Z" fill="#4A7EFF"/>
<path d="M533.845 458.669C513.548 458.669 492.543 431.789 481.135 405.615C481.056 405.424 481.082 405.205 481.208 405.04C481.254 404.987 485.603 399.35 492.384 394.736C501.393 388.609 506.284 386.772 506.489 386.699C506.694 386.626 506.931 386.673 507.09 386.831C507.354 387.096 533.455 413.328 541.499 429.436C541.638 429.713 541.525 430.057 541.241 430.196C540.957 430.335 540.613 430.222 540.481 429.938C532.959 414.862 509.324 390.698 506.555 387.895C505.306 388.417 500.6 390.533 493.032 395.675C487.229 399.627 483.25 404.326 482.325 405.47C494.182 432.483 516.218 460.117 536.753 457.341C558.578 454.353 567.818 426.098 577.633 389.462C577.712 389.158 578.036 388.986 578.333 389.059C578.637 389.138 578.816 389.449 578.737 389.759C568.809 426.799 559.43 455.384 536.912 458.464C535.881 458.603 534.863 458.669 533.845 458.669Z" fill="black"/>
<path d="M529.371 413.143C529.291 413.143 529.212 413.13 529.139 413.097C528.849 412.971 528.723 412.634 528.855 412.343C531.314 406.891 533.581 401.497 535.769 396.296C545.775 372.489 553.68 353.685 569.622 352.277C569.926 352.224 570.211 352.475 570.237 352.792C570.264 353.103 570.039 353.381 569.722 353.407C554.46 354.755 546.681 373.288 536.82 396.739C534.625 401.953 532.358 407.347 529.893 412.813C529.794 413.024 529.589 413.143 529.371 413.143Z" fill="black"/>
<path d="M501.068 390.182C500.903 390.182 500.738 390.109 500.625 389.97C500.599 389.931 499.852 389.005 496.19 383.639C494.703 381.451 493.52 379.408 492.582 377.386C492.132 376.428 491.742 375.443 491.352 374.458C490.797 373.07 490.229 371.629 489.501 370.314C489.283 369.911 489.045 369.514 488.788 369.131C488.259 368.344 487.796 367.855 487.281 367.525C486.607 367.102 485.734 367.042 484.888 367.353C483.956 367.697 483.203 368.45 482.938 369.309C482.515 370.671 483.011 372.317 483.513 373.757C483.784 374.537 484.102 375.291 484.412 376.051C484.762 376.904 485.126 377.789 485.43 378.688C485.463 378.787 485.509 378.9 485.556 379.025C485.946 379.99 486.864 382.257 483.824 383.718C481.431 384.861 479.799 381.662 478.715 379.554C478.484 379.104 478.272 378.695 478.087 378.384C477.922 378.113 478.008 377.769 478.279 377.604C478.536 377.445 478.893 377.525 479.059 377.796C479.257 378.12 479.482 378.556 479.726 379.032C480.85 381.219 482.053 383.301 483.335 382.693C485.41 381.689 484.908 380.446 484.505 379.448C484.445 379.303 484.392 379.164 484.353 379.045C484.062 378.186 483.705 377.32 483.361 376.481C483.037 375.701 482.72 374.921 482.443 374.128C481.881 372.515 481.326 370.658 481.854 368.972C482.231 367.763 483.216 366.765 484.492 366.289C485.668 365.859 486.911 365.958 487.882 366.56C488.728 367.088 489.316 367.875 489.733 368.49C490.01 368.899 490.262 369.322 490.5 369.759C491.26 371.133 491.841 372.607 492.403 374.028C492.786 374.993 493.17 375.958 493.613 376.897C494.525 378.86 495.675 380.856 497.129 382.991C500.731 388.272 501.478 389.217 501.511 389.25C501.709 389.495 501.669 389.851 501.425 390.05C501.319 390.136 501.194 390.182 501.068 390.182Z" fill="black"/>
<path d="M468.034 373.242C467.829 373.242 467.638 373.136 467.532 372.945C467.486 372.852 466.362 370.697 466.996 368.007C467.386 366.328 468.166 365.43 469.587 364.993C469.885 364.894 470.202 365.073 470.295 365.37C470.387 365.668 470.215 365.985 469.918 366.077C469.052 366.342 468.45 366.798 468.107 368.265C467.571 370.539 468.53 372.389 468.543 372.409C468.688 372.687 468.589 373.03 468.312 373.176C468.219 373.222 468.127 373.242 468.034 373.242Z" fill="black"/>
<path d="M475.159 385.383C474.987 385.383 474.815 385.311 474.71 385.165C470.863 380.142 467.552 372.984 467.525 372.911C467.393 372.627 467.519 372.29 467.803 372.158C468.094 372.013 468.424 372.151 468.556 372.436C468.589 372.508 471.848 379.554 475.615 384.471C475.807 384.723 475.761 385.079 475.509 385.271C475.404 385.35 475.278 385.383 475.159 385.383Z" fill="black"/>
<path d="M483.798 403.474C483.646 403.474 483.494 403.414 483.381 403.289C482.192 401.993 481.22 401.438 480.09 400.797C478.642 399.971 476.997 399.039 474.432 396.435C469.528 391.451 465.787 383.586 464.617 378.391C463.289 372.489 467.466 371.18 467.506 371.167C467.803 371.068 468.12 371.246 468.213 371.55C468.305 371.847 468.133 372.165 467.836 372.257C467.704 372.297 464.637 373.308 465.728 378.14C466.858 383.176 470.493 390.803 475.245 395.635C477.697 398.127 479.27 399.019 480.652 399.805C481.815 400.466 482.912 401.088 484.221 402.515C484.432 402.747 484.419 403.103 484.188 403.322C484.069 403.421 483.937 403.474 483.798 403.474Z" fill="black"/>
<path d="M578.241 334.055C577.448 334.055 576.648 333.916 575.861 333.618C574.566 333.123 573.462 332.263 572.676 331.127C572.497 330.869 572.563 330.512 572.821 330.334C573.085 330.155 573.436 330.221 573.614 330.479C574.268 331.431 575.181 332.145 576.265 332.554C579.173 333.658 582.425 332.184 583.515 329.283C584.612 326.381 583.138 323.129 580.243 322.032C578.419 321.338 576.397 321.642 574.843 322.825C574.586 323.017 574.235 322.971 574.044 322.719C573.852 322.468 573.898 322.111 574.149 321.92C576.02 320.492 578.446 320.135 580.647 320.961C584.13 322.277 585.894 326.189 584.586 329.679C583.555 332.389 580.977 334.055 578.241 334.055Z" fill="black"/>
<path d="M578.716 331.034C578.545 331.034 578.366 330.955 578.254 330.803L575.246 326.679C575.141 326.527 575.108 326.335 575.167 326.163C575.227 325.991 575.372 325.852 575.55 325.8L580.679 324.319C580.977 324.24 581.294 324.405 581.387 324.709C581.472 325.006 581.301 325.324 580.997 325.416L576.648 326.672L579.179 330.142C579.364 330.393 579.305 330.75 579.053 330.935C578.948 331.001 578.829 331.034 578.716 331.034Z" fill="black"/>
<path d="M568.835 343.288C565.451 342.977 563.085 341.742 561.75 339.613C559.258 335.648 561.281 330.082 561.366 329.844L565.907 311.252C565.98 310.948 566.297 310.77 566.595 310.836C566.899 310.908 567.084 311.219 567.011 311.523L562.444 330.182C562.404 330.301 560.514 335.529 562.708 339.018C563.852 340.829 565.927 341.887 568.888 342.165C569.199 342.191 569.43 342.469 569.404 342.779C569.377 343.07 569.126 343.288 568.835 343.288Z" fill="black"/>
<path d="M561.189 327.372C560.971 327.372 560.746 327.346 560.528 327.28C559.226 326.91 558.466 325.555 558.829 324.253L561.651 314.193C561.823 313.565 562.24 313.043 562.815 312.719C563.383 312.395 564.037 312.316 564.678 312.495C565.326 312.673 565.782 312.997 566.033 313.446C566.285 313.896 566.324 314.451 566.139 315.099C566.053 315.396 565.756 315.581 565.439 315.489C565.135 315.403 564.963 315.092 565.049 314.788C565.148 314.444 565.148 314.18 565.049 314.002C564.949 313.823 564.725 313.684 564.374 313.585C563.7 313.4 562.953 313.797 562.755 314.497L559.933 324.557C559.741 325.257 560.151 325.984 560.845 326.183C561.175 326.269 561.532 326.236 561.843 326.064C562.154 325.892 562.372 325.608 562.464 325.271C562.55 324.973 562.854 324.788 563.165 324.881C563.462 324.967 563.641 325.277 563.555 325.581C563.383 326.209 562.967 326.731 562.392 327.055C562.015 327.267 561.605 327.372 561.189 327.372Z" fill="black"/>
<path d="M537.83 478.187C537.771 478.187 537.712 478.18 537.652 478.16C537.355 478.061 537.196 477.737 537.295 477.44C538.346 474.314 540.15 463.626 540.838 457.393C540.871 457.083 541.148 456.851 541.466 456.891C541.783 456.924 542.001 457.208 541.968 457.519C541.334 463.263 539.549 474.314 538.379 477.803C538.287 478.041 538.068 478.187 537.83 478.187Z" fill="black"/>
<path d="M618.215 443.342C615.862 443.342 614.434 442.608 614.302 442.536C614.024 442.39 613.919 442.046 614.071 441.769C614.216 441.498 614.56 441.386 614.837 441.538C615.128 441.69 622.121 445.199 631.526 434.584C640.079 424.921 627.64 394.406 614.388 371.2C614.236 370.929 614.328 370.579 614.599 370.42C614.877 370.275 615.221 370.36 615.379 370.631C620.244 379.151 643.925 422.291 632.379 435.331C626.529 441.928 621.48 443.342 618.215 443.342Z" fill="black"/>
<path d="M617.15 478.187C616.886 478.187 616.654 478.008 616.595 477.744C616.549 477.546 612.239 457.916 614.42 436.6C618.988 391.973 617.11 368.06 608.327 359.045C608.108 358.82 608.115 358.457 608.34 358.239C608.564 358.021 608.928 358.021 609.146 358.252C618.307 367.65 620.223 391.121 615.557 436.713C613.396 457.843 617.672 477.301 617.712 477.493C617.778 477.804 617.586 478.101 617.282 478.174C617.229 478.187 617.19 478.187 617.15 478.187Z" fill="black"/>
<path d="M484.611 378.668H480.302C478.709 378.668 477.248 377.862 476.396 376.52L464.572 357.842C463.659 356.394 463.6 354.636 464.426 353.136C465.252 351.636 466.766 350.743 468.478 350.743H496.594C498.187 350.743 499.648 351.55 500.501 352.891L501.908 355.112C502.08 355.377 501.994 355.727 501.73 355.892C501.472 356.064 501.115 355.985 500.95 355.714L499.542 353.493C498.901 352.482 497.797 351.874 496.594 351.874H468.478C467.189 351.874 466.045 352.548 465.424 353.678C464.803 354.808 464.843 356.137 465.53 357.227L477.354 375.906C477.995 376.923 479.099 377.525 480.302 377.525H484.611C484.929 377.525 485.18 377.776 485.18 378.093C485.18 378.411 484.929 378.668 484.611 378.668Z" fill="black"/>
<path d="M508.419 378.668H493.845C493.528 378.668 493.276 378.417 493.276 378.1C493.276 377.783 493.528 377.531 493.845 377.531H508.419C509.714 377.531 510.851 376.857 511.472 375.727C512.093 374.597 512.054 373.268 511.366 372.178L500.95 355.727C500.778 355.463 500.857 355.112 501.128 354.947C501.393 354.788 501.743 354.861 501.908 355.125L512.325 371.576C513.237 373.024 513.296 374.782 512.47 376.282C511.651 377.776 510.13 378.668 508.419 378.668Z" fill="black"/>
<path d="M538.611 334.696H496.092C493.395 334.696 490.924 333.334 489.483 331.061L484.03 321.596C482.49 319.17 482.404 316.196 483.799 313.658C485.193 311.12 487.758 309.606 490.646 309.606H540.911C543.607 309.606 546.079 310.968 547.52 313.248L552.98 322.706C554.401 324.954 554.592 327.657 553.482 330.096C553.356 330.38 553.019 330.512 552.728 330.38C552.444 330.248 552.319 329.911 552.444 329.626C553.396 327.544 553.231 325.238 552.001 323.295L546.542 313.836C545.319 311.907 543.211 310.743 540.904 310.743H490.639C488.167 310.743 485.98 312.039 484.783 314.207C483.587 316.375 483.666 318.919 484.988 321.008L490.441 330.466C491.664 332.396 493.779 333.559 496.079 333.559H538.597C538.915 333.559 539.166 333.81 539.166 334.128C539.179 334.438 538.928 334.696 538.611 334.696Z" fill="black"/>
<path d="M557.956 358.331C557.877 358.331 557.798 358.318 557.719 358.278C557.672 358.258 556.879 357.915 553.535 357.042C547.943 355.582 545.551 352.74 543.237 349.983L542.464 349.078C541.882 348.404 541.155 347.73 540.455 347.075C538.736 345.476 537.11 343.962 537.123 342.164C537.13 341.206 537.606 340.314 538.571 339.448C539.245 338.847 540.085 338.589 540.977 338.615C543.627 338.767 546.469 341.675 547.573 342.918C548.631 344.114 549.529 344.98 550.171 345.515C549.219 344.286 547.282 342.336 545.874 340.928L544.652 339.693C543.323 338.351 540.785 336.447 538.545 334.775C536.423 333.189 534.592 331.821 533.898 331.028C533.092 330.102 533.125 328.523 533.991 327.095C534.737 325.866 536.198 324.722 538.029 325.145C540.825 325.819 544.334 328.873 546.218 330.512C546.516 330.77 546.76 330.988 546.945 331.133C547.454 330.657 548.267 329.891 549.754 329.64C553.092 329.058 554.943 329.917 555.676 330.413C556.258 330.063 557.441 329.501 558.829 329.765C559.569 329.897 560.904 330.3 561.565 330.591C561.856 330.717 561.982 331.054 561.863 331.338C561.737 331.629 561.4 331.755 561.116 331.636C560.534 331.378 559.285 331.001 558.631 330.889C557.216 330.631 556.027 331.55 556.013 331.563C555.782 331.741 555.458 331.722 555.253 331.517C555.24 331.51 553.746 330.122 549.946 330.763C548.796 330.961 548.188 331.53 547.791 331.907C547.494 332.184 547.038 332.601 546.542 332.264C546.37 332.151 545.987 331.827 545.478 331.378C543.792 329.911 540.296 326.87 537.765 326.262C536.522 325.945 535.504 326.804 534.969 327.696C534.381 328.668 534.295 329.759 534.764 330.294C535.385 331.001 537.256 332.402 539.239 333.883C541.512 335.581 544.083 337.505 545.471 338.913L546.694 340.142C549.833 343.295 551.75 345.284 551.889 346.342C551.968 346.97 551.578 347.194 551.459 347.254C551.188 347.379 550.342 347.763 546.74 343.685C544.645 341.318 542.471 339.851 540.931 339.765C540.296 339.726 539.794 339.911 539.351 340.307C538.637 340.948 538.28 341.57 538.274 342.191C538.267 343.486 539.714 344.828 541.248 346.256C541.975 346.93 542.722 347.624 543.343 348.351L544.123 349.27C546.423 352.006 548.598 354.584 553.839 355.958C557.329 356.87 558.135 357.227 558.214 357.267C558.498 357.399 558.624 357.736 558.485 358.027C558.379 358.212 558.175 358.331 557.956 358.331Z" fill="black"/>
<path d="M554.301 339.415C554.116 339.415 553.938 339.329 553.825 339.164C552.061 336.5 546.555 332.29 546.502 332.244C546.251 332.052 546.205 331.695 546.396 331.451C546.581 331.199 546.945 331.153 547.19 331.345C547.421 331.523 552.907 335.72 554.777 338.536C554.949 338.8 554.876 339.151 554.619 339.322C554.519 339.382 554.414 339.415 554.301 339.415Z" fill="black"/>
<path d="M560.977 336.282C560.825 336.282 560.673 336.223 560.561 336.104C558.519 333.909 555.353 331.603 555.32 331.583C555.068 331.398 555.009 331.041 555.194 330.79C555.379 330.538 555.729 330.479 555.987 330.664C556.119 330.763 559.272 333.057 561.394 335.33C561.605 335.562 561.592 335.918 561.367 336.137C561.255 336.229 561.116 336.282 560.977 336.282Z" fill="black"/>
<path d="M538.927 317.029H496.825C496.508 317.029 496.257 316.777 496.257 316.46C496.257 316.143 496.508 315.892 496.825 315.892H538.927C539.245 315.892 539.496 316.143 539.496 316.46C539.496 316.777 539.245 317.029 538.927 317.029Z" fill="black"/>
<path d="M543.165 324.715H501.063C500.745 324.715 500.494 324.464 500.494 324.147C500.494 323.83 500.745 323.579 501.063 323.579H543.165C543.482 323.579 543.733 323.83 543.733 324.147C543.733 324.464 543.482 324.715 543.165 324.715Z" fill="black"/>
<path d="M580.673 359.309C579.907 359.309 579.074 359.243 578.175 359.091C573.238 358.258 568.043 354.339 568.274 345.806C568.525 336.626 576.086 333.004 576.166 332.964C576.437 332.832 576.787 332.951 576.919 333.235C577.051 333.519 576.926 333.856 576.648 333.995C576.364 334.127 569.649 337.373 569.411 345.833C569.147 355.648 576.199 357.604 578.36 357.961C584.93 359.071 587.402 355.271 587.494 355.106C587.66 354.841 588.01 354.762 588.274 354.921C588.539 355.086 588.625 355.436 588.459 355.701C588.367 355.886 586.186 359.309 580.673 359.309Z" fill="black"/>
<path d="M598.796 361.979C593.601 361.979 588.591 360.321 585.954 357.703C585.729 357.478 585.729 357.122 585.947 356.897C586.172 356.672 586.529 356.679 586.753 356.89C589.245 359.369 594.13 360.981 599.153 360.836C603.647 360.763 607.487 359.395 609.682 357.075C612.193 354.418 613.495 349.944 613.257 344.795C613.118 341.801 612.471 339.183 611.334 337.029C610.395 335.231 608.895 334.035 607.315 332.766C606.383 332.019 605.418 331.246 604.559 330.333C603.964 329.699 603.27 328.833 603.211 327.776C603.138 326.474 603.905 325.046 604.52 323.902C604.639 323.678 604.758 323.466 604.857 323.268L605.293 322.409C605.868 321.292 606.463 320.135 606.912 318.952C608.208 315.575 608.584 312.336 608.042 309.335C606.84 302.673 594.586 299.93 594.46 299.904C594.367 299.884 594.275 299.837 594.202 299.771C588.366 294.583 578.115 291.536 571.056 295.409C564.301 299.13 566.013 306.989 566.092 307.319C566.106 307.795 566.132 315.826 578.624 320.565C578.921 320.677 579.067 321.001 578.954 321.298C578.842 321.589 578.518 321.735 578.221 321.629C564.936 316.592 564.962 307.808 564.975 307.438C564.955 307.438 563.019 298.549 570.514 294.418C577.956 290.32 588.697 293.433 594.857 298.826C596.37 299.176 607.897 302.065 609.166 309.13C609.748 312.336 609.345 315.773 607.983 319.355C607.514 320.598 606.906 321.781 606.317 322.924L605.881 323.777C605.775 323.988 605.656 324.206 605.531 324.438C604.982 325.456 604.302 326.725 604.361 327.709C604.401 328.397 604.91 329.025 605.405 329.547C606.212 330.4 607.144 331.153 608.042 331.873C609.649 333.162 611.308 334.491 612.358 336.493C613.568 338.8 614.262 341.576 614.407 344.742C614.559 347.948 614.255 353.909 610.528 357.855C608.122 360.393 603.991 361.894 599.192 361.966C599.04 361.979 598.915 361.979 598.796 361.979Z" fill="black"/>
<path d="M515.801 451.591C515.728 451.591 515.655 451.577 515.583 451.551C515.292 451.432 515.153 451.095 515.272 450.811C518.193 443.732 525.312 439.343 533.858 439.343C542.1 439.343 549.159 443.606 552.285 450.467C552.411 450.751 552.285 451.088 552.001 451.22C551.717 451.346 551.373 451.22 551.247 450.936C548.313 444.485 541.644 440.473 533.858 440.473C525.781 440.473 519.059 444.598 516.323 451.24C516.237 451.458 516.026 451.591 515.801 451.591Z" fill="black"/>
<path d="M325.944 44.3889C326.096 44.1509 328.734 40.5488 328.734 40.5488L339.447 39.2798H346.672L347.379 41.3089C347.379 41.3089 332.098 44.911 331.496 44.9639C330.895 45.0234 325.944 44.3889 325.944 44.3889Z" fill="#282828"/>
<path d="M365.409 59.2207C365.409 59.2207 392.336 60.6946 412.555 67.4957C432.766 74.2969 445.906 83.3848 453.652 94.026C461.398 104.667 459.845 112.803 458.358 116.505C456.877 120.199 451.207 124.297 432.998 124.919C414.795 125.54 383.717 122.539 383.717 122.539C383.717 122.539 383.209 111.541 383.757 105.269L352.402 106.478L339.183 106.789L302.276 114.185L305.144 125.533C305.144 125.533 286.929 125.428 270.643 124.443C254.357 123.458 246.38 121.442 244.542 119.889C242.705 118.336 239.294 116.531 240.332 108.983C241.37 101.435 249.189 89.2606 259.222 82.8495C269.262 76.4383 277.821 71.5672 289.553 68.5334C301.291 65.4997 309.302 63.4574 316.083 62.6246C322.878 61.7786 365.409 59.2207 365.409 59.2207Z" fill="#4A7EFF"/>
<path d="M365.277 75.189C365.277 75.189 366.843 88.0179 355.264 94.0259C355.264 94.0259 360.835 91.3755 361.999 82.9485L362.296 76.0085L365.277 75.189Z" fill="#282828"/>
<path d="M313.234 104.013L302.494 105.262C302.494 105.262 305.098 95.4734 308.919 94.9645C312.732 94.4489 313.234 104.013 313.234 104.013Z" fill="#282828"/>
<path d="M309.91 122.043L302.282 121.746C302.282 121.746 303.809 126.168 306.096 125.546C308.383 124.932 309.91 122.043 309.91 122.043Z" fill="#282828"/>
<path d="M355.257 108.712C355.257 108.712 356.5 99.862 359.613 97.6941C362.726 95.5329 363.493 95.1297 363.493 95.1297L359.19 106.789L367.333 102.4L371.074 93.1931C371.074 93.1931 375.436 92.9618 377.637 93.3517C379.838 93.7417 386.89 95.8898 386.89 95.8898C386.89 95.8898 384.147 99.6968 383.665 106.419C383.182 113.14 383.05 115.811 383.05 115.811C383.05 115.811 377.088 117.787 374.815 118.428C372.548 119.062 366.745 120.887 362.878 118.983C362.878 118.983 356.018 118.745 355.932 115.328C355.932 115.328 353.023 114.641 353.083 112.228C353.129 109.809 355.257 108.712 355.257 108.712Z" fill="white"/>
<path d="M302.283 105.738C302.283 105.738 316.592 104 318.985 103.775C321.377 103.55 332.851 103.121 332.851 103.121C332.851 103.121 336.943 104.509 340.056 108.435C343.169 112.354 346.857 117.417 346.857 117.417C346.857 117.417 349.421 121.746 347.253 122.698C345.086 123.65 340.75 119.644 340.75 119.644C340.75 119.644 344.742 126.862 341.285 127.999C337.828 129.135 329.018 116.776 329.018 116.776L332.495 127.146C332.495 127.146 332.276 129.968 330.439 129.902C328.608 129.836 325.978 127.899 325.251 126.201C324.53 124.502 320.049 117.529 320.049 117.529C320.049 117.529 315.35 120.933 311.166 121.594C306.989 122.255 302.276 121.753 302.276 121.753C302.276 121.753 300.696 117.152 301.331 112.222C301.972 107.285 302.283 105.738 302.283 105.738Z" fill="white"/>
<path d="M342.329 111.217L353.023 110.735L376.778 117.404L352.303 139.968L296.618 135.117L335.7 112.215L342.329 111.217Z" fill="white"/>
<path d="M359.184 106.782L367.419 86.2334L372.977 88.4872L367.326 102.393L359.184 106.782Z" fill="#282828"/>
<path d="M367.419 86.2333L368.523 83.53L374.075 85.5393L372.977 88.4871L367.419 86.2333Z" fill="white"/>
<path d="M348.231 39.2798C348.231 39.2798 352.785 39.9804 358.231 42.8753C363.678 45.7703 365.409 62.6111 365.409 62.6111C359.606 63.1729 358.231 66.8081 358.231 66.8081C358.231 66.8081 353.056 67.1452 345.482 67.9978C337.907 68.8505 328.482 63.5959 328.482 63.5959C329.024 72.717 321.37 76.2729 321.291 76.2663C321.212 76.2597 319.513 73.411 317.815 67.9251C316.116 62.4393 315.263 56.9535 316.962 51.2297C318.661 45.5125 325.786 42.2276 325.786 42.2276" fill="#282828"/>
<path d="M358.311 69.6502C358.311 69.6502 358.225 63.3646 363.83 62.8623C363.83 62.8623 369.184 64.0388 369.349 68.3746C369.514 72.7104 368.278 75.8433 362.29 76.0151C362.29 76.0151 363.678 83.0938 361.015 87.5684C358.351 92.043 353.513 95.9822 347.525 97.6016C341.536 99.2209 338.212 97.5619 335.092 94.9446C331.973 92.3206 326.236 85.427 323.797 81.3688C321.364 77.3106 321.285 76.2663 321.285 76.2663C321.285 76.2663 329.15 73.0078 328.476 63.596C328.476 63.596 333.843 67.9846 343.797 67.5748C353.751 67.1651 358.232 66.8081 358.232 66.8081L358.311 69.6502Z" fill="white"/>
<path d="M322.607 44.3889C322.607 44.3889 317.16 52.4458 320.465 61.7189C323.77 70.9919 326.348 71.7917 326.348 71.7917C326.348 71.7917 325.35 75.0435 321.08 75.8301C321.08 75.8301 316.757 68.1565 316.288 61.0249C315.825 53.8933 315.825 48.3876 322.607 44.3889Z" fill="white"/>
<path d="M338.952 107.397C338.965 107.39 354.934 107.02 354.934 107.02C355.271 107.013 355.542 106.736 355.528 106.399C355.522 106.062 355.251 105.797 354.914 105.797C354.901 105.804 338.939 106.174 338.939 106.174C338.602 106.181 338.337 106.458 338.344 106.795C338.344 107.132 338.615 107.397 338.952 107.397Z" fill="black"/>
<path d="M363.658 76.4382C364.596 76.4382 365.561 76.1936 366.447 75.7243C369.6 74.0521 370.935 69.875 369.421 66.4248C368.648 64.6733 367.287 63.3845 365.588 62.7896C364.008 62.2411 362.323 62.3732 360.829 63.1664C359.573 63.8339 357.042 66.4645 357.742 69.9279C357.809 70.2583 358.132 70.4632 358.463 70.4103C358.793 70.3442 359.012 70.0204 358.945 69.6899C358.364 66.8346 360.545 64.6998 361.404 64.2437C362.587 63.6158 363.936 63.5101 365.191 63.9463C366.566 64.4222 367.676 65.4797 368.304 66.9205C369.567 69.8023 368.483 73.2656 365.879 74.647C365.039 75.0898 364.088 75.2881 363.175 75.1824C362.904 75.1824 362.283 75.1493 361.906 74.9775C361.602 74.8255 361.239 74.9775 361.1 75.2815C360.961 75.5922 361.1 75.9557 361.411 76.0879C362.091 76.3985 363.05 76.4117 363.123 76.3985C363.288 76.4315 363.473 76.4382 363.658 76.4382Z" fill="black"/>
<path d="M321.82 76.4383C321.9 76.4383 321.986 76.4185 322.058 76.3854C327.809 73.9399 328.84 67.0793 329.025 64.4752C342.29 71.3358 358.602 67.3503 358.774 67.304C359.098 67.2247 359.303 66.8876 359.217 66.5638C359.131 66.2399 358.813 66.0416 358.47 66.1209C358.311 66.1606 341.735 70.2056 328.747 62.9352C328.555 62.8294 328.317 62.8294 328.139 62.9418C327.947 63.0542 327.835 63.2524 327.835 63.4706C327.842 63.5631 327.828 72.5982 321.576 75.2552C321.265 75.3808 321.12 75.7443 321.252 76.055C321.358 76.2995 321.582 76.4383 321.82 76.4383Z" fill="black"/>
<path d="M423.335 125.758C438.761 125.764 453.375 124.224 457.71 118.659C460.301 115.335 461.061 110.86 459.911 105.731C457.314 94.1713 445.727 81.9637 429.68 73.8671C400.142 58.976 365.766 58.824 365.29 58.824C364.953 58.8306 364.676 59.1016 364.676 59.4387C364.676 59.7757 364.947 60.0533 365.29 60.0533C365.747 60.0533 399.851 60.1987 429.131 74.9576C447.935 84.4356 456.745 97.2116 458.715 105.996C459.786 110.754 459.105 114.872 456.745 117.899C449.145 127.661 404.874 124.086 388.205 122.737C386.494 122.599 385.02 122.48 383.823 122.394C383.493 122.42 383.189 122.625 383.169 122.962C383.143 123.299 383.394 123.597 383.737 123.616C384.927 123.702 386.401 123.821 388.113 123.96C396.566 124.647 410.241 125.758 423.335 125.758Z" fill="black"/>
<path d="M296.427 126.273C299.811 126.273 302.917 126.221 305.581 126.115C305.918 126.102 306.182 125.817 306.169 125.48C306.162 125.15 305.885 124.892 305.561 124.892C288.324 125.546 252.348 124.238 244.893 119.367C242.097 117.542 240.683 114.555 240.808 110.721C241.092 101.832 249.718 88.1502 268.356 77.6345C285.924 67.7138 315.336 63.3978 316.579 63.2193C316.909 63.1731 317.147 62.8624 317.094 62.5253C317.048 62.1949 316.797 61.9569 316.4 62.0098C315.151 62.1883 285.521 66.5373 267.755 76.5638C248.706 87.3174 239.883 101.448 239.585 110.682C239.447 114.965 241.053 118.329 244.225 120.391C250.716 124.628 277.762 126.273 296.427 126.273Z" fill="black"/>
<path d="M343.81 98.7847C344.907 98.7847 346.024 98.6459 347.168 98.3353C366.996 92.9882 362.925 76.035 362.885 75.8632C362.799 75.5393 362.468 75.3278 362.138 75.4203C361.814 75.5063 361.609 75.8367 361.695 76.1606C361.86 76.8083 365.489 92.129 346.844 97.1456C330.644 101.547 318.562 68.4804 318.443 68.1433C318.383 67.9781 312.514 51.3421 322.858 44.7195C333.374 37.9778 349.203 38.2158 356.837 42.6441C364.213 46.9138 364.722 62.9153 364.729 63.0805C364.736 63.411 365.007 63.6753 365.344 63.6753C365.701 63.6621 365.965 63.3845 365.958 63.0408C365.938 62.3535 365.416 46.1934 357.459 41.58C349.521 36.9798 333.09 36.7154 322.204 43.6818C311.04 50.8398 317.24 68.3813 317.306 68.5531C317.762 69.8882 328.304 98.7847 343.81 98.7847Z" fill="black"/>
<path d="M343.427 74.7066C344.246 75.0965 345.079 77.0728 344.887 78.0311C344.696 78.9895 344.497 79.4191 343.512 78.3814C342.528 77.3371 341.113 73.616 343.427 74.7066Z" fill="black"/>
<path d="M329.6 78.877C330.419 79.2603 331.252 81.2432 331.06 82.2016C330.869 83.1599 330.67 83.5895 329.685 82.5519C328.707 81.5076 327.293 77.7864 329.6 78.877Z" fill="black"/>
<path d="M366.374 71.924C366.672 71.924 366.929 71.7059 366.976 71.4085C367.029 71.078 366.804 70.7607 366.473 70.7079L362.673 70.0866L364.748 65.6913C364.894 65.3873 364.762 65.0171 364.458 64.8783C364.154 64.7395 363.79 64.8651 363.645 65.1691L361.226 70.2981C361.14 70.4699 361.146 70.6748 361.239 70.8401C361.325 71.0119 361.49 71.1309 361.682 71.1639L366.288 71.9174C366.315 71.924 366.348 71.924 366.374 71.924Z" fill="black"/>
<path d="M359.184 107.133C359.422 107.133 359.653 106.987 359.752 106.749L367.756 87.0334L372.178 88.8245L366.758 102.169C366.633 102.48 366.785 102.843 367.095 102.962C367.399 103.094 367.763 102.942 367.895 102.625L373.54 88.7188C373.665 88.4081 373.513 88.0446 373.202 87.9256L367.651 85.6718C367.498 85.6123 367.333 85.6123 367.181 85.6718C367.036 85.7379 366.917 85.8569 366.851 86.0089L358.615 106.293C358.49 106.604 358.642 106.967 358.952 107.086C359.032 107.113 359.111 107.133 359.184 107.133Z" fill="black"/>
<path d="M372.971 89.1086C373.209 89.1086 373.44 88.9632 373.539 88.7253L374.637 86.0154C374.762 85.7048 374.61 85.3412 374.3 85.2223L368.748 82.9684C368.596 82.909 368.43 82.909 368.278 82.9684C368.133 83.0345 368.014 83.1535 367.948 83.3055L366.851 86.0154C366.725 86.326 366.877 86.6896 367.188 86.8085C367.485 86.9341 367.855 86.7887 367.988 86.4715L368.853 84.33L373.275 86.1278L372.403 88.2692C372.277 88.5799 372.429 88.9434 372.74 89.0624C372.819 89.0888 372.898 89.1086 372.971 89.1086Z" fill="black"/>
<path d="M355.449 124.291C355.601 124.291 355.753 124.231 355.865 124.126L361.113 119.155C361.358 118.924 361.371 118.534 361.14 118.289C360.908 118.045 360.519 118.032 360.274 118.263L355.998 122.308L355.72 115.712C355.707 115.375 355.436 115.157 355.079 115.13C354.742 115.143 354.477 115.428 354.491 115.765L354.828 123.703C354.841 123.941 354.986 124.152 355.211 124.238C355.297 124.278 355.376 124.291 355.449 124.291Z" fill="black"/>
<path d="M329.375 130.9C329.957 130.9 330.545 130.761 331.12 130.49C331.939 130.094 332.554 129.565 332.951 128.924C333.361 128.263 333.559 127.423 333.506 126.492C333.446 125.474 333.096 124.529 332.746 123.649C332.376 122.711 331.939 121.726 331.331 120.45C330.029 117.747 328.529 114.984 326.883 112.235C326.705 111.944 326.335 111.858 326.044 112.023C325.753 112.202 325.661 112.579 325.832 112.863C327.465 115.579 328.939 118.316 330.228 120.979C330.822 122.222 331.245 123.18 331.602 124.099C331.926 124.918 332.23 125.731 332.283 126.564C332.31 127.027 332.263 127.701 331.906 128.276C331.635 128.719 331.193 129.089 330.585 129.38C329.375 129.975 328.08 129.638 327.042 128.488C326.447 127.827 325.984 126.994 325.528 126.187C325.39 125.936 325.244 125.685 325.105 125.434C324.425 124.271 323.79 123.081 323.156 121.885L322.395 120.444C321.53 118.785 320.631 117.066 319.461 115.566C319.256 115.295 318.866 115.255 318.602 115.46C318.337 115.665 318.291 116.055 318.496 116.32C319.593 117.741 320.465 119.4 321.305 121.012L322.072 122.466C322.719 123.669 323.354 124.872 324.041 126.055C324.18 126.293 324.319 126.538 324.458 126.782C324.94 127.648 325.442 128.54 326.13 129.307C327.062 130.358 328.205 130.9 329.375 130.9Z" fill="black"/>
<path d="M339.56 128.93C340.01 128.93 340.393 128.845 340.677 128.752C342.098 128.283 343.077 127 343.202 126.029C343.797 121.501 334.927 111.455 333.916 110.325C333.691 110.067 333.301 110.054 333.057 110.279C332.805 110.503 332.786 110.887 333.01 111.138C335.654 114.099 342.429 122.506 341.993 125.87C341.933 126.3 341.318 127.245 340.294 127.589C339.243 127.939 338.093 127.516 336.983 126.373C332.594 121.865 326.936 112.334 326.877 112.242C326.698 111.957 326.341 111.865 326.037 112.03C325.753 112.202 325.654 112.579 325.826 112.87C326.057 113.266 331.616 122.618 336.11 127.232C337.412 128.58 338.635 128.93 339.56 128.93Z" fill="black"/>
<path d="M345.429 123.934C346.394 123.934 347.28 123.57 348.073 122.85C350.843 120.338 345.092 113.808 344.431 113.068C342.382 110.133 337.088 103.121 333.202 102.546C327.485 101.68 303.228 104.991 302.197 105.136C301.86 105.183 301.629 105.493 301.675 105.824C301.721 106.154 301.966 106.405 302.362 106.346C302.607 106.313 327.458 102.955 333.023 103.755C335.39 104.105 339.302 107.866 343.473 113.828C345.37 115.943 348.714 120.609 347.247 121.938C346.606 122.519 345.912 122.731 345.165 122.698C343.043 122.493 341.113 119.928 341.094 119.902C340.895 119.631 340.512 119.578 340.234 119.776C339.963 119.981 339.911 120.358 340.109 120.636C340.201 120.761 342.389 123.656 345.039 123.914C345.178 123.92 345.304 123.934 345.429 123.934Z" fill="black"/>
<path d="M307.147 122.605C315.581 122.605 320.042 118.263 320.26 118.045C320.498 117.807 320.498 117.423 320.26 117.179C320.022 116.948 319.632 116.941 319.394 117.179C319.342 117.238 313.36 122.989 302.402 120.926C302.045 120.841 301.747 121.085 301.688 121.409C301.628 121.746 301.84 122.063 302.17 122.123C303.968 122.466 305.62 122.605 307.147 122.605Z" fill="black"/>
<path d="M352.025 140.834C352.177 140.834 352.323 140.775 352.435 140.675L377.187 118.243C377.438 118.012 377.458 117.628 377.227 117.377C377.009 117.133 376.612 117.106 376.361 117.331L351.807 139.585L298.35 134.839L322.137 121.594C322.435 121.429 322.54 121.059 322.375 120.761C322.217 120.464 321.84 120.358 321.542 120.523L296.017 134.734C295.779 134.866 295.66 135.13 295.719 135.395C295.772 135.652 295.99 135.857 296.261 135.877L351.972 140.821C351.985 140.834 352.005 140.834 352.025 140.834Z" fill="black"/>
<path d="M283.426 96.7359C294.358 96.7359 307.888 95.9163 308.754 95.8634C309.091 95.8436 309.348 95.5528 309.322 95.2157C309.302 94.8786 309.051 94.6208 308.674 94.6473C308.357 94.6671 276.453 96.6103 270.862 94.6407C270.551 94.5283 270.187 94.7002 270.082 95.0174C269.976 95.3347 270.141 95.685 270.458 95.7973C272.474 96.5045 277.583 96.7359 283.426 96.7359Z" fill="black"/>
<path d="M357.266 116.062C360.049 116.062 365.085 114.799 373.056 108.6C373.321 108.395 373.373 108.005 373.162 107.74C372.95 107.476 372.567 107.43 372.303 107.635C362.891 114.945 357.874 115.031 356.156 114.746C355.145 114.568 354.391 114.138 353.988 113.504C352.739 111.534 355.535 109.254 355.984 108.904C357.141 108.441 368.403 103.927 371.543 99.8686C371.748 99.5976 371.701 99.2143 371.437 99.0094C371.166 98.8111 370.783 98.8573 370.578 99.1217C367.544 103.041 355.581 107.747 355.455 107.793C355.138 107.998 350.994 111.072 352.95 114.152C353.552 115.09 354.583 115.711 355.944 115.949C356.314 116.015 356.751 116.062 357.266 116.062Z" fill="black"/>
<path d="M361.734 119.307C368.37 119.307 376.599 114.356 376.995 114.112C377.286 113.94 377.372 113.557 377.2 113.273C377.028 112.988 376.645 112.889 376.361 113.068C376.249 113.134 365.535 119.578 359.209 117.76C357.577 117.291 356.42 116.32 355.667 114.813C355.515 114.509 355.145 114.396 354.847 114.542C354.543 114.694 354.424 115.057 354.57 115.361C355.468 117.166 356.916 118.375 358.872 118.937C359.765 119.195 360.73 119.307 361.734 119.307Z" fill="black"/>
<path d="M354.973 109.585C355.271 109.585 355.528 109.366 355.575 109.069C355.588 109.01 356.592 102.975 358.311 100.133C359.99 97.3439 364.088 95.5196 364.134 95.5064C364.445 95.3676 364.583 95.0107 364.445 94.7001C364.306 94.3894 363.949 94.244 363.638 94.3894C363.453 94.4687 359.137 96.3921 357.26 99.5051C355.423 102.552 354.405 108.626 354.365 108.884C354.312 109.214 354.537 109.532 354.867 109.585C354.907 109.585 354.94 109.585 354.973 109.585Z" fill="black"/>
<path d="M386.877 96.4979C387.195 96.4979 387.466 96.2468 387.485 95.9229C387.505 95.5858 387.254 95.295 386.917 95.2752C386.904 95.2752 385.436 95.1628 382.489 93.9467C376.97 91.6797 371.041 92.8892 370.797 92.9421C370.466 93.0148 370.255 93.3386 370.321 93.6691C370.387 93.9996 370.717 94.2243 371.048 94.145C371.101 94.1318 376.864 92.9619 382.026 95.0835C385.192 96.3856 386.778 96.4979 386.844 96.4979C386.857 96.4979 386.871 96.4979 386.877 96.4979Z" fill="black"/>
<path d="M366.943 120.464C371.305 120.464 376.434 118.56 378.542 117.78C378.866 117.661 379.117 117.569 379.269 117.523C380.77 117.033 383.175 116.399 383.202 116.399C383.526 116.313 383.724 115.983 383.638 115.652C383.552 115.328 383.208 115.137 382.891 115.216C382.792 115.242 380.419 115.864 378.892 116.359C378.727 116.412 378.469 116.511 378.119 116.637C370.446 119.479 365.284 120.008 362.785 118.197C362.514 117.992 362.131 118.058 361.933 118.336C361.734 118.607 361.794 118.99 362.065 119.188C363.347 120.113 365.072 120.464 366.943 120.464Z" fill="black"/>
<path d="M433.467 96.6829C433.791 96.6829 434.062 96.4318 434.082 96.1013C434.102 95.7642 433.844 95.4734 433.507 95.4536C400.784 93.4906 389.23 92.248 389.118 92.2348C388.774 92.2282 388.477 92.4397 388.444 92.7767C388.404 93.1138 388.649 93.4112 388.986 93.4509C389.098 93.4641 400.665 94.7067 433.434 96.6697C433.441 96.6763 433.454 96.6829 433.467 96.6829Z" fill="black"/>
<path d="M383.777 123.623C384.187 123.577 384.425 123.266 384.385 122.936C381.603 100.622 389.382 93.3716 389.461 93.2989C389.713 93.0741 389.732 92.6908 389.508 92.4396C389.283 92.1819 388.893 92.1686 388.642 92.3933C388.305 92.6974 380.307 100.146 383.169 123.088C383.209 123.398 383.473 123.623 383.777 123.623Z" fill="black"/>
<path d="M305.812 126.128C307.425 126.128 309.064 124.753 310.465 122.209C310.631 121.911 310.525 121.541 310.228 121.376C309.943 121.211 309.56 121.316 309.395 121.614C308.165 123.828 306.81 125.044 305.627 124.886C304.385 124.74 303.294 123.121 302.627 120.444C301.9 117.529 301.754 113.742 302.223 109.776C303.222 101.316 306.407 95.8568 308.859 95.8568C310.822 96.0749 312.263 99.3532 312.633 104.026C312.66 104.363 312.97 104.601 313.294 104.588C313.631 104.561 313.883 104.264 313.856 103.927C313.426 98.4081 311.682 94.9447 309.196 94.6473C305.647 94.3102 302.058 100.814 301.014 109.631C300.531 113.742 300.683 117.688 301.444 120.741C302.257 123.987 303.691 125.897 305.495 126.108C305.594 126.121 305.7 126.128 305.812 126.128Z" fill="black"/>
<path d="M342.745 111.951C342.758 111.944 353.036 111.706 353.036 111.706C353.373 111.7 353.644 111.422 353.638 111.085C353.631 110.748 353.36 110.483 353.023 110.483C353.01 110.49 342.732 110.728 342.732 110.728C342.395 110.735 342.124 111.012 342.137 111.349C342.144 111.686 342.415 111.951 342.745 111.951Z" fill="black"/>
<path d="M359.613 125.355C359.937 125.355 360.208 125.104 360.228 124.773C360.248 124.436 359.99 124.145 359.653 124.125L349.197 123.504C348.84 123.524 348.569 123.735 348.549 124.079C348.529 124.416 348.78 124.707 349.124 124.727L359.58 125.348C359.587 125.348 359.6 125.355 359.613 125.355Z" fill="black"/>
<path d="M344.22 129.697C344.537 129.697 344.802 129.453 344.828 129.129C344.854 128.792 344.603 128.494 344.266 128.468L337.736 127.946C337.439 127.919 337.108 128.164 337.075 128.507C337.049 128.844 337.3 129.142 337.637 129.168L344.167 129.69C344.187 129.69 344.2 129.697 344.22 129.697Z" fill="black"/>
<path d="M348.575 135.447C348.892 135.447 349.163 135.203 349.183 134.879C349.209 134.542 348.958 134.244 348.621 134.218L337.94 133.365C337.61 133.359 337.312 133.583 337.279 133.927C337.253 134.264 337.504 134.562 337.841 134.588L348.522 135.441C348.542 135.441 348.555 135.447 348.575 135.447Z" fill="black"/>
<path fill-rule="evenodd" clip-rule="evenodd" d="M344.797 89.6008C346.352 88.9847 347.487 87.9788 348.029 86.9797L349.347 87.6944C348.607 89.0616 347.164 90.2764 345.349 90.9954L345.349 90.9955C343.446 91.7479 341.462 91.8347 339.95 91.2485L340.492 89.85C341.572 90.2684 343.156 90.2495 344.797 89.6008Z" fill="black"/>
<path d="M338.978 87.4297C338.912 87.4429 338.846 87.4363 338.773 87.4231C338.403 87.3438 335.099 86.5969 334.2 85.1759C333.968 84.8123 333.896 84.4158 333.988 84.0324C334.385 82.3404 336.275 75.1097 336.354 74.799C336.434 74.5082 336.725 74.3298 337.029 74.4025C337.319 74.4818 337.498 74.7792 337.425 75.0766C337.405 75.1493 335.456 82.6048 335.066 84.277C335.052 84.3365 335.046 84.4356 335.138 84.581C335.627 85.3543 337.775 86.0681 339.018 86.3391C339.315 86.4052 339.507 86.696 339.441 86.9935C339.382 87.2314 339.196 87.3966 338.978 87.4297Z" fill="black"/>
<path d="M324.299 80.6749C324.166 80.7939 323.995 80.86 323.803 80.8534C323.42 80.8336 323.129 80.5097 323.142 80.1264C323.149 80.0669 323.466 74.3299 329.619 72.6643C329.989 72.5651 330.373 72.7833 330.472 73.1534C330.571 73.5235 330.353 73.9003 329.983 74.006C324.841 75.3874 324.543 79.9942 324.537 80.1924C324.517 80.3841 324.431 80.556 324.299 80.6749Z" fill="black"/>
<path d="M343.632 69.9807C343.427 70.1658 343.116 70.2186 342.852 70.0798C340.631 68.9496 338.807 70.721 338.767 70.7606C338.536 71.0448 338.053 71.025 337.789 70.7474C337.518 70.4698 337.525 70.0336 337.802 69.7626C338.628 68.9629 341.021 67.5749 343.486 68.8439C343.83 69.0157 343.969 69.4321 343.79 69.7758C343.744 69.8551 343.691 69.9278 343.632 69.9807Z" fill="black"/>
<path d="M228.812 478.834H42.2541C42.069 478.834 41.917 478.544 41.917 478.187C41.917 477.823 42.069 477.539 42.2541 477.539H228.806C228.991 477.539 229.143 477.83 229.143 478.187C229.143 478.55 228.997 478.834 228.812 478.834Z" fill="black"/>
<path d="M655.901 478.834H469.35C469.165 478.834 469.013 478.544 469.013 478.187C469.013 477.823 469.165 477.539 469.35 477.539H655.901C656.087 477.539 656.239 477.83 656.239 478.187C656.239 478.55 656.087 478.834 655.901 478.834Z" fill="black"/>
<path d="M245.435 121.111H207.457C207.417 121.111 207.391 120.821 207.391 120.464C207.391 120.1 207.424 119.816 207.457 119.816H245.435C245.474 119.816 245.501 120.107 245.501 120.464C245.507 120.827 245.474 121.111 245.435 121.111Z" fill="black"/>
<path d="M481.604 121.111H454.095C454.069 121.111 454.049 120.821 454.049 120.464C454.049 120.1 454.069 119.816 454.095 119.816H481.604C481.63 119.816 481.65 120.107 481.65 120.464C481.656 120.827 481.63 121.111 481.604 121.111Z" fill="black"/>
<path d="M517.514 243.287H464.268C460.044 243.287 456.581 239.83 456.581 235.6V203.088C456.581 198.865 460.038 195.402 464.268 195.402H517.514C521.737 195.402 525.2 198.858 525.2 203.088V235.6C525.2 239.83 521.737 243.287 517.514 243.287Z" fill="#4A7EFF"/>
<path d="M508.776 198.561C507.256 195.957 504.764 195.957 503.237 198.561L491.538 218.594C490.018 221.198 491.241 223.333 494.261 223.333H517.765C520.785 223.333 522.008 221.198 520.481 218.594L508.776 198.561Z" fill="white"/>
<path d="M512.815 226.942H489.312C487.606 226.942 486.318 226.334 485.683 225.224C485.048 224.113 485.167 222.699 486.027 221.225L497.725 201.198C498.585 199.731 499.768 198.918 501.057 198.918C502.345 198.918 503.528 199.724 504.388 201.192L516.093 221.225C516.952 222.699 517.078 224.12 516.437 225.224C515.809 226.334 514.52 226.942 512.815 226.942ZM501.063 200.22C500.257 200.22 499.47 200.802 498.856 201.853L487.157 221.886C486.542 222.937 486.423 223.888 486.82 224.582C487.216 225.27 488.102 225.647 489.318 225.647H512.821C514.038 225.647 514.923 225.27 515.32 224.582C515.716 223.895 515.591 222.937 514.983 221.886L503.277 201.853C502.649 200.795 501.869 200.22 501.063 200.22Z" fill="black"/>
<path d="M520.884 237.524H475.583C470.461 237.524 466.297 233.36 466.297 228.237V197.629C466.297 192.507 470.461 188.343 475.583 188.343H526.925C532.048 188.343 536.218 192.507 536.218 197.629V222.824C536.218 223.188 535.927 223.472 535.57 223.472C535.207 223.472 534.923 223.181 534.923 222.824V197.629C534.923 193.227 531.34 189.645 526.932 189.645H475.59C471.188 189.645 467.606 193.227 467.606 197.629V228.237C467.606 232.639 471.188 236.222 475.59 236.222H520.891C521.254 236.222 521.539 236.512 521.539 236.869C521.532 237.233 521.248 237.524 520.884 237.524Z" fill="black"/>
<path fill-rule="evenodd" clip-rule="evenodd" d="M262.585 332.589C263.073 333.077 263.073 333.869 262.585 334.357L259.782 337.159C259.294 337.648 258.503 337.648 258.015 337.159C257.526 336.671 257.526 335.88 258.015 335.392L260.817 332.589C261.305 332.101 262.097 332.101 262.585 332.589ZM254.177 340.996C254.666 341.485 254.666 342.276 254.177 342.764L248.573 348.369C248.085 348.857 247.293 348.857 246.805 348.369C246.317 347.881 246.317 347.089 246.805 346.601L252.41 340.996C252.898 340.508 253.689 340.508 254.177 340.996ZM242.968 352.206C243.456 352.694 243.456 353.486 242.968 353.974L237.363 359.579C236.875 360.067 236.083 360.067 235.595 359.579C235.107 359.091 235.107 358.299 235.595 357.811L241.2 352.206C241.688 351.718 242.48 351.718 242.968 352.206ZM231.758 363.416C232.246 363.904 232.246 364.695 231.758 365.183L226.153 370.788C225.665 371.276 224.874 371.276 224.386 370.788C223.897 370.3 223.897 369.509 224.386 369.021L229.99 363.416C230.479 362.928 231.27 362.928 231.758 363.416ZM220.549 374.625C221.037 375.113 221.037 375.905 220.549 376.393L217.746 379.195C217.258 379.684 216.467 379.684 215.978 379.195C215.49 378.707 215.49 377.916 215.978 377.428L218.781 374.625C219.269 374.137 220.06 374.137 220.549 374.625Z" fill="black"/>
<path fill-rule="evenodd" clip-rule="evenodd" d="M411.123 332.589C411.611 332.101 412.403 332.101 412.891 332.589L415.693 335.392C416.181 335.88 416.181 336.671 415.693 337.159C415.205 337.648 414.414 337.648 413.925 337.159L411.123 334.357C410.635 333.869 410.635 333.077 411.123 332.589ZM419.53 340.996C420.018 340.508 420.81 340.508 421.298 340.996L426.903 346.601C427.391 347.089 427.391 347.881 426.903 348.369C426.415 348.857 425.623 348.857 425.135 348.369L419.53 342.764C419.042 342.276 419.042 341.485 419.53 340.996ZM430.74 352.206C431.228 351.718 432.019 351.718 432.508 352.206L438.112 357.811C438.601 358.299 438.601 359.091 438.112 359.579C437.624 360.067 436.833 360.067 436.345 359.579L430.74 353.974C430.252 353.486 430.252 352.694 430.74 352.206ZM441.949 363.416C442.438 362.928 443.229 362.928 443.717 363.416L449.322 369.021C449.81 369.509 449.81 370.3 449.322 370.788C448.834 371.276 448.042 371.276 447.554 370.788L441.949 365.183C441.461 364.695 441.461 363.904 441.949 363.416ZM453.159 374.625C453.647 374.137 454.439 374.137 454.927 374.625L457.729 377.428C458.217 377.916 458.217 378.707 457.729 379.195C457.241 379.684 456.45 379.684 455.961 379.195L453.159 376.393C452.671 375.905 452.671 375.113 453.159 374.625Z" fill="black"/>
<path fill-rule="evenodd" clip-rule="evenodd" d="M334.312 146.326C335.003 146.326 335.562 146.885 335.562 147.576V151.762C335.562 152.453 335.003 153.012 334.312 153.012C333.622 153.012 333.062 152.453 333.062 151.762V147.576C333.062 146.885 333.622 146.326 334.312 146.326ZM334.312 158.885C335.003 158.885 335.562 159.445 335.562 160.135V168.508C335.562 169.199 335.003 169.758 334.312 169.758C333.622 169.758 333.062 169.199 333.062 168.508V160.135C333.062 159.445 333.622 158.885 334.312 158.885ZM334.312 175.631C335.003 175.631 335.562 176.191 335.562 176.881V185.254C335.562 185.945 335.003 186.504 334.312 186.504C333.622 186.504 333.062 185.945 333.062 185.254V176.881C333.062 176.191 333.622 175.631 334.312 175.631ZM334.312 192.378C335.003 192.378 335.562 192.937 335.562 193.628V197.814C335.562 198.504 335.003 199.064 334.312 199.064C333.622 199.064 333.062 198.504 333.062 197.814V193.628C333.062 192.937 333.622 192.378 334.312 192.378Z" fill="black"/>
<path d="M200.953 276.889H176.597C168.534 276.889 161.938 270.293 161.938 262.23V244.173C161.938 236.109 168.534 229.506 176.597 229.506H200.953C209.017 229.506 215.619 236.103 215.619 244.173V262.23C215.613 270.287 209.017 276.889 200.953 276.889Z" fill="#282828"/>
<path d="M198.23 238.046C196.776 235.561 194.403 235.561 192.949 238.046L181.799 257.147C180.345 259.632 181.515 261.668 184.39 261.668H206.796C209.671 261.668 210.841 259.632 209.387 257.147L198.23 238.046Z" fill="#4A7EFF"/>
<path d="M206.797 262.507H184.391C182.685 262.507 181.383 261.886 180.736 260.756C180.088 259.626 180.207 258.191 181.066 256.724L192.216 237.623C193.935 234.681 197.233 234.675 198.951 237.623L210.115 256.724C210.974 258.198 211.093 259.632 210.445 260.756C209.804 261.886 208.502 262.507 206.797 262.507ZM195.587 237.028C194.9 237.028 194.219 237.543 193.677 238.475L182.527 257.577C181.991 258.495 181.872 259.348 182.203 259.923C182.533 260.498 183.333 260.828 184.397 260.828H206.803C207.867 260.828 208.667 260.498 208.998 259.923C209.328 259.348 209.209 258.495 208.674 257.577L197.51 238.475C196.955 237.543 196.274 237.028 195.587 237.028Z" fill="black"/>
<path d="M207.774 274.259H183.412C174.859 274.259 167.906 267.306 167.906 258.753V240.696C167.906 232.15 174.859 225.19 183.412 225.19H207.768C216.314 225.19 223.274 232.144 223.274 240.696V258.753C223.28 267.306 216.32 274.259 207.774 274.259ZM183.412 226.882C175.791 226.882 169.592 233.082 169.592 240.703V258.76C169.592 266.381 175.791 272.58 183.412 272.58H207.768C215.389 272.58 221.588 266.381 221.588 258.76V240.703C221.588 233.082 215.389 226.882 207.768 226.882H183.412Z" fill="black"/>
<path d="M355.451 430.18C357.352 418.045 349.057 406.667 336.922 404.765C324.787 402.864 313.409 411.16 311.507 423.294C309.606 435.429 317.902 446.807 330.036 448.709C342.171 450.61 353.549 442.315 355.451 430.18Z" fill="#4A7EFF"/>
<path d="M326.388 424.65C325.469 423.732 323.975 423.732 323.056 424.65L322.151 425.556C321.232 426.475 321.232 427.968 322.151 428.887L328.78 435.516C329.699 436.435 331.186 436.435 332.111 435.516L345.767 422.198C346.685 421.28 346.685 419.793 345.767 418.867L344.861 417.962C343.942 417.043 342.449 417.043 341.53 417.962L330.452 428.709L326.388 424.65Z" fill="white"/>
<defs>
<linearGradient id="paint0_linear" x1="319.737" y1="306.382" x2="352.205" y2="306.382" gradientUnits="userSpaceOnUse">
<stop stop-color="white" stop-opacity="0"/>
<stop offset="0.88"/>
</linearGradient>
<linearGradient id="paint1_linear" x1="345.441" y1="303.9" x2="329.041" y2="275.496" gradientUnits="userSpaceOnUse">
<stop stop-color="white" stop-opacity="0"/>
<stop offset="0.88" stop-color="#252523"/>
</linearGradient>
<linearGradient id="paint2_linear" x1="313.872" y1="311.528" x2="330.355" y2="282.981" gradientUnits="userSpaceOnUse">
<stop offset="0.12"/>
<stop offset="1" stop-color="white" stop-opacity="0"/>
</linearGradient>
</defs>
</svg>
