<svg width="723" height="547" viewBox="0 0 723 547" fill="none" xmlns="http://www.w3.org/2000/svg">
<path d="M531.084 243.328C531.084 243.328 517.519 241.396 514.959 243.956C514.959 243.956 512.283 255.746 511.061 257.097C511.061 257.097 511.737 258.306 509.082 257.097C506.426 255.889 497.046 257.596 497.046 257.596L494.486 272.088L484.772 286.302C484.772 286.302 492.459 290.022 498.159 289.155C498.159 289.155 500.118 288.711 499.429 291.06C498.746 293.408 495.333 307.054 495.333 307.054C495.333 307.054 501.299 318.994 502.153 318.994C503.006 318.994 506.419 320.701 508.119 321.554C509.826 322.407 514.085 322.407 515.792 322.407C517.499 322.407 524.319 322.407 524.319 320.701C524.319 318.994 527.732 314.734 526.879 313.028C526.025 311.321 522.612 301.088 522.612 301.088L521.895 299.211L523.39 292.329C523.39 292.329 523.124 290.63 525.855 292.022C528.585 293.408 538.545 295.524 542.047 288.049C543.931 284.028 537.965 276.355 537.965 276.355L539.89 269.624L544.785 253.329L543.931 242.243C543.931 242.243 535.405 237.123 534.552 237.123C533.719 237.136 528.449 238.433 531.084 243.328Z" fill="white"/>
<path d="M103.273 406.122L91.7497 425.667L90.8008 428.029L91.2582 429.175L97.0403 432.746L99.259 433.92L100.624 434.22L103.287 430.862L113.888 412.887L115.465 410.901L116.571 409.699C116.571 409.699 119.452 410.307 119.165 410.607C118.879 410.901 126.245 414.785 126.245 414.785L128.415 415.618L129.924 414.764L130.347 413.106L131.617 387.192L114.612 385.328L103.273 406.122Z" fill="white"/>
<path d="M282.964 274.778H105.595V402.688H282.964V274.778Z" fill="white"/>
<path d="M105.376 284.827H277.297L279.892 268.327L273.44 257.302H122.606C122.606 257.302 108.946 258.025 105.772 271.064L105.376 284.827Z" fill="#282828"/>
<path d="M205.83 245.99C205.83 245.99 206.492 270.505 214.418 284.315C222.344 298.132 229.573 308.147 245.95 308.809C262.327 309.464 272.635 298.999 286.93 299.968L309.99 299.921C309.99 299.921 319.63 300.433 332.054 305.266C344.479 310.099 354.916 309.218 359.681 307.402C364.446 305.587 370.502 304.392 377.301 294.234C384.1 284.076 387.213 274.218 388.333 269.474C389.445 264.729 391.268 252.489 391.268 246.932C391.268 246.932 401.064 251.424 414.253 250.912C427.449 250.4 431.805 250.496 435.375 247.185C435.375 247.185 432.474 273.727 428.002 286.417C423.531 299.108 415.946 319.909 405.024 330.866C394.101 341.815 383.895 352.069 365.552 358.343C347.209 364.61 331.576 363.176 331.576 363.176C331.576 363.176 330.661 382.318 332.361 391.022C334.061 399.726 336.962 408.279 336.962 408.279L351.319 452.932H248.264C248.264 452.932 243.561 417.98 242.885 397.848C242.202 377.717 242.598 360.056 242.598 360.056C242.598 360.056 224.617 359.223 207.386 344.963C190.156 330.702 182.824 318.475 176.332 304.733C169.847 290.991 166.358 276.41 164.979 268.409C163.6 260.408 162.085 248.195 162.085 248.195C162.085 248.195 170.345 250.98 182.107 250.769C193.877 250.523 204.82 248.707 205.83 245.99Z" fill="#4A7EFF"/>
<path d="M430.89 248.973C430.89 248.973 437.627 235.375 438.569 226.22H408.13C408.13 226.22 416.895 219.373 411.837 214.369C406.778 209.359 394.354 222.418 393.514 223.476C392.674 224.527 390.299 229.442 392.688 233.764C395.077 238.092 403.105 249.772 403.105 249.772C403.105 249.772 427.265 252.155 430.89 248.973Z" fill="white"/>
<path d="M194.279 249.888C194.279 249.888 203.788 236.105 204.361 234.713C204.942 233.32 207.775 227.729 204.28 223.838C200.784 219.947 195.985 214.601 192.941 213.612C189.896 212.622 186.872 212.39 184.796 215.182C182.721 217.974 184.557 222.227 188.81 226.22H159.422C159.422 226.22 164.692 244.837 167.546 249.404C167.539 249.404 187.793 252.25 194.279 249.888Z" fill="white"/>
<path d="M309.062 299.968L311.164 279.167C311.164 279.167 320.005 278.696 320.005 271.515C320.005 264.333 312.625 263.78 310.584 264.006C310.584 264.006 308.577 255.356 305.485 252.55C302.392 249.745 297.614 250.045 294.507 249.369C291.408 248.693 284.431 246.277 281.776 244.447C281.776 244.447 275.127 252.141 273.584 259.657C271.966 267.562 276.697 267.712 276.485 269.556C275.652 276.833 274.717 287.073 280.533 288.732C286.35 290.39 287.435 290.52 287.435 290.52L286.384 299.586C286.384 299.586 279.892 319.09 287.879 319.165C295.873 319.24 302.877 311.689 305.491 307.273C308.106 302.856 309.062 299.968 309.062 299.968Z" fill="white"/>
<path d="M276.001 279.83C276.001 279.83 269.543 281.543 268.013 289.564C266.484 297.586 271.966 302.378 271.966 302.378C271.966 302.378 281.332 299.483 286.52 300.234L287.428 290.52C287.428 290.527 276.055 291.053 276.001 279.83Z" fill="#282828"/>
<path d="M309.553 299.968C309.553 299.968 315.691 299.06 322.947 301.955C330.197 304.849 336.805 306.754 336.805 306.754C336.805 306.754 345.714 301.866 345.031 293.503C344.349 285.141 337.611 279.877 333.467 279.304C329.323 278.731 325.651 279.161 325.651 279.161C325.651 279.161 324.142 274.334 328.907 267.665C333.672 260.995 334.853 254.052 332.935 248.953C331.023 243.853 323.671 236.945 314.155 235.982L312.673 235.184C312.673 235.184 304.918 226.992 294.985 226.357C285.053 225.722 275.27 229.941 271.57 236.986C267.87 244.038 272.089 254.421 273.441 257.288C273.441 257.288 276.014 253.001 276.711 251.492C277.168 250.509 280.465 248.4 280.465 248.4L281.769 244.441C281.769 244.441 286.718 248.653 293.272 249.13C299.825 249.608 303.601 250.27 306.543 254.203C309.478 258.135 309.799 264.299 309.799 264.299C309.799 264.299 312.291 262.982 315.377 264.797C318.462 266.613 320.169 269.235 319.718 272.614C319.275 275.993 315.329 279.543 310.659 278.949L309.553 299.968Z" fill="#282828"/>
<path d="M165.279 244.816L167.129 249.164C167.129 249.164 162.822 248.448 162.549 246.994C162.276 245.54 165.279 244.816 165.279 244.816Z" fill="#282828"/>
<path d="M199.092 242.679L194.279 249.888C194.279 249.888 206.519 248.4 205.844 245.581C205.304 243.314 199.092 242.679 199.092 242.679Z" fill="#282828"/>
<path d="M432.999 245.144L430.678 249.656C430.678 249.656 435.211 248.721 435.381 247.171C435.552 245.628 433.033 244.836 433.033 244.836L432.999 245.144Z" fill="#282828"/>
<path d="M403.112 249.772L398.005 242.952C398.005 242.952 391.11 244.174 391.636 245.99C392.162 247.806 403.112 249.772 403.112 249.772Z" fill="#282828"/>
<path d="M438.57 226.22L408.417 225.981L404.143 230.036C404.355 230.036 402.348 231.34 402.348 231.34C404.013 231.586 406.389 230.883 408.498 230.036H437.341L438.57 226.22Z" fill="#CCCCCC"/>
<path d="M252.947 270.04C252.947 273.031 250.524 275.461 247.527 275.461C244.537 275.461 242.106 273.037 242.106 270.04C242.106 267.05 244.53 264.62 247.527 264.62C250.524 264.62 252.947 267.044 252.947 270.04Z" fill="white"/>
<path d="M271.795 270.04C271.795 273.031 269.371 275.461 266.374 275.461C263.384 275.461 260.954 273.037 260.954 270.04C260.954 267.05 263.378 264.62 266.374 264.62C269.371 264.62 271.795 267.044 271.795 270.04Z" fill="white"/>
<path d="M542.272 258.838C542.272 258.838 551.993 250.584 548.157 240.993C545.481 234.296 537.89 231.429 530.285 229.122C522.68 226.807 516.324 226.548 511.389 228.036C506.453 229.524 501.995 234.808 501.995 234.808C501.995 234.808 495.776 233.129 492.636 236.972C489.496 240.822 486.676 246.843 486.547 252.148C486.417 257.452 488.561 260.804 485.495 264.511C482.43 268.218 478.068 274.689 479.16 279.761C480.253 284.834 485.243 287.332 492.493 288.718C499.743 290.111 505.661 289.653 508.644 286.656C511.621 283.653 512.577 280.369 509.559 275.665C509.559 275.665 504.862 277.632 503.299 271.214C503.299 271.214 496.787 268.163 498.766 261.446C500.746 254.728 508.911 256.394 510.453 258.326C510.453 258.326 513.71 252.168 514.57 243.929C514.57 243.929 522.134 241.266 530.21 243.417C538.279 245.574 544.784 250.584 542.272 258.838Z" fill="#282828"/>
<path d="M521.929 299.156L521.513 300.965C521.513 300.965 523.199 319.076 519.308 319.144C515.417 319.212 506.153 311.683 502.624 306.378C499.101 301.074 497.456 300.105 497.456 300.105V298.889C497.456 298.889 487.154 297.606 477.351 300.746C467.548 303.887 460.203 309.211 449.226 331.302C438.255 353.393 436.658 368.692 435.006 374.87C433.361 381.055 429.818 402.593 430.726 409.187C431.634 415.782 439.457 447.532 462.34 452.918H564.978L563.783 434.214C563.783 434.214 578.638 437.285 591.253 417.604C603.869 397.923 604.108 389.588 604.108 389.588C604.108 389.588 590.967 392.291 585.792 389.868C580.618 387.444 570.74 332.62 570.74 332.62C570.74 332.62 565.114 301.859 521.929 299.156Z" fill="#4A7EFF"/>
<path d="M601.896 356.39L607.289 344.321C607.289 344.321 607.719 337.037 601.425 335.74L509.532 343.235C509.532 343.235 504.364 343.597 502.187 349.946L471.719 414.143C471.719 414.143 469.18 423.946 478.43 425.121L569.559 416.956C569.559 416.956 573.456 416.867 575.272 412.334L601.896 356.39Z" fill="#282828"/>
<path d="M602.21 335.494L597.097 331.289H592.23L512.707 338.511C512.707 338.511 503.183 338.873 501.19 340.593C499.197 342.314 494.295 352.383 491.489 358.636C488.677 364.889 466.736 410.771 466.736 410.771C466.736 410.771 465.466 414.669 467.644 417.024L471.406 420.792C471.406 420.792 470.361 417.12 471.999 413.672C473.631 410.225 504.644 345.304 504.644 345.304C504.644 345.304 508.631 343.399 514.529 343.037C520.421 342.675 599.132 335.48 599.132 335.48H602.21V335.494Z" fill="white"/>
<path d="M445.123 472.47H319.11C309.635 472.47 301.88 464.715 301.88 455.24V426.561C301.88 417.086 309.635 409.331 319.11 409.331H445.123C454.598 409.331 462.353 417.086 462.353 426.561V455.24C462.346 464.715 454.598 472.47 445.123 472.47Z" fill="white"/>
<path d="M541.665 381.485C539.398 385.41 539.658 389.793 542.238 391.281C544.819 392.769 548.744 390.803 551.011 386.878C553.277 382.959 553.018 378.57 550.437 377.082C547.857 375.593 543.931 377.566 541.665 381.485Z" fill="white"/>
<path d="M511.819 271.972C511.819 274.266 509.956 276.13 507.662 276.13C505.368 276.13 503.504 274.266 503.504 271.972C503.504 269.679 505.368 267.815 507.662 267.815C509.956 267.815 511.819 269.679 511.819 271.972Z" fill="white"/>
<path d="M538.736 277.652C538.736 277.652 546.471 286.151 539.746 291.367C533.022 296.582 523.554 292.056 523.554 292.056L524.407 289.633C524.407 289.633 530.933 289.994 533.336 287.434C535.739 284.881 538.736 277.652 538.736 277.652Z" fill="#282828"/>
<path d="M80.7387 392.605L114.51 371.702C115.944 370.815 117.78 371.9 117.691 373.58L115.746 413.242C115.67 414.812 113.95 415.734 112.598 414.942L103.471 409.556C102.475 408.969 101.198 409.303 100.611 410.293L87.34 432.807C86.7529 433.804 85.4763 434.132 84.4796 433.545L77.2571 429.285C76.2604 428.698 75.9327 427.421 76.5198 426.424L89.7907 403.91C90.3778 402.92 90.0433 401.637 89.0535 401.05L80.7796 396.169C79.4211 395.384 79.4006 393.431 80.7387 392.605Z" fill="#4A7EFF"/>
<path d="M162.419 344.587H134.007V372.999H162.419V344.587Z" fill="#4A7EFF"/>
<path d="M146.916 297.92H118.504V326.333H146.916V297.92Z" fill="#282828"/>
<path d="M282.206 236.597C281.476 232.705 282.793 229.688 284.582 227.476C278.793 229.142 273.939 232.48 271.577 236.986C267.877 244.038 272.096 254.421 273.447 257.288C273.447 257.288 276.021 253.001 276.717 251.492C277.175 250.509 280.479 248.4 280.479 248.4L281.79 244.44C281.79 244.44 286.739 248.652 293.292 249.13C297.409 249.431 300.426 249.806 302.836 251.014L303.437 250.816C303.423 250.823 283.967 245.983 282.206 236.597Z" fill="white"/>
<path d="M276.567 283.666C276.219 282.567 276.007 281.304 276.001 279.83C276.001 279.83 269.543 281.543 268.013 289.564C266.484 297.586 271.966 302.378 271.966 302.378C271.966 302.378 275.564 301.538 277.591 301.047C270.642 293.517 274.287 286.014 276.567 283.666Z" fill="white"/>
<path d="M542.273 258.838C542.273 258.838 551.994 250.585 548.157 240.993C545.481 234.296 537.89 231.429 530.285 229.122C530.121 229.074 529.971 229.04 529.814 228.992C533.541 230.999 536.804 233.668 537.542 237.054C538.327 240.679 534.565 242.481 529.875 243.348C529.985 243.376 530.094 243.396 530.203 243.423C538.279 245.574 544.785 250.585 542.273 258.838Z" fill="white"/>
<path d="M509.559 275.672C509.559 275.672 507.62 276.471 505.818 275.352C506.596 278.622 506.282 288.786 486.403 286.834C487.12 287.005 491.721 288.582 492.486 288.725C499.736 290.118 505.654 289.66 508.638 286.663C511.621 283.66 512.57 280.376 509.559 275.672Z" fill="white"/>
<path d="M538.736 277.652C538.736 277.652 538.074 279.249 537.125 281.202C537.944 284.335 538.955 292.179 526.755 293.176C530.107 294.063 535.473 294.677 539.74 291.367C546.471 286.151 538.736 277.652 538.736 277.652Z" fill="white"/>
<path d="M438.685 478.552H312.68C303.204 478.552 295.449 470.797 295.449 461.322V432.643C295.449 423.168 303.204 415.413 312.68 415.413H438.692C448.167 415.413 455.922 423.168 455.922 432.643V461.322C455.916 470.797 448.161 478.552 438.685 478.552Z" fill="#282828"/>
<path d="M606.436 346.785L601.896 356.39C601.896 356.39 596.954 357.325 592.769 357.694C588.578 358.063 583.444 356.411 581.56 361.319C579.676 366.221 582.659 368.118 582.659 368.118C582.659 368.118 576.337 374.658 581.846 378.741C581.846 378.741 575.457 383.635 582.324 387.922C589.192 392.209 602.299 390.243 605.371 389.151C608.443 388.059 613.856 383.861 614.607 373.648C615.365 363.435 615.27 358.049 613.556 354.69C611.836 351.325 606.436 346.785 606.436 346.785Z" fill="white"/>
<path d="M248.264 453.628C247.909 453.628 247.608 453.369 247.554 453.014C244.912 435.19 244.031 422.54 243.089 409.153C242.864 405.986 242.645 402.757 242.386 399.377C239.014 354.513 244.939 339.208 248.12 330.981C248.503 329.992 248.851 329.097 249.137 328.258C249.267 327.882 249.684 327.691 250.052 327.814C250.428 327.944 250.626 328.353 250.496 328.729C250.202 329.582 249.847 330.49 249.458 331.5C246.318 339.617 240.468 354.738 243.813 399.275C244.065 402.654 244.29 405.89 244.516 409.058C245.451 422.417 246.338 435.04 248.967 452.809C249.021 453.198 248.755 453.567 248.359 453.622C248.339 453.628 248.298 453.628 248.264 453.628Z" fill="black"/>
<path d="M280.472 248.946C279.932 248.844 279.686 248.468 279.768 248.079C280.506 244.652 280.533 244.577 280.547 244.536C280.683 244.161 281.093 243.976 281.468 244.113C281.844 244.249 282.028 244.666 281.885 245.034C281.885 245.069 281.646 246.14 281.161 248.373C281.1 248.714 280.799 248.946 280.472 248.946Z" fill="black"/>
<path d="M291.353 291.264C289.926 291.264 288.527 291.23 287.38 291.182C285.755 291.114 283.339 290.903 281.154 289.885C278.273 288.547 276.526 286.076 275.802 282.315C274.976 277.98 275.195 274.041 275.775 269.467C275.823 269.071 276.164 268.818 276.58 268.846C276.976 268.894 277.249 269.255 277.202 269.651C276.635 274.089 276.423 277.898 277.215 282.048C277.843 285.325 279.332 287.462 281.755 288.588C283.243 289.278 285.045 289.646 287.442 289.749C289.81 289.851 293.292 289.872 295.75 289.701C296.139 289.674 296.487 289.974 296.514 290.363C296.541 290.759 296.241 291.101 295.852 291.128C294.534 291.223 292.923 291.264 291.353 291.264Z" fill="black"/>
<path d="M312.338 279.679C312.161 279.679 311.983 279.673 311.799 279.666C310.311 279.563 308.877 279.065 307.662 278.225C307.334 278 307.252 277.55 307.478 277.229C307.703 276.901 308.147 276.819 308.474 277.044C309.478 277.741 310.666 278.157 311.888 278.232C315.574 278.519 318.83 275.645 319.076 271.924C319.192 270.122 318.598 268.381 317.41 267.023C316.216 265.664 314.571 264.852 312.768 264.736C311.403 264.647 310.085 264.961 308.918 265.637C308.577 265.835 308.14 265.719 307.935 265.378C307.737 265.036 307.853 264.599 308.194 264.395C309.608 263.569 311.212 263.193 312.857 263.296C315.042 263.439 317.042 264.422 318.489 266.067C319.929 267.712 320.653 269.822 320.51 272.006C320.23 276.348 316.619 279.679 312.338 279.679Z" fill="black"/>
<path d="M313.479 276.177C313.295 276.177 313.11 276.109 312.967 275.966L308.454 271.453C308.297 271.296 308.222 271.071 308.25 270.846C308.277 270.621 308.413 270.429 308.611 270.32L314.667 266.941C315.022 266.75 315.452 266.873 315.643 267.221C315.834 267.569 315.711 268.006 315.363 268.197L310.134 271.119L313.977 274.955C314.257 275.235 314.257 275.693 313.977 275.973C313.847 276.102 313.663 276.177 313.479 276.177Z" fill="black"/>
<path d="M289.278 319.8C288.548 319.8 287.797 319.759 287.012 319.67C285.23 319.472 283.919 318.66 283.127 317.247C280.315 312.256 285.196 301.17 285.81 299.818L286.513 290.466C286.541 290.07 286.896 289.776 287.285 289.804C287.681 289.831 287.974 290.179 287.947 290.575L287.237 300.057C287.23 300.146 287.21 300.228 287.175 300.303C287.121 300.419 281.81 311.976 284.383 316.543C284.95 317.54 285.858 318.1 287.175 318.243C303.703 319.991 308.324 300.009 308.365 299.805C308.447 299.415 308.816 299.163 309.219 299.258C309.608 299.347 309.847 299.723 309.765 300.112C309.717 300.33 305.232 319.8 289.278 319.8Z" fill="black"/>
<path d="M289.53 279.68C288.643 279.68 287.68 279.468 286.663 279.038C286.295 278.888 286.124 278.464 286.274 278.096C286.431 277.734 286.848 277.563 287.216 277.707C288.759 278.355 290.083 278.403 291.135 277.857C292.916 276.935 293.456 274.635 293.463 274.614C293.551 274.225 293.92 273.979 294.323 274.075C294.712 274.164 294.951 274.546 294.862 274.935C294.835 275.058 294.166 277.918 291.797 279.14C291.101 279.502 290.343 279.68 289.53 279.68Z" fill="black"/>
<path d="M309.061 300.685C308.604 300.644 308.31 300.296 308.344 299.907L310.222 279.099C310.256 278.703 310.625 278.417 311 278.451C311.396 278.485 311.689 278.833 311.649 279.229L309.771 300.037C309.744 300.405 309.43 300.685 309.061 300.685Z" fill="black"/>
<path d="M248.011 309.546C239.471 309.546 231.006 306.979 224.316 300.262C219.688 295.613 215.865 289.667 212.636 282.083C208.103 271.426 205.427 258.613 205.106 246.004C205.092 245.608 205.406 245.28 205.802 245.267C206.205 245.28 206.526 245.567 206.539 245.963C206.853 258.394 209.489 271.023 213.953 281.516C217.107 288.93 220.828 294.732 225.326 299.245C237.628 311.594 256.36 309.259 269.795 302.945C274.751 300.617 280.369 299.381 286.5 299.279C286.902 299.279 287.223 299.593 287.23 299.982C287.237 300.378 286.923 300.706 286.527 300.712C280.601 300.815 275.181 302.003 270.409 304.242C263.774 307.375 255.862 309.546 248.011 309.546Z" fill="black"/>
<path d="M243.103 360.746C228.719 359.688 218.036 353.728 206.389 345.099C181.588 326.722 164.761 290.131 161.368 247.226C161.334 246.83 161.634 246.489 162.023 246.455C162.501 246.407 162.767 246.721 162.795 247.11C166.153 289.606 182.769 325.8 207.236 343.939C218.677 352.417 229.163 358.274 243.144 359.305C243.54 359.333 243.833 359.681 243.806 360.07C243.792 360.466 243.478 360.746 243.103 360.746Z" fill="black"/>
<path d="M194.143 250.824C194.013 250.824 193.883 250.789 193.767 250.714C193.433 250.503 193.33 250.059 193.535 249.724C193.576 249.663 197.317 243.656 201.549 238.01C205.83 232.303 205.878 226.691 203.748 224.316L203.092 223.565C200.566 220.664 193.808 212.949 188.907 213.298C187.5 213.393 186.353 214.13 185.398 215.571C184.654 216.69 184.449 217.892 184.763 219.244C186.053 224.753 195.481 230.269 195.576 230.323C195.924 230.521 196.04 230.958 195.842 231.306C195.638 231.654 195.194 231.77 194.859 231.572C194.45 231.334 184.804 225.688 183.363 219.578C182.954 217.844 183.234 216.233 184.196 214.779C185.398 212.97 186.947 211.987 188.804 211.864C188.934 211.857 189.07 211.85 189.2 211.85C194.784 211.85 201.331 219.366 204.164 222.623L204.806 223.353C207.809 226.705 206.922 233.224 202.689 238.87C198.498 244.461 194.784 250.421 194.75 250.475C194.62 250.707 194.382 250.824 194.143 250.824Z" fill="black"/>
<path d="M181.042 251.622C176.311 251.622 171.922 251.315 168.461 250.735C163.737 249.943 161.416 248.782 161.375 247.191C161.341 245.751 162.351 245.123 164.235 244.468C164.604 244.331 165.013 244.536 165.15 244.911C165.28 245.287 165.082 245.696 164.706 245.826C162.788 246.495 162.802 246.83 162.808 247.157C162.815 247.485 163.894 248.516 168.7 249.321C172.809 250.011 178.271 250.304 184.06 250.147C197.747 249.779 205.147 247.219 205.12 246.017C205.113 245.867 204.901 244.529 198.792 243.662C198.396 243.608 198.123 243.246 198.184 242.85C198.239 242.454 198.58 242.174 198.996 242.242C204.041 242.952 206.512 244.174 206.56 245.976C206.669 249.929 191.917 251.369 184.107 251.581C183.063 251.608 182.046 251.622 181.042 251.622Z" fill="black"/>
<path d="M185.35 243.662C185.002 243.662 184.701 243.41 184.64 243.062C183.288 234.829 178.318 226.944 178.264 226.869C178.052 226.534 178.148 226.091 178.482 225.879C178.823 225.674 179.26 225.763 179.472 226.098C179.684 226.432 184.653 234.31 186.053 242.83C186.114 243.219 185.855 243.587 185.459 243.656C185.432 243.662 185.391 243.662 185.35 243.662Z" fill="black"/>
<path d="M349.454 309.546C341.604 309.546 333.692 307.375 327.049 304.255C322.523 302.132 315.977 300.794 309.539 300.685C309.143 300.678 308.829 300.351 308.836 299.955C308.843 299.559 309.164 299.252 309.553 299.252C316.202 299.361 322.967 300.747 327.664 302.958C341.092 309.266 359.831 311.601 372.132 299.258C376.631 294.739 380.352 288.943 383.506 281.53C387.97 271.03 390.605 258.408 390.919 245.977C390.926 245.581 391.226 245.321 391.657 245.28C392.052 245.287 392.367 245.615 392.353 246.018C392.032 258.619 389.363 271.433 384.823 282.096C381.601 289.681 377.785 295.627 373.15 300.275C366.466 306.979 357.995 309.546 349.454 309.546Z" fill="black"/>
<path d="M337.249 364.07C335.351 364.07 333.446 364.002 331.528 363.872C331.132 363.845 330.839 363.504 330.866 363.108C330.893 362.718 331.228 362.418 331.631 362.445C352.356 363.872 371.512 357.817 390.223 343.952C414.697 325.814 431.313 289.619 434.665 247.123C434.699 246.727 435.074 246.407 435.436 246.468C435.832 246.502 436.132 246.843 436.098 247.239C432.705 290.131 415.878 326.722 391.077 345.099C374.072 357.701 355.988 364.07 337.249 364.07Z" fill="black"/>
<path d="M403.324 250.823C403.085 250.823 402.853 250.7 402.716 250.482C402.682 250.421 398.968 244.461 394.777 238.877C390.544 233.238 389.657 226.712 392.66 223.36C395.152 220.568 402.422 212.451 408.512 212.451C410.451 212.485 412 213.243 413.222 214.717C414.055 215.707 414.376 216.895 414.192 218.247C413.407 224.036 403.098 231.238 402.661 231.545C402.334 231.77 401.89 231.688 401.665 231.361C401.439 231.033 401.521 230.589 401.849 230.364C401.951 230.296 412.075 223.223 412.772 218.056C412.901 217.107 412.683 216.322 412.123 215.639C411.154 214.485 410.007 213.912 408.607 213.885C404.901 213.885 399.958 217.352 393.828 224.206C391.595 226.698 391.643 232.303 395.924 238.01C400.156 243.655 403.897 249.663 403.938 249.724C404.15 250.059 404.047 250.502 403.713 250.714C403.59 250.789 403.453 250.823 403.324 250.823Z" fill="black"/>
<path d="M416.431 251.622C415.427 251.622 414.403 251.608 413.372 251.581C405.556 251.369 390.81 249.929 390.92 245.97C390.967 244.167 393.439 242.945 398.483 242.235C398.92 242.194 399.241 242.454 399.296 242.843C399.35 243.232 399.077 243.601 398.688 243.655C392.572 244.516 392.36 245.854 392.36 246.004C392.326 247.212 399.733 249.772 413.413 250.141C419.243 250.298 424.67 250.004 428.78 249.315C433.586 248.509 434.658 247.478 434.671 247.151C434.678 246.823 434.692 246.488 432.767 245.819C432.391 245.69 432.193 245.28 432.323 244.905C432.453 244.536 432.869 244.338 433.238 244.461C435.129 245.116 436.146 245.751 436.105 247.192C436.064 248.782 433.743 249.936 429.019 250.735C425.551 251.315 421.161 251.622 416.431 251.622Z" fill="black"/>
<path d="M278.369 270.757C278.014 270.757 277.632 270.709 277.216 270.614C273.488 269.74 271.754 264.013 273.256 257.561C274.758 251.11 278.861 246.741 282.581 247.615C286.302 248.489 288.043 254.216 286.534 260.661L286.384 261.309C285.995 263.03 285.797 263.89 284.827 265.385C284.616 265.719 284.172 265.822 283.838 265.596C283.503 265.378 283.407 264.941 283.626 264.606C284.452 263.323 284.609 262.64 284.991 260.995L285.141 260.34C286.425 254.865 285.1 249.683 282.261 249.014C279.434 248.352 275.939 252.414 274.663 257.889C273.386 263.364 274.704 268.552 277.543 269.214C277.871 269.29 278.089 269.31 278.41 269.324C278.765 269.249 279.134 269.638 279.134 270.034C279.141 270.443 278.806 270.757 278.369 270.757Z" fill="black"/>
<path d="M295.327 273.659C295.006 273.659 294.685 273.618 294.371 273.549C292.521 273.119 291.101 271.467 290.378 268.9C289.702 266.484 289.715 263.501 290.412 260.504C291.108 257.5 292.419 254.824 294.098 252.96C295.88 250.974 297.88 250.127 299.737 250.557C301.587 250.987 303.007 252.639 303.724 255.206C304.399 257.623 304.386 260.606 303.689 263.603C302.993 266.6 301.682 269.283 300.003 271.146C298.522 272.792 296.897 273.659 295.327 273.659ZM298.781 251.882C297.621 251.882 296.364 252.585 295.163 253.916C293.647 255.602 292.453 258.06 291.804 260.831C291.156 263.596 291.142 266.327 291.75 268.518C292.323 270.559 293.361 271.85 294.685 272.157C296.003 272.464 297.511 271.768 298.924 270.191C300.44 268.504 301.635 266.047 302.283 263.275C302.932 260.511 302.945 257.78 302.338 255.589C301.764 253.547 300.727 252.257 299.402 251.95C299.204 251.902 299 251.882 298.781 251.882Z" fill="black"/>
<path d="M290.91 262.36C290.712 262.36 290.514 262.279 290.371 262.115C288.295 259.76 286.425 261.173 286.227 261.336C285.913 261.589 285.469 261.541 285.217 261.241C284.964 260.934 285.005 260.49 285.305 260.237C286.37 259.343 289.012 258.394 291.449 261.166C291.709 261.466 291.681 261.917 291.381 262.183C291.245 262.299 291.074 262.36 290.91 262.36Z" fill="black"/>
<path d="M565.292 434.964C564.773 434.964 564.261 434.951 563.749 434.923C563.353 434.903 563.053 434.562 563.073 434.166C563.094 433.77 563.449 433.517 563.831 433.49C566.2 433.633 568.623 433.435 571.033 432.91C585.703 429.742 597.868 408.764 603.419 389.383C603.528 389.008 603.91 388.782 604.306 388.892C604.681 389.001 604.907 389.397 604.798 389.779C599.125 409.576 586.577 431.026 571.327 434.316C569.32 434.746 567.292 434.964 565.292 434.964Z" fill="black"/>
<path d="M468.149 446.126C466.238 446.126 464.251 445.921 462.196 445.471C461.807 445.389 461.568 445 461.65 444.617C461.732 444.228 462.08 443.976 462.504 444.071C482.076 448.358 494.91 429.285 498.391 423.339C498.589 422.998 499.026 422.882 499.374 423.079C499.716 423.277 499.832 423.721 499.627 424.063C496.384 429.606 485.264 446.126 468.149 446.126Z" fill="black"/>
<path d="M430.378 409.897C429.988 409.897 429.674 409.597 429.661 409.208C429.517 405.644 429.756 402.866 430.193 399.534C436.235 352.902 447.082 333.644 456.646 316.646C467.979 296.521 490.8 297.408 497.545 298.166C497.934 298.207 498.22 298.562 498.173 298.958C498.125 299.354 497.797 299.661 497.381 299.593C490.882 298.856 468.805 297.995 457.902 317.349C448.4 334.231 437.627 353.366 431.62 399.719C431.19 402.975 430.958 405.692 431.101 409.146C431.122 409.542 430.808 409.877 430.412 409.89C430.398 409.897 430.384 409.897 430.378 409.897Z" fill="black"/>
<path d="M570.746 333.33C570.439 333.33 570.159 333.132 570.064 332.825C563.271 311.089 546.696 304.761 533.009 301.675C532.947 301.661 525.499 300.146 521.881 299.873C521.485 299.845 521.192 299.497 521.219 299.101C521.253 298.705 521.608 298.378 521.99 298.439C525.697 298.719 533.002 300.207 533.316 300.269C547.392 303.443 564.432 309.962 571.436 332.395C571.552 332.77 571.34 333.173 570.965 333.296C570.883 333.316 570.814 333.33 570.746 333.33Z" fill="black"/>
<path d="M527.138 290.623C525.732 290.623 524.182 290.39 522.38 289.913C520.045 289.298 516.639 288.274 514.304 287.359C513.928 287.216 513.751 286.8 513.894 286.431C514.038 286.062 514.468 285.892 514.823 286.021C517.11 286.909 520.448 287.919 522.741 288.52C525.063 289.134 526.892 289.305 528.517 289.093C531.172 288.732 533.227 287.127 534.784 284.185C536.176 281.577 537.207 278.533 538.026 274.601C538.074 274.409 542.088 259.104 541.87 252.79C541.856 252.394 542.163 252.059 542.559 252.045C542.894 252.059 543.29 252.339 543.303 252.735C543.529 259.254 539.596 274.293 539.426 274.928C538.586 278.956 537.507 282.123 536.047 284.854C534.251 288.233 531.855 290.083 528.701 290.507C528.203 290.588 527.684 290.623 527.138 290.623Z" fill="black"/>
<path d="M503.293 271.938C503.218 271.938 503.136 271.924 503.061 271.897C499.046 270.518 496.766 266.368 497.756 262.237C498.261 260.108 499.572 258.305 501.436 257.158C503.299 256.012 505.498 255.663 507.634 256.169C509.232 256.551 510.659 257.391 511.764 258.599C512.031 258.892 512.01 259.343 511.717 259.609C511.416 259.882 510.973 259.855 510.699 259.561C509.792 258.565 508.611 257.875 507.293 257.561C505.552 257.145 503.723 257.425 502.173 258.374C500.637 259.323 499.558 260.804 499.142 262.565C498.323 265.972 500.2 269.399 503.511 270.532C503.887 270.662 504.084 271.071 503.962 271.447C503.873 271.747 503.593 271.938 503.293 271.938Z" fill="black"/>
<path d="M503.456 268.32C503.197 268.32 502.951 268.184 502.821 267.938C502.637 267.59 502.774 267.153 503.122 266.969L507.928 264.436L503.798 260.101C503.518 259.814 503.531 259.364 503.818 259.084C504.112 258.811 504.562 258.824 504.828 259.111L509.614 264.135C509.771 264.299 509.839 264.525 509.805 264.743C509.771 264.968 509.634 265.159 509.43 265.262L503.784 268.238C503.688 268.293 503.572 268.32 503.456 268.32Z" fill="black"/>
<path d="M480.212 383.185C479.638 383.048 479.413 382.652 479.522 382.27C484.792 363.654 484.328 335.931 484.328 335.658C484.321 335.262 484.635 334.934 485.031 334.927C485.434 334.927 485.755 335.241 485.762 335.63C485.769 335.91 486.233 363.845 480.901 382.659C480.806 382.98 480.526 383.185 480.212 383.185Z" fill="black"/>
<path d="M527.841 279.782C526.257 279.782 524.967 279.324 523.998 278.416C522.052 276.601 522.182 273.665 522.189 273.542C522.209 273.16 522.523 272.86 522.905 272.86C523.336 272.88 523.643 273.221 523.622 273.611C523.622 273.631 523.527 276.014 524.988 277.372C525.861 278.178 527.138 278.492 528.804 278.28C529.2 278.253 529.555 278.512 529.602 278.908C529.65 279.304 529.37 279.659 528.974 279.707C528.578 279.755 528.203 279.782 527.841 279.782Z" fill="black"/>
<path d="M478.908 425.837C476.136 425.837 473.59 424.513 471.979 422.206C470.218 419.68 469.951 416.512 471.269 413.727L485.373 383.874C485.543 383.512 485.967 383.362 486.328 383.533C486.69 383.704 486.834 384.127 486.67 384.489L472.566 414.335C471.474 416.649 471.692 419.284 473.16 421.38C474.621 423.482 477.01 424.602 479.57 424.363L568.917 416.348C571.395 416.123 573.6 414.587 574.658 412.341L585.144 390.148C585.314 389.786 585.745 389.629 586.099 389.807C586.461 389.977 586.605 390.4 586.441 390.762L575.955 412.956C574.672 415.666 572.03 417.509 569.04 417.782L479.693 425.796C479.434 425.824 479.167 425.837 478.908 425.837Z" fill="black"/>
<path d="M493.489 369.088C493.387 369.088 493.278 369.067 493.182 369.02C492.82 368.849 492.677 368.426 492.841 368.064L502.487 347.652C503.77 344.942 506.412 343.099 509.402 342.826L598.756 334.811C601.773 334.545 604.702 335.876 606.47 338.402C608.231 340.928 608.497 344.102 607.18 346.888L602.551 356.691C602.381 357.052 601.944 357.203 601.596 357.032C601.241 356.861 601.084 356.431 601.254 356.076L605.883 346.273C606.975 343.959 606.757 341.324 605.289 339.228C603.835 337.132 601.5 336.006 598.885 336.245L509.532 344.259C507.054 344.485 504.849 346.021 503.791 348.267L494.145 368.678C494.015 368.938 493.756 369.088 493.489 369.088Z" fill="black"/>
<path d="M473.774 423.871C473.59 423.871 473.413 423.803 473.269 423.666L467.064 417.536C465.541 414.942 465.425 412.075 466.634 409.529L497.852 343.461C499.135 340.75 501.777 338.9 504.76 338.634L594.114 330.62C595.37 330.517 596.592 330.667 597.746 331.077C597.821 331.104 597.889 331.145 597.957 331.193L604.443 336.368C604.75 336.613 604.804 337.064 604.559 337.378C604.306 337.692 603.862 337.74 603.548 337.494L597.159 332.395C596.23 332.081 595.254 331.958 594.25 332.053L504.897 340.068C502.426 340.293 500.221 341.822 499.156 344.075L467.938 410.143C466.941 412.239 467.023 414.58 468.149 416.587L474.279 422.649C474.559 422.929 474.566 423.38 474.286 423.666C474.15 423.803 473.965 423.871 473.774 423.871Z" fill="black"/>
<path d="M510.447 259.049C510.283 259.049 510.126 258.995 509.989 258.886C509.682 258.633 509.641 258.182 509.894 257.875C512.42 254.81 513.84 243.949 513.853 243.84C513.887 243.546 514.099 243.314 514.386 243.239C514.604 243.178 536.729 237.546 543.255 252.482C543.412 252.844 543.249 253.267 542.88 253.424C542.525 253.581 542.095 253.417 541.938 253.056C536.415 240.385 518.338 243.812 515.212 244.516C514.891 246.755 513.491 255.773 511.007 258.783C510.856 258.961 510.652 259.049 510.447 259.049Z" fill="black"/>
<path d="M499.633 290.151C498.084 290.151 496.384 290.022 494.541 289.762C488.424 288.909 481.133 287.277 478.983 282.226C478.382 280.82 478.375 279.27 478.423 278.225C478.642 273.693 480.369 269.269 483.161 266.094L483.7 265.487C485.878 263.036 487.455 261.268 486.526 257.848C484.813 251.52 486.287 243.614 490.11 238.611C492.37 235.655 495.189 234.091 498.261 234.091H502.009C502.405 234.091 502.726 234.412 502.726 234.808C502.726 235.204 502.405 235.525 502.009 235.525H498.261C494.971 235.525 492.629 237.675 491.25 239.484C487.735 244.079 486.335 251.643 487.919 257.472C489.052 261.644 487.072 263.869 484.779 266.443L484.246 267.043C481.666 269.979 480.068 274.075 479.864 278.294C479.823 279.195 479.816 280.526 480.3 281.659C482.171 286.049 489.004 287.537 494.739 288.342C501.64 289.319 506.283 288.424 508.556 285.707C511.614 282.062 510.952 278.205 509.034 276.164C508.761 275.877 508.774 275.42 509.068 275.147C509.355 274.88 509.812 274.894 510.078 275.181C512.413 277.666 513.273 282.308 509.648 286.629C507.682 288.97 504.323 290.151 499.633 290.151Z" fill="black"/>
<path d="M564.985 453.035C564.623 453.035 564.316 452.768 564.275 452.407C562.234 436.419 562.438 417.768 562.438 417.577C562.445 417.181 562.766 416.867 563.155 416.867C563.531 416.915 563.879 417.195 563.872 417.591C563.872 417.775 563.667 436.33 565.695 452.215C565.742 452.604 565.469 452.966 565.073 453.021C565.046 453.035 565.012 453.035 564.985 453.035Z" fill="black"/>
<path d="M532.558 294.015C529.288 294.015 525.991 293.251 523.806 292.322C523.445 292.165 523.267 291.742 523.424 291.38C523.581 291.012 524.004 290.848 524.366 290.998C528.701 292.841 538.388 294.09 541.119 288.677C543.822 283.318 538.484 278.389 538.258 278.184C537.965 277.918 537.937 277.468 538.211 277.167C538.477 276.874 538.934 276.846 539.221 277.113C539.282 277.174 545.597 282.977 542.402 289.319C540.627 292.834 536.613 294.015 532.558 294.015Z" fill="black"/>
<path d="M594.449 391.561C592.544 391.561 590.537 391.445 588.462 391.206C584.065 390.701 577.812 387.533 578.385 382.359C578.577 380.604 579.594 379.109 581.171 378.242C581.519 378.051 581.949 378.174 582.147 378.529C582.338 378.877 582.208 379.314 581.86 379.505C580.7 380.133 579.956 381.232 579.812 382.516C579.334 386.871 585.321 389.397 588.625 389.786C599.698 391.062 606.948 388.673 609.235 385.738C610.955 383.54 612.245 380.659 613.181 376.918C614.601 371.224 615.017 364.903 614.341 359.121C613.631 353.011 606.088 347.427 606.013 347.365C605.692 347.133 605.624 346.683 605.856 346.362C606.095 346.041 606.538 345.973 606.859 346.205C607.194 346.451 614.983 352.219 615.768 358.95C616.478 364.985 616.062 371.32 614.573 377.259C613.59 381.198 612.218 384.256 610.375 386.618C607.897 389.772 601.937 391.561 594.449 391.561Z" fill="black"/>
<path d="M588.939 370.234C588.148 370.234 587.499 370.207 587.048 370.139L586.536 370.071C584.932 369.859 582.516 369.538 581.457 367.838C580.229 365.872 579.935 363.606 580.652 361.612C581.253 359.96 582.516 358.602 584.4 357.578C586.018 356.697 587.717 356.8 589.376 356.895C589.745 356.916 590.12 356.943 590.496 356.95C604.49 357.291 607.071 354.287 607.091 354.253C607.337 353.953 607.774 353.885 608.088 354.117C608.395 354.349 608.477 354.772 608.259 355.093C607.993 355.468 605.269 358.745 590.455 358.377C590.066 358.37 589.677 358.342 589.294 358.322C587.765 358.233 586.345 358.151 585.082 358.834C583.512 359.68 582.475 360.78 582.004 362.09C581.437 363.66 581.683 365.476 582.673 367.067C583.369 368.193 585.39 368.459 586.721 368.637L587.253 368.712C590.353 369.169 604.019 367.695 605.221 367.224C605.596 367.094 606.006 367.265 606.149 367.633C606.293 368.002 606.115 368.419 605.74 368.562C604.374 369.094 593.875 370.234 588.939 370.234Z" fill="black"/>
<path d="M556.015 335.467C555.619 335.467 555.298 335.146 555.298 334.75V331.924C555.298 331.528 555.619 331.207 556.015 331.207C556.411 331.207 556.731 331.528 556.731 331.924V334.75C556.738 335.146 556.411 335.467 556.015 335.467Z" fill="black"/>
<path d="M591.513 381.273C589.608 381.273 587.703 381.205 585.935 381.021C582.283 380.652 578.535 378.194 578.931 373.682C579.129 371.511 580.583 369.204 582.652 367.797C582.973 367.572 583.423 367.654 583.648 367.989C583.874 368.316 583.785 368.76 583.457 368.985C581.757 370.139 580.515 372.078 580.358 373.812C580.051 377.355 583.102 379.293 586.079 379.594C594.312 380.447 605.698 378.85 605.808 378.829C606.19 378.754 606.558 379.048 606.62 379.437C606.674 379.826 606.401 380.195 606.006 380.249C605.924 380.263 598.694 381.273 591.513 381.273Z" fill="black"/>
<path d="M542.682 388.291C541.863 388.291 541.092 388.093 540.395 387.697C537.474 386.018 537.098 381.178 539.556 376.918C542.013 372.665 546.382 370.562 549.311 372.248C552.233 373.934 552.608 378.775 550.144 383.028C548.976 385.048 547.359 386.646 545.577 387.54C544.594 388.045 543.604 388.291 542.682 388.291ZM540.805 377.635C538.743 381.212 538.887 385.164 541.119 386.455C542.143 387.055 543.495 386.987 544.942 386.263C546.478 385.492 547.884 384.093 548.908 382.311C550.936 378.802 550.799 374.761 548.601 373.491C546.369 372.207 542.867 374.057 540.805 377.635Z" fill="black"/>
<path d="M518.55 319.977C512.01 319.977 498.486 302.617 496.896 300.535C496.766 300.364 496.712 300.146 496.766 299.934L499.21 289.209C499.299 288.82 499.688 288.581 500.07 288.67C500.459 288.759 500.698 289.141 500.61 289.53L498.241 299.927C504.398 307.901 515.341 319.799 519.082 318.461C521.581 317.594 521.52 308.105 520.673 301.641C520.666 301.559 520.666 301.47 520.687 301.388L523.39 289.599C523.479 289.209 523.861 288.97 524.25 289.059C524.639 289.148 524.878 289.53 524.789 289.919L522.113 301.579C522.509 304.644 523.998 318.27 519.56 319.813C519.239 319.922 518.905 319.977 518.55 319.977Z" fill="black"/>
<path d="M509.102 239.43C509 239.43 508.89 239.409 508.788 239.355L503.764 236.904C503.402 236.733 503.258 236.303 503.429 235.941C503.6 235.587 504.03 235.436 504.385 235.614L509.409 238.065C509.771 238.235 509.914 238.665 509.737 239.027C509.621 239.28 509.361 239.43 509.102 239.43Z" fill="black"/>
<path d="M615.379 453.628H462.347C461.951 453.628 461.63 453.308 461.63 452.912C461.63 452.516 461.951 452.195 462.347 452.195H615.372C615.768 452.195 616.089 452.516 616.089 452.912C616.096 453.308 615.775 453.628 615.379 453.628Z" fill="black"/>
<path d="M301.88 453.628H92.6104C92.2144 453.628 91.8936 453.308 91.8936 452.912C91.8936 452.516 92.2144 452.195 92.6104 452.195H301.88C302.276 452.195 302.597 452.516 302.597 452.912C302.597 453.308 302.276 453.628 301.88 453.628Z" fill="black"/>
<path d="M99.6821 434.555C99.1974 434.555 98.7059 434.432 98.2621 434.166L91.0396 429.906C90.3911 429.524 89.9337 428.916 89.7494 428.186C89.5582 427.462 89.6674 426.711 90.0497 426.063L103.321 403.549C103.703 402.9 103.485 402.06 102.836 401.671L94.5621 396.79C93.7088 396.292 93.19 395.398 93.1831 394.408C93.1695 393.418 93.6678 392.51 94.5075 391.991L128.279 371.088C129.166 370.535 130.279 370.528 131.18 371.054C132.081 371.586 132.607 372.563 132.559 373.607L130.613 413.27C130.566 414.259 130.013 415.133 129.146 415.604C128.272 416.075 127.241 416.055 126.388 415.55L117.254 410.164C116.94 409.979 116.571 409.931 116.216 410.02C115.861 410.109 115.561 410.334 115.376 410.648L102.099 433.162C101.58 434.063 100.645 434.555 99.6821 434.555ZM95.2653 393.213C94.8488 393.466 94.6099 393.909 94.6167 394.394C94.6236 394.879 94.8761 395.316 95.2857 395.561L103.566 400.442C104.898 401.227 105.341 402.948 104.556 404.286L91.2853 426.8C91.101 427.114 91.0464 427.483 91.1352 427.838C91.2239 428.193 91.4492 428.486 91.77 428.677L98.9926 432.937C99.6411 433.313 100.481 433.101 100.87 432.452L114.148 409.938C114.53 409.297 115.138 408.832 115.861 408.648C116.585 408.457 117.336 408.566 117.984 408.948L127.111 414.335C127.521 414.58 128.026 414.587 128.456 414.362C128.88 414.13 129.153 413.707 129.173 413.222L131.119 373.559C131.146 373.04 130.893 372.576 130.45 372.31C130.006 372.051 129.473 372.051 129.03 372.324L95.2653 393.213Z" fill="black"/>
<path d="M167.86 250.612C167.635 250.612 167.409 250.503 167.273 250.298C162.801 243.812 159.409 227.074 159.265 226.364C159.19 225.975 159.443 225.599 159.825 225.517C160.228 225.456 160.59 225.695 160.671 226.077C160.706 226.248 164.153 243.239 168.454 249.485C168.679 249.813 168.597 250.257 168.269 250.482C168.147 250.571 168.003 250.612 167.86 250.612Z" fill="black"/>
<path d="M413.182 243.662C412.676 243.587 412.41 243.219 412.472 242.83C413.878 234.269 420.363 226.111 420.636 225.77C420.889 225.456 421.339 225.422 421.647 225.661C421.954 225.913 422.008 226.364 421.756 226.671C421.694 226.753 415.236 234.883 413.885 243.062C413.83 243.417 413.53 243.662 413.182 243.662Z" fill="black"/>
<path d="M430.678 250.018C430.535 250.018 430.398 249.977 430.268 249.888C429.941 249.663 429.859 249.219 430.084 248.892C434.385 242.652 437.832 226.234 437.866 226.07C437.948 225.681 438.324 225.442 438.713 225.51C439.102 225.592 439.355 225.975 439.273 226.357C439.129 227.04 435.73 243.219 431.265 249.697C431.135 249.909 430.903 250.018 430.678 250.018Z" fill="black"/>
<path d="M337.379 409.897C337.106 409.897 336.853 409.747 336.73 409.481C324.565 383.383 334.17 336.531 334.266 336.06C334.348 335.671 334.716 335.439 335.119 335.507C335.508 335.589 335.754 335.972 335.672 336.361C335.577 336.825 326.067 383.219 338.027 408.88C338.191 409.242 338.041 409.665 337.679 409.836C337.584 409.877 337.481 409.897 337.379 409.897Z" fill="black"/>
<path d="M445.123 472.955H319.11C309.212 472.955 301.163 464.906 301.163 455.007V426.404C301.163 416.505 309.212 408.457 319.11 408.457H445.123C455.021 408.457 463.07 416.505 463.07 426.404V455.007C463.063 464.906 455.015 472.955 445.123 472.955ZM319.11 409.897C310.004 409.897 302.597 417.304 302.597 426.404V455.007C302.597 464.114 310.004 471.521 319.11 471.521H445.123C454.223 471.521 461.636 464.114 461.636 455.007V426.404C461.636 417.304 454.229 409.897 445.123 409.897H319.11Z" fill="black"/>
<path d="M243.444 403.33H136.491C136.095 403.33 135.774 403.009 135.774 402.613C135.774 402.217 136.095 401.896 136.491 401.896H243.444C243.84 401.896 244.161 402.217 244.161 402.613C244.161 403.009 243.84 403.33 243.444 403.33Z" fill="black"/>
<path d="M105.376 382.304C104.98 382.304 104.659 381.983 104.659 381.587V274.696C104.659 264.798 112.708 256.749 122.606 256.749H162.638C163.034 256.749 163.354 257.07 163.354 257.466C163.354 257.862 163.034 258.183 162.638 258.183H122.606C113.506 258.183 106.1 265.589 106.1 274.689V381.58C106.093 381.983 105.779 382.304 105.376 382.304Z" fill="black"/>
<path d="M273.522 258.189H206.956C206.56 258.189 206.239 257.869 206.239 257.473C206.239 257.077 206.56 256.756 206.956 256.756H273.522C273.918 256.756 274.239 257.077 274.239 257.473C274.239 257.869 273.918 258.189 273.522 258.189Z" fill="black"/>
<path d="M325.172 279.639C324.79 279.639 324.469 279.338 324.455 278.949C324.264 274.068 326.537 270.245 328.736 266.552C331.35 262.149 334.06 257.602 332.77 251.042C330.449 239.28 313.41 236.576 313.239 236.549C313.089 236.529 312.946 236.453 312.836 236.344C306.46 229.968 298.698 226.589 291.012 226.917C284.212 227.183 277.993 230.221 273.495 235.484C267.924 242.003 271.733 252.284 274.505 257.834C274.682 258.189 274.539 258.619 274.184 258.797C273.843 258.974 273.399 258.831 273.222 258.476C269.644 251.308 266.6 241.334 272.402 234.549C277.16 228.985 283.748 225.763 290.95 225.483C298.931 225.183 307.047 228.61 313.683 235.163C315.915 235.545 331.787 238.645 334.176 250.762C335.576 257.855 332.729 262.647 329.971 267.282C327.78 270.962 325.718 274.437 325.889 278.894C325.903 279.29 325.595 279.625 325.199 279.639C325.193 279.639 325.186 279.639 325.172 279.639Z" fill="black"/>
<path d="M336.074 307.471C335.787 307.471 335.514 307.293 335.405 307.013C335.262 306.645 335.446 306.228 335.815 306.085C340.04 304.453 343.297 300.521 344.116 296.07C345.092 290.759 342.484 285.066 337.631 281.912C333.173 279.017 327.124 278.662 321.452 280.929C321.083 281.079 320.666 280.895 320.516 280.533C320.366 280.164 320.544 279.748 320.912 279.598C327.022 277.147 333.562 277.556 338.402 280.704C343.734 284.165 346.594 290.438 345.515 296.323C344.614 301.258 341.003 305.614 336.32 307.423C336.245 307.457 336.156 307.471 336.074 307.471Z" fill="black"/>
<path d="M272.375 303.354C272.259 303.354 272.143 303.327 272.034 303.265C267.221 300.665 265.999 292.616 267.911 287.018C269.904 281.168 275.686 279.174 275.925 279.092C276.308 278.963 276.71 279.168 276.833 279.543C276.963 279.918 276.758 280.328 276.383 280.451C276.328 280.471 271.031 282.315 269.269 287.476C267.358 293.067 269.003 299.989 272.717 301.996C273.065 302.187 273.195 302.617 273.01 302.965C272.881 303.218 272.628 303.354 272.375 303.354Z" fill="black"/>
<path d="M310.229 265.023C309.922 265.023 309.642 264.832 309.546 264.524C309.362 263.951 309.191 263.234 309 262.415C308.488 260.237 307.778 257.261 306.14 254.858C304.221 252.052 301.45 250.605 297.668 250.421C286.8 249.895 278.683 243.191 278.342 242.905C278.034 242.652 277.994 242.201 278.253 241.894C278.512 241.587 278.963 241.56 279.263 241.805C279.345 241.874 287.366 248.489 297.736 248.987C301.941 249.192 305.17 250.892 307.327 254.052C309.116 256.667 309.86 259.8 310.399 262.087C310.584 262.859 310.748 263.541 310.918 264.087C311.041 264.463 310.829 264.866 310.454 264.989C310.372 265.016 310.297 265.023 310.229 265.023Z" fill="black"/>
<path d="M280.93 274.321C280.738 274.321 280.54 274.245 280.404 274.088C280.301 273.979 277.885 271.31 278.083 268.586C278.219 266.736 279.496 266.395 280.738 266.074C281.708 265.815 282.8 265.528 283.947 264.559C286.452 262.429 286.227 256.899 286.227 256.844C286.206 256.448 286.514 256.114 286.91 256.094C287.36 256.128 287.64 256.387 287.661 256.776C287.674 257.036 287.92 263.077 284.882 265.651C283.489 266.832 282.111 267.194 281.107 267.46C279.803 267.801 279.571 267.924 279.516 268.695C279.366 270.798 281.448 273.099 281.469 273.119C281.735 273.413 281.715 273.863 281.428 274.136C281.278 274.259 281.1 274.321 280.93 274.321Z" fill="black"/>
<path d="M269.174 285.544H214.711C214.315 285.544 213.994 285.223 213.994 284.827C213.994 284.431 214.315 284.11 214.711 284.11H269.174C269.57 284.11 269.89 284.431 269.89 284.827C269.89 285.223 269.57 285.544 269.174 285.544Z" fill="black"/>
<path d="M168.993 285.544H110.394C109.998 285.544 109.677 285.223 109.677 284.827C109.677 284.431 109.998 284.11 110.394 284.11H168.993C169.389 284.11 169.71 284.431 169.71 284.827C169.71 285.223 169.389 285.544 168.993 285.544Z" fill="black"/>
<path d="M266.375 276.553C262.9 276.553 260.074 273.727 260.074 270.252C260.074 266.777 262.9 263.951 266.375 263.951C269.85 263.951 272.676 266.777 272.676 270.252C272.683 273.727 269.85 276.553 266.375 276.553ZM266.375 265.385C263.692 265.385 261.508 267.569 261.508 270.252C261.508 272.935 263.692 275.119 266.375 275.119C269.058 275.119 271.243 272.935 271.243 270.252C271.249 267.569 269.065 265.385 266.375 265.385Z" fill="black"/>
<path d="M247.533 276.553C244.059 276.553 241.232 273.727 241.232 270.252C241.232 266.777 244.059 263.951 247.533 263.951C251.008 263.951 253.834 266.777 253.834 270.252C253.834 273.727 251.008 276.553 247.533 276.553ZM247.533 265.385C244.851 265.385 242.666 267.569 242.666 270.252C242.666 272.935 244.851 275.119 247.533 275.119C250.216 275.119 252.401 272.935 252.401 270.252C252.401 267.569 250.216 265.385 247.533 265.385Z" fill="black"/>
<path d="M381.13 125.043L380.366 123.828L380.735 124.442L380.045 124.633C380.045 124.62 379.656 123.316 378.707 121.097C378.55 120.729 378.721 120.312 379.089 120.155C379.465 119.998 379.874 120.169 380.031 120.531C381.759 124.62 381.602 124.722 381.13 125.043ZM202.533 122.442C202.451 122.442 202.369 122.428 202.287 122.401C201.911 122.265 201.727 121.855 201.857 121.48C201.905 121.357 202.99 118.428 205.68 113.97C205.884 113.629 206.321 113.52 206.663 113.724C207.004 113.929 207.113 114.373 206.908 114.708C204.301 119.036 203.215 121.944 203.202 121.971C203.099 122.265 202.819 122.442 202.533 122.442ZM375.642 114.134C375.396 114.134 375.15 114.004 375.021 113.772C373.676 111.438 372.174 109.13 370.549 106.912C370.317 106.591 370.385 106.14 370.706 105.908C371.02 105.676 371.471 105.744 371.71 106.065C373.362 108.331 374.898 110.68 376.263 113.055C376.461 113.397 376.345 113.841 375.997 114.039C375.888 114.107 375.765 114.134 375.642 114.134ZM210.963 108.236C210.813 108.236 210.656 108.188 210.527 108.086C210.213 107.847 210.151 107.396 210.39 107.082C212.063 104.898 213.878 102.768 215.804 100.74C216.077 100.454 216.534 100.44 216.821 100.713C217.107 100.986 217.121 101.443 216.848 101.73C214.964 103.724 213.175 105.819 211.53 107.956C211.387 108.14 211.175 108.236 210.963 108.236ZM365.914 100.802C365.716 100.802 365.525 100.72 365.381 100.563C363.559 98.5489 361.606 96.6034 359.579 94.7875C359.285 94.5212 359.258 94.0707 359.524 93.7771C359.791 93.4836 360.248 93.4563 360.535 93.7225C362.596 95.5725 364.583 97.5522 366.44 99.6002C366.706 99.8938 366.685 100.344 366.392 100.611C366.262 100.74 366.091 100.802 365.914 100.802ZM222.289 96.2347C222.091 96.2347 221.893 96.1528 221.75 95.989C221.49 95.6886 221.524 95.238 221.825 94.9786C223.893 93.1832 226.098 91.4561 228.371 89.8313C228.699 89.6061 229.143 89.6812 229.375 90.002C229.607 90.3297 229.532 90.7734 229.204 91.0055C226.965 92.5961 224.801 94.3028 222.767 96.0709C222.623 96.1801 222.459 96.2347 222.289 96.2347ZM353.64 89.7904C353.49 89.7904 353.346 89.7494 353.216 89.6539C351.032 88.0633 348.725 86.5614 346.363 85.1892C346.021 84.9913 345.905 84.5544 346.103 84.2062C346.301 83.8649 346.745 83.7488 347.086 83.9468C349.496 85.3463 351.844 86.8754 354.063 88.4933C354.384 88.7254 354.452 89.176 354.22 89.4968C354.083 89.688 353.858 89.7904 353.64 89.7904ZM235.73 86.6638C235.485 86.6638 235.239 86.5341 235.109 86.3088C234.911 85.9675 235.027 85.5238 235.369 85.3258C237.744 83.9468 240.229 82.6497 242.741 81.4824C243.103 81.3117 243.526 81.4687 243.697 81.8306C243.861 82.1924 243.711 82.6156 243.349 82.7863C240.871 83.94 238.427 85.2097 236.085 86.5751C235.976 86.6365 235.853 86.6638 235.73 86.6638ZM339.393 81.4892C339.29 81.4892 339.188 81.4687 339.092 81.421C336.655 80.3014 334.102 79.2706 331.501 78.3626C331.126 78.2329 330.934 77.8233 331.064 77.4479C331.194 77.0792 331.603 76.8744 331.979 77.011C334.621 77.9394 337.215 78.9839 339.693 80.1239C340.055 80.2877 340.212 80.711 340.048 81.0728C339.925 81.339 339.666 81.4892 339.393 81.4892ZM250.667 79.6733C250.374 79.6733 250.1 79.4958 249.991 79.2023C249.855 78.8268 250.046 78.4172 250.421 78.2807C252.988 77.3386 255.65 76.4717 258.32 75.7207C258.716 75.6183 259.098 75.8368 259.207 76.2122C259.316 76.5945 259.091 76.9905 258.716 77.0997C256.074 77.8438 253.452 78.6971 250.92 79.6256C250.831 79.6597 250.749 79.6733 250.667 79.6733ZM323.842 76.0143C321.077 75.3248 318.38 74.7445 315.65 74.2735C315.26 74.2052 315.001 73.8298 315.069 73.4406C315.138 73.0515 315.506 72.7921 315.902 72.8604C318.667 73.3451 321.398 73.9322 324.019 74.608C324.401 74.7036 324.633 75.0995 324.531 75.4818C324.456 75.8027 324.162 76.0143 323.842 76.0143ZM266.532 75.1814C266.198 75.1814 265.897 74.9493 265.829 74.608C265.747 74.2189 266 73.8434 266.389 73.7615C269.037 73.2154 271.789 72.7443 274.567 72.362C274.963 72.3142 275.325 72.5873 275.373 72.9764C275.427 73.3724 275.154 73.7342 274.758 73.782C272.007 74.1574 269.29 74.6216 266.675 75.1609C266.628 75.1746 266.58 75.1814 266.532 75.1814ZM307.608 73.1539C304.877 72.8809 302.119 72.6897 299.348 72.5873C298.952 72.5737 298.645 72.2392 298.658 71.8432C298.672 71.4541 298.993 71.1537 299.375 71.1537C302.201 71.2561 304.986 71.4473 307.676 71.7203C308.072 71.7613 308.359 72.1163 308.318 72.5054C308.284 72.8809 307.97 73.1539 307.608 73.1539ZM282.875 72.9218C282.506 72.9218 282.186 72.6351 282.158 72.2596C282.124 71.8637 282.424 71.5224 282.82 71.4882C285.517 71.2834 288.302 71.1537 291.108 71.0923C291.511 71.0923 291.832 71.4063 291.838 71.7954C291.845 72.1914 291.531 72.519 291.135 72.5259C288.357 72.5805 285.599 72.7102 282.93 72.915C282.909 72.9218 282.889 72.9218 282.875 72.9218Z" fill="black"/>
<path d="M152.425 332.729H124.013C123.617 332.729 123.296 332.408 123.296 332.012V303.6C123.296 303.204 123.617 302.883 124.013 302.883H152.425C152.821 302.883 153.142 303.204 153.142 303.6V332.012C153.142 332.415 152.821 332.729 152.425 332.729ZM124.729 331.296H151.708V304.317H124.729V331.296Z" fill="black"/>
<path d="M152.425 379.922H135.591C135.195 379.922 134.874 379.601 134.874 379.205C134.874 378.809 135.195 378.488 135.591 378.488H151.708V351.509H124.729V370.16C124.729 370.556 124.409 370.876 124.013 370.876C123.617 370.876 123.296 370.556 123.296 370.16V350.792C123.296 350.397 123.617 350.076 124.013 350.076H152.425C152.821 350.076 153.142 350.397 153.142 350.792V379.205C153.142 379.601 152.821 379.922 152.425 379.922Z" fill="black"/>
<path d="M202.594 341.761H151.012C150.616 341.761 150.295 341.44 150.295 341.044C150.295 340.648 150.616 340.327 151.012 340.327H202.594C202.99 340.327 203.31 340.648 203.31 341.044C203.317 341.44 202.996 341.761 202.594 341.761Z" fill="black"/>
<path d="M541.904 260.852C541.706 260.852 541.501 260.77 541.358 260.599C541.098 260.299 541.132 259.848 541.433 259.589C545.181 256.373 549.004 249.554 548.485 244.911C547.611 236.993 539.576 231.593 523.936 228.398C509.109 225.36 502.699 234.426 502.432 234.808C502.207 235.136 501.75 235.218 501.436 234.999C501.108 234.774 501.019 234.33 501.245 234.003C501.313 233.893 508.378 223.756 524.23 226.992C540.559 230.323 548.963 236.132 549.918 244.754C550.492 249.915 546.478 257.152 542.375 260.681C542.232 260.797 542.068 260.852 541.904 260.852Z" fill="black"/>
<path d="M507.661 276.847C504.972 276.847 502.787 274.662 502.787 271.972C502.787 269.283 504.978 267.098 507.661 267.098C510.351 267.098 512.535 269.283 512.535 271.972C512.535 274.662 510.351 276.847 507.661 276.847ZM507.661 268.532C505.764 268.532 504.221 270.075 504.221 271.972C504.221 273.87 505.764 275.413 507.661 275.413C509.552 275.413 511.095 273.87 511.095 271.972C511.102 270.075 509.552 268.532 507.661 268.532Z" fill="black"/>
<path d="M519.363 255.213C519.178 255.213 519.001 255.145 518.857 255.008C518.578 254.728 518.571 254.278 518.851 253.998C518.898 253.957 523.083 249.752 528.974 252.701C529.329 252.878 529.466 253.308 529.295 253.663C529.118 254.018 528.688 254.155 528.333 253.984C523.418 251.513 520.018 254.858 519.881 255.001C519.731 255.138 519.547 255.213 519.363 255.213Z" fill="black"/>
<path d="M542.081 258.749C541.795 258.749 541.522 258.578 541.412 258.292C540.477 255.896 537.856 256.005 537.794 256.005C537.419 256.066 537.064 255.718 537.043 255.322C537.023 254.926 537.33 254.592 537.726 254.571C538.914 254.523 541.713 255.097 542.744 257.773C542.887 258.142 542.71 258.558 542.334 258.701C542.259 258.735 542.17 258.749 542.081 258.749Z" fill="black"/>
<path d="M521.929 338.525C521.574 338.607 521.206 338.197 521.213 337.801C521.26 333.33 518.96 324.674 518.932 324.592C518.83 324.209 519.062 323.814 519.438 323.711C519.854 323.602 520.216 323.841 520.318 324.216C520.414 324.578 522.694 333.146 522.646 337.815C522.646 338.211 522.325 338.525 521.929 338.525Z" fill="black"/>
<path d="M585.792 316.598C585.649 316.598 585.498 316.55 585.369 316.461C585.048 316.229 584.98 315.779 585.212 315.458L585.396 315.198C585.621 314.871 586.058 314.796 586.393 315.014C586.72 315.239 586.802 315.683 586.577 316.011L586.372 316.304C586.236 316.495 586.017 316.598 585.792 316.598ZM590.454 309.355C590.325 309.355 590.202 309.321 590.079 309.252C589.745 309.048 589.635 308.604 589.84 308.269C591.233 305.955 592.612 303.552 593.936 301.122C594.127 300.767 594.571 300.651 594.912 300.835C595.26 301.026 595.39 301.463 595.199 301.811C593.861 304.262 592.475 306.686 591.069 309.014C590.939 309.232 590.7 309.355 590.454 309.355ZM598.38 294.835C598.278 294.835 598.169 294.814 598.059 294.76C597.704 294.582 597.561 294.159 597.732 293.797C598.967 291.285 600.135 288.773 601.206 286.329C601.363 285.967 601.78 285.796 602.155 285.96C602.517 286.117 602.681 286.54 602.524 286.909C601.439 289.36 600.264 291.892 599.022 294.425C598.899 294.684 598.64 294.835 598.38 294.835ZM605.043 279.707C604.954 279.707 604.872 279.693 604.784 279.659C604.415 279.516 604.231 279.099 604.374 278.731C605.378 276.137 606.313 273.529 607.159 270.982C607.282 270.607 607.678 270.402 608.067 270.532C608.443 270.655 608.647 271.064 608.518 271.44C607.671 274 606.722 276.628 605.705 279.249C605.596 279.536 605.323 279.707 605.043 279.707ZM610.231 264.019C609.658 263.89 609.433 263.494 609.542 263.111C610.265 260.456 610.921 257.766 611.474 255.124C611.556 254.735 611.979 254.483 612.32 254.571C612.709 254.653 612.962 255.035 612.88 255.418C612.32 258.087 611.658 260.804 610.921 263.494C610.839 263.814 610.552 264.019 610.231 264.019Z" fill="black"/>
<path d="M604.811 193.261C604.558 193.261 604.313 193.132 604.183 192.893C603.569 191.801 602.92 190.715 602.237 189.636C602.026 189.302 602.128 188.858 602.463 188.647C602.811 188.442 603.241 188.537 603.459 188.872C604.156 189.971 604.825 191.077 605.446 192.19C605.644 192.538 605.521 192.975 605.166 193.166C605.05 193.234 604.927 193.261 604.811 193.261ZM598.053 183.247C597.841 183.247 597.636 183.158 597.493 182.974C595.807 180.857 593.991 178.789 592.079 176.83C591.799 176.543 591.806 176.092 592.093 175.813C592.38 175.546 592.823 175.54 593.103 175.826C595.042 177.82 596.899 179.922 598.612 182.073C598.858 182.38 598.81 182.83 598.496 183.083C598.367 183.199 598.21 183.247 598.053 183.247ZM543.358 182.632C543.017 182.632 542.689 182.619 542.361 182.585C541.965 182.544 541.678 182.189 541.719 181.793C541.76 181.404 542.109 181.137 542.505 181.151C544.88 181.397 547.577 180.591 549.816 179.048C550.15 178.823 550.594 178.905 550.812 179.233C551.038 179.56 550.956 180.004 550.628 180.229C548.423 181.759 545.768 182.632 543.358 182.632ZM537.944 176.966C537.432 176.891 537.173 176.516 537.234 176.127C537.494 174.597 538.231 172.877 539.426 171.027C539.972 170.174 540.6 169.355 541.289 168.583C541.556 168.276 542.013 168.262 542.3 168.522C542.593 168.788 542.621 169.239 542.361 169.532C541.726 170.242 541.146 171.007 540.634 171.799C539.549 173.485 538.88 175.028 538.654 176.366C538.593 176.714 538.286 176.966 537.944 176.966ZM555.311 173.983C555.209 173.983 555.1 173.963 554.997 173.908C554.635 173.737 554.492 173.307 554.67 172.952C555.816 170.59 556.629 168.01 557.086 165.293C557.148 164.904 557.516 164.624 557.912 164.706C558.301 164.774 558.568 165.143 558.499 165.532C558.015 168.385 557.161 171.089 555.953 173.573C555.83 173.84 555.577 173.983 555.311 173.983ZM586.563 171.403C586.4 171.403 586.229 171.348 586.092 171.232C584.126 169.546 582.01 167.88 579.805 166.276C579.327 165.934 579.252 165.491 579.484 165.163C579.716 164.835 580.174 164.767 580.481 164.992C582.884 166.733 585.027 168.426 587.028 170.133C587.328 170.392 587.362 170.843 587.103 171.143C586.966 171.321 586.761 171.403 586.563 171.403ZM548.396 164.856C548.13 164.856 547.877 164.713 547.754 164.46C547.577 164.105 547.72 163.675 548.075 163.497C550.478 162.296 553.168 161.402 556.076 160.842C556.458 160.794 556.84 161.026 556.915 161.408C556.991 161.798 556.738 162.173 556.349 162.248C553.57 162.781 551.004 163.634 548.717 164.774C548.614 164.835 548.505 164.856 548.396 164.856ZM572.583 162.89C569.886 162.166 567.196 161.757 564.404 161.654C564.008 161.641 563.701 161.306 563.715 160.91C563.728 160.514 564.036 160.241 564.459 160.221C567.367 160.33 570.159 160.753 572.774 161.484C573.156 161.593 573.374 161.989 573.272 162.371C573.19 162.685 572.897 162.89 572.583 162.89ZM558.103 157.9C557.735 157.9 557.421 157.62 557.387 157.244C557.154 154.548 556.588 151.899 555.7 149.359C555.571 148.984 555.762 148.574 556.137 148.445C556.506 148.308 556.922 148.513 557.052 148.888C557.98 151.537 558.568 154.309 558.82 157.121C558.854 157.517 558.561 157.865 558.165 157.9C558.144 157.9 558.124 157.9 558.103 157.9ZM552.697 142.471C552.465 142.471 552.232 142.355 552.096 142.151C550.642 139.946 548.894 137.863 546.901 135.959C546.614 135.686 546.6 135.235 546.88 134.942C547.153 134.655 547.611 134.641 547.891 134.921C549.959 136.901 551.775 139.065 553.291 141.359C553.509 141.686 553.42 142.137 553.086 142.355C552.97 142.43 552.833 142.471 552.697 142.471ZM540.873 131.105C540.743 131.105 540.614 131.071 540.497 130.996C538.204 129.569 535.746 128.368 533.22 127.426C532.845 127.289 532.661 126.873 532.797 126.504C532.94 126.128 533.343 125.937 533.719 126.081C536.34 127.057 538.88 128.299 541.248 129.774C541.59 129.986 541.685 130.429 541.481 130.764C541.344 130.989 541.112 131.105 540.873 131.105ZM485.052 129.221C484.806 129.221 484.567 129.098 484.437 128.866C484.233 128.525 484.349 128.088 484.69 127.883C486.827 126.62 489.455 125.555 492.506 124.722C492.896 124.62 493.285 124.845 493.394 125.227C493.496 125.61 493.271 126.006 492.889 126.108C489.96 126.907 487.448 127.917 485.42 129.119C485.304 129.187 485.181 129.221 485.052 129.221ZM525.499 125.33C522.823 124.845 520.1 124.497 517.253 124.272C516.857 124.244 516.563 123.896 516.591 123.5C516.625 123.104 516.966 122.818 517.362 122.838C520.257 123.063 523.042 123.418 525.636 123.903C526.025 123.978 526.278 124.354 526.209 124.743C526.141 125.091 525.841 125.33 525.499 125.33ZM500.801 124.586C500.439 124.586 500.132 124.319 500.091 123.958C500.043 123.562 500.323 123.207 500.719 123.159C503.354 122.838 506.16 122.654 509.034 122.599C509.436 122.599 509.757 122.913 509.764 123.302C509.771 123.698 509.457 124.026 509.061 124.033C506.228 124.081 503.484 124.265 500.889 124.579C500.862 124.586 500.828 124.586 500.801 124.586Z" fill="black"/>
<path d="M431.661 429.633H332.572C332.176 429.633 331.855 429.312 331.855 428.916C331.855 428.52 332.176 428.199 332.572 428.199H431.661C432.057 428.199 432.377 428.52 432.377 428.916C432.377 429.312 432.057 429.633 431.661 429.633Z" fill="white"/>
<path d="M431.661 453.212H332.572C332.176 453.212 331.855 452.891 331.855 452.495C331.855 452.099 332.176 451.779 332.572 451.779H431.661C432.057 451.779 432.377 452.099 432.377 452.495C432.377 452.891 432.057 453.212 431.661 453.212Z" fill="white"/>
<path d="M531.104 274.853C530.708 274.853 530.387 274.532 530.387 274.136C530.387 273.74 530.708 273.419 531.104 273.419C534.08 273.419 535.917 271.01 536.593 269.917C534.947 268.777 532.742 267.016 532.742 265.794C532.742 264.565 534.388 257.322 534.579 256.503C534.668 256.114 535.057 255.868 535.439 255.964C535.828 256.053 536.067 256.435 535.978 256.824C535.282 259.869 534.183 264.995 534.183 265.801C534.278 266.279 536.033 267.828 537.944 269.105C538.238 269.303 538.34 269.685 538.197 270.006C538.101 270.197 535.855 274.853 531.104 274.853Z" fill="black"/>
<path d="M144.445 226.459C180.643 226.459 209.987 197.115 209.987 160.917C209.987 124.719 180.643 95.3745 144.445 95.3745C108.247 95.3745 78.9023 124.719 78.9023 160.917C78.9023 197.115 108.247 226.459 144.445 226.459Z" fill="white"/>
<path fill-rule="evenodd" clip-rule="evenodd" d="M144.445 96.6245C108.937 96.6245 80.1523 125.409 80.1523 160.917C80.1523 196.425 108.937 225.209 144.445 225.209C179.952 225.209 208.737 196.425 208.737 160.917C208.737 125.409 179.952 96.6245 144.445 96.6245ZM77.6523 160.917C77.6523 124.028 107.556 94.1245 144.445 94.1245C181.333 94.1245 211.237 124.028 211.237 160.917C211.237 197.805 181.333 227.709 144.445 227.709C107.556 227.709 77.6523 197.805 77.6523 160.917Z" fill="black"/>
<path d="M143.005 183.868C135.277 182.755 129.775 178.052 128.423 170.317H136.39C137.905 175.096 141.728 177.253 146.752 177.253C152.173 177.253 155.518 174.782 155.518 170.481C155.518 167.211 153.681 165.3 148.903 164.187L141.093 162.275C134.799 160.76 129.618 157.094 129.618 149.523C129.618 142.192 134.874 136.696 143.005 135.897V128.723H150.179V136.293C157.033 137.727 161.177 142.267 162.611 148.807H154.883C153.77 145.298 150.657 142.512 145.162 142.512C140.219 142.512 137.113 145.141 137.113 148.97C137.113 152.158 139.107 154.07 143.168 155.108L151.135 157.019C158.31 158.691 163.007 163.074 163.007 170.085C163.007 177.813 157.825 182.755 150.179 183.875V191.766H143.005V183.868Z" fill="#4A7EFF"/>
<path fill-rule="evenodd" clip-rule="evenodd" d="M90.2607 160.917C90.2607 140.14 101.961 122.098 119.12 113.009L120.29 115.218C103.916 123.892 92.7607 141.103 92.7607 160.917C92.7607 180.058 103.17 196.776 118.643 205.709L117.394 207.874C101.178 198.513 90.2607 180.988 90.2607 160.917Z" fill="black"/>
<path fill-rule="evenodd" clip-rule="evenodd" d="M169.504 112.869C186.81 121.917 198.621 140.035 198.621 160.917C198.621 180.645 188.074 197.912 172.32 207.385L171.032 205.243C186.066 196.202 196.121 179.732 196.121 160.917C196.121 141.003 184.859 123.718 168.346 115.085L169.504 112.869Z" fill="black"/>
<path d="M429.62 226.958C462.104 226.958 488.438 200.624 488.438 168.139C488.438 135.655 462.104 109.321 429.62 109.321C397.136 109.321 370.802 135.655 370.802 168.139C370.802 200.624 397.136 226.958 429.62 226.958Z" fill="white"/>
<path fill-rule="evenodd" clip-rule="evenodd" d="M429.62 110.571C397.826 110.571 372.052 136.345 372.052 168.139C372.052 199.933 397.826 225.708 429.62 225.708C461.414 225.708 487.188 199.933 487.188 168.139C487.188 136.345 461.414 110.571 429.62 110.571ZM369.552 168.139C369.552 134.965 396.445 108.071 429.62 108.071C462.795 108.071 489.688 134.965 489.688 168.139C489.688 201.314 462.795 228.208 429.62 228.208C396.445 228.208 369.552 201.314 369.552 168.139Z" fill="black"/>
<path d="M412.13 162.494H416.082C418.09 154.138 423.919 148.834 431.169 148.834C438.03 148.834 442.761 152.718 444.311 159.838H438.16C437.252 156.664 434.794 154.725 431.169 154.725C426.957 154.725 423.981 157.77 422.622 162.494H434.863L433.893 167.477H421.851C421.79 168.126 421.79 168.706 421.79 169.355C421.79 170.133 421.79 170.843 421.851 171.56H433.374L432.337 176.543H422.752C424.111 181.076 427.026 183.991 431.169 183.991C434.794 183.991 437.259 182.045 438.16 178.878H444.311C442.754 185.998 438.03 189.882 431.169 189.882C423.981 189.882 418.281 184.769 416.151 176.543H412.137V171.56H415.373C415.311 170.85 415.311 170.133 415.311 169.355C415.311 168.706 415.311 168.126 415.373 167.477H412.137V162.494H412.13Z" fill="#4A7EFF"/>
<path fill-rule="evenodd" clip-rule="evenodd" d="M380.87 168.133C380.87 149.445 391.396 133.205 406.835 125.031L408.004 127.24C393.352 134.999 383.37 150.407 383.37 168.133C383.37 185.267 392.687 200.223 406.529 208.214L405.279 210.38C390.695 201.96 380.87 186.196 380.87 168.133Z" fill="black"/>
<path fill-rule="evenodd" clip-rule="evenodd" d="M452.167 124.912C467.732 133.051 478.363 149.354 478.363 168.14C478.363 185.888 468.874 201.421 454.697 209.945L453.408 207.803C466.865 199.711 475.863 184.975 475.863 168.14C475.863 150.321 465.782 134.853 451.009 127.127L452.167 124.912Z" fill="black"/>
<path d="M525.547 262.012C526.188 262.012 526.708 261.493 526.708 260.852C526.708 260.211 526.188 259.691 525.547 259.691C524.906 259.691 524.387 260.211 524.387 260.852C524.387 261.493 524.906 262.012 525.547 262.012Z" fill="black"/>
<path d="M537.05 264.763C537.691 264.763 538.211 264.244 538.211 263.603C538.211 262.962 537.691 262.442 537.05 262.442C536.409 262.442 535.89 262.962 535.89 263.603C535.89 264.244 536.409 264.763 537.05 264.763Z" fill="black"/>
<path d="M609.515 267.453C631.804 267.453 649.874 249.384 649.874 227.094C649.874 204.804 631.804 186.735 609.515 186.735C587.225 186.735 569.156 204.804 569.156 227.094C569.156 249.384 587.225 267.453 609.515 267.453Z" fill="white"/>
<path fill-rule="evenodd" clip-rule="evenodd" d="M609.515 187.985C587.915 187.985 570.406 205.495 570.406 227.094C570.406 248.693 587.915 266.203 609.515 266.203C631.114 266.203 648.624 248.693 648.624 227.094C648.624 205.495 631.114 187.985 609.515 187.985ZM567.906 227.094C567.906 204.114 586.535 185.485 609.515 185.485C632.495 185.485 651.124 204.114 651.124 227.094C651.124 250.074 632.495 268.703 609.515 268.703C586.535 268.703 567.906 250.074 567.906 227.094Z" fill="black"/>
<path fill-rule="evenodd" clip-rule="evenodd" d="M575.674 227.094C575.674 214.114 582.978 202.844 593.7 197.167L594.869 199.377C584.934 204.637 578.174 215.076 578.174 227.094C578.174 238.706 584.487 248.842 593.872 254.26L592.622 256.425C582.496 250.579 575.674 239.635 575.674 227.094Z" fill="black"/>
<path fill-rule="evenodd" clip-rule="evenodd" d="M625.174 197.082C635.98 202.73 643.362 214.05 643.362 227.094C643.362 239.422 636.774 250.203 626.932 256.12L625.644 253.978C634.765 248.494 640.862 238.509 640.862 227.094C640.862 215.017 634.03 204.532 624.016 199.298L625.174 197.082Z" fill="black"/>
<path d="M604.368 233.088H626.786V241.737H599.302L604.368 233.088Z" fill="url(#paint0_linear)"/>
<path d="M624.773 233.088L610.887 209.038L603.392 213.366L614.778 233.088H624.773Z" fill="url(#paint1_linear)"/>
<path d="M626.786 241.737C629.177 241.737 631.114 239.799 631.114 237.409C631.114 235.019 629.177 233.081 626.786 233.081C624.396 233.081 622.458 235.019 622.458 237.409C622.458 239.799 624.396 241.737 626.786 241.737Z" fill="#4A7EFF"/>
<path d="M607.317 215.83C609.707 215.83 611.645 213.892 611.645 211.502C611.645 209.112 609.707 207.174 607.317 207.174C604.927 207.174 602.989 209.112 602.989 211.502C602.989 213.892 604.927 215.83 607.317 215.83Z" fill="#4A7EFF"/>
<path d="M590.625 239.58L604.572 215.414L609.569 224.07L598.121 243.901L590.625 239.58Z" fill="url(#paint2_linear)"/>
<path d="M594.373 246.065C596.764 246.065 598.702 244.128 598.702 241.737C598.702 239.347 596.764 237.409 594.373 237.409C591.983 237.409 590.045 239.347 590.045 241.737C590.045 244.128 591.983 246.065 594.373 246.065Z" fill="#4A7EFF"/>
<defs>
<linearGradient id="paint0_linear" x1="599.305" y1="237.412" x2="626.789" y2="237.412" gradientUnits="userSpaceOnUse">
<stop stop-color="white" stop-opacity="0"/>
<stop offset="0.88" stop-color="#4A7EFF"/>
</linearGradient>
<linearGradient id="paint1_linear" x1="621.019" y1="235.244" x2="607.137" y2="211.2" gradientUnits="userSpaceOnUse">
<stop stop-color="white" stop-opacity="0"/>
<stop offset="0.88" stop-color="#4A7EFF"/>
</linearGradient>
<linearGradient id="paint2_linear" x1="594.267" y1="241.763" x2="608.219" y2="217.598" gradientUnits="userSpaceOnUse">
<stop offset="0.1203" stop-color="#4A7EFF"/>
<stop offset="1" stop-color="white" stop-opacity="0"/>
</linearGradient>
</defs>
</svg>
