<svg width="700" height="529" viewBox="0 0 700 529" fill="none" xmlns="http://www.w3.org/2000/svg">
<path d="M330.545 312.468C330.631 312.244 330.836 312.065 331.094 312.025C332.29 311.84 333.5 311.622 334.709 311.371C335.086 311.298 335.449 311.536 335.529 311.913C335.595 312.296 335.363 312.653 334.987 312.739C333.751 312.99 332.521 313.222 331.305 313.407C330.922 313.466 330.572 313.209 330.512 312.825C330.486 312.7 330.505 312.574 330.545 312.468ZM341.92 309.765C341.993 309.573 342.145 309.415 342.356 309.349C344.848 308.542 347.34 307.597 349.765 306.54C350.116 306.388 350.525 306.546 350.677 306.896C350.823 307.247 350.671 307.65 350.321 307.809C347.855 308.886 345.317 309.851 342.779 310.67C342.416 310.789 342.026 310.585 341.907 310.221C341.86 310.062 341.867 309.91 341.92 309.765ZM361.134 260.419C361.253 260.108 361.378 259.817 361.517 259.533C361.689 259.189 362.105 259.051 362.449 259.223C362.786 259.394 362.912 259.804 362.76 260.154C361.722 262.223 361.537 264.94 362.171 267.491C362.264 267.874 362.039 268.244 361.662 268.33C361.292 268.423 360.915 268.198 360.823 267.828C360.202 265.303 360.314 262.6 361.134 260.419ZM368.12 257.445C368.364 257.008 368.787 256.896 369.118 257.088C370.413 257.841 371.722 259.097 372.991 260.809C373.579 261.595 374.108 262.448 374.571 263.327C374.762 263.671 374.617 264.094 374.28 264.266C373.943 264.444 373.52 264.312 373.341 263.975C372.912 263.155 372.416 262.369 371.874 261.642C370.711 260.082 369.547 258.952 368.411 258.291C368.12 258.119 368.001 257.755 368.12 257.445ZM364.894 274.193C364.927 274.1 364.987 274.008 365.066 273.935C365.344 273.671 365.78 273.684 366.044 273.962C367.796 275.806 369.851 277.425 372.158 278.767C372.489 278.958 372.621 279.388 372.409 279.718C372.218 280.049 371.795 280.161 371.458 279.97C369.039 278.562 366.877 276.857 365.04 274.92C364.848 274.715 364.802 274.437 364.894 274.193ZM356.573 303.393C356.626 303.248 356.738 303.109 356.89 303.03C359.085 301.82 361.319 300.472 363.526 299.025C363.996 298.707 364.425 298.793 364.643 299.111C364.861 299.434 364.762 299.871 364.458 300.076C362.059 301.662 359.792 303.023 357.565 304.253C357.227 304.438 356.804 304.312 356.619 303.975C356.514 303.79 356.507 303.572 356.573 303.393ZM375.529 271.04C375.622 270.802 375.84 270.624 376.104 270.597C376.487 270.558 376.831 270.835 376.871 271.212C377.142 273.796 377.029 276.539 376.547 279.368C376.461 279.732 376.117 280.003 375.747 279.937C375.364 279.87 375.113 279.514 375.179 279.137C375.641 276.44 375.747 273.816 375.489 271.357C375.47 271.245 375.489 271.139 375.529 271.04ZM369.058 293.631C370.638 291.437 371.927 289.137 372.971 286.645C373.117 286.295 373.526 286.123 373.883 286.275C374.234 286.42 374.386 286.791 374.253 287.187C373.163 289.785 371.828 292.171 370.274 294.292C370.043 294.603 369.614 294.669 369.303 294.438C369.039 294.246 368.946 293.916 369.058 293.631ZM378.516 282.217C378.642 281.886 379.006 281.695 379.356 281.794C381.874 282.501 384.472 282.891 387.076 282.957C387.459 282.964 387.763 283.281 387.756 283.671C387.756 284.048 387.426 284.358 387.043 284.345C384.326 284.279 381.616 283.869 378.979 283.136C378.609 283.03 378.397 282.646 378.497 282.276C378.503 282.25 378.51 282.23 378.516 282.217ZM394.346 282.574C394.425 282.362 394.604 282.19 394.842 282.137C397.334 281.569 399.819 280.697 402.225 279.547C402.568 279.381 402.985 279.52 403.15 279.87C403.315 280.214 403.17 280.637 402.826 280.796C400.328 281.999 397.743 282.904 395.152 283.492C394.782 283.578 394.406 283.34 394.32 282.97C394.287 282.838 394.3 282.699 394.346 282.574ZM408.669 275.74C408.715 275.621 408.788 275.515 408.894 275.436C410.969 273.843 412.892 272.032 414.611 270.062C414.862 269.771 415.305 269.738 415.589 269.996C415.88 270.247 415.919 270.69 415.655 270.974C413.877 273.016 411.881 274.887 409.74 276.539C409.429 276.777 408.999 276.718 408.761 276.414C408.623 276.209 408.589 275.958 408.669 275.74ZM429.422 225.805C429.508 225.58 429.7 225.409 429.951 225.369C430.328 225.303 430.691 225.554 430.758 225.937C431.174 228.304 431.24 231.053 430.956 234.093C430.916 234.483 430.579 234.754 430.196 234.721C429.812 234.688 429.535 234.345 429.568 233.961C429.845 231.033 429.779 228.416 429.389 226.169C429.37 226.043 429.383 225.918 429.422 225.805ZM419.151 263.776C420.506 261.516 421.749 259.163 422.919 256.665C423.077 256.314 423.494 256.169 423.844 256.328C424.188 256.493 424.34 256.903 424.181 257.253C422.991 259.804 421.722 262.203 420.394 264.385C420.196 264.715 419.766 264.814 419.442 264.616C419.145 264.444 419.032 264.087 419.151 263.776ZM428.253 241.655C428.372 241.331 428.722 241.139 429.066 241.225C429.436 241.311 429.667 241.694 429.574 242.064C428.966 244.563 428.18 247.167 427.241 249.791C427.103 250.154 426.713 250.339 426.356 250.214C425.992 250.088 425.807 249.685 425.933 249.328C426.851 246.744 427.625 244.193 428.22 241.734C428.233 241.707 428.239 241.681 428.253 241.655Z" fill="black"/>
<path d="M257.669 273.334C257.603 273.413 257.524 273.479 257.425 273.525C257.074 273.691 256.665 273.545 256.499 273.195C255.402 270.901 253.948 268.727 252.17 266.738C251.913 266.453 251.926 266.004 252.223 265.759C252.507 265.502 252.95 265.528 253.208 265.812C255.072 267.901 256.605 270.188 257.755 272.6C257.874 272.845 257.835 273.129 257.669 273.334ZM247.193 261.49C246.969 261.767 246.572 261.833 246.261 261.635C244.08 260.181 241.734 259.011 239.282 258.145C238.918 258.02 238.727 257.623 238.859 257.26C238.978 256.896 239.381 256.704 239.745 256.837C242.309 257.735 244.761 258.965 247.041 260.478C247.359 260.697 247.445 261.126 247.233 261.443C247.213 261.463 247.2 261.476 247.193 261.49ZM232.249 256.262C232.111 256.44 231.886 256.546 231.641 256.519C229.097 256.288 226.466 256.354 223.816 256.704C223.439 256.757 223.089 256.493 223.036 256.11C222.983 255.733 223.254 255.376 223.631 255.33C226.38 254.96 229.117 254.893 231.767 255.131C232.15 255.164 232.428 255.501 232.395 255.885C232.388 256.03 232.335 256.156 232.249 256.262ZM216.512 258.337C216.433 258.436 216.327 258.515 216.202 258.555C213.736 259.427 211.344 260.558 209.103 261.899C208.773 262.098 208.343 261.992 208.151 261.662C207.953 261.331 208.052 260.901 208.389 260.71C210.709 259.315 213.188 258.152 215.739 257.246C216.103 257.114 216.499 257.306 216.625 257.669C216.704 257.907 216.658 258.152 216.512 258.337ZM181.35 299.415C181.205 299.6 180.96 299.705 180.709 299.666C180.326 299.613 180.061 299.263 180.121 298.879C180.458 296.5 181.238 293.863 182.454 291.06C182.612 290.703 183.016 290.545 183.373 290.697C183.723 290.849 183.888 291.259 183.736 291.609C182.573 294.306 181.819 296.817 181.502 299.078C181.476 299.203 181.423 299.316 181.35 299.415ZM202.851 266.473C200.868 268.205 198.951 270.055 197.067 272.078C196.803 272.356 196.367 272.375 196.083 272.118C195.805 271.853 195.792 271.417 196.049 271.133C197.966 269.077 199.923 267.187 201.853 265.521C202.143 265.27 202.58 265.303 202.831 265.594C203.055 265.845 203.062 266.215 202.851 266.473ZM187.365 284.702C187.147 284.973 186.763 285.046 186.459 284.861C186.129 284.662 186.03 284.233 186.234 283.902C187.583 281.715 189.136 279.481 190.841 277.273C191.086 276.969 191.515 276.909 191.819 277.147C192.123 277.379 192.176 277.815 191.945 278.119C190.273 280.294 188.753 282.481 187.424 284.629C187.398 284.656 187.378 284.682 187.365 284.702Z" fill="black"/>
<path d="M340.889 427.526H279.844C274.715 427.526 270.512 423.329 270.512 418.193V380.903C270.512 375.774 274.709 371.57 279.844 371.57H340.889C346.018 371.57 350.222 375.767 350.222 380.903V418.193C350.222 423.329 346.018 427.526 340.889 427.526Z" fill="#4A7EFF"/>
<path d="M307.928 396.673C306.17 393.659 303.288 393.659 301.53 396.673L288.007 419.832C286.249 422.846 287.663 425.311 291.153 425.311H318.318C321.808 425.311 323.222 422.846 321.464 419.832L307.928 396.673Z" fill="white"/>
<path d="M318.318 426.058H291.146C289.177 426.058 287.689 425.351 286.956 424.069C286.215 422.787 286.361 421.148 287.359 419.449L300.882 396.29C301.873 394.591 303.235 393.659 304.729 393.659C306.222 393.659 307.59 394.598 308.582 396.29L322.118 419.449C323.109 421.148 323.255 422.793 322.521 424.076C321.774 425.358 320.287 426.058 318.318 426.058ZM304.729 395.166C303.79 395.166 302.885 395.833 302.177 397.056L288.654 420.216C287.941 421.432 287.802 422.536 288.258 423.329C288.707 424.122 289.738 424.558 291.146 424.558H318.318C319.725 424.558 320.75 424.122 321.206 423.329C321.662 422.536 321.517 421.432 320.809 420.216L307.273 397.056C306.566 395.833 305.66 395.166 304.729 395.166Z" fill="black"/>
<path d="M327.65 438.293H275.283C269.361 438.293 264.543 433.474 264.543 427.552V392.172C264.543 386.25 269.361 381.431 275.283 381.431H334.63C340.552 381.431 345.37 386.25 345.37 392.172V421.293C345.37 421.709 345.033 422.046 344.616 422.046C344.2 422.046 343.863 421.709 343.863 421.293V392.172C343.863 387.082 339.719 382.938 334.63 382.938H275.283C270.194 382.938 266.05 387.076 266.05 392.172V427.552C266.05 432.641 270.194 436.786 275.283 436.786H327.65C328.066 436.786 328.403 437.123 328.403 437.539C328.403 437.955 328.066 438.293 327.65 438.293Z" fill="black"/>
<path d="M446.297 233.393C475.89 233.393 499.879 209.403 499.879 179.81C499.879 150.217 475.89 126.227 446.297 126.227C416.704 126.227 392.714 150.217 392.714 179.81C392.714 209.403 416.704 233.393 446.297 233.393Z" fill="#4A7EFF"/>
<path d="M117.734 456.601H233.617C233.617 456.601 249.658 456.039 250.775 438.497C251.892 420.949 247.206 403.599 242.487 391.015C237.768 378.431 232.672 366.785 221.026 360.618C209.381 354.452 194.258 352.951 194.258 352.951L157.655 353.288C157.655 353.288 131.263 354.333 121.323 369.369C111.382 384.399 103.001 409.396 102.202 423.15C101.402 436.898 100.886 453.104 117.734 456.601Z" fill="#4A7EFF"/>
<path d="M162.718 313.771C162.718 313.771 155.599 311.318 154.37 318.767C154.37 318.767 154.747 324.412 158.805 324.755C162.863 325.099 163.346 324.075 163.346 324.075L163.557 331.16C163.557 331.16 164.066 335.773 167.305 337.194L166.505 346.659L176.479 361.167L186.386 346.659L185.745 337.003C185.745 337.003 189.136 335.35 189.327 330.102C189.519 324.848 189.757 324.266 189.757 324.266C189.757 324.266 196.816 327.683 198.746 319.779C198.746 319.779 199.235 315.654 196.333 314.326C193.432 312.991 190.286 313.592 190.286 313.592L188.521 311.094L188.951 305.707C188.951 305.707 184.727 302.786 175.738 302.931C166.743 303.076 163.333 306.771 163.333 306.771L163.167 312.554L162.718 313.771Z" fill="white"/>
<path d="M222.315 456.911H130.973C126.776 456.911 123.365 453.507 123.365 449.304V393.057C123.365 388.86 126.769 385.45 130.973 385.45H222.315C226.512 385.45 229.923 388.854 229.923 393.057V449.304C229.923 453.507 226.519 456.911 222.315 456.911Z" fill="#282828"/>
<path d="M577.765 339.587C579.351 339.587 580.64 338.298 580.64 336.712C580.64 335.126 579.351 333.837 577.765 333.837C576.179 333.837 574.89 335.126 574.89 336.712C574.89 338.305 576.179 339.587 577.765 339.587Z" fill="#4A7EFF"/>
<path d="M600.098 339.739C601.763 339.739 603.118 338.384 603.118 336.719C603.118 335.053 601.763 333.698 600.098 333.698C598.425 333.698 597.077 335.053 597.077 336.719C597.071 338.384 598.425 339.739 600.098 339.739Z" fill="#4A7EFF"/>
<path d="M622.425 339.514C623.971 339.514 625.221 338.259 625.221 336.712C625.221 335.165 623.965 333.916 622.425 333.916C620.878 333.916 619.629 335.172 619.629 336.712C619.629 338.265 620.878 339.514 622.425 339.514Z" fill="#4A7EFF"/>
<path d="M577.765 362.072C579.437 362.072 580.785 360.717 580.785 359.052C580.785 357.38 579.43 356.031 577.765 356.031C576.099 356.031 574.744 357.386 574.744 359.052C574.744 360.717 576.099 362.072 577.765 362.072Z" fill="#4A7EFF"/>
<path d="M600.098 362.218C601.85 362.218 603.271 360.797 603.271 359.045C603.271 357.294 601.85 355.873 600.098 355.873C598.347 355.873 596.926 357.294 596.926 359.045C596.926 360.797 598.347 362.218 600.098 362.218Z" fill="#4A7EFF"/>
<path d="M622.424 361.993C624.05 361.993 625.372 360.671 625.372 359.045C625.372 357.419 624.05 356.097 622.424 356.097C620.798 356.097 619.477 357.419 619.477 359.045C619.477 360.678 620.798 361.993 622.424 361.993Z" fill="#4A7EFF"/>
<path d="M577.765 384.181C579.311 384.181 580.567 382.925 580.567 381.385C580.567 379.839 579.311 378.589 577.765 378.589C576.218 378.589 574.969 379.845 574.969 381.385C574.969 382.925 576.218 384.181 577.765 384.181Z" fill="#4A7EFF"/>
<path d="M600.098 384.326C601.724 384.326 603.046 383.004 603.046 381.378C603.046 379.753 601.724 378.431 600.098 378.431C598.472 378.431 597.15 379.753 597.15 381.378C597.15 383.004 598.466 384.326 600.098 384.326Z" fill="#4A7EFF"/>
<path d="M622.424 384.128C623.945 384.128 625.174 382.899 625.174 381.379C625.174 379.859 623.945 378.629 622.424 378.629C620.904 378.629 619.675 379.859 619.675 381.379C619.675 382.899 620.911 384.128 622.424 384.128Z" fill="#4A7EFF"/>
<path d="M163.174 312.554V307.141C163.174 307.141 167.318 303.387 174.152 303.063C180.993 302.739 186.902 304.451 188.957 305.707V311.094L190.293 313.592L192.236 313.162L194.258 298.06L191.588 301.133L190.385 295.284L189.453 297.101C189.453 297.101 182.969 290.651 174.159 291.325C165.342 291.999 158.27 297.762 156.366 303.85L161.251 302.29L159.902 310.01L161.085 308.979L161.251 313.407L162.724 314.213L163.174 312.554Z" fill="#282828"/>
<path d="M186.935 423.983C186.935 428.134 183.571 431.504 179.42 431.504C175.269 431.504 171.905 428.14 171.905 423.983C171.905 419.832 175.269 416.468 179.42 416.468C183.564 416.468 186.935 419.832 186.935 423.983Z" fill="white"/>
<path d="M166.505 346.659L157.655 353.288L164.08 385.47L188.964 385.371L195.197 352.951L186.387 346.659H166.505Z" fill="white"/>
<path d="M188.382 305.396C174.674 297.293 162.077 305.396 162.077 305.396L161.759 301.926L159.955 309.726C160.067 309.864 161.092 308.972 161.092 308.972C161.099 309.117 163.187 307.135 163.187 307.135C163.187 307.135 167.331 303.38 174.165 303.057C180.444 302.759 185.943 304.187 188.382 305.396Z" fill="white"/>
<path d="M178.687 366.52C178.687 366.52 174.113 373.381 174.113 373.606C174.113 373.83 176.4 379.561 176.4 379.561L176.056 385.43L171.529 385.437L173.399 379.924L170.802 374.405L176.486 361.16L178.687 366.52Z" fill="white"/>
<path d="M138.151 457.427H53.2128C52.8823 457.427 52.6113 457.156 52.6113 456.825C52.6113 456.495 52.8823 456.224 53.2128 456.224H138.144C138.475 456.224 138.746 456.495 138.746 456.825C138.746 457.156 138.481 457.427 138.151 457.427Z" fill="black"/>
<path d="M473.541 457.427H244.047C243.69 457.427 243.406 457.156 243.406 456.825C243.406 456.495 243.69 456.224 244.047 456.224H473.541C473.898 456.224 474.182 456.495 474.182 456.825C474.182 457.156 473.891 457.427 473.541 457.427Z" fill="black"/>
<path d="M223.419 457.427H129.869C126.003 457.427 122.856 454.281 122.856 450.414V391.967C122.856 388.1 126.003 384.954 129.869 384.954H223.419C227.286 384.954 230.432 388.1 230.432 391.967V450.414C230.432 454.274 227.286 457.427 223.419 457.427ZM129.869 385.972C126.571 385.972 123.881 388.655 123.881 391.96V450.407C123.881 453.706 126.564 456.396 129.869 456.396H223.419C226.717 456.396 229.407 453.712 229.407 450.407V391.96C229.407 388.662 226.724 385.972 223.419 385.972H129.869Z" fill="black"/>
<path d="M176.777 429.687C172.348 429.687 168.746 426.085 168.746 421.656C168.746 417.228 172.348 413.626 176.777 413.626C181.205 413.626 184.807 417.228 184.807 421.656C184.807 426.078 181.205 429.687 176.777 429.687ZM176.777 414.65C172.917 414.65 169.771 417.79 169.771 421.656C169.771 425.516 172.917 428.662 176.777 428.662C180.636 428.662 183.783 425.523 183.783 421.656C183.783 417.79 180.636 414.65 176.777 414.65Z" fill="black"/>
<path d="M160.365 325.515C159.248 325.515 158.078 325.165 156.928 324.478C153.934 322.68 152.956 318.787 154.747 315.793C156.393 313.057 159.836 312.039 162.929 313.381C163.194 313.493 163.313 313.79 163.2 314.055C163.088 314.319 162.79 314.438 162.526 314.326C159.896 313.202 157.001 314.042 155.626 316.328C154.125 318.833 154.945 322.098 157.45 323.605C159.334 324.742 161.231 324.782 162.79 323.744C163.022 323.586 163.346 323.652 163.504 323.883C163.663 324.121 163.597 324.438 163.366 324.597C162.44 325.205 161.422 325.515 160.365 325.515Z" fill="black"/>
<path d="M158.805 322.819C158.647 322.819 158.495 322.746 158.396 322.607C158.224 322.383 158.277 322.059 158.501 321.893L161.912 319.362C162.143 319.19 162.46 319.243 162.626 319.468C162.798 319.699 162.745 320.016 162.52 320.182L159.109 322.713C159.017 322.786 158.911 322.819 158.805 322.819Z" fill="black"/>
<path d="M162.071 319.276C161.965 319.276 161.853 319.237 161.76 319.17L157.946 316.289C157.722 316.117 157.675 315.8 157.847 315.575C158.019 315.344 158.343 315.304 158.568 315.476L162.381 318.357C162.606 318.529 162.652 318.853 162.48 319.071C162.381 319.21 162.223 319.276 162.071 319.276Z" fill="black"/>
<path d="M192.5 325.542C191.423 325.542 190.379 325.264 189.493 324.703C189.255 324.551 189.182 324.233 189.334 323.995C189.486 323.757 189.81 323.685 190.042 323.837C191.608 324.828 193.763 324.736 195.666 323.599C198.171 322.098 198.991 318.827 197.491 316.322C196.294 314.312 193.961 313.334 191.687 313.889C191.423 313.942 191.139 313.79 191.066 313.513C191 313.235 191.165 312.958 191.443 312.891C194.146 312.237 196.935 313.4 198.37 315.793C200.161 318.787 199.183 322.68 196.195 324.478C194.999 325.185 193.723 325.542 192.5 325.542Z" fill="black"/>
<path d="M194.311 322.819C194.212 322.819 194.106 322.792 194.02 322.726L190.663 320.393C190.432 320.235 190.372 319.911 190.537 319.679C190.696 319.441 191.02 319.389 191.251 319.554L194.609 321.887C194.84 322.046 194.9 322.369 194.734 322.601C194.635 322.746 194.47 322.819 194.311 322.819Z" fill="black"/>
<path d="M191.251 319.118C191.099 319.118 190.941 319.045 190.841 318.913C190.67 318.688 190.716 318.364 190.941 318.199L194.543 315.469C194.767 315.297 195.091 315.337 195.263 315.568C195.435 315.793 195.389 316.117 195.164 316.282L191.562 319.012C191.469 319.085 191.364 319.118 191.251 319.118Z" fill="black"/>
<path d="M231.067 457.427C230.783 457.427 230.551 457.196 230.551 456.911C230.551 456.627 230.783 456.396 231.067 456.396C239.897 456.396 245.839 452.443 248.727 444.657C256.91 422.595 237.716 374.571 228.35 366.52C217.147 356.891 206.705 355.265 197.491 353.83C196.691 353.705 195.891 353.579 195.112 353.454C194.834 353.407 194.642 353.143 194.689 352.865C194.735 352.588 195.006 352.403 195.277 352.442C196.057 352.568 196.85 352.694 197.65 352.819C207.002 354.273 217.597 355.926 229.018 365.741C238.793 374.141 258.185 422.099 249.686 445.014C246.639 453.25 240.373 457.427 231.067 457.427Z" fill="black"/>
<path d="M121.786 457.427C112.572 457.427 106.366 453.27 103.319 445.067C94.7928 422.086 114.086 374.128 123.828 365.747C135.249 355.932 145.844 354.28 155.197 352.826C155.996 352.7 156.789 352.581 157.569 352.449C157.854 352.409 158.111 352.594 158.158 352.872C158.204 353.15 158.012 353.414 157.735 353.46C156.948 353.586 156.155 353.711 155.355 353.837C146.142 355.271 135.699 356.897 124.496 366.527C115.157 374.558 96.0685 422.582 104.277 444.71C107.153 452.47 113.042 456.396 121.779 456.396C122.063 456.396 122.295 456.627 122.295 456.911C122.295 457.196 122.063 457.427 121.786 457.427Z" fill="black"/>
<path d="M164.08 385.972C163.842 385.972 163.624 385.8 163.577 385.556L157.146 353.05C157.107 352.859 157.179 352.667 157.338 352.548L165.944 345.892C166.056 345.806 166.208 345.78 166.34 345.786C166.479 345.806 166.605 345.892 166.684 346.005L176.499 360.532L185.964 346.011C186.043 345.892 186.168 345.806 186.307 345.78C186.439 345.76 186.591 345.786 186.704 345.879L195.508 352.535C195.666 352.654 195.739 352.845 195.699 353.037L189.467 385.542C189.414 385.82 189.163 386.018 188.865 385.952C188.588 385.899 188.402 385.628 188.462 385.351L194.629 353.156L186.519 347.029L176.935 361.728C176.843 361.874 176.684 361.96 176.505 361.966C176.334 361.966 176.175 361.881 176.076 361.742L166.135 347.036L158.217 353.163L164.582 385.357C164.635 385.635 164.456 385.906 164.179 385.959C164.146 385.972 164.113 385.972 164.08 385.972Z" fill="black"/>
<path d="M166.505 347.174C166.195 347.155 165.977 346.917 165.99 346.633L166.545 336.983C166.565 336.712 166.79 336.5 167.061 336.5C167.371 336.52 167.589 336.758 167.576 337.042L167.021 346.692C167.001 346.956 166.77 347.174 166.505 347.174Z" fill="black"/>
<path d="M186.155 347.175C185.884 347.175 185.653 346.956 185.64 346.685L185.23 337.029C185.217 336.745 185.435 336.507 185.719 336.494C186.003 336.507 186.241 336.705 186.255 336.983L186.664 346.639C186.678 346.923 186.459 347.161 186.175 347.175C186.169 347.175 186.162 347.175 186.155 347.175Z" fill="black"/>
<path d="M176.366 327.373C176.307 327.373 176.241 327.359 176.181 327.333C175.851 327.207 172.923 326.044 172.302 324.61C172.143 324.24 172.13 323.87 172.269 323.526C172.877 322.032 175.659 315.661 175.772 315.39C175.884 315.139 176.181 315.013 176.446 315.125C176.703 315.238 176.822 315.542 176.71 315.8C176.684 315.866 173.815 322.429 173.214 323.916C173.187 323.969 173.174 324.061 173.234 324.207C173.571 324.987 175.441 325.958 176.545 326.381C176.809 326.487 176.941 326.778 176.836 327.042C176.77 327.247 176.571 327.373 176.366 327.373Z" fill="black"/>
<path d="M192.243 313.678C191.892 313.632 191.694 313.374 191.734 313.09L193.644 299.699L192.315 301.417C192.19 301.576 191.991 301.662 191.8 301.602C191.608 301.563 191.456 301.411 191.41 301.219L190.339 296.533L189.817 297.577C189.738 297.736 189.586 297.842 189.414 297.861C189.235 297.855 189.07 297.809 188.958 297.676C188.892 297.597 182.203 289.507 170.669 292.534C161.76 294.881 158.138 300.77 157.014 303.109L161.185 301.781C161.357 301.735 161.542 301.768 161.674 301.88C161.806 301.999 161.872 302.171 161.846 302.349L160.887 308.443C162.963 306.374 167.728 302.634 175.124 302.521C184.886 302.369 189.077 305.178 189.255 305.297C189.394 305.39 189.473 305.548 189.473 305.72V311.662C189.473 311.946 189.242 312.178 188.958 312.178C188.674 312.178 188.442 311.946 188.442 311.662V306.011C187.477 305.462 183.267 303.413 175.131 303.552C165.646 303.691 160.564 310.32 160.517 310.393C160.378 310.585 160.127 310.644 159.903 310.558C159.684 310.466 159.559 310.241 159.599 310.003L160.696 303.017L156.254 304.425C156.063 304.471 155.871 304.431 155.732 304.299C155.593 304.16 155.547 303.962 155.606 303.777C155.725 303.407 158.673 294.629 170.392 291.543C180.703 288.826 187.365 294.577 189.216 296.46L190.048 294.801C190.141 294.61 190.346 294.524 190.57 294.517C190.789 294.544 190.96 294.702 191.007 294.914L192.157 299.943L194.007 297.551C194.153 297.366 194.397 297.306 194.615 297.392C194.827 297.485 194.953 297.709 194.919 297.941L192.738 313.255C192.712 313.486 192.494 313.678 192.243 313.678Z" fill="black"/>
<path d="M163.174 313.724C162.89 313.724 162.658 313.493 162.658 313.209V307.134C162.658 306.85 162.89 306.619 163.174 306.619C163.458 306.619 163.689 306.85 163.689 307.134V313.209C163.689 313.493 163.458 313.724 163.174 313.724Z" fill="black"/>
<path d="M161.409 313.724C161.145 313.724 160.92 313.519 160.9 313.248L160.57 309.012C160.55 308.727 160.761 308.483 161.039 308.463C161.35 308.397 161.568 308.655 161.588 308.932L161.918 313.169C161.938 313.453 161.726 313.698 161.449 313.718C161.435 313.724 161.422 313.724 161.409 313.724Z" fill="black"/>
<path d="M176.538 340.089H176.248C163.802 340.089 163.002 331.371 162.956 330.373C162.817 327.69 162.83 322.105 162.83 322.052C162.83 321.768 163.062 321.537 163.346 321.537C163.63 321.537 163.861 321.768 163.861 322.052C163.861 322.105 163.855 327.664 163.987 330.321C164.06 331.781 164.998 339.058 176.254 339.058H176.545C187.808 339.058 188.739 331.781 188.819 330.321C188.958 327.657 189.09 322.607 189.09 322.554C189.096 322.27 189.334 322.112 189.619 322.052C189.903 322.059 190.127 322.297 190.121 322.581C190.121 322.634 189.982 327.69 189.85 330.367C189.784 331.371 188.984 340.089 176.538 340.089Z" fill="black"/>
<path d="M600.66 230.657C600.33 230.657 600.059 230.386 600.059 230.055C600.059 229.976 600.079 229.903 600.105 229.837C600.138 229.731 600.482 228.674 600.931 226.77C601.011 226.453 601.308 226.255 601.652 226.321C601.976 226.4 602.174 226.724 602.101 227.041C601.249 230.657 601.163 230.657 600.66 230.657ZM602.756 220.716C602.346 220.663 602.114 220.366 602.161 220.035C602.465 217.755 602.67 215.455 602.782 213.208C602.795 212.89 603.06 212.639 603.377 212.639C603.74 212.659 603.992 212.937 603.972 213.274C603.866 215.554 603.654 217.887 603.337 220.207C603.311 220.498 603.053 220.716 602.756 220.716ZM603.397 206.922C603.079 206.922 602.815 206.671 602.795 206.347C602.696 204.034 602.491 201.74 602.187 199.526C602.141 199.202 602.372 198.892 602.696 198.852C603.013 198.779 603.331 199.037 603.37 199.361C603.681 201.615 603.892 203.941 603.992 206.294C604.005 206.625 603.747 206.902 603.417 206.922C603.417 206.922 603.41 206.922 603.397 206.922ZM601.506 193.254C601.235 193.254 600.991 193.069 600.925 192.791C600.376 190.544 599.722 188.336 598.968 186.235C598.863 185.924 599.021 185.58 599.332 185.468C599.643 185.369 599.986 185.521 600.099 185.831C600.865 187.973 601.533 190.22 602.088 192.507C602.167 192.831 601.969 193.155 601.645 193.234C601.606 193.241 601.553 193.254 601.506 193.254ZM596.867 180.26C596.642 180.26 596.43 180.134 596.331 179.922C595.327 177.874 594.21 175.858 593.007 173.948C592.828 173.67 592.914 173.3 593.198 173.121C593.476 172.943 593.846 173.022 594.024 173.313C595.254 175.263 596.391 177.305 597.415 179.4C597.561 179.698 597.442 180.055 597.138 180.2C597.052 180.24 596.959 180.26 596.867 180.26ZM589.517 168.601C589.338 168.601 589.167 168.521 589.048 168.376C587.64 166.604 586.12 164.879 584.513 163.24C584.282 163.002 584.289 162.619 584.52 162.388C584.771 162.156 585.148 162.156 585.373 162.394C587.005 164.06 588.552 165.818 589.98 167.622C590.184 167.887 590.145 168.257 589.887 168.462C589.781 168.561 589.649 168.601 589.517 168.601ZM579.893 158.726C579.755 158.726 579.616 158.673 579.504 158.581L579.219 158.343C577.527 156.928 575.809 155.587 574.104 154.351C573.833 154.159 573.78 153.776 573.971 153.511C574.163 153.234 574.546 153.187 574.811 153.379C576.536 154.635 578.274 155.99 579.986 157.417L580.283 157.668C580.535 157.887 580.561 158.263 580.35 158.514C580.231 158.653 580.059 158.726 579.893 158.726ZM568.717 150.629C568.611 150.629 568.499 150.596 568.406 150.537C566.43 149.327 564.414 148.21 562.411 147.219C562.114 147.074 561.995 146.71 562.141 146.413C562.286 146.115 562.649 146.003 562.947 146.142C564.976 147.153 567.025 148.29 569.034 149.512C569.318 149.684 569.404 150.054 569.232 150.339C569.12 150.524 568.922 150.629 568.717 150.629ZM496.641 150.233C496.449 150.233 496.264 150.14 496.152 149.975C495.96 149.704 496.026 149.327 496.297 149.142C496.39 149.076 498.551 147.576 502.418 145.705C502.728 145.573 503.078 145.686 503.224 145.983C503.363 146.287 503.244 146.644 502.946 146.789C499.172 148.607 497.011 150.107 496.991 150.121C496.879 150.193 496.76 150.233 496.641 150.233ZM556.364 144.496C556.291 144.496 556.218 144.483 556.146 144.45C554.011 143.63 551.823 142.903 549.642 142.315C549.325 142.222 549.133 141.898 549.219 141.574C549.312 141.257 549.616 141.079 549.959 141.151C552.18 141.76 554.407 142.493 556.575 143.333C556.886 143.452 557.038 143.795 556.919 144.106C556.833 144.35 556.602 144.496 556.364 144.496ZM509.04 144.165C508.796 144.165 508.564 144.013 508.478 143.769C508.359 143.458 508.525 143.108 508.835 143.002C511.003 142.209 513.244 141.522 515.491 140.94C515.848 140.861 516.145 141.052 516.225 141.37C516.304 141.693 516.112 142.017 515.795 142.103C513.588 142.672 511.387 143.352 509.252 144.126C509.179 144.152 509.113 144.165 509.04 144.165ZM543.052 140.861C540.733 140.484 538.446 140.226 536.152 140.094C535.822 140.074 535.571 139.79 535.59 139.459C535.61 139.142 535.868 138.891 536.185 138.891C538.551 139.03 540.885 139.288 543.152 139.664C543.475 139.717 543.7 140.028 543.647 140.358C543.594 140.649 543.343 140.861 543.052 140.861ZM522.411 140.748C522.12 140.748 521.863 140.53 521.816 140.239C521.763 139.916 521.995 139.605 522.319 139.559C524.639 139.208 526.972 138.977 529.252 138.871C529.602 138.865 529.867 139.122 529.88 139.44C529.9 139.777 529.642 140.054 529.311 140.068C527.064 140.173 524.777 140.405 522.497 140.748C522.471 140.742 522.444 140.748 522.411 140.748Z" fill="black"/>
<path d="M87.8333 408.847C87.7606 408.847 87.6879 408.828 87.6086 408.808C86.5577 408.391 85.5266 407.948 84.5088 407.486C84.2047 407.347 84.0726 406.99 84.2114 406.693C84.3435 406.395 84.7005 406.25 85.0045 406.395C86.0025 406.851 87.0204 407.288 88.0514 407.691C88.3621 407.816 88.5075 408.167 88.3885 408.471C88.296 408.702 88.0713 408.847 87.8333 408.847ZM78.633 404.36C78.5272 404.36 78.4215 404.326 78.3289 404.274C76.3131 403.09 74.3633 401.782 72.5391 400.394C72.2747 400.196 72.2218 399.819 72.4267 399.554C72.6316 399.283 73.0017 399.244 73.2661 399.436C75.0573 400.797 76.9674 402.073 78.9436 403.236C79.2278 403.401 79.327 403.771 79.1551 404.056C79.0428 404.247 78.8379 404.36 78.633 404.36ZM67.6745 396.005C67.5225 396.005 67.3705 395.946 67.2515 395.833C65.5793 394.188 64.0195 392.436 62.6051 390.618C62.4002 390.354 62.4464 389.977 62.7108 389.779C62.9686 389.574 63.3453 389.62 63.5502 389.885C64.9316 391.663 66.4584 393.375 68.0909 394.981C68.3288 395.219 68.3288 395.595 68.0975 395.833C67.9852 395.946 67.8331 396.005 67.6745 396.005ZM59.2144 385.133C59.0095 385.133 58.8112 385.027 58.6989 384.835C57.9586 383.573 57.2646 382.264 56.6367 380.942C56.2666 380.176 55.9097 379.402 55.566 378.609C55.4338 378.305 55.566 377.955 55.87 377.816C56.1741 377.69 56.531 377.816 56.6632 378.127C57.0069 378.893 57.3572 379.667 57.7207 380.42C58.342 381.702 59.0161 382.985 59.7366 384.227C59.9018 384.511 59.8093 384.882 59.5185 385.047C59.4193 385.106 59.3136 385.133 59.2144 385.133ZM53.5832 372.535C53.332 372.535 53.1007 372.376 53.0148 372.125C52.2613 369.931 51.6003 367.684 51.0518 365.443C50.9724 365.119 51.1707 364.795 51.4946 364.716C51.8251 364.67 52.1423 364.835 52.2216 365.159C52.757 367.353 53.4113 369.567 54.1516 371.735C54.2573 372.046 54.0921 372.39 53.7815 372.495C53.7154 372.528 53.6493 372.535 53.5832 372.535ZM50.3313 359.131C50.0339 359.131 49.7761 358.913 49.7365 358.616C49.406 356.289 49.2011 353.956 49.1284 351.676C49.1152 351.339 49.3796 351.068 49.71 351.054C49.9942 351.074 50.3181 351.306 50.3313 351.636C50.404 353.883 50.6089 356.17 50.9328 358.45C50.979 358.781 50.7477 359.085 50.4239 359.131C50.3842 359.124 50.3578 359.131 50.3313 359.131ZM49.9083 345.35C49.525 345.317 49.2804 345.027 49.3135 344.696C49.5184 342.343 49.8753 340.023 50.3776 337.796C50.4503 337.472 50.7675 337.247 51.098 337.34C51.4219 337.412 51.6268 337.73 51.5541 338.054C51.065 340.235 50.7147 342.502 50.5164 344.802C50.4767 345.112 50.2124 345.35 49.9083 345.35ZM52.9354 331.913C52.4133 331.755 52.2547 331.411 52.3736 331.1C53.0676 329.263 53.8806 327.465 54.7861 325.74C54.9645 325.403 55.1364 325.086 55.3215 324.762C55.4867 324.471 55.8502 324.365 56.141 324.531C56.4318 324.696 56.531 325.059 56.3724 325.35C56.1939 325.661 56.0221 325.985 55.8502 326.309C54.9645 327.987 54.1714 329.746 53.4973 331.53C53.4047 331.761 53.18 331.913 52.9354 331.913ZM118.415 329.098C118.078 329.098 117.748 329.085 117.411 329.058C117.08 329.038 116.829 328.754 116.849 328.424C116.869 328.106 117.133 327.862 117.45 327.862C119.717 327.994 122.004 327.604 123.908 326.679C124.199 326.54 124.562 326.659 124.707 326.956C124.853 327.254 124.727 327.617 124.43 327.763C122.632 328.628 120.55 329.098 118.415 329.098ZM110.98 326.897C110.867 326.897 110.755 326.864 110.656 326.804C108.752 325.582 107.027 323.936 105.527 321.907C105.329 321.642 105.388 321.266 105.652 321.067C105.917 320.862 106.294 320.922 106.492 321.193C107.906 323.103 109.526 324.656 111.303 325.786C111.581 325.965 111.66 326.335 111.482 326.619C111.37 326.798 111.178 326.897 110.98 326.897ZM128.911 322.997C128.832 322.997 128.752 322.977 128.673 322.944C128.369 322.812 128.23 322.462 128.362 322.158C128.865 320.995 129.116 319.706 129.116 318.338C129.116 317.498 129.017 316.626 128.819 315.747C128.746 315.423 128.951 315.106 129.275 315.033C129.605 314.927 129.916 315.165 129.995 315.489C130.206 316.447 130.319 317.406 130.319 318.338C130.319 319.871 130.028 321.318 129.466 322.634C129.367 322.858 129.142 322.997 128.911 322.997ZM59.6573 319.897C59.5251 319.897 59.3995 319.858 59.2937 319.772C59.0294 319.567 58.9831 319.19 59.1814 318.932C60.5826 317.115 62.1358 315.35 63.808 313.698C64.0393 313.46 64.4227 313.466 64.654 313.704C64.8853 313.942 64.8853 314.319 64.6474 314.55C63.0149 316.17 61.4947 317.888 60.1265 319.659C60.0142 319.812 59.8357 319.897 59.6573 319.897ZM102.678 316.11C102.44 316.11 102.215 315.965 102.123 315.733C101.707 314.709 101.33 313.638 101.006 312.561C100.662 311.437 100.338 310.267 100.028 309.071C99.9418 308.747 100.14 308.423 100.457 308.338C100.788 308.252 101.105 308.45 101.191 308.767C101.495 309.95 101.819 311.1 102.156 312.204C102.473 313.248 102.837 314.279 103.24 315.271C103.366 315.581 103.214 315.925 102.909 316.051C102.83 316.097 102.751 316.11 102.678 316.11ZM69.4392 310.201C69.2608 310.201 69.0823 310.122 68.9634 309.963C68.7585 309.699 68.8113 309.322 69.0757 309.124C70.9131 307.723 72.8629 306.421 74.8854 305.244C75.1696 305.072 75.5398 305.172 75.705 305.462C75.8702 305.753 75.7711 306.117 75.4869 306.282C73.5107 307.425 71.6005 308.701 69.8094 310.076C69.697 310.162 69.5714 310.201 69.4392 310.201ZM126.307 310.122C126.135 310.122 125.963 310.049 125.844 309.904C124.536 308.331 122.877 306.89 120.775 305.509C120.497 305.324 120.425 304.953 120.603 304.676C120.781 304.398 121.158 304.332 121.436 304.504C123.637 305.951 125.382 307.472 126.77 309.137C126.981 309.388 126.948 309.772 126.69 309.977C126.578 310.076 126.439 310.122 126.307 310.122ZM81.3693 303.288C81.138 303.288 80.9132 303.142 80.8141 302.918C80.6885 302.614 80.8339 302.263 81.138 302.131C83.3125 301.219 85.5332 300.459 87.7474 299.864C88.0713 299.785 88.3951 299.97 88.4811 300.287C88.567 300.604 88.3753 300.935 88.058 301.021C85.8968 301.596 83.7289 302.343 81.6006 303.235C81.5213 303.275 81.442 303.288 81.3693 303.288ZM99.0958 302.792C98.8116 302.792 98.5605 302.587 98.5076 302.303C98.3291 301.378 98.1639 300.433 97.9987 299.474C96.9081 299.521 95.8175 299.606 94.7402 299.739C94.4163 299.719 94.1123 299.54 94.0727 299.216C94.033 298.886 94.2709 298.589 94.5948 298.549C95.6589 298.423 96.7296 298.331 97.8004 298.285C97.655 297.353 97.5096 296.407 97.384 295.456C97.3377 295.132 97.569 294.821 97.8995 294.782C98.2366 294.729 98.5274 294.967 98.5803 295.29C98.7125 296.282 98.8645 297.273 99.0165 298.245C99.3602 298.238 99.7039 298.238 100.054 298.238C100.563 298.238 101.079 298.251 101.594 298.271C101.925 298.291 102.182 298.569 102.169 298.899C102.156 299.223 101.892 299.474 101.568 299.474C100.973 299.448 100.405 299.441 99.8361 299.441C99.6312 299.441 99.4197 299.441 99.2148 299.448C99.3668 300.34 99.5254 301.226 99.6907 302.085C99.7502 302.409 99.5387 302.726 99.2148 302.786C99.1751 302.786 99.1355 302.792 99.0958 302.792ZM114.998 302.396C114.919 302.396 114.846 302.376 114.767 302.349C112.691 301.484 110.51 300.809 108.283 300.327C107.959 300.254 107.754 299.937 107.82 299.613C107.886 299.289 108.204 299.084 108.534 299.15C110.834 299.646 113.081 300.347 115.223 301.239C115.527 301.371 115.672 301.715 115.547 302.025C115.461 302.257 115.236 302.396 114.998 302.396ZM97.2055 289.104C96.8949 289.104 96.6371 288.866 96.6107 288.555C96.3992 286.302 96.2406 283.975 96.1282 281.635C96.115 281.305 96.3661 281.021 96.6966 281.007C97.0469 281.001 97.3113 281.252 97.3245 281.576C97.4369 283.896 97.6021 286.209 97.807 288.443C97.84 288.774 97.5955 289.064 97.265 289.097C97.2452 289.097 97.2254 289.104 97.2055 289.104Z" fill="black"/>
<path d="M102.268 230.855C101.991 230.855 101.74 230.656 101.68 230.379C101.561 229.81 101.455 229.202 101.363 228.561C101.317 228.237 101.548 227.927 101.872 227.887C102.176 227.834 102.506 228.066 102.553 228.396C102.638 229.004 102.738 229.586 102.85 230.128C102.916 230.452 102.711 230.775 102.387 230.842C102.354 230.855 102.315 230.855 102.268 230.855ZM101.634 222.19C101.284 222.183 101.026 221.899 101.032 221.569C101.092 219.315 101.303 216.975 101.654 214.609C101.7 214.285 102.004 214.073 102.334 214.106C102.665 214.153 102.89 214.457 102.837 214.787C102.493 217.101 102.288 219.394 102.229 221.602C102.229 221.932 101.958 222.19 101.634 222.19ZM103.643 208.535C103.167 208.429 102.982 208.098 103.061 207.781C103.656 205.521 104.39 203.287 105.236 201.152C105.362 200.841 105.705 200.683 106.016 200.815C106.32 200.94 106.472 201.291 106.353 201.595C105.52 203.69 104.806 205.878 104.218 208.092C104.152 208.35 103.914 208.535 103.643 208.535ZM108.732 195.719C108.633 195.719 108.534 195.693 108.442 195.64C108.151 195.481 108.045 195.118 108.21 194.82C109.36 192.745 110.636 190.768 112.017 188.964C112.222 188.693 112.592 188.653 112.857 188.845C113.121 189.043 113.174 189.42 112.969 189.685C111.627 191.449 110.378 193.379 109.255 195.408C109.149 195.607 108.944 195.719 108.732 195.719ZM117.087 184.78C116.928 184.78 116.769 184.714 116.65 184.589C116.419 184.351 116.432 183.967 116.67 183.743C118.369 182.123 120.206 180.649 122.13 179.361C122.401 179.176 122.777 179.248 122.962 179.526C123.148 179.803 123.075 180.174 122.797 180.359C120.933 181.608 119.149 183.035 117.503 184.608C117.384 184.727 117.239 184.78 117.087 184.78ZM128.501 177.133C128.27 177.133 128.052 177.001 127.953 176.776C127.82 176.472 127.953 176.122 128.257 175.983C130.345 175.051 132.566 174.271 134.846 173.663C135.17 173.597 135.501 173.769 135.58 174.086C135.666 174.41 135.474 174.734 135.157 174.82C132.936 175.408 130.775 176.168 128.746 177.074C128.666 177.12 128.581 177.133 128.501 177.133ZM141.773 173.557C141.469 173.557 141.211 173.333 141.178 173.029C141.138 172.698 141.376 172.401 141.7 172.361C143.934 172.097 146.274 171.958 148.653 171.958C148.984 171.958 149.255 172.229 149.255 172.559C149.255 172.89 148.984 173.161 148.653 173.161C146.32 173.161 144.027 173.293 141.839 173.557C141.819 173.551 141.793 173.557 141.773 173.557Z" fill="black"/>
<path d="M169.103 319.408C169.95 319.408 170.636 318.722 170.636 317.875C170.636 317.028 169.95 316.342 169.103 316.342C168.256 316.342 167.569 317.028 167.569 317.875C167.569 318.722 168.256 319.408 169.103 319.408Z" fill="black"/>
<path d="M182.54 319.408C183.387 319.408 184.074 318.722 184.074 317.875C184.074 317.028 183.387 316.342 182.54 316.342C181.693 316.342 181.007 317.028 181.007 317.875C181.007 318.722 181.693 319.408 182.54 319.408Z" fill="black"/>
<path fill-rule="evenodd" clip-rule="evenodd" d="M171.184 328.598C172.203 329.325 173.954 329.834 176.003 329.834C177.954 329.834 179.636 329.377 180.675 328.704L181.219 329.544C179.971 330.351 178.083 330.834 176.003 330.834C173.822 330.834 171.845 330.298 170.604 329.412L171.184 328.598Z" fill="black"/>
<path fill-rule="evenodd" clip-rule="evenodd" d="M171.426 313.278L166.475 314.17L166.298 313.186L171.248 312.293L171.426 313.278Z" fill="black"/>
<path fill-rule="evenodd" clip-rule="evenodd" d="M180.382 312.293L185.326 313.186L185.148 314.17L180.204 313.278L180.382 312.293Z" fill="black"/>
<path d="M100.001 283.678C119.362 283.678 135.057 267.982 135.057 248.621C135.057 229.26 119.362 213.564 100.001 213.564C80.6397 213.564 64.9443 229.26 64.9443 248.621C64.9443 267.982 80.6397 283.678 100.001 283.678Z" fill="white"/>
<path fill-rule="evenodd" clip-rule="evenodd" d="M100.001 214.314C81.0539 214.314 65.6943 229.674 65.6943 248.621C65.6943 267.568 81.0539 282.928 100.001 282.928C118.948 282.928 134.307 267.568 134.307 248.621C134.307 229.674 118.948 214.314 100.001 214.314ZM64.1943 248.621C64.1943 228.846 80.2255 212.814 100.001 212.814C119.776 212.814 135.807 228.846 135.807 248.621C135.807 268.396 119.776 284.428 100.001 284.428C80.2255 284.428 64.1943 268.396 64.1943 248.621Z" fill="black"/>
<path d="M97.4105 260.895C93.2796 260.3 90.3384 257.782 89.6113 253.651H93.8744C94.6874 256.209 96.7297 257.359 99.4131 257.359C102.308 257.359 104.099 256.037 104.099 253.737C104.099 251.992 103.121 250.968 100.563 250.373L96.386 249.348C93.0218 248.535 90.2458 246.579 90.2458 242.527C90.2458 238.608 93.0615 235.667 97.4039 235.237V231.404H101.237V235.455C104.906 236.222 107.12 238.654 107.886 242.144H103.756C103.161 240.267 101.495 238.78 98.5539 238.78C95.9101 238.78 94.2512 240.188 94.2512 242.23C94.2512 243.935 95.3153 244.96 97.4898 245.515L101.753 246.539C105.586 247.431 108.105 249.778 108.105 253.532C108.105 257.663 105.335 260.307 101.244 260.908V265.125H97.4105V260.895Z" fill="#4A7EFF"/>
<path fill-rule="evenodd" clip-rule="evenodd" d="M70.9424 248.621C70.9424 237.48 77.2128 227.805 86.4174 222.928L87.1197 224.254C78.3862 228.881 72.4424 238.057 72.4424 248.621C72.4424 258.832 77.9938 267.743 86.2446 272.506L85.4947 273.805C76.7989 268.786 70.9424 259.389 70.9424 248.621Z" fill="black"/>
<path fill-rule="evenodd" clip-rule="evenodd" d="M113.442 222.86C122.721 227.71 129.059 237.425 129.059 248.628C129.059 259.206 123.406 268.466 114.955 273.547L114.182 272.261C122.201 267.441 127.559 258.658 127.559 248.628C127.559 238.006 121.551 228.791 112.747 224.19L113.442 222.86Z" fill="black"/>
<path d="M283.3 347.049C303.735 347.049 320.3 330.484 320.3 310.049C320.3 289.615 303.735 273.05 283.3 273.05C262.866 273.05 246.301 289.615 246.301 310.049C246.301 330.484 262.866 347.049 283.3 347.049Z" fill="white"/>
<path fill-rule="evenodd" clip-rule="evenodd" d="M283.3 273.8C263.28 273.8 247.051 290.029 247.051 310.049C247.051 330.069 263.28 346.299 283.3 346.299C303.321 346.299 319.55 330.069 319.55 310.049C319.55 290.029 303.321 273.8 283.3 273.8ZM245.551 310.049C245.551 289.201 262.452 272.3 283.3 272.3C304.149 272.3 321.05 289.201 321.05 310.049C321.05 330.898 304.149 347.799 283.3 347.799C262.452 347.799 245.551 330.898 245.551 310.049Z" fill="black"/>
<path fill-rule="evenodd" clip-rule="evenodd" d="M252.669 310.049C252.669 298.3 259.283 288.103 268.983 282.962L269.686 284.287C260.456 289.179 254.169 298.877 254.169 310.049C254.169 320.841 260.038 330.262 268.758 335.295L268.008 336.595C258.843 331.304 252.669 321.399 252.669 310.049Z" fill="black"/>
<path fill-rule="evenodd" clip-rule="evenodd" d="M297.475 282.887C307.257 288.002 313.932 298.246 313.932 310.049C313.932 321.203 307.968 330.959 299.061 336.317L298.288 335.031C306.763 329.933 312.432 320.654 312.432 310.049C312.432 298.826 306.087 289.083 296.78 284.217L297.475 282.887Z" fill="black"/>
<path d="M278.575 315.542H299.137V323.473H273.941L278.575 315.542Z" fill="url(#paint0_linear)"/>
<path d="M297.285 315.542L284.562 293.499L277.688 297.465L288.125 315.542H297.285Z" fill="url(#paint1_linear)"/>
<path d="M299.137 323.473C301.327 323.473 303.102 321.698 303.102 319.507C303.102 317.317 301.327 315.542 299.137 315.542C296.946 315.542 295.171 317.317 295.171 319.507C295.171 321.698 296.946 323.473 299.137 323.473Z" fill="#4A7EFF"/>
<path d="M281.278 299.719C283.468 299.719 285.244 297.943 285.244 295.753C285.244 293.563 283.468 291.787 281.278 291.787C279.088 291.787 277.312 293.563 277.312 295.753C277.312 297.943 279.088 299.719 281.278 299.719Z" fill="#4A7EFF"/>
<path d="M265.977 321.49L278.772 299.342L283.353 307.273L272.85 325.462L265.977 321.49Z" fill="url(#paint2_linear)"/>
<path d="M269.414 327.439C271.604 327.439 273.38 325.663 273.38 323.473C273.38 321.283 271.604 319.507 269.414 319.507C267.224 319.507 265.448 321.283 265.448 323.473C265.448 325.663 267.224 327.439 269.414 327.439Z" fill="#4A7EFF"/>
<path d="M573.852 320.248C596.422 320.248 614.719 301.951 614.719 279.381C614.719 256.812 596.422 238.515 573.852 238.515C551.283 238.515 532.986 256.812 532.986 279.381C532.986 301.951 551.283 320.248 573.852 320.248Z" fill="white"/>
<path fill-rule="evenodd" clip-rule="evenodd" d="M573.852 239.265C551.697 239.265 533.736 257.226 533.736 279.381C533.736 301.537 551.697 319.498 573.852 319.498C596.008 319.498 613.969 301.537 613.969 279.381C613.969 257.226 596.008 239.265 573.852 239.265ZM532.236 279.381C532.236 256.397 550.868 237.765 573.852 237.765C596.836 237.765 615.469 256.397 615.469 279.381C615.469 302.365 596.836 320.998 573.852 320.998C550.868 320.998 532.236 302.365 532.236 279.381Z" fill="black"/>
<path d="M561.711 275.462H564.454C565.848 269.659 569.9 265.971 574.936 265.971C579.708 265.971 582.987 268.667 584.071 273.618H579.794C579.166 271.41 577.455 270.062 574.936 270.062C572.015 270.062 569.94 272.177 569.001 275.462H577.501L576.827 278.925H568.459C568.413 279.375 568.413 279.778 568.413 280.227C568.413 280.769 568.413 281.265 568.459 281.754H576.47L575.749 285.217H569.094C570.039 288.37 572.061 290.393 574.943 290.393C577.461 290.393 579.173 289.044 579.801 286.837H584.077C583 291.787 579.715 294.484 574.943 294.484C569.946 294.484 565.987 290.928 564.507 285.217H561.718V281.754H563.965C563.919 281.258 563.919 280.763 563.919 280.227C563.919 279.778 563.919 279.375 563.965 278.925H561.718V275.462H561.711Z" fill="#4A7EFF"/>
<path fill-rule="evenodd" clip-rule="evenodd" d="M540.108 279.381C540.108 266.442 547.39 255.201 558.082 249.538L558.784 250.863C548.564 256.277 541.608 267.019 541.608 279.381C541.608 291.33 548.105 301.755 557.757 307.331L557.007 308.63C546.91 302.798 540.108 291.888 540.108 279.381Z" fill="black"/>
<path fill-rule="evenodd" clip-rule="evenodd" d="M589.468 249.457C600.247 255.093 607.603 266.381 607.603 279.388C607.603 291.678 601.031 302.432 591.218 308.332L590.445 307.047C599.826 301.407 606.103 291.13 606.103 279.388C606.103 266.961 599.077 256.174 588.772 250.786L589.468 249.457Z" fill="black"/>
<path fill-rule="evenodd" clip-rule="evenodd" d="M433.646 115.21C404.744 115.21 381.313 138.64 381.313 167.543C381.313 196.446 404.744 219.876 433.646 219.876C462.549 219.876 485.979 196.446 485.979 167.543C485.979 138.64 462.549 115.21 433.646 115.21ZM378.813 167.543C378.813 137.26 403.363 112.71 433.646 112.71C463.93 112.71 488.479 137.26 488.479 167.543C488.479 197.826 463.93 222.376 433.646 222.376C403.363 222.376 378.813 197.826 378.813 167.543Z" fill="black"/>
<path d="M429.291 164.417H438.478V169.691H429.291V175.422C429.291 177.702 428.901 180.048 427.922 181.35H446.554V186.757H418.021V181.35H421.736C422.582 179.85 423.038 178.29 423.038 175.422V169.691H418.021V164.417H423.038V159.01C423.038 151.912 427.797 146.109 435.153 146.109C441.796 146.109 445.841 150.279 446.554 156.274H440.368C439.978 153.405 438.154 151.713 435.153 151.713C431.181 151.713 429.291 154.84 429.291 159.01V164.417Z" fill="white"/>
<path fill-rule="evenodd" clip-rule="evenodd" d="M389.124 167.536C389.124 150.465 398.735 135.641 412.836 128.17L414.006 130.379C400.691 137.435 391.624 151.428 391.624 167.536C391.624 183.1 400.088 196.694 412.671 203.956L411.422 206.121C398.096 198.432 389.124 184.029 389.124 167.536Z" fill="black"/>
<path fill-rule="evenodd" clip-rule="evenodd" d="M456.988 134.247C470.385 141.249 479.53 155.282 479.53 171.449C479.53 186.731 471.359 200.097 459.162 207.431L457.873 205.289C469.351 198.387 477.03 185.817 477.03 171.449C477.03 156.248 468.434 143.05 455.83 136.463L456.988 134.247Z" fill="black"/>
<path d="M28.0305 385.278C30.0596 385.278 31.6988 383.639 31.6988 381.61C31.6988 379.581 30.053 377.942 28.0305 377.942C26.0014 377.942 24.3623 379.581 24.3623 381.61C24.3623 383.639 26.0081 385.278 28.0305 385.278Z" fill="#282828"/>
<path d="M56.5445 385.47C58.6727 385.47 60.4044 383.745 60.4044 381.61C60.4044 379.482 58.6793 377.75 56.5445 377.75C54.4162 377.75 52.6846 379.475 52.6846 381.61C52.6912 383.745 54.4162 385.47 56.5445 385.47Z" fill="#282828"/>
<path d="M85.0572 385.186C87.0334 385.186 88.6329 383.586 88.6329 381.61C88.6329 379.634 87.0334 378.034 85.0572 378.034C83.0809 378.034 81.4814 379.634 81.4814 381.61C81.4881 383.586 83.0875 385.186 85.0572 385.186Z" fill="#282828"/>
<path d="M28.0308 413.983C30.1591 413.983 31.8907 412.258 31.8907 410.123C31.8907 407.995 30.1657 406.263 28.0308 406.263C25.9026 406.263 24.1709 407.988 24.1709 410.123C24.1709 412.258 25.9026 413.983 28.0308 413.983Z" fill="#282828"/>
<path d="M56.544 414.168C58.778 414.168 60.589 412.357 60.589 410.123C60.589 407.889 58.778 406.078 56.544 406.078C54.31 406.078 52.499 407.889 52.499 410.123C52.499 412.357 54.31 414.168 56.544 414.168Z" fill="#282828"/>
<path d="M85.0567 413.884C87.1337 413.884 88.8175 412.2 88.8175 410.123C88.8175 408.046 87.1337 406.362 85.0567 406.362C82.9797 406.362 81.2959 408.046 81.2959 410.123C81.2959 412.2 82.9797 413.884 85.0567 413.884Z" fill="#282828"/>
<path d="M28.0308 442.212C30.007 442.212 31.6065 440.613 31.6065 438.636C31.6065 436.66 30.007 435.061 28.0308 435.061C26.0546 435.061 24.4551 436.66 24.4551 438.636C24.4551 440.613 26.0612 442.212 28.0308 442.212Z" fill="#282828"/>
<path d="M56.544 442.404C58.6193 442.404 60.3048 440.718 60.3048 438.643C60.3048 436.567 58.6193 434.882 56.544 434.882C54.4686 434.882 52.7832 436.567 52.7832 438.643C52.7832 440.718 54.4686 442.404 56.544 442.404Z" fill="#282828"/>
<path d="M85.0575 442.153C86.994 442.153 88.5671 440.579 88.5671 438.643C88.5671 436.706 86.994 435.133 85.0575 435.133C83.1209 435.133 81.5479 436.706 81.5479 438.643C81.5479 440.579 83.1209 442.153 85.0575 442.153Z" fill="#282828"/>
<path d="M492.199 416.151C491.849 413.223 490.87 411.28 489.469 411.128C488.068 410.982 450.559 411.128 450.559 411.128C450.559 411.128 450.46 411.253 450.275 411.452C452.886 408.319 453.871 404.247 452.317 400.209L432.331 348.146C430.268 342.779 424.241 339.131 417.433 339.131H341.556C330.981 339.131 323.46 347.637 326.659 355.972L332.561 371.339L341.054 393.454L346.652 408.041C348.001 411.551 351.048 414.313 354.888 415.814C354.848 415.807 355.965 420.533 358.437 420.229H490.157C490.157 420.222 492.549 419.072 492.199 416.151Z" fill="#282828"/>
<path d="M499.496 286.308C499.496 286.308 485.88 288.265 477.262 296.341C468.643 304.418 463.454 311.1 458.478 324.782C453.501 338.457 456.211 339.184 450.87 350.407C445.53 361.623 444.115 364.306 444.115 364.306L456.918 399.013C456.918 399.013 458.226 408.702 453.765 411.022L457.222 411.372C457.222 411.372 466.693 403.157 469.991 396.508C473.289 389.858 475.966 382.502 475.966 382.502C475.966 382.502 476.052 390.876 475.305 397.459C474.558 404.042 472.794 409.066 469.39 411.128L487.995 411.372C487.995 411.372 491.479 410.903 492.212 414.228C492.946 417.552 490.163 419.826 490.163 419.826L499.502 420.222C499.502 420.222 513.521 424.915 527.784 425.854C542.047 426.785 547.408 422.02 547.408 422.02L551.294 444.882C551.294 444.882 565.841 446.66 576.707 444.294C587.573 441.928 596.199 438.53 596.199 438.53C596.199 438.53 583.819 379.27 582.636 374.042C581.446 368.814 575.161 342.548 573.72 337.413C572.286 332.277 569.523 321.887 563.059 310.499C556.595 299.117 551.618 294.18 546.905 291.814C542.193 289.441 530.752 283.44 518.604 284.226C506.449 285 499.496 286.308 499.496 286.308Z" fill="#4A7EFF"/>
<path d="M518.604 284.206L514.943 267.141C514.943 267.141 519.933 267.194 521.486 263.532C523.039 259.87 520.091 255.812 517.335 255.429C514.579 255.046 512.801 255.469 512.801 255.469L510.911 247.458H510.475L510.071 249.857L493.35 250.412L492.318 246.05L489.1 250.3L485.339 250.604L487.057 267.822C487.057 267.822 488.835 281.463 494.334 281.378C499.833 281.292 499.51 280.988 499.51 280.988L500.997 288C500.997 288 497.996 303.936 505.365 303.446C512.735 302.957 516.542 292.977 517.216 290.446C517.877 287.921 518.604 284.206 518.604 284.206Z" fill="white"/>
<path d="M565.729 445.616V448.141C565.729 448.141 558.987 458.564 557.619 460.626C556.258 462.688 556.773 466.449 559.701 467.255C562.629 468.061 565.742 464.175 567.454 462.047C569.173 459.919 571.605 457.169 574.097 457.394C576.588 457.619 583.535 457.956 591.083 461.016C598.624 464.076 599.735 465.583 603.059 465.656C606.384 465.735 607.739 463.831 608.254 463.203C608.254 463.203 610.482 464.135 613.31 461.974C616.133 459.806 614.031 457.718 614.031 457.718C614.031 457.718 615.518 456.984 614.804 454.876C614.09 452.774 611.162 451.478 607.752 449.773C604.341 448.061 599.636 447.579 596.589 445.576C593.542 443.573 590.64 441.029 590.64 441.029C590.64 441.029 585.511 442.688 578.201 444.016C570.884 445.351 565.729 445.616 565.729 445.616Z" fill="white"/>
<path d="M550.495 294.107C550.495 294.107 548.4 286.626 542.696 281.556C536.992 276.487 526.582 275.812 526.582 275.812C526.582 275.812 521.334 280.723 518.142 280.598L518.882 284.193C518.882 284.193 526.066 283.803 533.271 286.236C540.475 288.674 550.495 294.107 550.495 294.107Z" fill="#282828"/>
<path d="M515.702 270.703C515.702 270.703 521.889 268.714 524.506 262.6C527.13 256.493 527.064 251.007 525.736 245.277C524.414 239.546 521.915 234.331 516.766 233.281C511.618 232.236 506.826 233.492 506.826 233.492C506.826 233.492 501.776 230.577 495.345 231.906C488.914 233.234 481.677 238.099 481.836 250.901L488.809 250.406L492.186 245.812L492.906 250.3L510.071 249.877C510.071 249.877 511.188 243.763 511.188 243.988C511.188 244.206 510.818 251.371 512.801 255.488C512.801 255.488 519.509 253.42 521.162 258.482C522.814 263.545 519.813 267.451 514.949 267.161C510.084 266.87 514.949 266.87 514.949 266.87L515.702 270.703Z" fill="#282828"/>
<path d="M521.908 266.652C521.908 266.652 524.929 269.745 525.808 272.369C526.687 274.993 525.861 278.35 518.604 280.683L517.844 280.677L515.702 270.703C515.702 270.703 520.507 269.282 521.908 266.652Z" fill="#4A7EFF"/>
<path d="M579.669 361.497C579.669 361.497 565.789 365.152 568.34 380.11C570.885 395.06 582.703 397.578 587.428 395.88L579.669 361.497Z" fill="#CCCCCC"/>
<path d="M387.003 377.73C389.376 381.835 389.105 386.428 386.402 387.988C383.699 389.548 379.587 387.486 377.221 383.381C374.849 379.277 375.12 374.683 377.823 373.123C380.519 371.564 384.631 373.626 387.003 377.73Z" fill="white"/>
<path d="M374.492 420.222C374.492 420.222 356.62 431.009 356.177 456.184H474.182C474.182 456.184 486.145 459.41 501.208 459.601C516.271 459.793 526.112 458.564 533.528 456.336C540.937 454.109 544.936 451.749 547.408 446.501C549.88 441.26 549.847 436.429 549.847 436.429L547.408 422.02C547.408 422.02 538.505 427.308 523.958 425.384C509.41 423.467 500.329 419.918 500.329 419.918L374.492 420.222Z" fill="#282828"/>
<path d="M495.524 240.571C499.192 233.717 500.474 232.58 506.244 233.492C506.608 233.552 506.819 233.492 506.826 233.492C506.826 233.492 501.776 230.577 495.345 231.906C488.914 233.234 481.677 238.099 481.836 250.901L488.809 250.406L492.186 245.812L492.906 250.3L495.676 250.234C495.147 249.117 493.825 243.75 495.524 240.571Z" fill="white"/>
<path d="M559.252 457.262H532.312C531.988 457.262 531.73 457.004 531.73 456.68C531.73 456.356 531.988 456.098 532.312 456.098H559.252C559.576 456.098 559.834 456.356 559.834 456.68C559.834 456.997 559.576 457.262 559.252 457.262Z" fill="black"/>
<path d="M645.268 457.262H614.792C614.468 457.262 614.21 457.004 614.21 456.68C614.21 456.356 614.468 456.098 614.792 456.098H645.268C645.592 456.098 645.849 456.356 645.849 456.68C645.856 456.997 645.592 457.262 645.268 457.262Z" fill="black"/>
<path d="M495.728 282.138C495.048 282.138 494.36 282.045 493.666 281.801C492.483 281.378 491.366 280.505 490.434 279.269C487.077 274.828 486.554 269.256 486.045 263.869L485.913 262.468C485.583 259.17 485.226 250.862 485.219 250.776C485.206 250.459 485.457 250.181 485.774 250.168C486.039 250.155 486.369 250.406 486.383 250.73C486.389 250.815 486.753 259.084 487.07 262.349L487.209 263.763C487.698 268.985 488.207 274.391 491.366 278.569C492.159 279.613 493.084 280.347 494.056 280.697C495.55 281.219 497.077 280.888 498.696 280.518C499.119 280.419 499.535 280.327 499.952 280.247C501.981 279.864 504.036 279.335 506.072 278.681C506.376 278.575 506.707 278.754 506.806 279.058C506.905 279.368 506.74 279.699 506.429 279.798C504.354 280.472 502.245 281.007 500.17 281.404C499.767 281.477 499.357 281.569 498.954 281.662C497.896 281.9 496.825 282.138 495.728 282.138Z" fill="black"/>
<path d="M515.63 267.722C514.817 267.722 514.017 267.577 513.257 267.286C512.953 267.174 512.808 266.83 512.92 266.533C513.033 266.235 513.376 266.077 513.674 266.196C514.606 266.546 515.617 266.652 516.608 266.467C518.056 266.209 519.318 265.403 520.157 264.2C520.997 262.99 521.321 261.529 521.063 260.082C520.805 258.634 519.999 257.372 518.789 256.533C517.58 255.687 516.119 255.363 514.672 255.627C513.588 255.819 512.596 256.328 511.803 257.088C511.572 257.313 511.202 257.306 510.977 257.075C510.752 256.843 510.759 256.473 510.99 256.248C511.949 255.317 513.152 254.702 514.467 254.471C516.225 254.153 517.996 254.55 519.457 255.568C520.918 256.586 521.896 258.119 522.213 259.87C522.524 261.629 522.134 263.4 521.116 264.867C520.098 266.328 518.565 267.306 516.813 267.617C516.423 267.689 516.027 267.722 515.63 267.722Z" fill="black"/>
<path d="M517.824 264.12C517.758 264.12 517.685 264.107 517.613 264.081L512.761 262.217C512.589 262.151 512.457 262.012 512.411 261.833C512.365 261.655 512.398 261.463 512.504 261.318L515.888 256.804C516.079 256.546 516.443 256.486 516.707 256.685C516.965 256.883 517.018 257.246 516.826 257.504L513.905 261.404L518.029 262.997C518.333 263.109 518.479 263.453 518.366 263.75C518.274 263.975 518.056 264.12 517.824 264.12Z" fill="black"/>
<path d="M505.471 304.035C504.671 304.035 503.918 303.856 503.27 303.506C500.878 302.197 500.177 298.879 500.018 297.895C499.747 296.222 499.866 294.563 499.972 292.964C500.005 292.462 500.038 291.959 500.065 291.45C500.071 291.358 500.197 288.608 500.197 288.608L498.921 281.093C498.868 280.776 499.08 280.472 499.404 280.419C499.714 280.346 500.025 280.584 500.078 280.895L501.36 288.536C501.367 288.661 501.241 291.437 501.234 291.51C501.208 292.019 501.175 292.534 501.142 293.05C501.03 294.656 500.924 296.176 501.175 297.716C501.314 298.569 501.909 301.431 503.832 302.482C504.731 302.964 505.947 302.997 507.176 302.554C514.123 300.056 516.912 291.146 518.029 284.12C518.075 283.803 518.386 283.552 518.697 283.638C519.014 283.684 519.232 283.988 519.186 284.306C517.514 294.834 513.502 301.53 507.58 303.658C506.866 303.909 506.152 304.035 505.471 304.035Z" fill="black"/>
<path d="M497.943 272.118C497.586 272.118 497.209 272.085 496.813 272.025C496.495 271.979 496.277 271.675 496.324 271.358C496.37 271.04 496.674 270.783 496.991 270.875C498.346 271.08 499.397 270.869 500.124 270.228C501.353 269.157 501.327 267.233 501.327 267.214C501.32 266.883 501.598 266.612 501.909 266.619C502.226 266.619 502.484 266.87 502.49 267.194C502.49 267.3 502.517 269.686 500.884 271.113C500.117 271.774 499.133 272.118 497.943 272.118Z" fill="black"/>
<path d="M518.604 284.795C518.333 284.795 518.095 284.61 518.036 284.339L514.368 267.795C514.295 267.478 514.493 267.167 514.81 267.094C515.114 267.028 515.438 267.227 515.504 267.537L519.173 284.081C519.245 284.398 519.047 284.709 518.73 284.781C518.69 284.788 518.644 284.795 518.604 284.795Z" fill="black"/>
<path d="M560.924 468.028C558.796 468.028 556.734 466.574 556.205 464.532C555.676 462.496 556.84 460.712 557.871 459.139C558.095 458.795 558.314 458.458 558.505 458.134C559.041 457.222 559.913 456.072 560.838 454.862C562.583 452.575 564.559 449.985 565.227 447.803L565.392 445.569C565.419 445.252 565.69 445.027 566.02 445.034C566.344 445.061 566.582 445.345 566.556 445.662L566.37 448.022C565.617 450.526 563.575 453.203 561.77 455.57C560.871 456.746 560.019 457.863 559.516 458.722C559.312 459.066 559.087 459.416 558.849 459.773C557.91 461.214 556.939 462.701 557.335 464.235C557.798 465.999 559.867 467.196 561.704 466.766C562.61 466.548 563.495 465.973 564.421 465.001C565.194 464.182 565.868 463.243 566.523 462.331C567.051 461.591 567.593 460.837 568.201 460.123C569.708 458.352 571.632 456.574 574.593 456.825C580.726 457.361 585.815 458.398 590.158 460.004C591.559 460.527 592.98 461.26 594.487 462.034C598.439 464.076 602.524 466.191 606.47 464.387C606.985 464.149 607.309 463.904 607.481 463.613C607.838 463.012 607.58 462.179 607.25 461.65C606.106 459.826 604.203 458.517 602.359 457.262L601.896 456.944C600.085 455.708 598.016 454.558 595.578 453.441C593.297 452.397 590.594 451.247 587.838 450.599C587.521 450.527 587.329 450.216 587.402 449.899C587.474 449.588 587.805 449.383 588.102 449.462C590.958 450.123 593.727 451.306 596.06 452.377C598.565 453.527 600.687 454.704 602.557 455.986L603.02 456.303C604.87 457.572 606.972 459.006 608.241 461.042C608.77 461.888 609.107 463.17 608.479 464.221C608.175 464.724 607.693 465.12 606.952 465.457C602.491 467.493 597.95 465.147 593.945 463.071C592.471 462.311 591.083 461.591 589.748 461.102C585.505 459.535 580.515 458.517 574.487 457.995C572.101 457.757 570.475 459.264 569.087 460.884C568.512 461.551 567.983 462.298 567.468 463.012C566.787 463.957 566.086 464.935 565.26 465.808C564.176 466.951 563.099 467.638 561.969 467.909C561.632 467.989 561.281 468.028 560.924 468.028Z" fill="black"/>
<path d="M609.754 463.798C609.298 463.798 608.888 463.752 608.558 463.686C608.241 463.62 608.042 463.309 608.109 462.999C608.175 462.681 608.492 462.49 608.796 462.543C608.935 462.562 612.365 463.237 613.826 460.328C614.103 459.773 614.09 459.192 613.799 458.531C612.273 455.14 603.614 450.765 592.748 447.883C592.438 447.797 592.253 447.48 592.332 447.169C592.411 446.858 592.728 446.66 593.046 446.753C602.497 449.251 612.907 453.719 614.857 458.055C615.3 459.04 615.306 459.985 614.87 460.857C613.707 463.19 611.427 463.798 609.754 463.798Z" fill="black"/>
<path d="M561.823 446.138C555.399 446.138 551.281 445.457 551.188 445.444C550.944 445.398 550.752 445.212 550.713 444.968C541.942 394.088 530.435 321.338 530.316 320.605C530.27 320.287 530.481 319.983 530.805 319.937C531.116 319.851 531.42 320.102 531.472 320.42C531.585 321.147 543.032 393.5 551.79 444.353C554.876 444.783 575.154 447.202 595.525 438.173C594.223 431.577 579.312 356.243 570.144 327.227C569.087 323.876 559.45 300.095 547.97 293.103C544.771 291.153 533.198 284.795 518.597 284.795C518.273 284.795 518.016 284.537 518.016 284.213C518.016 283.889 518.273 283.631 518.597 283.631C533.502 283.631 545.313 290.115 548.578 292.105C560.369 299.289 570.191 323.48 571.261 326.877C580.825 357.148 596.602 437.598 596.761 438.411C596.813 438.676 596.675 438.947 596.43 439.053C583.489 444.895 570.534 446.138 561.823 446.138Z" fill="black"/>
<path d="M614.124 458.471C613.965 458.471 613.813 458.405 613.694 458.286C613.476 458.048 613.489 457.685 613.721 457.46C613.76 457.427 614.348 456.825 614.177 455.834C613.965 454.618 612.637 452.668 607.494 450.302C605.188 449.238 602.98 448.524 600.845 447.83C596.384 446.382 592.537 445.14 590.131 441.339C589.96 441.068 590.039 440.712 590.317 440.533C590.588 440.361 590.951 440.441 591.123 440.712C593.304 444.155 596.787 445.285 601.209 446.713C603.377 447.414 605.617 448.141 607.99 449.231C612.518 451.32 614.99 453.488 615.34 455.669C615.598 457.288 614.567 458.266 614.52 458.313C614.408 458.425 614.269 458.471 614.124 458.471Z" fill="black"/>
<path d="M397.941 457.262C397.604 457.255 397.347 456.984 397.36 456.66C397.631 446.416 398.787 436.098 405.41 430.004C411.63 424.281 418.49 421.035 427.01 419.793C427.347 419.74 427.624 419.971 427.671 420.288C427.717 420.606 427.499 420.903 427.175 420.949C418.9 422.159 412.238 425.312 406.197 430.864C399.891 436.667 398.781 446.706 398.517 456.687C398.517 457.004 398.259 457.262 397.941 457.262Z" fill="black"/>
<path d="M502.893 460.183C467.44 460.183 457.208 449.145 456.779 448.656C456.561 448.418 456.587 448.048 456.825 447.836C457.063 447.618 457.433 447.645 457.651 447.883C457.757 448.002 468.616 459.601 505.947 458.987C543.852 458.326 547.804 449.191 549.265 436.356C549.305 436.039 549.602 435.801 549.913 435.84C550.236 435.873 550.468 436.164 550.428 436.488C548.908 449.912 544.83 459.476 505.973 460.15C504.922 460.176 503.898 460.183 502.893 460.183Z" fill="black"/>
<path d="M515.993 271.285C515.755 271.285 515.524 271.133 515.438 270.895C515.332 270.591 515.491 270.254 515.795 270.148C524.493 267.101 528.221 255.872 524.658 243.446C523.402 239.051 521.175 236.024 518.035 234.444C512.946 231.879 507.084 234.014 507.024 234.041C506.879 234.094 506.72 234.087 506.581 234.028C505.993 233.77 492.113 227.768 484.982 239.52C481.842 244.695 482.1 248.899 482.305 250.274L489.198 249.718L491.697 245.224C491.816 245.006 492.054 244.887 492.305 244.933C492.549 244.979 492.741 245.164 492.781 245.409L493.528 249.837L509.549 249.302L510.501 243.638C510.547 243.347 510.792 243.142 511.115 243.155C511.413 243.175 511.651 243.42 511.657 243.717C511.664 243.803 511.968 252.474 513.303 255.224C513.442 255.515 513.323 255.865 513.032 256.004C512.735 256.149 512.391 256.024 512.252 255.733C511.532 254.239 511.096 251.311 510.831 248.72L510.62 249.97C510.573 250.241 510.342 250.445 510.064 250.452L493.052 251.02C492.781 250.968 492.503 250.822 492.457 250.538L491.902 247.253L490.058 250.564C489.965 250.736 489.787 250.849 489.595 250.862L481.862 251.483C481.578 251.49 481.327 251.324 481.247 251.053C481.188 250.835 479.866 245.673 483.97 238.912C491.128 227.114 504.909 232.111 506.826 232.871C508.002 232.474 513.508 230.881 518.544 233.406C521.988 235.138 524.42 238.416 525.775 243.135C529.516 256.176 525.478 268.007 516.172 271.265C516.125 271.278 516.059 271.285 515.993 271.285Z" fill="black"/>
<path d="M587.421 396.065C578.736 397.856 570.415 391.524 568.452 381.993C566.489 372.462 571.056 363.288 579.748 361.497L587.421 396.065Z" fill="#282828"/>
<path d="M584.441 396.957C576.662 396.957 569.702 390.949 567.878 382.112C566.886 377.3 567.494 372.489 569.583 368.569C571.744 364.531 575.307 361.808 579.623 360.922C579.927 360.863 580.244 361.061 580.31 361.378C580.376 361.695 580.171 362.006 579.854 362.066C575.888 362.885 572.603 365.39 570.607 369.118C568.638 372.799 568.076 377.327 569.014 381.874C570.944 391.226 578.975 397.188 587.296 395.49C587.607 395.423 587.924 395.628 587.984 395.946C588.05 396.263 587.845 396.573 587.527 396.633C586.503 396.851 585.465 396.957 584.441 396.957Z" fill="black"/>
<path d="M453.376 411.954C453.21 411.954 453.045 411.881 452.926 411.742C452.721 411.491 452.754 411.128 452.999 410.916C456.337 408.14 457.407 401.709 456.072 398.233L436.079 346.17C434.096 341.001 428.326 337.531 421.723 337.531H345.847C342.344 337.531 336.474 339.805 333.969 341.372C333.698 341.543 333.341 341.464 333.163 341.186C332.991 340.909 333.077 340.552 333.348 340.38C335.965 338.741 342.139 336.362 345.84 336.362H421.716C428.795 336.362 435.008 340.136 437.163 345.754L457.156 397.816C458.657 401.722 457.487 408.689 453.739 411.815C453.64 411.914 453.508 411.954 453.376 411.954Z" fill="black"/>
<path d="M437.42 417.631H361.543C354.464 417.631 348.252 413.857 346.097 408.239L340.499 393.659C340.386 393.361 340.532 393.018 340.836 392.905C341.14 392.78 341.477 392.938 341.589 393.243L347.187 407.823C349.17 412.992 354.94 416.462 361.543 416.462H437.42C442.925 416.462 447.83 414.109 450.539 410.163C452.595 407.169 453.038 403.705 451.769 400.42L431.775 348.358C429.792 343.189 424.022 339.713 417.419 339.713H341.543C336.037 339.713 331.133 342.066 328.423 346.018C326.368 349.012 325.925 352.475 327.187 355.76L333.09 371.121C333.202 371.418 333.056 371.762 332.752 371.874C332.448 372 332.118 371.841 331.999 371.537L326.097 356.177C324.689 352.515 325.178 348.675 327.458 345.35C330.386 341.087 335.654 338.543 341.543 338.543H417.419C424.498 338.543 430.704 342.317 432.866 347.935L452.859 399.997C454.267 403.652 453.778 407.499 451.498 410.817C448.57 415.087 443.309 417.631 437.42 417.631Z" fill="black"/>
<path d="M387.043 385.701C386.105 385.701 385.1 385.45 384.082 384.934C382.245 384.016 380.572 382.357 379.369 380.275C378.167 378.193 377.572 375.919 377.691 373.87C377.816 371.729 378.702 370.076 380.182 369.224C381.67 368.365 383.54 368.417 385.45 369.382C387.288 370.301 388.96 371.96 390.163 374.042C391.366 376.124 391.96 378.398 391.841 380.447C391.716 382.588 390.83 384.24 389.35 385.093C388.656 385.496 387.876 385.701 387.043 385.701ZM382.502 369.792C381.874 369.792 381.286 369.938 380.771 370.235C379.64 370.889 378.96 372.205 378.861 373.936C378.755 375.76 379.297 377.809 380.387 379.693C381.478 381.583 382.978 383.077 384.611 383.89C386.164 384.67 387.638 384.743 388.775 384.088C389.905 383.434 390.579 382.119 390.685 380.387C390.791 378.563 390.249 376.514 389.158 374.63C388.068 372.74 386.567 371.246 384.935 370.433C384.089 370.004 383.262 369.792 382.502 369.792Z" fill="black"/>
<path d="M488.439 420.83H358.94C356.435 420.83 354.564 418.451 354.564 416.323C354.564 415.986 354.835 415.715 355.173 415.715C355.51 415.715 355.781 415.986 355.781 416.323C355.781 417.843 357.162 419.614 358.94 419.614H488.439C490.184 419.614 491.598 418.319 491.598 416.733V414.869C491.598 413.276 490.177 411.987 488.439 411.987H450.534C450.197 411.987 449.926 411.716 449.926 411.379C449.926 411.042 450.197 410.771 450.534 410.771H488.439C490.851 410.771 492.814 412.608 492.814 414.869V416.733C492.814 418.986 490.851 420.83 488.439 420.83Z" fill="black"/>
<path d="M356.17 456.759C355.846 456.759 355.581 456.495 355.588 456.178C355.661 431.617 374.881 419.832 375.073 419.72C375.344 419.561 375.707 419.647 375.872 419.918C376.038 420.196 375.952 420.553 375.674 420.718C375.489 420.83 356.831 432.298 356.758 456.171C356.758 456.502 356.494 456.759 356.17 456.759Z" fill="black"/>
<path d="M530.038 426.501C528.861 426.501 527.652 426.448 526.409 426.329C515.2 425.265 501.155 421.161 499.945 420.804H488.438C488.114 420.804 487.856 420.546 487.856 420.222C487.856 419.898 488.114 419.641 488.438 419.641H500.024C500.342 419.707 514.968 424.082 526.515 425.166C537.943 426.29 547.037 421.551 547.13 421.498C547.408 421.333 547.764 421.458 547.916 421.742C548.068 422.027 547.956 422.384 547.672 422.529C547.335 422.707 540.012 426.495 530.038 426.501Z" fill="black"/>
<path d="M517.824 281.265C517.566 281.265 517.328 281.093 517.256 280.829C517.176 280.518 517.361 280.201 517.672 280.122C522.325 278.906 524.929 277.134 525.418 274.861C526.192 271.245 521.413 267.346 521.367 267.306C521.116 267.108 521.076 266.738 521.281 266.486C521.486 266.242 521.849 266.209 522.1 266.394C522.318 266.572 527.487 270.783 526.562 275.099C525.974 277.848 523.085 279.917 517.969 281.252C517.917 281.265 517.87 281.265 517.824 281.265Z" fill="black"/>
<path d="M550.811 295.019C550.573 295.019 550.349 294.874 550.263 294.636C542.86 274.636 526.323 276.493 526.165 276.52C525.828 276.586 525.55 276.335 525.51 276.017C525.471 275.7 525.695 275.403 526.013 275.363C526.191 275.336 543.64 273.36 551.36 294.239C551.472 294.537 551.314 294.881 551.016 294.986C550.95 295.006 550.877 295.019 550.811 295.019Z" fill="black"/>
<path d="M444.115 364.491C444.003 364.491 443.897 364.458 443.798 364.399C443.527 364.227 443.447 363.863 443.626 363.592C448.523 356.051 452.033 347.115 455.001 334.61C466.197 287.458 500.018 285.667 500.355 285.654C500.692 285.654 500.95 285.905 500.963 286.216C500.976 286.539 500.725 286.81 500.401 286.824C500.071 286.837 467.122 288.628 456.138 334.874C453.137 347.518 449.581 356.567 444.604 364.227C444.498 364.399 444.307 364.491 444.115 364.491Z" fill="black"/>
<path d="M468.861 411.954C468.63 411.954 468.405 411.815 468.319 411.584C468.2 411.286 468.352 410.942 468.649 410.824C475.173 408.272 475.926 388.867 475.417 378.966C473.468 341.133 473.725 331.444 475.55 319.759C475.596 319.441 475.887 319.177 476.217 319.276C476.534 319.322 476.753 319.626 476.706 319.944C474.895 331.537 474.644 341.18 476.581 378.906C476.739 381.927 477.85 408.49 469.072 411.914C469.006 411.94 468.934 411.954 468.861 411.954Z" fill="black"/>
<path d="M457.176 411.709C456.991 411.709 456.806 411.617 456.693 411.452C456.515 411.181 456.581 410.824 456.852 410.639C470.335 401.531 475.517 381.934 475.563 381.735C475.643 381.425 475.947 381.213 476.277 381.319C476.588 381.398 476.78 381.716 476.7 382.026C476.647 382.225 471.353 402.251 457.506 411.61C457.407 411.676 457.288 411.709 457.176 411.709Z" fill="black"/>
<path d="M333.09 179.394C333.09 184.688 337.386 188.984 342.68 188.984C347.974 188.984 352.27 184.688 352.27 179.394C352.27 174.1 347.974 169.803 342.68 169.803C337.386 169.803 333.09 174.1 333.09 179.394Z" fill="#4A7EFF"/>
<path d="M203.022 193.333H166.624C160.966 193.333 156.366 188.726 156.366 183.069V168.686C156.366 163.035 160.966 158.428 166.624 158.428H179.803C180.134 158.428 180.405 158.699 180.405 159.03C180.405 159.36 180.134 159.631 179.803 159.631H166.624C161.627 159.631 157.563 163.696 157.563 168.686V183.069C157.563 188.065 161.627 192.123 166.624 192.123H203.022C203.353 192.123 203.624 192.394 203.624 192.725C203.624 193.062 203.353 193.333 203.022 193.333Z" fill="black"/>
<path d="M353.804 193.333H250.465C250.135 193.333 249.864 193.062 249.864 192.732C249.864 192.401 250.135 192.13 250.465 192.13H353.804C358.8 192.13 362.865 188.065 362.865 183.075V168.693C362.865 163.703 358.8 159.638 353.804 159.638H179.797C179.466 159.638 179.195 159.367 179.195 159.037C179.195 158.706 179.466 158.435 179.797 158.435H353.804C359.461 158.435 364.062 163.042 364.062 168.693V183.075C364.062 188.726 359.461 193.333 353.804 193.333Z" fill="black"/>
<path d="M338.08 186.069C332.462 186.069 327.889 181.496 327.889 175.878C327.889 170.26 332.462 165.686 338.08 165.686C343.698 165.686 348.272 170.26 348.272 175.878C348.272 181.496 343.698 186.069 338.08 186.069ZM338.08 166.889C333.123 166.889 329.092 170.92 329.092 175.878C329.092 180.835 333.123 184.866 338.08 184.866C343.038 184.866 347.069 180.835 347.069 175.878C347.076 170.927 343.038 166.889 338.08 166.889Z" fill="black"/>
<path d="M318.556 170.405H173.928C173.597 170.405 173.326 170.134 173.326 169.803C173.326 169.473 173.597 169.202 173.928 169.202H318.556C318.886 169.202 319.157 169.473 319.157 169.803C319.157 170.134 318.886 170.405 318.556 170.405Z" fill="black"/>
<path d="M318.556 182.56H173.928C173.597 182.56 173.326 182.289 173.326 181.958C173.326 181.628 173.597 181.357 173.928 181.357H318.556C318.886 181.357 319.157 181.628 319.157 181.958C319.157 182.289 318.886 182.56 318.556 182.56Z" fill="black"/>
<path d="M487.355 255.72C487.189 255.766 487.004 255.726 486.866 255.601C486.647 255.403 486.634 255.072 486.826 254.854C487.507 254.094 488.439 253.44 490.6 253.697C490.891 253.73 491.096 254.001 491.063 254.286C491.029 254.576 490.759 254.768 490.474 254.742C488.716 254.523 488.095 255.019 487.612 255.555C487.54 255.64 487.447 255.7 487.355 255.72Z" fill="black"/>
<path d="M504.961 255.911C504.77 255.964 504.552 255.898 504.413 255.733C501.677 252.329 498.768 254.265 498.643 254.345C498.425 254.51 498.081 254.451 497.916 254.213C497.751 253.975 497.81 253.651 498.048 253.486C498.081 253.459 501.895 250.921 505.232 255.072C505.411 255.303 505.378 255.627 505.153 255.812C505.094 255.858 505.028 255.891 504.961 255.911Z" fill="black"/>
<path d="M492.602 268.654C492.49 268.641 492.384 268.595 492.298 268.509C491.115 267.392 489.165 265.555 490.692 263.816C491.208 263.241 491.803 262.792 492.378 262.362C493.078 261.84 493.746 261.344 494.235 260.631C496.099 257.934 494.513 254.484 494.499 254.451C494.38 254.186 494.486 253.876 494.751 253.75C495.008 253.625 495.326 253.737 495.451 254.001C495.53 254.167 497.315 258.026 495.101 261.232C494.513 262.085 493.746 262.653 493.012 263.208C492.45 263.625 491.928 264.021 491.485 264.517C490.765 265.33 491.452 266.268 492.887 267.617L493.025 267.749C493.237 267.947 493.244 268.284 493.045 268.496C492.926 268.615 492.761 268.668 492.602 268.654Z" fill="black"/>
<path d="M490.111 260.875C490.863 260.875 491.472 260.265 491.472 259.513C491.472 258.761 490.863 258.152 490.111 258.152C489.359 258.152 488.749 258.761 488.749 259.513C488.749 260.265 489.359 260.875 490.111 260.875Z" fill="black"/>
<path d="M500.249 260.273C500.957 260.273 501.531 259.699 501.531 258.991C501.531 258.283 500.957 257.709 500.249 257.709C499.541 257.709 498.967 258.283 498.967 258.991C498.967 259.699 499.541 260.273 500.249 260.273Z" fill="black"/>
<defs>
<linearGradient id="paint0_linear" x1="273.939" y1="319.509" x2="299.134" y2="319.509" gradientUnits="userSpaceOnUse">
<stop stop-color="white" stop-opacity="0"/>
<stop offset="0.88" stop-color="#4A7EFF"/>
</linearGradient>
<linearGradient id="paint1_linear" x1="293.887" y1="317.583" x2="281.161" y2="295.541" gradientUnits="userSpaceOnUse">
<stop stop-color="white" stop-opacity="0"/>
<stop offset="0.88" stop-color="#4A7EFF"/>
</linearGradient>
<linearGradient id="paint2_linear" x1="269.355" y1="323.512" x2="282.145" y2="301.36" gradientUnits="userSpaceOnUse">
<stop offset="0.1203" stop-color="#4A7EFF"/>
<stop offset="1" stop-color="white" stop-opacity="0"/>
</linearGradient>
</defs>
</svg>
