<svg width="700" height="529" viewBox="0 0 700 529" fill="none" xmlns="http://www.w3.org/2000/svg">
<path d="M140.788 332.363H116.432C108.369 332.363 101.772 325.767 101.772 317.703V299.646C101.772 291.583 108.369 284.98 116.432 284.98H140.788C148.852 284.98 155.454 291.576 155.454 299.646V317.703C155.448 325.767 148.852 332.363 140.788 332.363Z" fill="#282828"/>
<path d="M358.549 243.459H164.212C152.943 243.459 143.729 234.239 143.729 222.976V100.655C143.729 89.3862 152.949 80.1726 164.212 80.1726H358.549C369.818 80.1726 379.032 89.3928 379.032 100.655V222.976C379.032 234.245 369.818 243.459 358.549 243.459Z" fill="white"/>
<path d="M594.916 388.675H445.06C433.791 388.675 424.578 379.455 424.578 368.193V255.574C424.578 244.305 433.798 235.092 445.06 235.092H594.916C606.185 235.092 615.399 244.312 615.399 255.574V368.193C615.406 379.462 606.185 388.675 594.916 388.675Z" fill="#4A7EFF"/>
<path d="M592.517 352.383C592.517 352.383 590.819 351.636 576.45 344.194C562.087 336.745 554.85 334.617 549.529 334.088C544.209 333.559 536.76 335.046 532.398 336.857C528.035 338.668 513.779 343.989 507.5 344.835C501.221 345.687 493.772 343.024 490.692 341.748C487.605 340.473 464.717 326.507 464.717 326.507C464.717 326.507 459.661 382.165 457.737 400.163H572.51C583.628 400.163 592.722 391.068 592.722 379.951V352.984C592.597 352.601 592.517 352.383 592.517 352.383Z" fill="#282828"/>
<path d="M554 297.249C560.581 290.667 560.581 279.996 554 273.414C547.418 266.832 536.746 266.832 530.165 273.414C523.583 279.996 523.583 290.667 530.165 297.249C536.746 303.831 547.418 303.831 554 297.249Z" fill="white"/>
<path d="M357.194 451.346H142.605C131.336 451.346 122.123 442.126 122.123 430.863V392.991C122.123 381.722 131.343 372.509 142.605 372.509H357.194C368.463 372.509 377.677 381.729 377.677 392.991V430.863C377.677 442.133 368.463 451.346 357.194 451.346Z" fill="white"/>
<path d="M172.434 411.927C172.434 419.422 166.36 425.503 158.858 425.503C151.363 425.503 145.282 419.429 145.282 411.927C145.282 404.432 151.356 398.352 158.858 398.352C166.353 398.352 172.434 404.432 172.434 411.927Z" fill="#282828"/>
<path d="M355.694 80.166H167.067C154.232 80.166 143.723 90.6684 143.723 103.511V119.234H379.032V103.511C379.032 90.6684 368.53 80.166 355.694 80.166Z" fill="#282828"/>
<path d="M138.065 293.526C136.611 291.041 134.238 291.041 132.784 293.526L121.634 312.627C120.18 315.112 121.35 317.148 124.225 317.148H146.631C149.506 317.148 150.676 315.112 149.222 312.627L138.065 293.526Z" fill="#4A7EFF"/>
<path d="M361.12 100.067C361.12 104.647 357.406 108.362 352.826 108.362C348.245 108.362 344.531 104.647 344.531 100.067C344.531 95.4867 348.245 91.7722 352.826 91.7722C357.406 91.7788 361.12 95.4867 361.12 100.067Z" fill="#4A7EFF"/>
<path d="M404.611 122.883C409.338 122.883 413.17 119.051 413.17 114.324C413.17 109.597 409.338 105.764 404.611 105.764C399.883 105.764 396.051 109.597 396.051 114.324C396.051 119.051 399.883 122.883 404.611 122.883Z" fill="#4A7EFF"/>
<path d="M606.555 188.548C606.555 193.274 602.722 197.107 597.996 197.107C593.27 197.107 589.437 193.274 589.437 188.548C589.437 183.822 593.27 179.989 597.996 179.989C602.722 179.989 606.555 183.822 606.555 188.548Z" fill="#4A7EFF"/>
<path d="M330.604 105.936C333.843 102.697 333.843 97.4448 330.604 94.2055C327.364 90.9662 322.112 90.9662 318.873 94.2055C315.634 97.4448 315.634 102.697 318.873 105.936C322.112 109.175 327.364 109.175 330.604 105.936Z" fill="#CCCCCC"/>
<path d="M299.896 107.733C304.134 105.993 306.159 101.147 304.419 96.9092C302.679 92.6712 297.833 90.6461 293.595 92.386C289.357 94.1259 287.332 98.9719 289.072 103.21C290.812 107.448 295.658 109.473 299.896 107.733Z" fill="white"/>
<path d="M501.115 159.962C505.93 159.962 509.833 156.059 509.833 151.244C509.833 146.429 505.93 142.526 501.115 142.526C496.301 142.526 492.397 146.429 492.397 151.244C492.397 156.059 496.301 159.962 501.115 159.962Z" fill="#282828"/>
<path d="M380.698 222.586L384.254 222.375C384.254 222.375 385 220.194 385.007 216.955C385.02 213.717 385.846 202.745 381.815 195.56C378.417 189.513 370.85 184.767 360.446 183.458C367.452 186.492 374.914 191.244 373.381 197.365C371.147 206.301 339.759 200.346 339.759 200.346L340.559 201.476C340.671 201.159 340.737 200.98 340.737 200.98C340.737 200.98 343.665 201.416 356.335 205.428C369.006 209.44 380.42 220.617 380.42 220.617L380.698 222.586Z" fill="white"/>
<path d="M592.728 353.652C592.596 353.652 592.464 353.625 592.345 353.559L563.026 338.576C556.039 334.993 544.321 334.128 536.885 336.652L514.909 344.108C507.09 346.765 494.955 345.489 487.856 341.259L464.294 327.221C463.89 326.983 463.765 326.467 464.003 326.064C464.241 325.668 464.763 325.535 465.159 325.773L488.722 339.812C495.457 343.817 506.971 345.027 514.373 342.515L536.35 335.06C544.156 332.416 556.469 333.315 563.799 337.075L593.118 352.059C593.535 352.271 593.7 352.779 593.482 353.189C593.33 353.487 593.032 353.652 592.728 353.652Z" fill="black"/>
<path d="M536.846 307.776C527.083 307.776 519.146 299.838 519.146 290.082C519.146 280.327 527.083 272.389 536.846 272.389C546.595 272.389 554.532 280.327 554.532 290.082C554.532 299.844 546.595 307.776 536.846 307.776ZM536.846 274.074C528.015 274.074 520.831 281.259 520.831 290.082C520.831 298.906 528.015 306.09 536.846 306.09C545.669 306.09 552.847 298.906 552.847 290.082C552.847 281.259 545.669 274.074 536.846 274.074Z" fill="black"/>
<path d="M86.7889 158.283C88.818 158.283 90.4571 156.637 90.4571 154.615C90.4571 152.586 88.8113 150.947 86.7889 150.947C84.7597 150.947 83.1206 152.586 83.1206 154.615C83.1206 156.644 84.7664 158.283 86.7889 158.283Z" fill="#282828"/>
<path d="M115.302 158.475C117.43 158.475 119.162 156.75 119.162 154.615C119.162 152.487 117.437 150.755 115.302 150.755C113.174 150.755 111.442 152.48 111.442 154.615C111.449 156.75 113.174 158.475 115.302 158.475Z" fill="#282828"/>
<path d="M143.822 158.19C145.798 158.19 147.398 156.591 147.398 154.615C147.398 152.639 145.798 151.039 143.822 151.039C141.846 151.039 140.246 152.639 140.246 154.615C140.246 156.591 141.846 158.19 143.822 158.19Z" fill="#282828"/>
<path d="M86.7886 186.988C88.9169 186.988 90.6485 185.263 90.6485 183.128C90.6485 181 88.9235 179.268 86.7886 179.268C84.6604 179.268 82.9287 180.993 82.9287 183.128C82.9287 185.263 84.6604 186.988 86.7886 186.988Z" fill="#282828"/>
<path d="M115.302 187.173C117.536 187.173 119.347 185.362 119.347 183.128C119.347 180.894 117.536 179.083 115.302 179.083C113.068 179.083 111.257 180.894 111.257 183.128C111.257 185.362 113.068 187.173 115.302 187.173Z" fill="#282828"/>
<path d="M143.822 186.889C145.899 186.889 147.583 185.205 147.583 183.128C147.583 181.051 145.899 179.367 143.822 179.367C141.745 179.367 140.061 181.051 140.061 183.128C140.061 185.205 141.745 186.889 143.822 186.889Z" fill="#282828"/>
<path d="M86.7886 215.217C88.7648 215.217 90.3643 213.617 90.3643 211.641C90.3643 209.665 88.7648 208.065 86.7886 208.065C84.8124 208.065 83.2129 209.665 83.2129 211.641C83.2195 213.617 84.819 215.217 86.7886 215.217Z" fill="#282828"/>
<path d="M115.302 215.409C117.377 215.409 119.063 213.723 119.063 211.648C119.063 209.572 117.377 207.887 115.302 207.887C113.226 207.887 111.541 209.572 111.541 211.648C111.541 213.723 113.226 215.409 115.302 215.409Z" fill="#282828"/>
<path d="M143.822 215.157C145.758 215.157 147.331 213.584 147.331 211.648C147.331 209.711 145.758 208.138 143.822 208.138C141.885 208.138 140.312 209.711 140.312 211.648C140.305 213.584 141.878 215.157 143.822 215.157Z" fill="#282828"/>
<path d="M579.768 462.728H146.856C146.393 462.728 146.016 462.351 146.016 461.888C146.016 461.426 146.393 461.049 146.856 461.049H579.768C580.23 461.049 580.607 461.426 580.607 461.888C580.607 462.351 580.23 462.728 579.768 462.728Z" fill="black"/>
<path d="M146.631 317.987H124.225C122.519 317.987 121.217 317.366 120.57 316.236C119.922 315.106 120.041 313.671 120.9 312.204L132.05 293.103C133.769 290.161 137.067 290.155 138.785 293.103L149.949 312.204C150.808 313.678 150.927 315.112 150.279 316.236C149.638 317.366 148.343 317.987 146.631 317.987ZM135.421 292.501C134.734 292.501 134.053 293.017 133.511 293.949L122.361 313.05C121.825 313.969 121.706 314.821 122.037 315.396C122.367 315.971 123.167 316.302 124.231 316.302H146.637C147.701 316.302 148.501 315.971 148.832 315.396C149.162 314.821 149.043 313.969 148.508 313.05L137.344 293.949C136.789 293.017 136.115 292.501 135.421 292.501Z" fill="black"/>
<path d="M332.601 244.305H305.416C304.953 244.305 304.577 243.928 304.577 243.466C304.577 243.003 304.953 242.626 305.416 242.626H332.601C333.063 242.626 333.44 243.003 333.44 243.466C333.44 243.928 333.063 244.305 332.601 244.305Z" fill="black"/>
<path d="M379.032 182.923C378.569 182.923 378.193 182.546 378.193 182.084V103.511C378.193 91.1047 368.1 81.0121 355.694 81.0121H167.067C154.661 81.0121 144.568 91.1047 144.568 103.511V140.12C144.568 140.583 144.192 140.96 143.729 140.96C143.266 140.96 142.89 140.583 142.89 140.12V103.511C142.89 90.1728 153.736 79.3267 167.074 79.3267H355.701C369.032 79.3267 379.885 90.1728 379.885 103.511V182.084C379.878 182.546 379.501 182.923 379.032 182.923Z" fill="black"/>
<path d="M208.693 244.305H167.06C153.729 244.305 142.876 233.459 142.876 220.121C142.876 219.658 143.253 219.282 143.716 219.282C144.179 219.282 144.555 219.658 144.555 220.121C144.555 232.527 154.648 242.62 167.054 242.62H208.687C209.149 242.62 209.526 242.996 209.526 243.459C209.539 243.928 209.163 244.305 208.693 244.305Z" fill="black"/>
<path d="M572.517 400.995H478.306C477.844 400.995 477.467 400.618 477.467 400.156C477.467 399.693 477.844 399.316 478.306 399.316H572.517C583.198 399.316 591.89 390.625 591.89 379.944V309.395C591.89 308.932 592.266 308.555 592.729 308.555C593.198 308.555 593.568 308.932 593.568 309.395V379.937C593.568 391.55 584.123 400.995 572.517 400.995Z" fill="black"/>
<path d="M592.729 275.336C592.266 275.336 591.889 274.96 591.889 274.497V267.042C591.889 256.361 583.198 247.669 572.517 247.669H421.485C410.804 247.669 402.112 256.361 402.112 267.042V273.975C402.112 274.438 401.736 274.814 401.273 274.814C400.81 274.814 400.434 274.438 400.434 273.975V267.042C400.434 255.429 409.879 245.984 421.491 245.984H572.524C584.137 245.984 593.582 255.429 593.582 267.042V274.497C593.568 274.96 593.198 275.336 592.729 275.336Z" fill="#1E1E1E"/>
<path d="M401.273 350.208C401.735 350.208 402.112 350.585 402.112 351.048V382.297C402.112 392.978 410.804 401.669 421.484 401.669H572.517C583.198 401.669 591.889 392.978 591.889 382.297V375.364C591.889 374.901 592.266 374.524 592.729 374.524C593.191 374.524 593.568 374.901 593.568 375.364V382.297C593.568 393.91 584.123 403.355 572.51 403.355H421.484C409.872 403.355 400.427 393.91 400.427 382.297V351.048C400.427 350.585 400.803 350.208 401.273 350.208Z" fill="#1E1E1E"/>
<path d="M351.86 447.413H136.73C125.117 447.413 115.672 437.969 115.672 426.356V387.611C115.672 375.998 125.117 366.553 136.73 366.553H203.379C203.842 366.553 204.219 366.93 204.219 367.393C204.219 367.856 203.842 368.232 203.379 368.232H136.73C126.049 368.232 117.357 376.924 117.357 387.605V426.349C117.357 437.03 126.049 445.721 136.73 445.721H351.854C362.535 445.721 371.226 437.03 371.226 426.349V387.605C371.226 376.924 362.535 368.232 351.854 368.232H265.455C264.993 368.232 264.616 367.856 264.616 367.393C264.616 366.924 264.993 366.553 265.455 366.553H351.86C363.473 366.553 372.918 375.998 372.918 387.611V426.356C372.912 437.969 363.467 447.413 351.86 447.413Z" fill="black"/>
<path d="M147.609 329.739H123.253C114.7 329.739 107.747 322.786 107.747 314.233V296.176C107.747 287.63 114.7 280.67 123.253 280.67H147.609C156.155 280.67 163.114 287.624 163.114 296.176V314.233C163.114 322.779 156.155 329.739 147.609 329.739ZM123.253 282.356C115.632 282.356 109.432 288.555 109.432 296.176V314.233C109.432 321.854 115.632 328.054 123.253 328.054H147.609C155.229 328.054 161.429 321.854 161.429 314.233V296.176C161.429 288.555 155.229 282.356 147.609 282.356H123.253Z" fill="black"/>
<path d="M513.541 170.815H489.073C485.134 170.815 481.921 167.609 481.921 163.663V139.195C481.921 135.249 485.127 132.044 489.073 132.044H513.541C517.487 132.044 520.692 135.249 520.692 139.195V163.663C520.686 167.609 517.48 170.815 513.541 170.815ZM489.073 133.736C486.059 133.736 483.607 136.188 483.607 139.202V163.67C483.607 166.684 486.059 169.136 489.073 169.136H513.541C516.555 169.136 519.007 166.684 519.007 163.67V139.202C519.007 136.188 516.555 133.736 513.541 133.736H489.073Z" fill="black"/>
<path d="M497.553 132.804C497.202 132.804 496.879 132.586 496.76 132.242C492.232 119.234 484.532 110.239 473.878 105.513C458.987 98.8972 438.669 100.959 413.5 111.62C413.084 111.805 412.582 111.601 412.397 111.171C412.218 110.748 412.416 110.252 412.846 110.067C438.458 99.2144 459.218 97.1589 474.558 103.973C485.504 108.831 493.732 118.415 498.352 131.693C498.504 132.136 498.273 132.612 497.837 132.764C497.738 132.784 497.645 132.804 497.553 132.804Z" fill="black"/>
<path d="M404.611 123.722C399.429 123.722 395.212 119.505 395.212 114.324C395.212 109.142 399.429 104.925 404.611 104.925C409.792 104.925 414.009 109.142 414.009 114.324C414.009 119.505 409.799 123.722 404.611 123.722ZM404.611 106.61C400.354 106.61 396.891 110.074 396.891 114.324C396.891 118.58 400.354 122.037 404.611 122.037C408.86 122.037 412.324 118.574 412.324 114.324C412.33 110.067 408.867 106.61 404.611 106.61Z" fill="black"/>
<path d="M501.307 160.801C496.125 160.801 491.908 156.585 491.908 151.403C491.908 146.221 496.125 142.004 501.307 142.004C506.489 142.004 510.705 146.221 510.705 151.403C510.705 156.585 506.489 160.801 501.307 160.801ZM501.307 143.69C497.05 143.69 493.594 147.153 493.594 151.403C493.594 155.653 497.057 159.116 501.307 159.116C505.557 159.116 509.02 155.653 509.02 151.403C509.02 147.153 505.557 143.69 501.307 143.69Z" fill="black"/>
<path d="M548.135 202.831C540.653 202.831 533.944 201.522 528.042 198.898C517.09 194.034 508.861 184.43 504.248 171.132C504.096 170.689 504.327 170.213 504.763 170.061C505.206 169.916 505.682 170.141 505.834 170.577C510.355 183.611 518.055 192.619 528.723 197.358C543.62 203.974 563.938 201.925 589.113 191.258C589.53 191.073 590.039 191.278 590.217 191.707C590.395 192.13 590.197 192.626 589.768 192.811C574.011 199.486 560.085 202.831 548.135 202.831Z" fill="black"/>
<path d="M597.996 197.946C592.815 197.946 588.598 193.73 588.598 188.548C588.598 183.366 592.815 179.149 597.996 179.149C603.178 179.149 607.395 183.366 607.395 188.548C607.395 193.73 603.185 197.946 597.996 197.946ZM597.996 180.828C593.74 180.828 590.283 184.291 590.283 188.541C590.283 192.798 593.746 196.261 597.996 196.261C602.246 196.261 605.71 192.798 605.71 188.541C605.716 184.291 602.253 180.828 597.996 180.828Z" fill="black"/>
<path d="M319.62 397.162H195.924C195.455 397.162 195.084 396.785 195.084 396.322C195.084 395.86 195.461 395.483 195.924 395.483H319.62C320.082 395.483 320.459 395.86 320.459 396.322C320.459 396.785 320.082 397.162 319.62 397.162Z" fill="black"/>
<path d="M319.62 418.015H195.924C195.455 418.015 195.084 417.638 195.084 417.175C195.084 416.713 195.461 416.336 195.924 416.336H319.62C320.082 416.336 320.459 416.713 320.459 417.175C320.459 417.638 320.082 418.015 319.62 418.015Z" fill="black"/>
<path d="M152.903 421.399C144.952 421.399 138.488 414.935 138.488 406.984C138.488 399.032 144.952 392.568 152.903 392.568C160.854 392.568 167.318 399.032 167.318 406.984C167.318 414.935 160.854 421.399 152.903 421.399ZM152.903 394.254C145.884 394.254 140.173 399.964 140.173 406.984C140.173 414.003 145.884 419.713 152.903 419.713C159.922 419.713 165.633 414.003 165.633 406.984C165.633 399.964 159.922 394.254 152.903 394.254Z" fill="black"/>
<path d="M366.078 120.074H156.499C156.029 120.074 155.659 119.697 155.659 119.234C155.659 118.772 156.036 118.395 156.499 118.395H366.078C366.54 118.395 366.917 118.772 366.917 119.234C366.924 119.697 366.547 120.074 366.078 120.074Z" fill="black"/>
<path d="M352.753 109.201C347.717 109.201 343.619 105.104 343.619 100.067C343.619 95.0307 347.717 90.9329 352.753 90.9329C357.789 90.9329 361.887 95.0307 361.887 100.067C361.887 105.11 357.789 109.201 352.753 109.201ZM352.753 92.6183C348.642 92.6183 345.297 95.9626 345.297 100.067C345.297 104.172 348.642 107.516 352.753 107.516C356.857 107.516 360.202 104.172 360.202 100.067C360.208 95.9626 356.864 92.6183 352.753 92.6183Z" fill="black"/>
<path d="M330.604 105.936C333.843 102.697 333.843 97.4448 330.604 94.2055C327.364 90.9662 322.112 90.9662 318.873 94.2055C315.634 97.4448 315.634 102.697 318.873 105.936C322.112 109.175 327.364 109.175 330.604 105.936Z" fill="white"/>
<path d="M324.742 109.201C319.705 109.201 315.607 105.104 315.607 100.067C315.607 95.0307 319.705 90.9329 324.742 90.9329C329.778 90.9329 333.876 95.0307 333.876 100.067C333.876 105.11 329.778 109.201 324.742 109.201ZM324.742 92.6183C320.637 92.6183 317.293 95.9626 317.293 100.067C317.293 104.172 320.637 107.516 324.742 107.516C328.846 107.516 332.191 104.172 332.191 100.067C332.197 95.9626 328.853 92.6183 324.742 92.6183Z" fill="black"/>
<path d="M296.738 109.201C291.701 109.201 287.604 105.104 287.604 100.067C287.604 95.0307 291.701 90.9329 296.738 90.9329C301.774 90.9329 305.872 95.0307 305.872 100.067C305.872 105.11 301.774 109.201 296.738 109.201ZM296.738 92.6183C292.627 92.6183 289.282 95.9626 289.282 100.067C289.282 104.172 292.627 107.516 296.738 107.516C300.842 107.516 304.187 104.172 304.187 100.067C304.187 95.9626 300.842 92.6183 296.738 92.6183Z" fill="black"/>
<path d="M206.241 209.645C205.772 209.645 205.402 209.268 205.402 208.806V129.664C205.402 129.195 205.779 128.825 206.241 128.825C206.704 128.825 207.081 129.201 207.081 129.664V208.806C207.081 209.275 206.704 209.645 206.241 209.645Z" fill="black"/>
<path d="M352.753 349.917C400.127 349.917 438.53 311.514 438.53 264.14C438.53 216.766 400.127 178.363 352.753 178.363C305.379 178.363 266.976 216.766 266.976 264.14C266.976 311.514 305.379 349.917 352.753 349.917Z" fill="white"/>
<path fill-rule="evenodd" clip-rule="evenodd" d="M352.753 179.363C305.932 179.363 267.976 217.319 267.976 264.14C267.976 310.961 305.932 348.917 352.753 348.917C399.574 348.917 437.53 310.961 437.53 264.14C437.53 217.319 399.574 179.363 352.753 179.363ZM265.976 264.14C265.976 216.214 304.827 177.363 352.753 177.363C400.679 177.363 439.53 216.214 439.53 264.14C439.53 312.066 400.679 350.917 352.753 350.917C304.827 350.917 265.976 312.066 265.976 264.14Z" fill="black"/>
<path d="M338.714 276.374H393.209V297.412H326.421L338.714 276.374Z" fill="url(#paint0_linear)"/>
<path d="M388.312 276.374L354.577 217.94L336.355 228.456L364.022 276.374H388.312Z" fill="url(#paint1_linear)"/>
<path d="M393.209 297.406C399.017 297.406 403.725 292.698 403.725 286.89C403.725 281.082 399.017 276.374 393.209 276.374C387.402 276.374 382.694 281.082 382.694 286.89C382.694 292.698 387.402 297.406 393.209 297.406Z" fill="#1D1D1B"/>
<path d="M345.886 234.431C351.693 234.431 356.401 229.723 356.401 223.915C356.401 218.107 351.693 213.399 345.886 213.399C340.078 213.399 335.37 218.107 335.37 223.915C335.37 229.723 340.078 234.431 345.886 234.431Z" fill="#1D1D1B"/>
<path d="M305.317 292.151L339.223 233.426L351.372 254.457L323.533 302.673L305.317 292.151Z" fill="url(#paint2_linear)"/>
<path d="M314.425 307.928C320.232 307.928 324.94 303.22 324.94 297.412C324.94 291.604 320.232 286.896 314.425 286.896C308.617 286.896 303.909 291.604 303.909 297.412C303.909 303.22 308.617 307.928 314.425 307.928Z" fill="#1D1D1B"/>
<defs>
<linearGradient id="paint0_linear" x1="326.419" y1="286.893" x2="393.212" y2="286.893" gradientUnits="userSpaceOnUse">
<stop stop-color="white" stop-opacity="0"/>
<stop offset="0.88"/>
</linearGradient>
<linearGradient id="paint1_linear" x1="379.257" y1="281.722" x2="345.518" y2="223.288" gradientUnits="userSpaceOnUse">
<stop stop-color="white" stop-opacity="0"/>
<stop offset="0.88" stop-color="#252523"/>
</linearGradient>
<linearGradient id="paint2_linear" x1="314.382" y1="297.459" x2="348.29" y2="238.731" gradientUnits="userSpaceOnUse">
<stop offset="0.12"/>
<stop offset="1" stop-color="white" stop-opacity="0"/>
</linearGradient>
</defs>
</svg>
