<svg width="654" height="494" viewBox="0 0 654 494" fill="none" xmlns="http://www.w3.org/2000/svg">
<path d="M67.8284 156.951C69.7243 156.951 71.2558 155.413 71.2558 153.523C71.2558 151.627 69.7181 150.095 67.8284 150.095C65.9324 150.095 64.4009 151.633 64.4009 153.523C64.4009 155.413 65.9386 156.951 67.8284 156.951Z" fill="#282828"/>
<path d="M94.4674 157.123C96.456 157.123 98.074 155.511 98.074 153.516C98.074 151.528 96.4621 149.909 94.4674 149.909C92.4789 149.909 90.8608 151.521 90.8608 153.516C90.867 155.511 92.4789 157.123 94.4674 157.123Z" fill="#282828"/>
<path d="M121.113 156.857C122.96 156.857 124.454 155.363 124.454 153.516C124.454 151.67 122.96 150.175 121.113 150.175C119.266 150.175 117.772 151.67 117.772 153.516C117.772 155.363 119.266 156.857 121.113 156.857Z" fill="#282828"/>
<path d="M67.8275 183.763C69.8158 183.763 71.4337 182.151 71.4337 180.157C71.4337 178.168 69.822 176.55 67.8275 176.55C65.8391 176.55 64.2212 178.162 64.2212 180.157C64.2274 182.151 65.8391 183.763 67.8275 183.763Z" fill="#282828"/>
<path d="M94.4667 183.943C96.5538 183.943 98.2458 182.25 98.2458 180.163C98.2458 178.076 96.5538 176.384 94.4667 176.384C92.3795 176.384 90.6875 178.076 90.6875 180.163C90.6875 182.25 92.3795 183.943 94.4667 183.943Z" fill="#282828"/>
<path d="M121.113 183.677C123.053 183.677 124.627 182.104 124.627 180.163C124.627 178.223 123.053 176.649 121.113 176.649C119.172 176.649 117.599 178.223 117.599 180.163C117.599 182.104 119.172 183.677 121.113 183.677Z" fill="#282828"/>
<path d="M67.8278 210.146C69.6744 210.146 71.1689 208.651 71.1689 206.804C71.1689 204.958 69.6744 203.463 67.8278 203.463C65.9813 203.463 64.4868 204.958 64.4868 206.804C64.493 208.645 65.9875 210.146 67.8278 210.146Z" fill="#282828"/>
<path d="M94.4671 210.319C96.4062 210.319 97.981 208.744 97.981 206.804C97.981 204.865 96.4062 203.29 94.4671 203.29C92.5279 203.29 90.9531 204.865 90.9531 206.804C90.9531 208.744 92.5279 210.319 94.4671 210.319Z" fill="#282828"/>
<path d="M121.113 210.084C122.922 210.084 124.392 208.614 124.392 206.804C124.392 204.995 122.922 203.525 121.113 203.525C119.303 203.525 117.834 204.995 117.834 206.804C117.827 208.614 119.297 210.084 121.113 210.084Z" fill="#282828"/>
<path d="M209.133 119.069C208.849 119.125 199.759 121.904 192.54 120.755L191.682 83.4306L154.014 82.8501L153.377 83.3812C152 90.6868 154.619 99.7462 154.946 100.839C154.897 108.071 148.999 113.937 141.756 113.937C134.519 113.937 128.615 108.071 128.566 100.839C128.893 99.7462 131.505 90.6868 130.128 83.3812L129.492 82.8501L91.7005 83.1033L91.6572 183.64L165.4 184.054H170.094L192.139 183.572L192.546 146.365C199.771 145.216 208.849 147.983 208.947 148.014C217.129 148.044 223.626 141.542 223.626 133.551C223.626 125.56 217.123 119.069 209.133 119.069Z" fill="#4A7EFF"/>
<path d="M411.874 109.812L374.125 109.164V109.812L373.489 109.689C372.112 116.994 374.724 126.054 375.052 127.147C375.002 134.378 369.105 140.239 361.862 140.239C354.625 140.239 348.721 134.372 348.672 127.147C348.999 126.054 351.617 116.994 350.24 109.689L349.604 109.812V109.164L311.726 109.608L311.078 147.612H311.707L311.609 148.143C318.914 149.52 327.973 146.908 329.066 146.581C336.297 146.63 342.157 152.528 342.157 159.772C342.157 167.016 336.291 172.913 329.066 172.963C327.973 172.629 318.92 170.011 311.609 171.394L311.078 172.141L311.535 209.725L351.451 210.374H352.525H412.275V172.16H411.602L411.744 171.394C404.439 170.017 395.38 172.635 394.287 172.963C387.056 172.913 381.196 167.016 381.196 159.772C381.196 152.534 387.062 146.63 394.287 146.581C395.38 146.908 404.439 149.527 411.744 148.143L411.553 147.137H412.269L411.874 109.812Z" fill="#282828"/>
<path d="M136.655 120.026C128.665 120.026 122.168 113.53 122.168 105.539C122.224 105.248 125.133 95.7197 123.755 88.4203C123.688 88.0683 123.922 87.7286 124.274 87.6607C124.626 87.5989 124.966 87.8274 125.034 88.1794C126.411 95.485 123.799 104.544 123.465 105.637C123.521 112.869 129.412 118.736 136.655 118.736C143.893 118.736 149.79 112.869 149.845 105.644C149.512 104.551 146.9 95.4912 148.277 88.1856C148.345 87.8336 148.666 87.6051 149.036 87.6669C149.388 87.7348 149.617 88.0745 149.555 88.4265C148.178 95.732 151.087 105.261 151.117 105.353C151.142 113.524 144.64 120.026 136.655 120.026Z" fill="black"/>
<path d="M186.785 188.852H160.293C159.935 188.852 159.645 188.562 159.645 188.204C159.645 187.845 159.935 187.555 160.293 187.555H186.13V150.62C186.13 150.305 186.352 150.039 186.655 149.984C193.972 148.613 203.019 151.219 204.112 151.552C211.343 151.497 217.209 145.605 217.209 138.361C217.209 131.118 211.343 125.226 204.112 125.171C203.013 125.504 193.96 128.123 186.655 126.745C186.346 126.69 186.13 126.418 186.13 126.109V88.9577H148.9C148.542 88.9577 148.252 88.6675 148.252 88.3093C148.252 87.9511 148.542 87.6609 148.9 87.6609H186.778C187.137 87.6609 187.427 87.9511 187.427 88.3093V125.56C194.664 126.715 203.735 123.936 203.822 123.905C212.004 123.874 218.506 130.377 218.506 138.368C218.506 146.359 212.01 152.855 204.019 152.855C203.729 152.794 194.639 150.027 187.427 151.176V188.216C187.439 188.562 187.149 188.852 186.785 188.852Z" fill="black"/>
<path d="M144.936 188.852H86.8901C86.5319 188.852 86.2417 188.562 86.2417 188.203V150.539C86.2417 150.181 86.5319 149.891 86.8901 149.891C87.2482 149.891 87.5385 150.181 87.5385 150.539V187.555H144.936C145.294 187.555 145.585 187.845 145.585 188.203C145.585 188.562 145.294 188.852 144.936 188.852Z" fill="black"/>
<path d="M86.8901 117.346C86.5319 117.346 86.2417 117.056 86.2417 116.698V88.2969C86.2417 87.9387 86.5319 87.6484 86.8901 87.6484H124.398C124.756 87.6484 125.046 87.9387 125.046 88.2969C125.046 88.655 124.756 88.9453 124.398 88.9453H87.5446V116.698C87.5385 117.062 87.2482 117.346 86.8901 117.346Z" fill="black"/>
<path d="M353.97 136.262C345.985 136.262 339.483 129.765 339.483 121.774C339.538 121.484 342.447 111.955 341.076 104.649C341.008 104.297 341.243 103.958 341.595 103.89C341.941 103.84 342.286 104.057 342.348 104.409C343.725 111.714 341.107 120.774 340.78 121.867C340.835 129.098 346.726 134.965 353.964 134.965C361.201 134.965 367.104 129.098 367.154 121.873C366.826 120.78 364.214 111.72 365.591 104.415C365.659 104.063 365.987 103.847 366.345 103.896C366.697 103.964 366.931 104.304 366.863 104.656C365.492 111.961 368.395 121.49 368.426 121.589C368.457 129.759 361.954 136.262 353.97 136.262Z" fill="black"/>
<path d="M321.075 168.973C320.785 168.911 311.244 165.996 303.957 167.38C303.587 167.435 303.266 167.213 303.198 166.861C303.13 166.509 303.364 166.169 303.716 166.101C311.028 164.73 320.081 167.343 321.174 167.67C328.405 167.614 334.265 161.723 334.265 154.479C334.265 147.242 328.398 141.344 321.174 141.288C320.081 141.616 311.015 144.228 303.716 142.851C303.364 142.783 303.136 142.443 303.198 142.091C303.266 141.739 303.593 141.517 303.957 141.572C311.269 142.95 320.791 140.047 320.883 140.016C329.059 139.985 335.562 146.488 335.562 154.473C335.562 162.47 329.065 168.973 321.075 168.973Z" fill="black"/>
<path d="M386.5 168.973C378.516 168.973 372.013 162.476 372.013 154.485C372.013 146.5 378.516 139.998 386.5 139.998C386.784 140.053 396.325 142.968 403.624 141.585C403.976 141.529 404.315 141.751 404.377 142.103C404.445 142.455 404.21 142.795 403.858 142.863C396.565 144.24 387.494 141.628 386.407 141.301C379.176 141.356 373.31 147.248 373.31 154.491C373.31 161.735 379.176 167.627 386.407 167.682C387.507 167.349 396.565 164.73 403.858 166.114C404.21 166.182 404.445 166.521 404.377 166.873C404.309 167.225 403.969 167.435 403.624 167.392C396.312 166.009 386.796 168.923 386.698 168.954C386.63 168.96 386.562 168.973 386.5 168.973Z" fill="black"/>
<path d="M303.834 142.974C303.476 142.974 303.186 142.684 303.186 142.326V104.526C303.186 104.168 303.476 103.877 303.834 103.877H341.712C342.07 103.877 342.36 104.168 342.36 104.526C342.36 104.884 342.07 105.174 341.712 105.174H304.482V142.326C304.482 142.69 304.198 142.974 303.834 142.974Z" fill="black"/>
<path d="M328.917 205.087H303.84C303.482 205.087 303.192 204.797 303.192 204.439V166.855C303.192 166.497 303.482 166.206 303.84 166.206C304.198 166.206 304.489 166.497 304.489 166.855V203.79H328.917C329.276 203.79 329.566 204.08 329.566 204.439C329.566 204.797 329.276 205.087 328.917 205.087Z" fill="black"/>
<path d="M387.062 205.087H343.559C343.2 205.087 342.91 204.797 342.91 204.439C342.91 204.081 343.2 203.79 343.559 203.79H387.062C387.42 203.79 387.711 204.081 387.711 204.439C387.711 204.797 387.42 205.087 387.062 205.087Z" fill="black"/>
<path d="M403.735 196.577C403.377 196.577 403.086 196.287 403.086 195.929V166.867C403.086 166.509 403.377 166.219 403.735 166.219C404.093 166.219 404.383 166.509 404.383 166.867V195.929C404.383 196.287 404.093 196.577 403.735 196.577Z" fill="black"/>
<path d="M403.735 142.499C403.377 142.499 403.087 142.208 403.087 141.85V105.18H366.227C365.869 105.18 365.579 104.89 365.579 104.532C365.579 104.174 365.869 103.884 366.227 103.884H403.735C404.093 103.884 404.383 104.174 404.383 104.532V141.856C404.383 142.208 404.093 142.499 403.735 142.499Z" fill="black"/>
<path d="M330.221 98.1405L329.652 96.9733L329.918 97.5662L329.276 97.665C329.276 97.6526 329.06 96.4422 328.436 94.3488C328.337 94.0029 328.529 93.6448 328.874 93.5398C329.226 93.4348 329.578 93.6324 329.683 93.9782C330.826 97.8255 330.678 97.8996 330.221 98.1405ZM169.952 77.6688C169.878 77.6627 169.803 77.638 169.736 77.6071C169.414 77.4465 169.285 77.0575 169.445 76.7363C169.501 76.6314 170.773 74.1118 173.644 70.3756C173.861 70.0915 174.268 70.036 174.552 70.2583C174.836 70.4744 174.892 70.8882 174.669 71.1661C171.884 74.7911 170.612 77.2921 170.6 77.3168C170.477 77.5638 170.211 77.6935 169.952 77.6688ZM326.398 87.7781C326.176 87.7534 325.972 87.6113 325.873 87.3952C324.904 85.1658 323.786 82.9365 322.551 80.7751C322.372 80.4601 322.477 80.0649 322.792 79.892C323.101 79.7129 323.496 79.8241 323.675 80.1328C324.928 82.3375 326.071 84.6039 327.059 86.8826C327.201 87.2099 327.053 87.5928 326.725 87.7348C326.62 87.7781 326.509 87.7966 326.398 87.7781ZM178.974 65.7502C178.838 65.7317 178.702 65.6761 178.597 65.5711C178.337 65.3241 178.331 64.9103 178.578 64.651C180.301 62.8601 182.154 61.1248 184.087 59.5006C184.364 59.2721 184.772 59.303 185 59.5747C185.229 59.8464 185.198 60.2602 184.926 60.4887C183.031 62.0881 181.209 63.7926 179.517 65.5464C179.369 65.707 179.165 65.7749 178.974 65.7502ZM319.007 74.8096C318.834 74.7911 318.661 74.6984 318.556 74.544C317.117 72.5494 315.561 70.6041 313.931 68.7638C313.69 68.4983 313.714 68.0845 313.986 67.8498C314.252 67.609 314.672 67.6337 314.9 67.9054C316.567 69.7766 318.148 71.7589 319.612 73.7906C319.822 74.0809 319.754 74.4885 319.464 74.6984C319.322 74.7849 319.161 74.8219 319.007 74.8096ZM190.373 56.1165C190.194 56.0979 190.021 55.9991 189.91 55.8386C189.706 55.5421 189.78 55.1407 190.076 54.9369C192.114 53.5351 194.275 52.2012 196.48 50.9723C196.795 50.7994 197.19 50.9167 197.363 51.2255C197.536 51.5404 197.425 51.9357 197.11 52.1086C194.936 53.3128 192.818 54.622 190.805 56.0053C190.682 56.0979 190.527 56.1288 190.373 56.1165ZM309.089 63.6629C308.96 63.6505 308.83 63.5949 308.725 63.4961C306.928 61.8473 305.001 60.2602 303.019 58.7843C302.729 58.5743 302.673 58.1667 302.883 57.8765C303.093 57.5862 303.507 57.5245 303.791 57.7406C305.817 59.2474 307.768 60.8592 309.602 62.5328C309.867 62.7736 309.886 63.1874 309.645 63.4529C309.497 63.6135 309.287 63.6814 309.089 63.6629ZM203.421 48.8788C203.199 48.8541 202.995 48.7121 202.896 48.4959C202.754 48.1686 202.902 47.7858 203.229 47.6376C205.508 46.6371 207.873 45.7293 210.25 44.9327C210.59 44.8154 210.961 45.0006 211.072 45.3403C211.183 45.6799 211.004 46.0505 210.664 46.1616C208.324 46.9459 205.996 47.8413 203.754 48.8294C203.649 48.8788 203.532 48.8912 203.421 48.8788ZM297.128 54.7579C297.042 54.7455 296.949 54.7208 296.863 54.6652C294.788 53.4116 292.596 52.2259 290.348 51.1452C290.027 50.9908 289.891 50.6018 290.045 50.2807C290.2 49.9595 290.589 49.8175 290.91 49.9781C293.195 51.0773 295.418 52.2815 297.53 53.5598C297.838 53.7451 297.937 54.1403 297.752 54.4491C297.622 54.6714 297.375 54.7826 297.128 54.7579ZM217.562 44.1114C217.296 44.0805 217.068 43.8952 217.006 43.6235C216.92 43.2777 217.136 42.9257 217.482 42.8392C219.884 42.2526 222.366 41.7462 224.842 41.3386C225.207 41.2892 225.534 41.5238 225.589 41.8758C225.651 42.2278 225.41 42.5613 225.052 42.6231C222.601 43.0245 220.162 43.5247 217.784 44.1052C217.71 44.1175 217.63 44.1237 217.562 44.1114ZM283.71 48.2551C281.295 47.3535 278.93 46.563 276.528 45.859C276.182 45.754 275.985 45.3959 276.09 45.05C276.188 44.7104 276.546 44.5128 276.898 44.6116C279.338 45.3279 281.734 46.1369 284.018 47.0077C284.352 47.1373 284.519 47.5079 284.395 47.8475C284.278 48.1254 283.994 48.286 283.71 48.2551ZM232.277 41.6844C231.975 41.6535 231.734 41.4127 231.703 41.0977C231.672 40.7396 231.931 40.4246 232.289 40.3937C234.729 40.1714 237.248 40.0294 239.786 39.9676C240.15 39.9615 240.441 40.2455 240.453 40.5975C240.465 40.9557 240.181 41.2521 239.823 41.2645C237.316 41.3262 234.821 41.4683 232.413 41.6844C232.364 41.6906 232.32 41.6906 232.277 41.6844ZM269.402 44.0373C266.975 43.5123 264.517 43.0615 262.035 42.691C261.683 42.6416 261.436 42.3081 261.492 41.95C261.541 41.6041 261.862 41.3633 262.208 41.4003C264.74 41.777 267.222 42.234 269.612 42.7528C269.964 42.8269 270.186 43.1727 270.112 43.5247C270.038 43.8582 269.729 44.0743 269.402 44.0373ZM247.196 41.3139C246.863 41.2768 246.61 40.9866 246.622 40.6469C246.634 40.2888 246.937 40.0109 247.295 40.0232C249.74 40.1158 252.254 40.2764 254.779 40.5111C255.144 40.5543 255.397 40.8631 255.366 41.2151C255.335 41.5732 255.014 41.8326 254.662 41.8017C252.161 41.5732 249.666 41.4065 247.252 41.3201C247.227 41.3139 247.215 41.3139 247.196 41.3139Z" fill="black"/>
<path d="M139.021 304.216H116.265C108.732 304.216 102.569 298.053 102.569 290.519V273.647C102.569 266.113 108.732 259.944 116.265 259.944H139.021C146.554 259.944 152.723 266.107 152.723 273.647V290.519C152.717 298.053 146.554 304.216 139.021 304.216Z" fill="#282828"/>
<path d="M136.476 267.929C135.118 265.607 132.901 265.607 131.542 267.929L121.125 285.776C119.766 288.098 120.859 290 123.546 290H144.479C147.165 290 148.258 288.098 146.9 285.776L136.476 267.929Z" fill="#4A7EFF"/>
<path d="M355.68 207.971L359.003 207.773C359.003 207.773 359.7 205.736 359.707 202.71C359.719 199.684 360.491 189.432 356.724 182.72C353.55 177.069 346.479 172.635 336.76 171.412C343.305 174.247 350.277 178.687 348.844 184.406C346.757 192.755 317.432 187.191 317.432 187.191L318.179 188.247C318.284 187.95 318.346 187.784 318.346 187.784C318.346 187.784 321.081 188.191 332.919 191.94C344.757 195.688 355.421 206.131 355.421 206.131L355.68 207.971Z" fill="white"/>
<path d="M541.668 432.344H137.205C136.772 432.344 136.42 431.992 136.42 431.56C136.42 431.128 136.772 430.776 137.205 430.776H541.668C542.101 430.776 542.453 431.128 542.453 431.56C542.453 431.992 542.101 432.344 541.668 432.344Z" fill="black"/>
<path d="M144.479 290.784H123.545C121.952 290.784 120.736 290.204 120.13 289.148C119.525 288.091 119.636 286.751 120.439 285.38L130.857 267.533C132.462 264.785 135.544 264.779 137.149 267.533L147.579 285.38C148.382 286.758 148.493 288.098 147.888 289.148C147.289 290.204 146.072 290.784 144.479 290.784ZM134.006 266.971C133.364 266.971 132.728 267.453 132.221 268.324L121.804 286.171C121.304 287.029 121.193 287.826 121.501 288.363C121.81 288.9 122.557 289.209 123.551 289.209H144.485C145.479 289.209 146.226 288.9 146.535 288.363C146.844 287.826 146.733 287.029 146.233 286.171L135.803 268.324C135.284 267.453 134.648 266.971 134.006 266.971Z" fill="black"/>
<path d="M310.744 228.264H285.346C284.913 228.264 284.562 227.912 284.562 227.479C284.562 227.047 284.913 226.695 285.346 226.695H310.744C311.176 226.695 311.528 227.047 311.528 227.479C311.528 227.912 311.176 228.264 310.744 228.264Z" fill="black"/>
<path d="M145.393 301.764H122.638C114.647 301.764 108.151 295.268 108.151 287.276V270.405C108.151 262.42 114.647 255.917 122.638 255.917H145.393C153.377 255.917 159.88 262.414 159.88 270.405V287.276C159.88 295.261 153.377 301.764 145.393 301.764ZM122.632 257.492C115.512 257.492 109.719 263.285 109.719 270.405V287.276C109.719 294.397 115.512 300.189 122.632 300.189H145.387C152.507 300.189 158.299 294.397 158.299 287.276V270.405C158.299 263.285 152.507 257.492 145.387 257.492H122.632Z" fill="black"/>
<path d="M329.572 326.941C373.832 326.941 409.712 291.059 409.712 246.796C409.712 202.533 373.832 166.651 329.572 166.651C285.311 166.651 249.431 202.533 249.431 246.796C249.431 291.059 285.311 326.941 329.572 326.941Z" fill="white"/>
<path fill-rule="evenodd" clip-rule="evenodd" d="M329.572 167.651C285.864 167.651 250.431 203.086 250.431 246.796C250.431 290.507 285.864 325.941 329.572 325.941C373.28 325.941 408.712 290.507 408.712 246.796C408.712 203.086 373.28 167.651 329.572 167.651ZM248.431 246.796C248.431 201.981 284.759 165.651 329.572 165.651C374.385 165.651 410.712 201.981 410.712 246.796C410.712 291.611 374.385 327.941 329.572 327.941C284.759 327.941 248.431 291.611 248.431 246.796Z" fill="black"/>
<path d="M315.839 258.165H366.697V277.797H304.365L315.839 258.165Z" fill="url(#paint0_linear)"/>
<path d="M362.127 258.165L330.64 203.624L313.64 213.443L339.458 258.165H362.127Z" fill="url(#paint1_linear)"/>
<path d="M366.696 277.797C372.119 277.797 376.515 273.401 376.515 267.978C376.515 262.555 372.119 258.159 366.696 258.159C361.274 258.159 356.878 262.555 356.878 267.978C356.878 273.401 361.274 277.797 366.696 277.797Z" fill="#4A7EFF"/>
<path d="M322.526 219.019C327.949 219.019 332.344 214.623 332.344 209.2C332.344 203.777 327.949 199.381 322.526 199.381C317.103 199.381 312.708 203.777 312.708 209.2C312.708 214.623 317.103 219.019 322.526 219.019Z" fill="#4A7EFF"/>
<path d="M284.672 272.888L316.314 218.074L327.651 237.706L301.672 282.707L284.672 272.888Z" fill="url(#paint2_linear)"/>
<path d="M293.17 287.616C298.592 287.616 302.988 283.22 302.988 277.797C302.988 272.374 298.592 267.978 293.17 267.978C287.747 267.978 283.351 272.374 283.351 277.797C283.351 283.22 287.747 287.616 293.17 287.616Z" fill="#4A7EFF"/>
<path d="M253.062 405.049H154.538C146.196 405.049 139.366 398.225 139.366 389.876V330.573C139.366 322.23 146.19 315.406 154.532 315.406H253.056C261.399 315.406 268.228 322.23 268.228 330.579V389.882C268.228 398.219 261.405 405.049 253.062 405.049Z" fill="white"/>
<path d="M216.592 351.452C216.592 358.516 210.868 364.241 203.803 364.241C196.739 364.241 191.015 358.516 191.015 351.452C191.015 344.387 196.739 338.662 203.803 338.662C210.861 338.662 216.592 344.393 216.592 351.452Z" fill="#4A7EFF"/>
<path d="M161.628 342.454C164.492 342.454 166.815 340.132 166.815 337.267C166.815 334.402 164.492 332.079 161.628 332.079C158.763 332.079 156.44 334.402 156.44 337.267C156.44 340.132 158.763 342.454 161.628 342.454Z" fill="#282828"/>
<path d="M262.384 362.331C262.842 359.503 260.92 356.839 258.092 356.382C255.264 355.924 252.6 357.846 252.143 360.674C251.685 363.503 253.607 366.166 256.435 366.624C259.263 367.081 261.927 365.16 262.384 362.331Z" fill="#282828"/>
<path d="M253.569 405.938H234.988C234.654 405.938 234.377 405.666 234.377 405.326C234.377 404.987 234.648 404.715 234.988 404.715H253.569C261.319 404.715 267.617 398.41 267.617 390.666V330.066C267.617 322.316 261.312 316.011 253.569 316.011H216.592C216.259 316.011 215.981 315.739 215.981 315.399C215.981 315.066 216.253 314.788 216.592 314.788H253.569C261.992 314.788 268.84 321.643 268.84 330.066V390.666C268.84 399.083 261.992 405.938 253.569 405.938Z" fill="black"/>
<path d="M190.41 405.938H154.032C145.609 405.938 138.755 399.083 138.755 390.666V330.066C138.755 321.643 145.609 314.788 154.032 314.788H178.461C178.8 314.788 179.072 315.06 179.072 315.399C179.072 315.739 178.8 316.011 178.461 316.011H154.032C146.282 316.011 139.978 322.316 139.978 330.066V390.666C139.978 398.416 146.282 404.715 154.032 404.715H190.41C190.749 404.715 191.021 404.987 191.021 405.326C191.021 405.666 190.749 405.938 190.41 405.938Z" fill="black"/>
<path d="M161.628 341.577C159.25 341.577 157.317 339.644 157.317 337.267C157.317 334.889 159.25 332.956 161.628 332.956C164.005 332.956 165.938 334.889 165.938 337.267C165.938 339.644 164.005 341.577 161.628 341.577ZM161.628 334.179C159.923 334.179 158.54 335.562 158.54 337.267C158.54 338.971 159.923 340.355 161.628 340.355C163.332 340.355 164.715 338.971 164.715 337.267C164.715 335.569 163.332 334.179 161.628 334.179Z" fill="white"/>
<path d="M257.255 365.52C255.051 365.52 253.254 363.722 253.254 361.518C253.254 359.313 255.051 357.516 257.255 357.516C259.46 357.516 261.257 359.313 261.257 361.518C261.263 363.729 259.466 365.52 257.255 365.52ZM257.255 358.739C255.724 358.739 254.477 359.986 254.477 361.518C254.477 363.049 255.724 364.297 257.255 364.297C258.787 364.297 260.034 363.049 260.034 361.518C260.04 359.986 258.793 358.739 257.255 358.739Z" fill="white"/>
<path d="M175.954 380.254C173.799 380.254 171.835 379.451 170.106 377.87C169.853 377.642 169.84 377.259 170.069 377.006C170.297 376.759 170.686 376.747 170.933 376.969C172.428 378.34 174.12 379.038 175.954 379.038L176.25 379.031C176.596 379.031 176.868 379.297 176.874 379.63C176.88 379.964 176.608 380.248 176.275 380.254H175.954ZM182.246 378.408C182.049 378.408 181.851 378.309 181.734 378.13C181.548 377.846 181.629 377.469 181.913 377.284C183.426 376.296 184.834 374.882 186.211 372.961C186.408 372.683 186.791 372.627 187.063 372.819C187.341 373.017 187.402 373.399 187.205 373.671C185.741 375.721 184.222 377.234 182.58 378.309C182.481 378.377 182.363 378.408 182.246 378.408ZM166.913 372.831C166.685 372.831 166.469 372.702 166.364 372.485C165.542 370.762 164.795 368.712 164.141 366.409C164.048 366.088 164.24 365.748 164.567 365.655C164.888 365.563 165.228 365.748 165.32 366.081C165.95 368.317 166.673 370.299 167.469 371.961C167.617 372.263 167.488 372.627 167.179 372.776C167.092 372.813 167 372.831 166.913 372.831ZM189.959 368.459C189.866 368.459 189.767 368.434 189.681 368.391C189.378 368.237 189.261 367.866 189.415 367.57C189.94 366.557 190.447 365.52 190.953 364.501C191.392 363.617 191.824 362.734 192.262 361.876C192.417 361.573 192.787 361.45 193.083 361.61C193.386 361.765 193.503 362.135 193.349 362.432C192.911 363.29 192.478 364.161 192.046 365.038C191.534 366.069 191.027 367.107 190.496 368.126C190.391 368.342 190.175 368.459 189.959 368.459ZM163.326 360.641C163.035 360.641 162.776 360.437 162.727 360.141C162.368 358.165 162.06 356.028 161.807 353.792C161.769 353.459 162.01 353.156 162.344 353.119C162.671 353.101 162.98 353.323 163.017 353.656C163.27 355.867 163.573 357.973 163.925 359.925C163.986 360.258 163.764 360.573 163.431 360.635C163.4 360.635 163.363 360.641 163.326 360.641ZM161.856 347.969C161.535 347.969 161.263 347.722 161.245 347.395C161.022 343.763 161.016 341.238 161.016 340.966C161.016 340.626 161.288 340.354 161.627 340.354C161.961 340.354 162.239 340.626 162.239 340.966C162.239 341.238 162.245 343.726 162.467 347.32C162.486 347.66 162.233 347.95 161.893 347.969C161.881 347.969 161.868 347.969 161.856 347.969Z" fill="black"/>
<path d="M240.453 398.577C238.73 398.577 237.025 398.033 235.395 396.959C235.111 396.773 235.037 396.397 235.216 396.113C235.401 395.829 235.784 395.755 236.062 395.934C237.915 397.15 239.847 397.521 241.663 397.268C241.978 397.224 242.305 397.453 242.355 397.786C242.398 398.12 242.169 398.429 241.836 398.478C241.385 398.54 240.928 398.577 240.453 398.577ZM247.276 395.619C247.116 395.619 246.961 395.557 246.838 395.433C246.603 395.193 246.609 394.804 246.85 394.569C248.134 393.321 249.332 391.642 250.413 389.567C250.574 389.264 250.944 389.153 251.241 389.307C251.537 389.462 251.654 389.832 251.5 390.129C250.357 392.315 249.079 394.106 247.702 395.446C247.579 395.563 247.424 395.619 247.276 395.619ZM231.233 392.605C231.048 392.605 230.863 392.519 230.745 392.364C229.609 390.857 228.479 389.079 227.287 386.924C227.121 386.627 227.226 386.257 227.522 386.096C227.812 385.929 228.189 386.041 228.349 386.331C229.516 388.437 230.622 390.166 231.715 391.629C231.919 391.901 231.863 392.284 231.597 392.482C231.493 392.562 231.363 392.605 231.233 392.605ZM253.383 384.577C253.322 384.577 253.254 384.571 253.192 384.546C252.871 384.441 252.698 384.095 252.803 383.774C253.414 381.915 253.976 379.871 254.464 377.679C254.538 377.352 254.859 377.136 255.193 377.216C255.52 377.29 255.73 377.617 255.656 377.945C255.156 380.168 254.587 382.261 253.964 384.151C253.883 384.416 253.643 384.577 253.383 384.577ZM224.941 381.551C224.712 381.551 224.49 381.421 224.391 381.199C223.496 379.303 222.619 377.346 221.754 375.382C221.618 375.073 221.761 374.715 222.069 374.579C222.378 374.443 222.736 374.585 222.872 374.894C223.73 376.845 224.607 378.791 225.496 380.68C225.645 380.983 225.509 381.347 225.206 381.495C225.114 381.532 225.027 381.551 224.941 381.551ZM256.224 372.158C255.798 372.103 255.569 371.788 255.619 371.454C256.168 367.78 256.335 365.174 256.335 365.149C256.354 364.815 256.687 364.568 256.983 364.581C257.317 364.599 257.576 364.89 257.558 365.229C257.558 365.254 257.385 367.903 256.829 371.639C256.78 371.942 256.52 372.158 256.224 372.158ZM219.741 369.923C219.507 369.923 219.284 369.787 219.186 369.558C218.111 367.15 217.29 365.377 216.512 363.803C216.363 363.5 216.487 363.136 216.79 362.981C217.086 362.833 217.456 362.957 217.611 363.259C218.395 364.846 219.223 366.637 220.303 369.058C220.439 369.367 220.303 369.725 219.994 369.861C219.908 369.904 219.822 369.923 219.741 369.923ZM213.992 358.566C213.788 358.566 213.591 358.467 213.474 358.282C213.165 357.788 212.85 357.319 212.529 356.874C212.331 356.596 212.399 356.219 212.671 356.022C212.949 355.83 213.325 355.892 213.523 356.164C213.85 356.627 214.177 357.115 214.505 357.627C214.684 357.911 214.597 358.288 214.313 358.473C214.221 358.535 214.103 358.566 213.992 358.566Z" fill="black"/>
<path d="M203.803 362.549C197.684 362.549 192.707 357.572 192.707 351.452C192.707 345.332 197.684 340.354 203.803 340.354C209.923 340.354 214.9 345.332 214.9 351.452C214.894 357.572 209.917 362.549 203.803 362.549ZM203.803 341.577C198.357 341.577 193.929 346.005 193.929 351.452C193.929 356.899 198.363 361.326 203.803 361.326C209.25 361.326 213.677 356.892 213.677 351.452C213.677 346.011 209.244 341.577 203.803 341.577Z" fill="black"/>
<path d="M254.464 324.99H228.912C228.578 324.99 228.3 324.718 228.3 324.379C228.3 324.045 228.572 323.767 228.912 323.767H254.464C254.804 323.767 255.076 324.039 255.076 324.379C255.076 324.718 254.804 324.99 254.464 324.99Z" fill="black"/>
<path d="M254.464 331.561H242.54C242.2 331.561 241.929 331.289 241.929 330.949C241.929 330.61 242.2 330.338 242.54 330.338H254.464C254.804 330.338 255.076 330.61 255.076 330.949C255.076 331.289 254.804 331.561 254.464 331.561Z" fill="black"/>
<path d="M238.569 331.561H231.74C231.406 331.561 231.128 331.289 231.128 330.949C231.128 330.61 231.4 330.338 231.74 330.338H238.569C238.909 330.338 239.181 330.61 239.181 330.949C239.181 331.289 238.903 331.561 238.569 331.561Z" fill="black"/>
<path d="M550.468 222.304H513.442C508.755 222.304 504.958 218.506 504.958 213.819V186.048C504.958 181.361 508.755 177.563 513.442 177.563H550.468C555.155 177.563 558.953 181.361 558.953 186.048V213.819C558.953 218.506 555.155 222.304 550.468 222.304Z" fill="white"/>
<path d="M543.453 184.819C541.934 182.219 539.452 182.219 537.932 184.819L526.274 204.791C524.755 207.391 525.977 209.515 528.985 209.515H552.413C555.42 209.515 556.643 207.391 555.124 204.791L543.453 184.819Z" fill="#4A7EFF"/>
<path d="M543.836 213.412H520.407C518.709 213.412 517.425 212.806 516.789 211.701C516.159 210.596 516.283 209.181 517.135 207.712L528.793 187.746C529.645 186.283 530.825 185.474 532.109 185.474C533.4 185.474 534.579 186.283 535.432 187.74C535.438 187.74 547.109 207.712 547.109 207.712C547.961 209.175 548.084 210.589 547.454 211.695C546.818 212.806 545.54 213.412 543.836 213.412ZM532.116 186.771C531.307 186.771 530.529 187.345 529.917 188.395L518.259 208.366C517.641 209.416 517.524 210.373 517.919 211.053C518.308 211.738 519.197 212.115 520.407 212.115H543.836C545.052 212.115 545.935 211.738 546.331 211.053C546.72 210.367 546.602 209.416 545.991 208.366L534.314 188.395C533.703 187.345 532.924 186.771 532.116 186.771Z" fill="black"/>
<path d="M503.173 285.344C503.043 285.344 502.907 285.3 502.79 285.22C502.5 285.01 502.438 284.603 502.648 284.312L502.814 284.078C503.018 283.781 503.413 283.713 503.716 283.911C504.012 284.115 504.087 284.516 503.883 284.813L503.698 285.078C503.568 285.251 503.376 285.344 503.173 285.344ZM507.39 278.791C507.273 278.791 507.162 278.761 507.051 278.699C506.748 278.514 506.649 278.112 506.834 277.81C508.094 275.716 509.342 273.542 510.54 271.344C510.712 271.023 511.114 270.918 511.423 271.084C511.738 271.257 511.855 271.653 511.682 271.968C510.472 274.185 509.218 276.377 507.946 278.483C507.822 278.68 507.606 278.791 507.39 278.791ZM514.553 265.656C514.461 265.656 514.362 265.638 514.263 265.588C513.942 265.428 513.812 265.045 513.967 264.718C515.084 262.445 516.14 260.172 517.11 257.962C517.252 257.634 517.629 257.48 517.968 257.628C518.295 257.77 518.444 258.153 518.302 258.486C517.32 260.703 516.258 262.995 515.134 265.286C515.029 265.527 514.794 265.656 514.553 265.656ZM520.58 251.971C520.5 251.971 520.426 251.959 520.346 251.928C520.012 251.798 519.845 251.422 519.975 251.088C520.883 248.742 521.729 246.383 522.495 244.079C522.606 243.739 522.964 243.554 523.316 243.672C523.655 243.783 523.841 244.153 523.723 244.493C522.958 246.809 522.099 249.186 521.179 251.558C521.087 251.817 520.84 251.971 520.58 251.971ZM525.28 237.786C524.761 237.669 524.557 237.311 524.656 236.965C525.31 234.563 525.903 232.13 526.403 229.74C526.478 229.388 526.86 229.159 527.169 229.239C527.521 229.314 527.75 229.659 527.675 230.005C527.169 232.42 526.57 234.878 525.903 237.311C525.823 237.595 525.564 237.786 525.28 237.786Z" fill="black"/>
<path d="M520.371 173.771C520.142 173.771 519.92 173.654 519.803 173.438C519.247 172.45 518.66 171.468 518.043 170.492C517.851 170.19 517.944 169.788 518.246 169.597C518.561 169.411 518.95 169.498 519.148 169.801C519.778 170.795 520.383 171.795 520.945 172.802C521.124 173.117 521.013 173.512 520.692 173.685C520.587 173.747 520.476 173.771 520.371 173.771ZM514.264 164.712C514.072 164.712 513.887 164.632 513.757 164.465C512.232 162.551 510.589 160.679 508.86 158.907C508.607 158.648 508.613 158.24 508.873 157.987C509.132 157.746 509.533 157.74 509.787 157.999C511.54 159.802 513.22 161.704 514.77 163.65C514.992 163.928 514.949 164.335 514.665 164.564C514.541 164.669 514.406 164.712 514.264 164.712ZM464.789 164.156C464.48 164.156 464.183 164.144 463.887 164.113C463.529 164.076 463.269 163.755 463.307 163.397C463.344 163.045 463.658 162.804 464.017 162.816C466.166 163.038 468.605 162.31 470.63 160.914C470.933 160.71 471.334 160.784 471.532 161.081C471.736 161.377 471.661 161.779 471.365 161.982C469.364 163.366 466.968 164.156 464.789 164.156ZM459.885 159.031C459.422 158.963 459.188 158.623 459.243 158.271C459.478 156.888 460.145 155.331 461.225 153.658C461.726 152.886 462.288 152.145 462.911 151.447C463.152 151.169 463.566 151.157 463.825 151.391C464.091 151.632 464.115 152.04 463.881 152.305C463.307 152.948 462.782 153.639 462.318 154.356C461.337 155.881 460.731 157.277 460.528 158.487C460.478 158.808 460.2 159.031 459.885 159.031ZM475.595 156.338C475.502 156.338 475.404 156.319 475.311 156.27C474.984 156.116 474.854 155.727 475.015 155.406C476.052 153.269 476.787 150.934 477.201 148.477C477.256 148.125 477.59 147.871 477.948 147.946C478.3 148.007 478.54 148.341 478.479 148.693C478.04 151.274 477.268 153.72 476.175 155.967C476.07 156.202 475.836 156.338 475.595 156.338ZM503.865 153.998C503.716 153.998 503.562 153.948 503.439 153.843C501.66 152.318 499.746 150.811 497.751 149.36C497.319 149.051 497.251 148.65 497.461 148.353C497.671 148.057 498.085 147.995 498.363 148.199C500.536 149.773 502.475 151.305 504.285 152.849C504.556 153.084 504.587 153.491 504.352 153.763C504.235 153.923 504.05 153.998 503.865 153.998ZM469.34 148.075C469.099 148.075 468.87 147.946 468.759 147.717C468.599 147.396 468.728 147.007 469.049 146.846C471.223 145.759 473.656 144.95 476.287 144.444C476.632 144.401 476.978 144.611 477.046 144.957C477.114 145.309 476.886 145.648 476.534 145.716C474.02 146.198 471.698 146.97 469.63 148.001C469.537 148.057 469.438 148.075 469.34 148.075ZM491.224 146.297C488.785 145.642 486.352 145.272 483.826 145.179C483.468 145.167 483.19 144.864 483.203 144.506C483.215 144.148 483.493 143.901 483.876 143.882C486.506 143.981 489.032 144.364 491.397 145.025C491.743 145.123 491.94 145.482 491.848 145.827C491.768 146.111 491.508 146.297 491.224 146.297ZM478.127 141.782C477.793 141.782 477.509 141.529 477.478 141.19C477.268 138.75 476.756 136.354 475.953 134.057C475.836 133.717 476.009 133.347 476.348 133.229C476.682 133.106 477.058 133.291 477.176 133.631C478.016 136.027 478.547 138.534 478.775 141.078C478.806 141.437 478.54 141.752 478.182 141.782C478.164 141.782 478.145 141.782 478.127 141.782ZM473.23 127.826C473.02 127.826 472.81 127.721 472.686 127.536C471.371 125.541 469.79 123.657 467.987 121.935C467.728 121.687 467.716 121.28 467.969 121.014C468.216 120.755 468.629 120.743 468.883 120.996C470.754 122.787 472.396 124.744 473.767 126.819C473.965 127.116 473.884 127.523 473.582 127.721C473.477 127.789 473.353 127.826 473.23 127.826ZM462.535 117.55C462.417 117.55 462.3 117.519 462.195 117.451C460.12 116.16 457.897 115.074 455.612 114.221C455.273 114.098 455.106 113.721 455.229 113.388C455.359 113.048 455.723 112.875 456.063 113.005C458.434 113.888 460.731 115.012 462.874 116.346C463.183 116.537 463.269 116.939 463.084 117.241C462.967 117.439 462.757 117.55 462.535 117.55ZM412.047 115.839C411.825 115.839 411.608 115.728 411.491 115.518C411.306 115.209 411.411 114.814 411.72 114.629C413.652 113.486 416.03 112.523 418.79 111.77C419.142 111.677 419.494 111.881 419.593 112.227C419.686 112.572 419.482 112.931 419.136 113.023C416.487 113.746 414.214 114.66 412.38 115.747C412.269 115.808 412.158 115.839 412.047 115.839ZM448.634 112.325C446.214 111.887 443.75 111.572 441.175 111.368C440.817 111.344 440.551 111.029 440.576 110.67C440.607 110.312 440.916 110.053 441.274 110.071C443.892 110.275 446.411 110.596 448.758 111.035C449.11 111.103 449.338 111.442 449.277 111.794C449.209 112.103 448.937 112.325 448.634 112.325ZM426.293 111.646C425.966 111.646 425.688 111.405 425.651 111.078C425.607 110.72 425.861 110.399 426.219 110.356C428.602 110.065 431.14 109.899 433.74 109.849C434.104 109.849 434.395 110.133 434.401 110.485C434.407 110.843 434.123 111.14 433.765 111.146C431.202 111.189 428.72 111.356 426.373 111.64C426.342 111.646 426.318 111.646 426.293 111.646Z" fill="black"/>
<path d="M550.604 222.73H512.682C507.761 222.73 503.747 218.722 503.747 213.801V186.073C503.747 181.145 507.755 177.143 512.682 177.143H550.604C555.525 177.143 559.539 181.151 559.539 186.073V213.801C559.539 218.722 555.532 222.73 550.604 222.73ZM512.682 178.434C508.471 178.434 505.05 181.861 505.05 186.067V213.794C505.05 218.006 508.477 221.427 512.682 221.427H550.604C554.815 221.427 558.236 218 558.236 213.794V186.067C558.236 181.855 554.809 178.434 550.604 178.434H512.682Z" fill="black"/>
<path d="M567.962 379.315H436.13C427.787 379.315 420.958 372.491 420.958 364.142V288.054C420.958 279.711 427.781 272.887 436.124 272.887H567.956C576.299 272.887 583.128 279.711 583.128 288.061V364.148C583.134 372.491 576.305 379.315 567.962 379.315Z" fill="white"/>
<path d="M568.493 272.887H435.605C427.553 272.887 420.964 279.477 420.964 287.529V288.431H583.135V287.529C583.135 279.477 576.546 272.887 568.493 272.887Z" fill="#282828"/>
<path d="M573.495 381.125L544.8 363.364C543.583 362.611 542.021 363.531 542.095 364.958L543.744 398.669C543.811 400.003 545.269 400.788 546.417 400.114L554.173 395.538C555.019 395.038 556.106 395.322 556.606 396.168L567.888 415.3C568.388 416.146 569.475 416.424 570.315 415.93L576.453 412.311C577.299 411.811 577.577 410.724 577.083 409.884L565.801 390.752C565.301 389.906 565.585 388.82 566.431 388.326L573.464 384.176C574.613 383.484 574.631 381.829 573.495 381.125Z" fill="#4A7EFF"/>
<path d="M570.204 285.047C572.703 285.047 574.73 283.02 574.73 280.52C574.73 278.02 572.703 275.994 570.204 275.994C567.704 275.994 565.677 278.02 565.677 280.52C565.677 283.02 567.704 285.047 570.204 285.047Z" fill="#4A7EFF"/>
<path d="M556.742 285.047C559.242 285.047 561.268 283.02 561.268 280.52C561.268 278.02 559.242 275.994 556.742 275.994C554.242 275.994 552.216 278.02 552.216 280.52C552.216 283.02 554.242 285.047 556.742 285.047Z" fill="white"/>
<path d="M543.28 285.047C545.78 285.047 547.807 283.02 547.807 280.52C547.807 278.02 545.78 275.994 543.28 275.994C540.78 275.994 538.754 278.02 538.754 280.52C538.754 283.02 540.78 285.047 543.28 285.047Z" fill="white"/>
<path d="M466.419 301.424H441.237V326.608H466.419V301.424Z" fill="#4A7EFF"/>
<path d="M567.827 379.927C567.493 379.927 567.215 379.655 567.215 379.315C567.215 378.982 567.487 378.704 567.827 378.704C575.928 378.704 582.523 372.411 582.523 364.673V341.67C582.523 341.336 582.795 341.058 583.135 341.058C583.468 341.058 583.746 341.33 583.746 341.67V364.673C583.74 373.084 576.602 379.927 567.827 379.927Z" fill="black"/>
<path d="M420.414 309.625C420.081 309.625 419.803 309.354 419.803 309.014V287.523C419.803 279.112 426.941 272.276 435.716 272.276H567.82C576.595 272.276 583.733 279.119 583.733 287.523V308.822C583.733 309.156 583.462 309.434 583.122 309.434C582.789 309.434 582.511 309.162 582.511 308.822V287.53C582.511 279.792 575.916 273.499 567.814 273.499H435.722C427.62 273.499 421.025 279.792 421.025 287.53V309.02C421.025 309.354 420.754 309.625 420.414 309.625Z" fill="black"/>
<path d="M520.859 379.927H437.735C437.402 379.927 437.124 379.655 437.124 379.315C437.124 378.982 437.396 378.704 437.735 378.704H520.859C521.192 378.704 521.47 378.976 521.47 379.315C521.464 379.655 521.192 379.927 520.859 379.927Z" fill="black"/>
<path d="M576.632 289.043H427.738C427.404 289.043 427.126 288.771 427.126 288.431C427.126 288.098 427.398 287.82 427.738 287.82H576.632C576.966 287.82 577.243 288.092 577.243 288.431C577.243 288.765 576.966 289.043 576.632 289.043Z" fill="black"/>
<path d="M570.204 284.097C568.234 284.097 566.628 282.491 566.628 280.521C566.628 278.551 568.234 276.945 570.204 276.945C572.174 276.945 573.78 278.551 573.78 280.521C573.78 282.491 572.174 284.097 570.204 284.097ZM570.204 278.161C568.901 278.161 567.845 279.218 567.845 280.521C567.845 281.818 568.901 282.88 570.204 282.88C571.507 282.88 572.563 281.824 572.563 280.521C572.563 279.218 571.501 278.161 570.204 278.161Z" fill="black"/>
<path d="M556.742 284.097C554.772 284.097 553.167 282.491 553.167 280.521C553.167 278.551 554.772 276.945 556.742 276.945C558.712 276.945 560.318 278.551 560.318 280.521C560.318 282.491 558.718 284.097 556.742 284.097ZM556.742 278.161C555.439 278.161 554.383 279.218 554.383 280.521C554.383 281.818 555.439 282.88 556.742 282.88C558.039 282.88 559.101 281.824 559.101 280.521C559.101 279.218 558.039 278.161 556.742 278.161Z" fill="black"/>
<path d="M543.281 284.097C541.311 284.097 539.705 282.491 539.705 280.521C539.705 278.551 541.311 276.945 543.281 276.945C545.251 276.945 546.856 278.551 546.856 280.521C546.856 282.491 545.257 284.097 543.281 284.097ZM543.281 278.161C541.978 278.161 540.922 279.218 540.922 280.521C540.922 281.818 541.978 282.88 543.281 282.88C544.584 282.88 545.64 281.824 545.64 280.521C545.64 279.218 544.584 278.161 543.281 278.161Z" fill="black"/>
<path d="M560.355 411.434C560.157 411.434 559.953 411.409 559.756 411.36C559.138 411.199 558.619 410.81 558.298 410.261L547.022 391.129C546.695 390.573 545.973 390.388 545.429 390.715L537.673 395.291C536.945 395.717 536.074 395.736 535.333 395.335C534.592 394.933 534.123 394.192 534.079 393.352L532.431 359.64C532.387 358.751 532.838 357.924 533.604 357.473C534.37 357.022 535.314 357.034 536.068 357.498L564.764 375.258C565.48 375.703 565.9 376.469 565.894 377.315C565.881 378.161 565.443 378.914 564.72 379.34L557.687 383.49C557.421 383.651 557.23 383.904 557.15 384.2C557.076 384.503 557.119 384.818 557.273 385.083L568.555 404.215C568.876 404.765 568.969 405.407 568.808 406.024C568.648 406.642 568.259 407.161 567.709 407.482L561.571 411.101C561.194 411.323 560.774 411.434 560.355 411.434ZM546.01 389.338C546.825 389.338 547.621 389.758 548.072 390.512L559.348 409.643C559.509 409.909 559.762 410.1 560.058 410.18C560.361 410.255 560.676 410.211 560.941 410.057L567.079 406.438C567.345 406.278 567.536 406.024 567.616 405.728C567.691 405.425 567.647 405.11 567.493 404.845L556.211 385.713C555.89 385.164 555.797 384.521 555.958 383.904C556.118 383.286 556.507 382.768 557.057 382.446L564.09 378.297C564.442 378.087 564.659 377.716 564.665 377.308C564.671 376.895 564.467 376.524 564.115 376.302L535.419 358.541C535.043 358.313 534.592 358.3 534.215 358.529C533.832 358.751 533.622 359.146 533.641 359.591L535.29 393.303C535.308 393.71 535.537 394.075 535.901 394.272C536.259 394.464 536.685 394.458 537.043 394.248L544.799 389.672C545.182 389.437 545.596 389.338 546.01 389.338Z" fill="black"/>
<path d="M462.004 323.403H437.13C436.797 323.403 436.519 323.131 436.519 322.791V297.917C436.519 297.583 436.791 297.305 437.13 297.305H462.004C462.337 297.305 462.615 297.577 462.615 297.917V322.791C462.609 323.131 462.337 323.403 462.004 323.403ZM437.736 322.186H461.392V298.534H437.736V322.186Z" fill="black"/>
<path d="M457.767 358.288H441.366C441.033 358.288 440.755 358.016 440.755 357.676V341.274C440.755 340.941 441.027 340.663 441.366 340.663H457.767C458.101 340.663 458.379 340.935 458.379 341.274V357.676C458.379 358.01 458.101 358.288 457.767 358.288ZM441.971 357.065H457.156V341.88H441.971V357.065Z" fill="black"/>
<path d="M564.64 302.036H489.279C488.945 302.036 488.667 301.764 488.667 301.424C488.667 301.091 488.939 300.813 489.279 300.813H564.64C564.973 300.813 565.251 301.085 565.251 301.424C565.251 301.764 564.973 302.036 564.64 302.036Z" fill="black"/>
<path d="M564.64 321.223H489.279C488.945 321.223 488.667 320.951 488.667 320.611C488.667 320.278 488.939 320 489.279 320H564.64C564.973 320 565.251 320.272 565.251 320.611C565.251 320.951 564.973 321.223 564.64 321.223Z" fill="black"/>
<path d="M564.64 340.41H489.279C488.945 340.41 488.667 340.138 488.667 339.799C488.667 339.465 488.939 339.187 489.279 339.187H564.64C564.973 339.187 565.251 339.459 565.251 339.799C565.251 340.138 564.973 340.41 564.64 340.41Z" fill="black"/>
<path d="M417.87 336.47H487.76C497.103 336.47 504.754 344.115 504.754 353.465V395.082C504.754 404.425 497.109 412.076 487.76 412.076H417.87C408.527 412.076 400.876 404.431 400.876 395.082V353.465C400.876 344.122 408.521 336.47 417.87 336.47Z" fill="#282828"/>
<path d="M432.678 392.204C432.517 392.204 432.357 392.142 432.233 392.012L415.814 374.635C415.585 374.394 415.591 374.017 415.826 373.782L432.252 357.362C432.493 357.121 432.875 357.121 433.116 357.362C433.357 357.603 433.357 357.986 433.116 358.226L417.11 374.227L433.122 391.179C433.351 391.426 433.345 391.809 433.098 392.037C432.98 392.148 432.832 392.204 432.678 392.204Z" fill="white"/>
<path d="M441.36 392.204C441.243 392.204 441.126 392.173 441.021 392.099C440.743 391.914 440.669 391.531 440.86 391.253L463.646 357.448C463.838 357.164 464.214 357.096 464.492 357.282C464.77 357.467 464.844 357.85 464.653 358.128L441.867 391.932C441.743 392.111 441.552 392.204 441.36 392.204Z" fill="white"/>
<path d="M470.463 392.204C470.315 392.204 470.161 392.148 470.043 392.037C469.796 391.809 469.79 391.419 470.019 391.179L486.031 374.227L470.025 358.226C469.784 357.986 469.784 357.603 470.025 357.362C470.266 357.121 470.649 357.121 470.889 357.362L487.315 373.782C487.55 374.017 487.556 374.394 487.328 374.635L470.908 392.012C470.791 392.136 470.624 392.204 470.463 392.204Z" fill="white"/>
<defs>
<linearGradient id="paint0_linear" x1="304.364" y1="267.979" x2="366.699" y2="267.979" gradientUnits="userSpaceOnUse">
<stop stop-color="white" stop-opacity="0"/>
<stop offset="0.88" stop-color="#4A7EFF"/>
</linearGradient>
<linearGradient id="paint1_linear" x1="353.635" y1="263.084" x2="322.146" y2="208.548" gradientUnits="userSpaceOnUse">
<stop stop-color="white" stop-opacity="0"/>
<stop offset="0.88" stop-color="#4A7EFF"/>
</linearGradient>
<linearGradient id="paint2_linear" x1="293.106" y1="277.808" x2="324.753" y2="222.999" gradientUnits="userSpaceOnUse">
<stop offset="0.1203" stop-color="#4A7EFF"/>
<stop offset="1" stop-color="white" stop-opacity="0"/>
</linearGradient>
</defs>
</svg>
