<svg width="654" height="494" viewBox="0 0 654 494" fill="none" xmlns="http://www.w3.org/2000/svg">
<g clip-path="url(#clip0)">
<path d="M289.668 91.083C285.543 89.0637 281.548 84.5991 281.548 84.5991C281.548 84.5991 278.454 95.6958 271.1 98.7216C271.1 98.7216 267.994 95.0289 263.93 96.1095C259.873 97.1902 258.787 100.537 258.941 103.501C259.089 106.465 262.374 109.973 267.006 109.225L264.208 132.524L255.551 141.466L268.556 157.601L292.564 157.33L293.88 142.485L286.642 132.524H286.395L286.889 124.299C286.889 124.299 292.206 124.497 294.059 121.076C295.911 117.655 296.504 110.318 296.714 108.756C296.924 107.2 298.357 92.0834 298.357 92.0834C298.357 92.0834 293.799 93.1023 289.668 91.083Z" fill="white"/>
<path d="M241.231 308.947C241.231 308.947 242.743 311.849 246.955 309.182C251.166 306.514 256.668 296.01 256.668 296.01L261.584 287.834C261.584 287.834 262.232 280.893 256.384 280.344C250.536 279.794 177.324 280.01 177.324 280.01L170.26 280.893C170.26 280.893 166.024 282.548 163.98 285.698C161.936 288.847 157.478 296.307 157.478 296.307L161.09 293.806L163.77 293.046L165.703 293.503L170.964 286.63L172.829 285.92H255.507L256.008 286.42L241.231 308.947Z" fill="#4A7EFF"/>
<path d="M255.508 285.933H172.823L170.328 287.217L165.876 293.756C165.308 293.497 164.635 293.318 163.832 293.33C160.825 293.361 160.775 294.417 160.775 294.417C160.775 294.417 159.176 295.405 157.089 296.529C155.002 297.653 152.18 301.796 152.18 301.796C152.18 301.796 152.297 304.662 155.693 310.54L157.706 329.257L230.005 327.145L241.237 308.96L256.014 286.439L255.508 285.933Z" fill="white"/>
<path d="M417.548 226.182C417.548 226.182 417.752 238.501 421.321 248.561C424.884 258.62 429.923 268.784 439.192 272.742C448.461 276.701 458.508 274.163 460.725 273.317C462.948 272.471 473.804 267.679 480.269 268.173L505.476 268.475C505.476 268.475 518.493 269.815 525.063 275.83C531.634 281.845 534.548 287.217 537.006 293.275C539.464 299.333 546.744 315.042 548.763 320.025C550.789 325.009 553.413 331.11 555.278 337.637C557.143 344.158 559.681 353.451 559.798 359.515C559.91 365.579 560.286 377.343 553.469 384.648C546.652 391.947 542.891 392.41 542.891 392.41C542.891 392.41 543.36 407.033 542.891 410.837L452.172 411.114C452.172 411.114 452.444 385.074 452.623 379.047C452.796 373.02 452.382 358.249 452.382 358.249L448.171 315.913C448.171 315.913 433.752 315.24 418.481 302.896C403.21 290.552 398.313 279.319 397.134 276.991C395.96 274.669 389.236 259.429 387.346 250.592C385.456 241.756 383.616 227.967 383.616 227.967L417.548 226.182Z" fill="#282828"/>
<path d="M497.406 240.978C497.406 240.978 505.878 238.119 506.137 246.381C506.137 246.381 505.563 252.963 498.369 251.475L497.795 268.142C497.795 268.142 490.064 285.228 481.141 282.975C481.141 282.975 477.114 282.227 478.343 276.324C479.566 270.421 480.276 268.173 480.276 268.173L480.906 260.8C480.906 260.8 474.119 260.003 473.669 254.606C473.218 249.209 472.489 247.974 473.669 241.953C474.848 235.926 476.645 225.2 476.645 225.2C476.645 225.2 479.294 228.905 486.883 233.635C494.473 238.366 497.739 240.187 497.739 240.187L497.406 240.978Z" fill="white"/>
<path d="M385.185 225.602L386.426 228.862C386.426 228.862 383.493 228.09 383.549 227.102C383.598 226.108 385.185 225.602 385.185 225.602Z" fill="#282828"/>
<path d="M412.145 223.817L408.465 229.381C408.465 229.381 417.666 227.572 417.548 226.182C417.431 224.787 412.145 223.817 412.145 223.817Z" fill="#282828"/>
<path d="M383.549 219.501C383.549 219.501 386.161 228.022 386.828 228.961C386.828 228.961 391.317 230.19 397.715 229.998C404.112 229.807 408.78 229.338 408.78 229.338C408.78 229.338 410.355 226.281 412.51 223.298C414.665 220.316 417.111 217.346 417.321 214.746C417.537 212.146 418.253 210.541 414.98 207.558C411.707 204.575 406.434 200.932 406.434 200.932C406.434 200.932 403.933 199.444 402.229 200.506C400.53 201.568 401.024 206.644 402.71 208.62C404.402 210.596 407.311 213.103 407.311 213.103C407.311 213.103 402.994 219.402 396.93 219.26C390.879 219.112 383.549 219.501 383.549 219.501Z" fill="white"/>
<path d="M491.78 334.117C491.78 334.117 489.032 328.244 487.828 325.095C486.624 321.946 485.753 317.926 483.493 317.79C481.239 317.654 480.35 318.84 480.294 320.328C480.239 321.816 480.924 324.762 481.678 327.658C482.431 330.554 481.591 332.604 479.967 332.845C478.343 333.086 473.23 329.899 470.019 326.762C466.808 323.625 463.412 319.507 461.368 319.463C459.317 319.42 456.761 321.162 458.076 324.027L458.416 324.564C458.416 324.564 455.828 324.329 455.075 325.601C454.322 326.874 453.865 328.528 454.834 329.516C454.834 329.516 452.982 330.795 454.285 332.981C455.588 335.167 457.687 337.47 457.687 337.47C457.687 337.47 455.662 338.242 456.613 340.428C457.564 342.614 463.782 346.764 469.204 349.87C474.626 352.976 477.966 353.803 477.966 353.803C477.966 353.803 482.147 346.282 484.802 342.923C487.451 339.551 491.78 334.117 491.78 334.117Z" fill="white"/>
<path d="M252.29 192.083C252.29 192.083 252.265 189.156 252.271 186.513C252.278 183.87 252.475 174.299 258.379 170.625C264.282 166.95 258.86 170.328 258.86 170.328V182.969C258.86 182.969 259.608 186.451 262.127 185.451C264.646 184.451 263.794 185.402 266.764 182.759C269.735 180.116 276.077 173.768 276.077 173.768C276.077 173.768 279.281 170.032 281.356 170.026C283.425 170.02 285.889 171.316 284.975 174.972L285.172 175.386C285.172 175.386 286.809 174.169 288.556 175.559C290.304 176.948 288.093 182.135 288.093 182.135C288.093 182.135 289.254 182.073 289.223 184.556C289.199 187.038 288.137 189.848 285.673 192.571C283.215 195.288 270.754 205.162 270.754 205.162C270.754 205.162 265.19 199.518 260.75 196.56C256.298 193.596 252.29 192.083 252.29 192.083Z" fill="white"/>
<path d="M396.244 219.501H271.915C264.733 219.501 258.86 213.628 258.86 206.446V170.655C258.86 163.474 264.733 157.601 271.915 157.601H396.244C403.426 157.601 409.298 163.474 409.298 170.655V206.446C409.298 213.628 403.426 219.501 396.244 219.501Z" fill="white"/>
<path d="M535.703 290.311C535.703 290.311 531.103 278.59 523.477 274.669C515.85 270.742 512.151 268.173 498.177 268.173V251.815C498.177 251.815 506.322 252.612 506.155 246.023C506.155 246.023 506.291 239.452 498.177 240.527C498.177 240.527 489.05 235.142 486.21 233.216C483.369 231.289 476.453 224.793 476.453 224.793C476.453 224.793 474.174 234.642 473.699 237.761C473.223 240.879 471.89 247.857 472.149 251.506C472.408 255.156 473.31 260.806 480.905 260.806L480.275 267.877C480.275 267.877 473.68 268.451 470.303 269.846C466.925 271.242 461.441 273.731 458.947 273.978C458.947 273.978 456.199 271.365 456.298 266.611C456.396 261.856 459.194 257.657 462.318 255.631C465.437 253.606 468.043 250.487 469.092 246.894C470.142 243.3 469.691 240.379 469.228 237.532C468.765 234.685 467.999 230.054 469.469 225.207C470.939 220.353 472.038 217.074 476.002 215.512C479.961 213.949 485.253 212.455 491.477 213.61C497.702 214.764 506.365 216.827 510.892 219.853C515.418 222.878 517.777 223.928 518.808 230.918C518.808 230.918 518.783 235.871 516.721 240.194C514.659 244.516 513.479 249.364 513.911 252.303C514.344 255.248 516.659 258.169 520.142 259.923C523.625 261.677 530.337 265.048 533.517 268.364C536.697 271.687 538.871 275.071 539.347 279.56C539.816 284.049 537.624 289.65 535.703 290.311Z" fill="#4A7EFF"/>
<path d="M252.291 192.083C252.291 192.083 269.569 199.66 272.737 209.775C272.737 209.775 263.523 225.787 257.885 231.956C252.241 238.119 241.657 251.105 224.737 251.056C207.818 251.012 199.067 239.879 198.098 238.452C197.128 237.026 192.133 229.881 193.738 217.296C195.344 204.705 199.555 194.053 203.526 185.815C207.497 177.578 214.721 162.251 221.94 156.335C229.159 150.42 238.891 141.985 255.551 141.466L268.556 157.601C268.556 157.601 260.059 160.047 258.855 169.952C258.855 169.952 255.113 172.101 253.705 176.825C252.297 181.548 252.439 187.748 252.439 187.748L252.291 192.083Z" fill="#4A7EFF"/>
<path d="M293.88 142.071L292.564 157.323H328.775C328.775 157.329 315.209 143.732 293.88 142.071Z" fill="#4A7EFF"/>
<path d="M271.106 98.7215C271.106 98.7215 280.474 92.6143 281.122 84.9263C281.122 84.9263 285.025 89.6811 288.829 90.8729C292.627 92.0647 298.357 92.0832 298.357 92.0832L298.011 97.8878C298.011 97.8878 301.766 90.3912 299.882 84.988C297.999 79.5848 292.244 76.596 289.008 75.9415C285.778 75.2931 281.048 74.4224 277.078 76.7134L275.664 77.0962C275.664 77.0962 266.839 77.195 264.53 81.567C262.214 85.939 261.035 88.1867 260.979 91.441C260.924 94.6953 261.751 97.0727 261.751 97.0727C261.751 97.0727 267.735 93.7505 271.106 98.7215Z" fill="#282828"/>
<path d="M267.006 109.225L266.345 113.128L264.085 109.707L267.006 109.225Z" fill="#282828"/>
<path d="M513.398 318.648L487.302 292.7C487.302 292.7 480.751 287.649 472.803 292.058L437.716 326.552C437.716 326.552 431.726 333.691 436.605 341.885L484.622 390.255C484.622 390.255 489.062 395.189 494.558 395.417C494.558 395.417 498.998 395.596 501.116 394.009C503.228 392.422 510.156 386.08 510.156 386.08C510.156 386.08 488.642 372.761 483.091 366.147C477.54 359.54 475.885 359.009 475.885 359.009L477.959 353.791C477.959 353.791 483.196 344.738 485.153 342.039C487.111 339.341 493.928 332.209 493.928 332.209C493.928 332.209 512.855 345.528 516.239 347.912C519.623 350.289 521.84 352.086 521.84 352.086C521.84 352.086 517.56 339.415 516.529 335.784C515.498 332.159 513.398 318.648 513.398 318.648Z" fill="white"/>
<path d="M135.47 237.143C135.47 237.143 138.798 234.914 142.411 233.728C146.023 232.542 148.993 231.789 150.167 230.746C151.34 229.702 152.803 225.966 153.415 223.088C154.026 220.211 156.268 216.932 149.24 212.85C149.24 212.85 146.128 211.325 140.157 210.812C134.185 210.3 131.475 211.374 127.794 210.374C124.114 209.367 121.286 207.712 117.692 207.749C114.098 207.793 110.356 207.292 105.564 211.813C100.772 216.327 99.4072 222.199 98.6909 225.392C97.9746 228.584 97.9993 231.801 96.8075 236.087C95.6157 240.379 94.3374 244.479 90.4965 246.313C86.6618 248.153 83.568 251.945 81.6785 256.051C79.7889 260.151 78.9861 266.888 82.0551 272.298C85.1242 277.707 94.1583 282.085 100.797 283.413C107.435 284.741 116.426 284.389 120.835 281.573C125.25 278.763 131.228 277.331 133.339 272.286C135.451 267.24 135.383 262.214 135.383 262.214C135.383 262.214 135.272 257.008 134.118 253.581C132.963 250.16 131.592 248.524 131.592 248.524C131.592 248.524 125.096 247.746 125.516 242.052C125.935 236.359 131.413 235.896 132.327 236.081C133.241 236.272 135.47 237.143 135.47 237.143Z" fill="white"/>
<path d="M152.97 224.953L151.636 240.447C151.636 240.447 156.1 243.88 155.866 244.664C155.631 245.442 151.241 248.857 151.241 248.857C151.241 248.857 150.703 254.112 150.228 255.65C149.759 257.187 147.455 263.968 137.612 263.171L135.457 276.806L131.153 275.836C131.153 275.836 133.889 272.897 134.432 269.674C134.975 266.45 135.648 263.332 135.198 259.472C134.747 255.613 133.073 250.031 131.82 248.857C130.572 247.684 128.794 248.74 126.83 246.202C124.861 243.664 125.385 238.761 128.059 237.273C130.733 235.785 133.993 235.859 135.457 237.143C135.457 237.143 139.699 234.401 143.367 233.512C147.048 232.623 151.043 232.296 152.97 224.953Z" fill="white"/>
<path d="M217.018 311.806C217.018 311.806 235.488 316.919 236.723 339.421C236.723 339.421 220.767 351.136 199.049 356.953C177.325 362.77 168.852 360.429 168.852 360.429C168.852 360.429 172.218 378.46 173.533 388.989C174.855 399.518 176.034 410.979 176.034 410.979H84.5559C84.5559 410.979 84.63 371.662 84.5559 357.829C84.4818 343.997 84.0928 322.866 84.0928 322.866C84.0928 322.866 85.0993 299.888 88.6809 291.632C92.2625 283.376 93.4172 281.295 93.4172 281.295C93.4172 281.295 101.976 285.507 110.757 283.882C119.538 282.258 124.033 281.332 130.647 275.595C130.647 275.595 136.038 275.768 140.521 281.542C145.004 287.322 149.598 294.399 153.439 305.106C157.28 315.814 164.604 324.428 174.373 325.564C184.136 326.701 195.029 324.478 203.167 320.248C211.312 316.036 217.018 311.806 217.018 311.806Z" fill="#282828"/>
<path d="M199.863 356.73L222.798 347.653C222.798 347.653 219.309 355.014 214.869 355.927C210.429 356.848 199.863 356.73 199.863 356.73Z" fill="#4A7EFF"/>
<path d="M379.266 325.106H404.732V299.64H379.266V325.106Z" fill="#4A7EFF"/>
<path d="M278.874 157.793L286.963 157.33L282.375 149.833L278.874 157.793Z" fill="#282828"/>
<path d="M194.405 230.14C195.603 234.821 197.536 237.612 198.098 238.446C198.987 239.755 206.385 249.172 220.594 250.809C224.077 245.319 220.489 236.803 212.591 231.783C206.132 227.677 198.777 227.183 194.405 230.14Z" fill="#282828"/>
<path d="M400.549 202.97C400.549 202.97 399.061 211.368 405.328 215.382L407.317 213.097C407.317 213.097 400.987 208.54 400.549 202.97Z" fill="#B5B5B5"/>
<path d="M506.921 389.013C508.7 387.42 510.157 386.08 510.157 386.08C510.157 386.08 488.643 372.761 483.092 366.147C477.941 360.021 476.151 359.12 475.916 359.021C475.885 359.015 492.422 380.998 506.921 389.013Z" fill="#B5B5B5"/>
<path d="M454.303 224.564H441.101V237.767H454.303V224.564Z" fill="#4A7EFF"/>
<path d="M293.274 77.6089C293.293 77.6521 298.665 88.9279 295.38 91.9475C297.097 92.071 298.35 92.0772 298.35 92.0772L298.005 97.8818C298.005 97.8818 301.759 90.3852 299.876 84.982C298.69 81.5671 295.948 79.1156 293.274 77.6089Z" fill="white"/>
<path d="M280.863 84.1299C280.863 84.1299 275.416 95.8997 269.284 97.0976L271.1 98.7217C271.106 98.7217 279.541 94.9857 280.863 84.1299Z" fill="white"/>
<path d="M539.34 279.554C538.865 275.058 536.697 271.674 533.511 268.358C530.331 265.036 523.619 261.67 520.136 259.917C516.653 258.163 514.331 255.242 513.905 252.297C513.473 249.357 514.652 244.51 516.715 240.187C518.777 235.865 518.802 230.912 518.802 230.912C517.771 223.922 515.412 222.872 510.885 219.846C510.225 219.408 509.471 218.988 508.656 218.587C508.872 218.747 519.864 226.182 513.417 237.526C507.909 247.221 507.39 257.249 513.417 261.794C519.29 266.221 525.341 271.853 524.674 275.367C531.578 279.819 535.709 290.317 535.709 290.317C537.624 289.65 539.816 284.049 539.34 279.554Z" fill="white"/>
<path d="M559.953 367.549C559.953 367.549 547.306 361.442 537.37 371.859C527.435 382.277 532.56 393.429 532.56 393.429C532.56 393.429 544.99 395.812 553.228 385.129C561.175 374.817 559.953 367.549 559.953 367.549Z" fill="#4A7EFF"/>
<path d="M329.09 158.163C328.96 158.163 328.83 158.12 328.725 158.027C315.832 146.937 305.272 144.492 293.787 142.627C293.484 142.577 293.274 142.287 293.324 141.984C293.373 141.682 293.645 141.49 293.96 141.521C305.618 143.417 316.332 145.899 329.448 157.181C329.683 157.385 329.707 157.731 329.504 157.966C329.405 158.089 329.25 158.163 329.09 158.163Z" fill="black"/>
<path d="M224.237 251.611C223.348 251.611 222.446 251.574 221.532 251.5C208.663 250.475 194.325 241.472 193.096 226.794C191.836 211.788 197.739 196.881 203.019 185.568C208.472 173.898 214.536 161.856 223.366 154.267C235.401 143.917 243.12 142.769 252.068 141.435C253.167 141.268 254.297 141.102 255.464 140.91C255.792 140.867 256.051 141.071 256.1 141.373C256.15 141.676 255.946 141.96 255.637 142.015C254.47 142.207 253.34 142.374 252.229 142.54C243.096 143.905 235.877 144.979 224.095 155.119C215.431 162.566 209.435 174.484 204.032 186.05C198.808 197.233 192.972 211.967 194.207 226.701C195.387 240.762 209.207 249.407 221.619 250.389C244.368 252.229 259.984 230.746 272.242 209.435C271.952 208.503 270.161 204.051 261.374 197.783C252.605 191.521 248.221 191.602 247.424 191.707C245.961 193.17 232.184 207.033 215.715 225.948C215.505 226.176 215.159 226.201 214.925 225.997C214.69 225.793 214.672 225.447 214.869 225.213C232.234 205.267 246.615 190.928 246.757 190.786C246.825 190.712 246.918 190.663 247.017 190.644C247.208 190.595 251.784 189.57 262.016 196.869C272.329 204.223 273.347 209.194 273.384 209.404C273.409 209.534 273.384 209.67 273.323 209.781C265.437 223.533 249.308 251.611 224.237 251.611Z" fill="black"/>
<path d="M282.234 411.682H72.2735C71.9648 411.682 71.7178 411.435 71.7178 411.121C71.7178 410.812 71.9648 410.559 72.2735 410.559H282.234C282.542 410.559 282.789 410.806 282.789 411.121C282.795 411.429 282.542 411.682 282.234 411.682Z" fill="black"/>
<path d="M566.635 411.682H407.681C407.372 411.682 407.119 411.435 407.119 411.121C407.119 410.812 407.366 410.559 407.681 410.559H566.635C566.943 410.559 567.197 410.806 567.197 411.121C567.197 411.429 566.95 411.682 566.635 411.682Z" fill="black"/>
<path d="M542.898 411.812C542.564 411.794 542.323 411.534 542.342 411.226L542.373 410.491C542.7 403.741 542.7 403.741 542.373 393.534L542.342 392.422C542.329 392.114 542.57 391.86 542.879 391.848C543.2 391.842 543.441 392.089 543.453 392.385L543.49 393.491C543.824 403.741 543.824 403.741 543.49 410.534L543.453 411.269C543.441 411.578 543.194 411.812 542.898 411.812Z" fill="black"/>
<path d="M522.575 353.581C522.371 353.581 522.173 353.47 522.075 353.272C512.8 334.846 511.62 305.328 511.608 305.032C511.596 304.723 511.836 304.464 512.145 304.458C512.442 304.476 512.713 304.68 512.719 304.995C512.732 305.291 513.905 334.574 523.075 352.778C523.211 353.05 523.106 353.389 522.828 353.525C522.748 353.562 522.661 353.581 522.575 353.581Z" fill="black"/>
<path d="M231.876 207.712C231.765 207.712 231.654 207.681 231.561 207.613C231.308 207.441 231.24 207.095 231.419 206.842C241.595 192.003 245.887 170.069 245.924 169.853C245.98 169.55 246.276 169.352 246.579 169.408C246.881 169.464 247.079 169.76 247.023 170.063C246.98 170.285 242.651 192.441 232.339 207.471C232.228 207.626 232.055 207.712 231.876 207.712Z" fill="black"/>
<path d="M276.071 193.849C275.935 193.849 275.8 193.8 275.688 193.695C275.466 193.479 275.454 193.133 275.664 192.904C275.997 192.546 276.812 191.898 277.936 190.996C281.474 188.15 288.07 182.857 288.835 179.418C289.237 177.621 288.94 176.38 287.977 175.83C287.069 175.311 285.735 175.528 285.149 176.077C284.92 176.281 284.568 176.275 284.358 176.046C284.148 175.818 284.167 175.466 284.389 175.256C285.285 174.435 287.125 174.052 288.533 174.861C289.348 175.33 290.607 176.577 289.922 179.665C289.07 183.481 282.543 188.73 278.634 191.873C277.59 192.713 276.763 193.374 276.479 193.676C276.368 193.787 276.219 193.849 276.071 193.849Z" fill="black"/>
<path d="M270.507 205.921C270.347 205.921 270.193 205.854 270.081 205.718C269.884 205.483 269.915 205.131 270.149 204.933C273.015 202.525 277.448 198.808 282.876 194.362C286.637 191.274 288.718 188.236 288.885 185.556C289.02 183.469 287.965 182.333 287.921 182.283C287.711 182.061 287.718 181.709 287.94 181.493C288.162 181.277 288.514 181.289 288.724 181.511C288.78 181.573 290.151 183.012 289.996 185.587C289.823 188.637 287.662 191.879 283.58 195.226C278.158 199.672 273.725 203.384 270.866 205.786C270.767 205.878 270.637 205.921 270.507 205.921Z" fill="black"/>
<path d="M252.297 192.645C251.877 192.559 251.685 192.262 251.753 191.966C252.056 190.607 252.081 189.36 251.852 187.019C250.599 174.095 258.274 170.007 258.608 169.84C258.873 169.692 259.219 169.803 259.355 170.081C259.497 170.353 259.386 170.686 259.114 170.828C258.811 170.983 251.784 174.774 252.964 186.908C253.204 189.378 253.174 190.718 252.84 192.2C252.778 192.466 252.55 192.645 252.297 192.645Z" fill="black"/>
<path d="M271.68 190.051C271.501 190.051 271.322 189.965 271.217 189.798C271.044 189.539 271.118 189.193 271.378 189.026C278.738 184.179 284.29 177.825 284.58 173.916C284.666 172.774 284.327 171.878 283.536 171.174C283.129 170.816 282.487 170.39 281.647 170.532C280.615 170.692 279.665 171.477 278.788 172.261C277.898 173.051 277.052 173.928 276.237 174.78C275.885 175.145 275.54 175.503 275.181 175.861C273.273 177.788 271.198 179.597 269.426 181.116C268.957 181.517 268.488 181.944 268.018 182.376C266.833 183.469 265.604 184.593 264.208 185.395C263.418 185.846 262.714 186.062 262.096 186.013C260.515 185.951 259.589 185.649 259.003 185.006C258.305 184.247 258.249 183.135 258.299 182.049C258.311 181.74 258.502 181.487 258.885 181.517C259.194 181.53 259.429 181.789 259.416 182.098C259.367 183.24 259.484 183.883 259.824 184.253C260.182 184.642 260.923 184.852 262.146 184.901C262.578 184.889 263.06 184.766 263.652 184.426C264.937 183.685 266.122 182.598 267.265 181.548C267.747 181.11 268.222 180.671 268.704 180.264C270.464 178.763 272.514 176.973 274.391 175.077C274.743 174.725 275.089 174.367 275.435 174.002C276.268 173.138 277.127 172.249 278.047 171.427C279.053 170.532 280.146 169.637 281.48 169.427C282.468 169.285 283.438 169.587 284.283 170.341C285.333 171.273 285.809 172.502 285.698 173.996C285.327 179.004 278.337 185.784 271.995 189.959C271.896 190.021 271.791 190.051 271.68 190.051Z" fill="black"/>
<path d="M286.543 124.855C284.462 124.855 281.986 124.534 279.053 123.891C277.052 123.453 275.342 122.879 273.804 122.125C273.526 121.989 273.415 121.656 273.551 121.378C273.687 121.1 274.026 120.983 274.298 121.125C275.749 121.835 277.386 122.385 279.294 122.804C285.463 124.157 289.458 124.058 291.866 122.502C293.318 121.569 294.256 120.038 294.725 117.827C295.022 116.456 295.596 113.017 296.041 109.991C296.374 107.688 297.776 92.1821 297.788 92.0277C297.819 91.719 298.041 91.5152 298.393 91.5214C298.702 91.5523 298.925 91.8178 298.9 92.1265C298.844 92.7687 297.486 107.824 297.146 110.152C296.751 112.826 296.152 116.506 295.818 118.062C295.281 120.575 294.182 122.335 292.472 123.441C291.008 124.385 289.063 124.855 286.543 124.855Z" fill="black"/>
<path d="M264.208 133.08C263.832 133.037 263.615 132.753 263.653 132.45L266.685 109.096C266.722 108.787 267.018 108.558 267.308 108.614C267.611 108.651 267.827 108.929 267.79 109.238L264.758 132.592C264.727 132.876 264.486 133.08 264.208 133.08Z" fill="black"/>
<path d="M265.61 109.936C263.69 109.936 261.794 109.17 260.374 107.7C257.576 104.81 257.656 100.185 260.546 97.3817C263.443 94.5967 268.068 94.6647 270.859 97.5608C271.748 98.4809 272.378 99.6109 272.687 100.84C272.761 101.136 272.582 101.445 272.279 101.519C271.977 101.605 271.674 101.42 271.6 101.118C271.34 100.08 270.803 99.1169 270.05 98.3389C267.679 95.8935 263.764 95.8194 261.312 98.1907C258.861 100.562 258.793 104.477 261.164 106.928C263.171 109.003 266.308 109.423 268.778 107.935C269.037 107.781 269.383 107.861 269.544 108.126C269.698 108.386 269.618 108.732 269.352 108.892C268.191 109.596 266.901 109.936 265.61 109.936Z" fill="black"/>
<path d="M298.035 98.2275C297.776 98.2275 297.541 98.0422 297.492 97.7829C297.436 97.5358 296.911 95.5042 294.034 96.0229C293.75 96.1094 293.441 95.8809 293.385 95.5783C293.33 95.2696 293.527 94.9793 293.83 94.9238C297.825 94.1642 298.579 97.5235 298.591 97.5605C298.653 97.8631 298.455 98.1595 298.153 98.2151C298.109 98.2213 298.072 98.2275 298.035 98.2275Z" fill="black"/>
<path d="M279.387 96.5295C279.232 96.5295 279.078 96.4677 278.967 96.338C278.763 96.1034 278.788 95.7514 279.016 95.5476C282.95 92.0834 286 94.8622 286.025 94.8869C286.247 95.0968 286.259 95.4488 286.05 95.6773C285.833 95.8996 285.488 95.9119 285.259 95.702C285.16 95.6155 282.9 93.6086 279.751 96.3874C279.646 96.4862 279.516 96.5295 279.387 96.5295Z" fill="black"/>
<path d="M286.402 133.333C286.062 133.315 285.827 133.049 285.846 132.74L286.334 124.262C286.352 123.953 286.624 123.712 286.926 123.737C287.235 123.756 287.47 124.021 287.451 124.324L286.963 132.802C286.939 133.105 286.692 133.333 286.402 133.333Z" fill="black"/>
<path d="M271.106 99.2836C270.902 99.2836 270.711 99.1724 270.612 98.981C270.47 98.7093 270.575 98.3697 270.853 98.2276C279.158 93.9359 280.628 84.5745 280.64 84.4818C280.677 84.2472 280.856 84.0619 281.091 84.0125C281.313 83.9693 281.56 84.0743 281.678 84.2842C281.882 84.6362 286.772 92.8676 298.295 91.5276C298.635 91.5462 298.882 91.7129 298.912 92.0217C298.95 92.3304 298.727 92.6083 298.425 92.6392C288.711 93.7322 283.345 88.3351 281.48 85.933C280.764 88.7859 278.368 95.6032 271.371 99.2218C271.279 99.2651 271.192 99.2836 271.106 99.2836Z" fill="black"/>
<path d="M263.097 106.428C262.868 106.428 262.652 106.28 262.572 106.058C262.467 105.768 262.621 105.446 262.912 105.348L267.685 103.631L263.986 98.8638C263.795 98.6167 263.844 98.2648 264.085 98.0795C264.326 97.8881 264.678 97.9313 264.869 98.1783L269.037 103.557C269.149 103.699 269.186 103.884 269.13 104.057C269.081 104.224 268.951 104.366 268.784 104.421L263.288 106.397C263.227 106.416 263.159 106.428 263.097 106.428Z" fill="black"/>
<path d="M279.356 81.4374C279.171 81.4374 278.992 81.3447 278.887 81.178L276.559 77.4853C276.392 77.2259 276.472 76.8801 276.732 76.7134C276.991 76.5528 277.337 76.6269 277.504 76.8863L279.832 80.579C279.998 80.8384 279.918 81.1842 279.659 81.3509C279.56 81.4127 279.461 81.4374 279.356 81.4374Z" fill="black"/>
<path d="M452.179 411.682C451.845 411.664 451.604 411.411 451.623 411.096C451.629 410.849 452.642 386.34 451.58 358.021C451.567 357.712 451.808 357.453 452.117 357.446C452.438 357.434 452.685 357.675 452.691 357.984C453.759 386.34 452.741 410.898 452.728 411.145C452.722 411.442 452.475 411.682 452.179 411.682Z" fill="black"/>
<path d="M451.296 313.344C450.92 313.301 450.703 313.023 450.74 312.714C451.951 302.766 454.18 294.942 455.835 290.132C455.934 289.835 456.249 289.687 456.545 289.786C456.835 289.885 456.99 290.206 456.891 290.496C455.248 295.257 453.044 303.001 451.852 312.856C451.815 313.134 451.574 313.344 451.296 313.344Z" fill="black"/>
<path d="M484.054 261.38C482.906 261.38 481.8 261.349 480.942 261.318C478.941 261.232 477.404 260.917 476.101 260.318C473.859 259.281 472.501 257.354 471.945 254.427C471.093 250.006 471.747 245.498 472.377 241.151L472.464 240.533C472.871 237.686 475.669 224.731 475.78 224.422C475.879 224.126 476.212 223.971 476.49 224.089C476.78 224.194 476.928 224.509 476.823 224.799C476.731 225.194 474.001 237.637 473.563 240.694L473.476 241.311C472.859 245.572 472.223 249.981 473.038 254.223C473.526 256.767 474.681 258.435 476.564 259.305C477.731 259.843 479.133 260.133 480.985 260.213C482.838 260.287 485.549 260.312 487.444 260.176C487.753 260.17 488.019 260.386 488.044 260.695C488.068 261.004 487.834 261.269 487.525 261.294C486.475 261.349 485.24 261.38 484.054 261.38Z" fill="black"/>
<path d="M498.375 241.089C498.288 241.089 498.196 241.064 498.116 241.021C479.374 231.017 475.088 223.959 474.909 223.656C474.755 223.391 474.841 223.051 475.107 222.897C475.366 222.743 475.712 222.829 475.867 223.095C475.91 223.162 480.239 230.221 498.634 240.039C498.906 240.187 499.011 240.521 498.863 240.792C498.764 240.978 498.572 241.089 498.375 241.089Z" fill="black"/>
<path d="M474.817 232.283C474.638 232.283 474.459 232.197 474.348 232.03C474.181 231.777 474.249 231.431 474.508 231.258C475.274 230.752 476.552 230.177 478.837 231.097C479.121 231.209 479.263 231.536 479.146 231.82C479.035 232.104 478.707 232.246 478.423 232.129C476.663 231.419 475.774 231.764 475.126 232.19C475.033 232.252 474.922 232.283 474.817 232.283Z" fill="black"/>
<path d="M500.351 252.377C500.209 252.377 500.067 252.371 499.931 252.358C498.764 252.284 497.652 251.895 496.713 251.241C496.46 251.062 496.399 250.716 496.571 250.463C496.751 250.203 497.096 250.154 497.35 250.321C498.128 250.864 499.048 251.185 500.005 251.247C501.388 251.352 502.759 250.876 503.815 249.95C504.871 249.024 505.501 247.739 505.593 246.338C505.686 244.936 505.223 243.584 504.296 242.528C503.37 241.472 502.086 240.842 500.69 240.749C499.64 240.675 498.603 240.928 497.701 241.453C497.43 241.595 497.09 241.515 496.936 241.249C496.781 240.984 496.874 240.644 497.14 240.484C498.233 239.848 499.449 239.557 500.764 239.631C502.463 239.743 504.019 240.508 505.143 241.787C506.26 243.065 506.822 244.707 506.711 246.406C506.6 248.104 505.834 249.66 504.556 250.784C503.37 251.821 501.894 252.377 500.351 252.377Z" fill="black"/>
<path d="M501.228 249.648C501.086 249.648 500.944 249.592 500.833 249.481L497.325 245.973C497.202 245.85 497.146 245.677 497.171 245.504C497.195 245.331 497.3 245.177 497.449 245.09L502.16 242.46C502.432 242.312 502.772 242.404 502.92 242.676C503.068 242.948 502.969 243.287 502.704 243.435L498.634 245.708L501.617 248.69C501.833 248.907 501.833 249.265 501.617 249.481C501.518 249.592 501.37 249.648 501.228 249.648Z" fill="black"/>
<path d="M131.74 249.086C131.499 249.086 131.252 249.073 131.005 249.048C127.288 248.647 124.589 245.3 124.991 241.583C125.392 237.872 128.721 235.198 132.45 235.568C133.803 235.716 135.062 236.254 136.094 237.124C136.328 237.328 136.359 237.674 136.162 237.909C135.964 238.143 135.612 238.18 135.371 237.977C134.513 237.248 133.457 236.803 132.327 236.68C129.215 236.34 126.423 238.594 126.09 241.7C125.929 243.201 126.362 244.683 127.313 245.856C128.264 247.029 129.616 247.77 131.116 247.931C132.142 248.054 133.179 247.869 134.099 247.443C134.377 247.301 134.71 247.431 134.84 247.708C134.97 247.993 134.852 248.32 134.568 248.449C133.698 248.876 132.728 249.086 131.74 249.086Z" fill="black"/>
<path d="M130.227 245.961C130.054 245.961 129.881 245.874 129.77 245.726C129.591 245.473 129.653 245.127 129.906 244.948L133.642 242.318L129.733 239.15C129.492 238.952 129.455 238.6 129.653 238.365C129.844 238.118 130.196 238.094 130.437 238.279L134.92 241.91C135.056 242.021 135.136 242.188 135.13 242.367C135.124 242.54 135.037 242.7 134.895 242.799L130.554 245.856C130.449 245.924 130.338 245.961 130.227 245.961Z" fill="black"/>
<path d="M482.412 283.629C481.826 283.629 481.227 283.574 480.615 283.456C479.658 283.271 478.917 282.734 478.417 281.863C476.293 278.14 479.38 269.031 479.72 268.056L480.27 260.763C480.288 260.454 480.597 260.256 480.869 260.244C481.177 260.269 481.406 260.534 481.381 260.843L480.832 268.216C480.77 268.457 477.441 277.899 479.387 281.314C479.72 281.9 480.189 282.246 480.819 282.363C490.508 284.197 497.208 268.093 497.276 267.932C497.399 267.648 497.714 267.518 498.005 267.63C498.289 267.747 498.425 268.074 498.307 268.358C498.042 269.013 491.934 283.629 482.412 283.629Z" fill="black"/>
<path d="M482.609 252.365C481.918 252.365 481.177 252.198 480.38 251.871C480.096 251.747 479.96 251.426 480.077 251.142C480.195 250.852 480.534 250.722 480.806 250.839C482.004 251.346 483.029 251.389 483.85 250.963C485.227 250.259 485.66 248.456 485.666 248.437C485.74 248.141 486.043 247.962 486.333 248.017C486.629 248.085 486.821 248.382 486.753 248.684C486.734 248.777 486.209 251 484.369 251.951C483.832 252.229 483.245 252.365 482.609 252.365Z" fill="black"/>
<path d="M297.937 99.1229C297.851 99.1229 297.764 99.1044 297.684 99.0612C297.406 98.9192 297.301 98.5857 297.437 98.3078C299.981 93.2875 302.89 84.0433 293.75 78.6401C284.031 72.8972 276.96 77.3865 276.664 77.578C276.565 77.6397 276.417 77.6583 276.337 77.6706C271.434 77.4545 267.704 78.7883 265.246 81.5856C260.485 87.0135 262.023 96.2886 262.041 96.3812C262.091 96.69 261.893 96.974 261.584 97.0296C261.269 97.0728 260.991 96.8752 260.942 96.5726C260.874 96.1712 259.299 86.6739 264.412 80.8446C267.068 77.8126 271.026 76.3491 276.213 76.5467C277.393 75.8366 284.667 71.9648 294.325 77.6768C304.619 83.7654 300.63 94.4854 298.437 98.8142C298.332 99.0118 298.141 99.1229 297.937 99.1229Z" fill="black"/>
<path d="M282.208 150.117C282.066 150.117 281.931 150.062 281.826 149.963L263.825 132.926C263.603 132.71 263.59 132.358 263.8 132.135C264.01 131.907 264.369 131.901 264.591 132.111L281.893 148.493L285.839 132.382C285.913 132.086 286.222 131.919 286.512 131.968C286.815 132.043 286.994 132.345 286.92 132.648L282.746 149.685C282.702 149.876 282.554 150.031 282.363 150.086C282.313 150.111 282.258 150.117 282.208 150.117Z" fill="black"/>
<path d="M279.356 158.163C278.881 158.027 278.726 157.706 278.831 157.416L281.684 149.376C281.783 149.086 282.098 148.944 282.394 149.036C282.684 149.141 282.833 149.463 282.734 149.747L279.881 157.787C279.801 158.015 279.585 158.163 279.356 158.163Z" fill="black"/>
<path d="M268.556 158.163C268.396 158.163 268.229 158.089 268.124 157.953L255.119 141.818C254.946 141.596 254.959 141.281 255.156 141.083L263.814 132.141C264.03 131.925 264.382 131.913 264.604 132.123C264.826 132.339 264.826 132.691 264.616 132.913L256.305 141.503L269.001 157.256C269.192 157.496 269.155 157.848 268.914 158.04C268.809 158.114 268.68 158.163 268.556 158.163Z" fill="black"/>
<path d="M287.13 158.163C286.945 158.163 286.759 158.064 286.654 157.892L281.733 149.852C281.572 149.592 281.653 149.246 281.918 149.086C282.19 148.931 282.523 149.006 282.684 149.271L287.605 157.311C287.766 157.57 287.686 157.916 287.42 158.077C287.328 158.132 287.229 158.163 287.13 158.163Z" fill="black"/>
<path d="M292.54 158.163C292.188 158.132 291.96 157.861 291.984 157.558L293.306 142.25L285.945 132.87C285.754 132.623 285.797 132.271 286.038 132.086C286.278 131.894 286.63 131.938 286.822 132.178L294.318 141.731C294.405 141.843 294.448 141.985 294.436 142.127L293.096 157.657C293.071 157.941 292.83 158.163 292.54 158.163Z" fill="black"/>
<path d="M266.653 114.024C266.511 114.024 266.369 113.968 266.258 113.857C264.572 112.159 263.38 109.547 263.331 109.435C263.208 109.151 263.331 108.824 263.609 108.701C263.887 108.565 264.22 108.694 264.344 108.979C264.356 109.003 265.505 111.516 267.042 113.066C267.258 113.289 267.258 113.641 267.042 113.857C266.937 113.968 266.795 114.024 266.653 114.024Z" fill="black"/>
<path d="M290.996 112.307C290.743 112.307 290.515 112.134 290.453 111.881C290.379 111.584 290.564 111.282 290.86 111.201C291.07 111.152 291.28 111.109 291.49 111.065C291.935 110.967 292.361 110.88 292.75 110.726C293.318 110.497 293.732 110.139 293.88 109.738C293.997 109.417 293.96 109.022 293.794 108.67C293.46 107.978 292.787 107.638 292.275 107.472C292.157 107.435 291.231 107.237 291.027 107.2C290.947 107.2 290.867 107.181 290.786 107.144C290.589 107.045 290.471 106.836 290.478 106.619C290.484 106.471 290.793 98.7894 290.793 98.7894C290.805 98.4806 291.077 98.2768 291.373 98.2583C291.682 98.2707 291.923 98.53 291.91 98.8388C291.725 103.489 291.645 105.384 291.614 106.156C292.015 106.23 292.423 106.348 292.608 106.409C293.627 106.737 294.399 107.367 294.794 108.188C295.09 108.812 295.14 109.516 294.917 110.115C294.658 110.825 294.034 111.417 293.151 111.763C292.67 111.949 292.182 112.053 291.713 112.152C291.515 112.189 291.317 112.239 291.12 112.288C291.089 112.301 291.04 112.307 290.996 112.307Z" fill="black"/>
<path d="M535.704 290.873C535.524 290.873 535.345 290.786 535.234 290.619C535.067 290.36 535.135 290.014 535.395 289.848C539.402 287.223 539.409 279.628 537.649 275.342C536.278 271.989 533.666 268.815 530.09 266.16C527.454 264.202 524.619 262.782 521.606 261.288L520.612 260.794C518.37 259.676 515.252 257.842 514.029 254.822C512.411 250.827 513.461 247.097 514.696 243.985C514.924 243.417 515.165 242.836 515.412 242.244C516.832 238.81 518.438 234.914 518.265 231.277C518.111 228.121 516.536 224.015 513.813 222.267C510.206 219.958 506.853 218.216 504.13 217.234C501.796 216.401 481.116 209.324 473.44 218.303C470.908 221.261 469.506 225.435 469.148 231.067C469.018 233.08 469.377 235.111 469.716 237.081C470.056 239.026 470.408 241.039 470.309 243.077C470.13 246.856 468.654 250.432 466.147 253.155C465.276 254.1 464.264 254.853 463.282 255.588C462.43 256.224 461.633 256.823 460.904 257.539C459.404 259.021 458.255 260.849 457.595 262.807C456.477 266.104 456.347 270.655 459.336 273.57C459.558 273.786 459.564 274.138 459.342 274.36C459.132 274.589 458.78 274.589 458.552 274.367C455.199 271.094 455.31 266.061 456.539 262.449C457.255 260.324 458.49 258.354 460.126 256.743C460.904 255.977 461.775 255.323 462.615 254.693C463.597 253.958 464.529 253.26 465.326 252.396C467.654 249.864 469.025 246.541 469.198 243.022C469.284 241.107 468.957 239.243 468.617 237.266C468.265 235.235 467.901 233.135 468.037 230.993C468.413 225.114 469.901 220.723 472.594 217.58C480.751 208.027 502.099 215.314 504.507 216.185C507.31 217.185 510.738 218.963 514.418 221.322C517.598 223.366 519.222 227.886 519.383 231.221C519.568 235.105 517.907 239.119 516.443 242.664C516.196 243.25 515.962 243.824 515.739 244.386C514.578 247.301 513.597 250.765 515.06 254.39C516.141 257.058 519.031 258.744 521.112 259.781L522.106 260.275C525.021 261.732 528.04 263.233 530.757 265.252C534.493 268.025 537.229 271.365 538.674 274.904C540.545 279.449 540.662 287.711 536 290.768C535.92 290.842 535.808 290.873 535.704 290.873Z" fill="black"/>
<path d="M497.8 268.704C497.479 268.698 497.238 268.438 497.244 268.13L497.621 251.963C497.627 251.654 497.874 251.414 498.177 251.414C498.498 251.42 498.739 251.679 498.732 251.988L498.356 268.16C498.35 268.457 498.103 268.704 497.8 268.704Z" fill="black"/>
<path d="M535.055 394.256C515.511 394.256 489.631 374.471 475.471 359.126C475.329 358.972 475.286 358.749 475.36 358.552C475.391 358.471 478.497 350.345 483.752 343.361C489.291 336.006 493.478 331.986 493.515 331.943C493.706 331.776 493.984 331.746 494.2 331.875C494.435 332.023 517.709 346.831 530.325 359.163C530.547 359.379 530.553 359.731 530.331 359.953C530.115 360.182 529.763 360.176 529.54 359.96C517.882 348.567 497.022 335.012 493.972 333.055C492.916 334.117 489.26 337.896 484.641 344.028C480.059 350.104 477.145 357.07 476.527 358.626C497.819 381.597 529.33 400.425 546.077 390.286C573.439 373.675 551.709 326.991 540.032 301.914L539.241 300.215C538.797 299.252 538.321 298.054 537.766 296.665C535.129 290.014 531.146 279.967 522.173 274.502C516.326 270.939 510.323 268.735 498.455 268.735C498.146 268.735 497.893 268.488 497.893 268.173C497.893 267.864 498.14 267.611 498.455 267.611C510.583 267.611 516.746 269.883 522.754 273.551C532.041 279.208 536.271 289.878 538.797 296.251C539.346 297.628 539.816 298.814 540.254 299.752L541.045 301.45C552.864 326.843 574.872 374.119 546.658 391.243C543.212 393.336 539.279 394.256 535.055 394.256Z" fill="black"/>
<path d="M450.339 275.583C443.701 275.583 437.118 273.588 431.919 268.371C428.325 264.758 425.354 260.139 422.841 254.236C419.315 245.936 417.234 235.982 416.993 226.188C416.987 225.88 417.203 225.589 417.549 225.614C417.852 225.614 418.099 225.855 418.105 226.164C418.346 235.809 420.396 245.621 423.866 253.797C426.324 259.565 429.214 264.073 432.709 267.58C442.274 277.182 456.841 275.361 467.277 270.458C471.131 268.642 475.496 267.685 480.263 267.605C480.572 267.605 480.825 267.852 480.832 268.154C480.838 268.463 480.591 268.716 480.282 268.722C475.675 268.797 471.464 269.717 467.753 271.464C462.59 273.897 456.44 275.583 450.339 275.583Z" fill="black"/>
<path d="M448.171 316.475C435.914 315.573 425.076 308.484 417.994 303.223C398.709 288.934 385.624 260.497 382.993 227.145C382.968 226.837 383.197 226.571 383.506 226.546C383.783 226.516 384.08 226.75 384.105 227.059C386.71 260.096 399.623 288.23 418.654 302.334C425.632 307.508 436.284 314.48 448.215 315.363C448.523 315.382 448.752 315.653 448.733 315.962C448.709 316.246 448.462 316.475 448.171 316.475Z" fill="black"/>
<path d="M237.174 339.977C236.89 339.977 236.649 339.761 236.618 339.477C234.413 318.778 219.396 313.202 217.277 312.516C209.417 318.21 200.345 322.569 191.7 324.805C185.5 326.417 180.023 326.886 174.966 326.225C167.994 325.33 161.547 321.019 157.286 314.387C155.001 310.837 153.489 306.835 152.019 302.97C151.13 300.623 150.21 298.196 149.129 295.905C145.831 288.897 142.102 283.549 137.736 279.547C135.636 277.621 133.037 276.392 130.591 276.157C130.282 276.126 130.06 275.855 130.085 275.546C130.116 275.237 130.369 275.052 130.696 275.04C133.376 275.293 136.217 276.633 138.489 278.72C142.966 282.82 146.776 288.285 150.142 295.424C151.241 297.758 152.167 300.203 153.062 302.568C154.507 306.384 156.002 310.324 158.225 313.776C162.313 320.124 168.463 324.255 175.108 325.114C180.017 325.731 185.358 325.293 191.422 323.718C200.012 321.495 209.04 317.129 216.845 311.442C216.981 311.343 217.16 311.306 217.315 311.355C217.494 311.405 235.278 316.4 237.723 339.347C237.76 339.656 237.538 339.934 237.229 339.965C237.217 339.971 237.192 339.977 237.174 339.977Z" fill="black"/>
<path d="M476.873 247.449C476.62 247.449 476.392 247.27 476.33 247.017C476.021 245.708 475.434 242.571 476.534 241.725C477.201 241.2 478.621 241.682 479.714 242.182L480.98 235.222C481.029 234.92 481.282 234.704 481.628 234.778C481.931 234.827 482.134 235.124 482.073 235.426L480.671 243.108C480.64 243.281 480.523 243.429 480.368 243.509C480.214 243.584 480.029 243.584 479.862 243.503C478.757 242.923 477.478 242.521 477.188 242.614C476.879 242.861 476.972 244.88 477.41 246.758C477.478 247.06 477.293 247.357 476.997 247.431C476.954 247.437 476.91 247.449 476.873 247.449Z" fill="black"/>
<path d="M408.465 229.943C408.367 229.943 408.262 229.912 408.169 229.856C407.91 229.69 407.829 229.35 407.99 229.084C408.021 229.035 410.929 224.367 414.215 219.982C417.543 215.548 417.58 211.189 415.925 209.336C413.702 206.86 406.205 199.969 403.062 200.722C402.395 200.889 401.969 201.426 401.735 202.365C400.29 208.28 409.491 213.961 409.583 214.017C409.843 214.171 409.929 214.523 409.768 214.783C409.608 215.042 409.256 215.122 409.003 214.968C408.595 214.721 399.011 208.799 400.648 202.099C401.062 200.407 402.043 199.827 402.791 199.641C407.286 198.437 416.666 208.49 416.753 208.589C419.087 211.201 418.395 216.271 415.104 220.649C411.843 224.996 408.959 229.628 408.935 229.671C408.836 229.844 408.651 229.943 408.465 229.943Z" fill="black"/>
<path d="M409.298 202.76C408.99 202.76 408.736 202.513 408.736 202.198V172.496C408.736 172.187 408.983 171.934 409.298 171.934C409.607 171.934 409.86 172.181 409.86 172.496V202.198C409.86 202.507 409.613 202.76 409.298 202.76Z" fill="black"/>
<path d="M258.86 182.808C258.552 182.808 258.305 182.561 258.305 182.246V170.989C258.305 163.301 264.56 157.039 272.254 157.039H368.858C369.167 157.039 369.42 157.286 369.42 157.601C369.42 157.91 369.173 158.163 368.858 158.163H272.254C265.178 158.163 259.416 163.918 259.416 170.995V182.252C259.416 182.561 259.163 182.808 258.86 182.808Z" fill="black"/>
<path d="M395.905 220.063H272.254C270.186 220.063 268.963 219.921 267.185 219.099C266.907 218.97 266.783 218.636 266.913 218.358C267.049 218.074 267.382 217.969 267.654 218.087C269.253 218.828 270.322 218.945 272.261 218.945H395.917C400.61 218.945 404.593 216.716 406.847 212.819C407.002 212.548 407.354 212.455 407.607 212.616C407.878 212.77 407.965 213.11 407.811 213.375C405.347 217.624 401.006 220.063 395.905 220.063Z" fill="black"/>
<path d="M386.822 229.523C386.612 229.523 386.408 229.399 386.315 229.196C384.148 224.54 383.012 219.68 382.999 219.63C382.931 219.334 383.117 219.031 383.419 218.963C383.716 218.914 384.018 219.087 384.086 219.383C384.099 219.433 385.204 224.181 387.328 228.732C387.458 229.01 387.334 229.344 387.056 229.473C386.982 229.498 386.902 229.523 386.822 229.523Z" fill="black"/>
<path d="M495.114 395.985C491.539 395.985 487.97 394.621 485.246 391.904L438.223 344.88C432.783 339.44 432.783 330.591 438.223 325.151L469.537 293.837C474.977 288.396 483.826 288.396 489.266 293.837L513.812 318.383C514.028 318.599 514.028 318.957 513.812 319.173C513.596 319.389 513.238 319.389 513.022 319.173L488.476 294.627C486.061 292.212 482.838 290.885 479.398 290.885C475.959 290.885 472.736 292.212 470.321 294.627L439.007 325.941C434.005 330.943 434.005 339.088 439.007 344.09L486.031 391.113C491.032 396.115 499.177 396.115 504.179 391.113L509.737 385.556C509.953 385.339 510.311 385.339 510.527 385.556C510.743 385.772 510.743 386.13 510.527 386.346L504.97 391.904C502.259 394.627 498.689 395.985 495.114 395.985Z" fill="black"/>
<path d="M478.009 354.433C478.126 354.618 478.126 354.859 478.003 355.038C477.898 355.193 477.719 355.291 477.534 355.291C469.463 354.044 453.685 338.44 452.419 334.111C451.703 331.659 452.994 330.048 454.105 329.288C453.315 327.973 453.506 326.435 454.661 325.212C455.112 324.737 455.593 324.397 456.1 324.194C457.001 323.842 458.008 323.971 459.095 324.595C459.169 324.638 459.243 324.706 459.286 324.78L478.009 354.433ZM458.428 325.496C457.952 325.243 457.526 325.12 457.137 325.12C456.921 325.12 456.717 325.157 456.52 325.237C456.168 325.379 455.822 325.626 455.482 325.984C454.556 326.966 454.507 328.133 455.353 329.115C455.464 329.251 455.507 329.424 455.476 329.597C455.439 329.77 455.322 329.918 455.155 329.986C455.056 330.029 452.71 331.122 453.494 333.802C454.618 337.643 468.512 351.407 476.336 353.877" fill="black"/>
<path d="M470.809 335.932C470.704 335.932 470.599 335.901 470.513 335.846C468.321 334.463 462.43 329.411 460.744 327.738C460.546 327.54 460.312 327.324 460.059 327.096C458.805 325.941 457.088 324.36 457.082 322.539C457.076 321.631 457.502 320.772 458.348 319.994C461.17 317.395 463.757 319.859 465.468 321.507C465.795 321.822 466.271 322.298 466.839 322.872C468.605 324.638 471.272 327.3 472.89 328.541C474.342 329.646 478.744 333.005 480.498 332.178C481.752 331.579 482.141 330.436 480.597 326.108C479.485 322.989 479.38 320.075 480.325 318.488C480.739 317.79 481.35 317.364 482.085 317.253C485.438 316.752 486.334 319.321 487.038 321.402C487.198 321.872 487.359 322.335 487.538 322.755C487.896 323.57 488.273 324.657 488.717 325.91C489.662 328.596 490.835 331.937 492.237 333.796C492.361 333.956 492.379 334.179 492.299 334.364L470.809 335.932ZM460.904 319.982C460.299 319.982 459.719 320.241 459.101 320.81C458.49 321.371 458.194 321.94 458.194 322.532C458.194 323.86 459.707 325.249 460.812 326.268C461.071 326.509 461.324 326.738 461.534 326.948C463.115 328.516 471.853 335.34 474.064 336.797L491.224 335.086C489.977 333.055 488.501 328.677 487.655 326.268C487.223 325.033 486.846 323.965 486.5 323.187C486.309 322.742 486.136 322.248 485.969 321.748C485.173 319.395 484.561 318.012 482.246 318.346C481.832 318.407 481.517 318.642 481.276 319.05C480.523 320.309 480.665 322.995 481.64 325.719C483.024 329.584 483.351 332.048 480.974 333.178C478.905 334.172 475.379 331.832 472.211 329.418C470.531 328.133 467.833 325.441 466.048 323.656C465.486 323.094 465.011 322.619 464.69 322.31C463.171 320.853 462.01 319.982 460.904 319.982Z" fill="black"/>
<path d="M467.023 341.231C466.9 341.231 466.776 341.188 466.671 341.107C466.671 341.107 463.769 338.761 460.527 336.105C458.236 334.222 455.599 331.153 454.76 330.146C454.531 330.208 454.29 330.078 454.173 329.862C454.025 329.591 454.13 329.257 454.401 329.109C454.475 329.072 454.55 329.035 454.599 329.01C454.827 328.905 455.204 328.93 455.358 329.121C455.389 329.158 458.607 333.092 461.237 335.247C464.473 337.896 467.375 340.243 467.375 340.243C467.616 340.434 467.653 340.792 467.462 341.027C467.351 341.157 467.184 341.231 467.023 341.231Z" fill="black"/>
<path d="M398.282 230.554C394.602 230.56 391.193 230.319 388.495 229.862C384.826 229.245 383.023 228.35 382.992 227.108C382.955 225.991 383.746 225.503 385.209 224.984C385.5 224.879 385.821 225.034 385.919 225.324C386.018 225.614 385.87 225.929 385.574 226.034C384.079 226.559 384.085 226.818 384.098 227.071C384.104 227.331 384.938 228.127 388.674 228.757C391.872 229.294 396.108 229.51 400.616 229.399C411.256 229.109 417.017 227.121 416.993 226.182C416.987 226.065 416.826 225.021 412.071 224.354C411.762 224.311 411.552 224.027 411.596 223.724C411.639 223.422 411.935 223.206 412.225 223.249C416.147 223.798 418.073 224.749 418.104 226.151C418.191 229.226 406.717 230.35 400.647 230.511C399.851 230.548 399.054 230.554 398.282 230.554Z" fill="black"/>
<path d="M378.231 176.96H302.944C302.636 176.96 302.389 176.713 302.389 176.398C302.389 176.09 302.636 175.836 302.944 175.836H378.238C378.546 175.836 378.799 176.083 378.799 176.398C378.793 176.713 378.546 176.96 378.231 176.96Z" fill="black"/>
<path d="M378.232 189.366H360.281C359.972 189.366 359.719 189.119 359.719 188.804C359.719 188.495 359.966 188.242 360.281 188.242H378.232C378.541 188.242 378.794 188.489 378.794 188.804C378.794 189.113 378.547 189.366 378.232 189.366Z" fill="black"/>
<path d="M346.331 189.366H290.181C289.872 189.366 289.625 189.119 289.625 188.804C289.625 188.495 289.872 188.242 290.181 188.242H346.331C346.64 188.242 346.887 188.489 346.887 188.804C346.887 189.113 346.634 189.366 346.331 189.366Z" fill="black"/>
<path d="M378.232 200.66H290.175C289.866 200.66 289.619 200.413 289.619 200.098C289.619 199.79 289.866 199.536 290.175 199.536H378.232C378.541 199.536 378.794 199.783 378.794 200.098C378.794 200.413 378.547 200.66 378.232 200.66Z" fill="black"/>
<path d="M476.298 215.944C475.989 215.944 475.736 215.697 475.736 215.382V213.511C475.736 206.434 469.981 200.679 462.904 200.679H409.298C408.99 200.679 408.736 200.432 408.736 200.117C408.736 199.808 408.983 199.555 409.298 199.555H462.904C470.599 199.555 476.86 205.816 476.86 213.505V215.376C476.86 215.691 476.607 215.944 476.298 215.944Z" fill="black"/>
<path d="M177.324 234.426C177.016 234.426 176.769 234.179 176.769 233.864V213.505C176.769 205.816 183.024 199.555 190.718 199.555H197.684C197.992 199.555 198.239 199.802 198.239 200.117C198.239 200.426 197.992 200.679 197.684 200.679H190.718C183.641 200.679 177.886 206.434 177.886 213.511V233.87C177.88 234.179 177.633 234.426 177.324 234.426Z" fill="black"/>
<path d="M177.324 280.82C177.016 280.82 176.769 280.573 176.769 280.258V255.928C176.769 255.619 177.016 255.366 177.324 255.366C177.633 255.366 177.88 255.613 177.88 255.928V280.258C177.88 280.573 177.633 280.82 177.324 280.82Z" fill="black"/>
<path d="M262.875 378.621H190.712C183.018 378.621 176.763 372.359 176.763 364.665V360.429C176.763 360.12 177.01 359.867 177.318 359.867C177.627 359.867 177.874 360.114 177.874 360.429V364.665C177.874 371.742 183.629 377.497 190.706 377.497H262.875C263.183 377.497 263.43 377.744 263.43 378.059C263.43 378.374 263.183 378.621 262.875 378.621Z" fill="black"/>
<path d="M452.649 378.621H426.966C426.657 378.621 426.404 378.374 426.404 378.059C426.404 377.75 426.651 377.497 426.966 377.497H452.649C452.957 377.497 453.21 377.744 453.21 378.059C453.204 378.374 452.957 378.621 452.649 378.621Z" fill="black"/>
<path d="M137.488 263.733C136.797 263.733 136.087 263.715 135.358 263.684C135.049 263.671 134.808 263.412 134.821 263.103C134.833 262.807 135.08 262.566 135.377 262.566C145.603 262.98 149.561 260.324 150.098 252.735C150.184 251.506 150.382 248.975 150.382 248.975C150.394 248.783 150.512 248.616 150.678 248.524C152.488 247.573 155.118 245.788 155.31 244.813C155.334 244.695 155.304 244.64 155.26 244.578C153.982 243.053 151.314 240.898 151.29 240.873C151.148 240.755 151.067 240.576 151.086 240.391L152.303 226.219C152.327 225.91 152.593 225.731 152.908 225.713C153.216 225.744 153.439 226.009 153.414 226.318L152.222 240.194C152.914 240.768 154.976 242.503 156.113 243.862C156.39 244.189 156.489 244.596 156.409 245.029C156.075 246.721 152.673 248.715 151.475 249.37C151.419 250.08 151.284 251.858 151.216 252.822C150.592 261.584 145.343 263.733 137.488 263.733Z" fill="black"/>
<path d="M251.71 304.118C251.605 304.118 251.5 304.087 251.408 304.026C251.148 303.859 251.074 303.513 251.241 303.254L260.121 289.551C261.251 287.797 261.337 285.661 260.343 283.833C259.349 281.999 257.509 280.906 255.421 280.906H173.793C170.007 280.906 166.525 282.802 164.462 285.976L156.718 297.715C156.552 297.974 156.2 298.042 155.947 297.875C155.693 297.709 155.619 297.357 155.792 297.103L163.53 285.371C165.79 281.876 169.631 279.788 173.793 279.788H255.415C257.916 279.788 260.121 281.104 261.319 283.296C262.51 285.494 262.412 288.057 261.053 290.156L252.173 303.859C252.068 304.026 251.889 304.118 251.71 304.118Z" fill="black"/>
<path d="M241.534 309.453C241.429 309.453 241.324 309.423 241.231 309.361C240.972 309.194 240.897 308.848 241.07 308.589L255.44 286.519L173.799 286.488C172.786 286.488 172.045 286.692 171.193 287.211L166.21 293.553C166.018 293.787 165.672 293.837 165.425 293.645C165.184 293.454 165.141 293.108 165.333 292.861L170.378 286.445C171.588 285.648 172.539 285.377 173.799 285.377H255.421C255.983 285.377 256.274 285.704 256.422 285.976C256.57 286.247 256.681 286.667 256.372 287.143L242.003 309.213C241.892 309.361 241.713 309.453 241.534 309.453Z" fill="black"/>
<path d="M210.188 357.508H198.739C198.431 357.508 198.184 357.261 198.184 356.946C198.184 356.637 198.431 356.384 198.739 356.384H210.188C214.325 356.384 218.142 354.316 220.395 350.839L222.334 347.844C222.501 347.585 222.847 347.517 223.106 347.677C223.366 347.844 223.44 348.19 223.267 348.449L221.328 351.444C218.87 355.242 214.708 357.508 210.188 357.508Z" fill="black"/>
<path d="M176.034 411.547C175.75 411.547 175.503 411.324 175.478 411.04C172.971 383.481 168.346 360.769 168.303 360.546C168.241 360.244 168.432 359.947 168.735 359.886C169.05 359.824 169.334 360.021 169.396 360.318C169.445 360.546 174.082 383.314 176.59 410.935C176.62 411.244 176.392 411.516 176.083 411.547C176.065 411.54 176.046 411.547 176.034 411.547Z" fill="black"/>
<path d="M84.562 411.886C84.2595 411.886 84.0124 411.639 84.0063 411.337C83.8334 402.469 83.9877 391.792 84.1421 381.468C84.3459 367.66 84.5312 354.618 84.0063 345.461C81.0422 293.441 92.8984 281.388 93.4048 280.9C93.6271 280.684 93.9791 280.696 94.189 280.918C94.4052 281.134 94.399 281.493 94.1767 281.702C94.0532 281.826 82.1908 294.053 85.124 345.399C85.6489 354.6 85.4574 367.66 85.2598 381.486C85.1116 391.805 84.9511 402.469 85.124 411.318C85.1301 411.627 84.8831 411.88 84.5744 411.892C84.5744 411.886 84.5682 411.886 84.562 411.886Z" fill="black"/>
<path d="M223.966 315.882C223.811 315.882 223.663 315.82 223.552 315.697C223.342 315.468 223.36 315.116 223.589 314.912C226.584 312.183 228.998 309.54 230.98 306.829C232.16 305.217 233.265 303.464 234.266 301.623C234.729 300.771 235.068 299.876 235.427 298.931C235.809 297.925 236.211 296.881 236.76 295.912C237.514 294.584 238.533 293.868 239.792 293.775C241.188 293.664 242.645 294.25 243.43 295.251C244.09 296.097 244.35 297.295 244.152 298.629C243.985 299.783 243.572 301.074 242.898 302.574C242.009 304.569 240.892 307.391 241.509 308.855C241.694 309.299 242.046 309.614 242.577 309.806L242.923 309.861C246.066 310.472 249.03 306.656 251.229 303.26C251.395 303.001 251.741 302.933 252.001 303.093C252.26 303.26 252.334 303.606 252.161 303.865C250.624 306.242 247.06 311.8 242.713 310.96L242.281 310.88C241.361 310.553 240.787 310.028 240.472 309.293C239.854 307.836 240.274 305.687 241.867 302.117C242.497 300.716 242.88 299.524 243.034 298.474C243.121 297.875 243.176 296.764 242.54 295.942C241.985 295.232 240.947 294.818 239.86 294.893C238.971 294.954 238.292 295.455 237.718 296.461C237.205 297.363 236.841 298.32 236.458 299.326C236.1 300.271 235.729 301.241 235.229 302.161C234.204 304.044 233.074 305.841 231.87 307.496C229.844 310.269 227.374 312.967 224.33 315.74C224.237 315.839 224.101 315.882 223.966 315.882Z" fill="black"/>
<path d="M244.51 320.081C244.325 320.081 244.14 319.982 244.035 319.815C243.874 319.55 243.954 319.204 244.22 319.044C244.312 318.988 253.47 313.288 256.428 306.761C259.923 299.048 256.515 297.153 256.366 297.072C256.095 296.93 255.99 296.597 256.125 296.325C256.261 296.054 256.589 295.936 256.867 296.078C257.052 296.171 261.411 298.462 257.441 307.218C254.341 314.06 245.189 319.754 244.8 319.995C244.714 320.056 244.609 320.081 244.51 320.081Z" fill="black"/>
<path d="M246.572 323.996C246.387 323.996 246.208 323.903 246.103 323.737C245.936 323.477 246.016 323.131 246.276 322.965C255.514 317.129 257.947 312.566 258.354 309.762C258.719 307.286 257.57 305.94 257.521 305.884C257.317 305.65 257.342 305.298 257.57 305.094C257.805 304.896 258.151 304.915 258.354 305.143C258.416 305.211 259.88 306.891 259.46 309.873C258.842 314.295 254.606 319.013 246.862 323.903C246.776 323.965 246.677 323.996 246.572 323.996Z" fill="black"/>
<path d="M236.722 336.797C236.537 336.797 236.358 336.704 236.253 336.538C236.086 336.278 236.16 335.932 236.42 335.766C236.438 335.753 238.303 334.543 247.893 327.837C255.007 322.86 256.575 319.661 256.637 317.852C256.68 316.641 256.013 316.092 255.989 316.067C255.754 315.876 255.711 315.53 255.896 315.283C256.088 315.048 256.433 314.999 256.674 315.184C256.717 315.221 257.798 316.061 257.761 317.833C257.699 320.84 254.599 324.521 248.542 328.757C238.908 335.494 237.105 336.661 237.031 336.704C236.926 336.766 236.827 336.797 236.722 336.797Z" fill="black"/>
<path d="M146.48 239.582C146.956 239.619 147.271 239.354 147.295 239.002L147.456 236.902C147.481 236.55 147.215 236.241 146.863 236.21C146.388 236.173 146.073 236.439 146.048 236.791L145.887 238.89C145.863 239.249 146.128 239.557 146.48 239.582Z" fill="black"/>
<path d="M149.4 256.49C148.931 256.49 148.536 256.397 147.986 256.224C146.51 255.755 145.3 254.532 144.738 252.945C144.361 251.871 144.38 250.864 144.794 250.253C145.102 249.796 145.553 249.499 146.072 249.419C146.554 249.351 147.072 249.468 147.517 249.771C148.011 250.105 148.283 250.574 148.517 250.988C148.709 251.321 148.869 251.605 149.116 251.784C149.314 251.932 149.672 252.081 150.512 251.747C150.802 251.636 151.123 251.766 151.24 252.056C151.358 252.34 151.216 252.667 150.932 252.778C150.555 252.933 149.406 253.396 148.449 252.68C148.023 252.358 147.77 251.926 147.554 251.543C147.35 251.191 147.177 250.883 146.899 250.697C146.683 250.555 146.449 250.5 146.245 250.524C146.041 250.555 145.862 250.679 145.726 250.876C145.559 251.123 145.51 251.759 145.8 252.581C146.239 253.84 147.183 254.804 148.332 255.168C148.943 255.36 149.234 255.415 149.734 255.36C150.018 255.366 150.314 255.551 150.345 255.854C150.382 256.162 150.16 256.434 149.851 256.471C149.684 256.483 149.542 256.49 149.4 256.49Z" fill="black"/>
<path d="M107.608 284.611C101.735 284.611 95.9 283.203 90.5894 280.418C81.3576 275.57 79.2828 269.155 79.1655 264.628C78.9679 256.798 84.3279 249.339 89.4717 246.294C95.3257 242.83 95.9247 238.588 96.7522 232.721C97.0856 230.356 97.4623 227.676 98.2651 224.805C100.97 215.104 103.427 212.479 108.016 209.157C112.579 205.853 120.625 207.311 124.917 209.095C127.628 210.219 132.796 210.232 136.946 210.238C138.774 210.238 140.497 210.244 141.855 210.337C146.147 210.621 154.922 213.171 154.662 219.21C154.415 225.132 152.056 231.949 147.456 232.925C139.527 234.599 135.779 237.68 135.742 237.711C135.507 237.908 135.155 237.884 134.958 237.643C134.76 237.408 134.791 237.056 135.026 236.859C135.18 236.723 139.002 233.574 147.228 231.832C151.062 231.023 153.31 224.848 153.545 219.167C153.761 213.998 145.554 211.707 141.775 211.454C140.447 211.368 138.743 211.362 136.94 211.362C132.469 211.355 127.399 211.343 124.485 210.133C120.576 208.509 112.826 207.058 108.664 210.071C104.199 213.313 101.964 215.709 99.3396 225.114C98.5553 227.923 98.1972 230.449 97.8575 232.888C97.0177 238.835 96.357 243.534 90.0398 247.27C85.1677 250.154 80.0917 257.218 80.2832 264.622C80.4375 270.686 84.1858 275.811 91.1143 279.448C104.428 286.439 116.76 282.684 121.446 280.758C127.665 278.189 132.438 274.113 133.605 270.377C136.322 261.695 134.26 252.111 130.703 248.931C130.474 248.727 130.456 248.375 130.66 248.147C130.87 247.918 131.215 247.894 131.45 248.104C135.81 252 137.292 262.362 134.674 270.711C133.408 274.749 128.387 279.103 121.879 281.795C117.266 283.66 112.425 284.611 107.608 284.611Z" fill="black"/>
<path d="M135.47 277.361C135.081 277.306 134.871 277.022 134.92 276.713L137.075 263.078C137.125 262.776 137.409 262.572 137.711 262.615C138.014 262.665 138.224 262.949 138.174 263.257L136.019 276.892C135.976 277.164 135.742 277.361 135.47 277.361Z" fill="black"/>
<path d="M150.099 243.763C148.888 243.676 148.135 242.793 148.209 241.787L148.827 233.71C148.901 232.709 149.784 231.931 150.79 232.024C151.865 232.11 152.618 232.987 152.538 233.988L151.92 242.071C151.846 243.034 151.043 243.763 150.099 243.763ZM150 243.207L150.043 242.651C150.432 242.639 150.778 242.392 150.809 241.997L151.426 233.913C151.457 233.524 151.161 233.179 150.772 233.154C150.34 233.148 149.969 233.413 149.938 233.802L149.321 241.886C149.29 242.275 149.586 242.62 149.975 242.651L150 243.207Z" fill="black"/>
<path d="M149.073 238.366C149.03 238.359 135.704 237.415 135.704 237.415C135.396 237.396 135.167 237.131 135.186 236.816C135.204 236.519 135.451 236.297 135.741 236.297C135.778 236.303 149.11 237.248 149.11 237.248C149.419 237.266 149.648 237.532 149.623 237.847C149.611 238.137 149.364 238.366 149.073 238.366Z" fill="black"/>
<path d="M225.91 299.011H188.705C188.396 299.011 188.149 298.764 188.149 298.449C188.149 298.141 188.396 297.887 188.705 297.887H225.91C226.219 297.887 226.466 298.134 226.466 298.449C226.466 298.758 226.219 299.011 225.91 299.011Z" fill="black"/>
<path d="M229.998 292.231H192.793C192.484 292.231 192.237 291.984 192.237 291.669C192.237 291.36 192.484 291.107 192.793 291.107H229.998C230.307 291.107 230.554 291.354 230.554 291.669C230.56 291.984 230.307 292.231 229.998 292.231Z" fill="black"/>
<path d="M216.209 312.936H179.751C179.442 312.936 179.195 312.689 179.195 312.374C179.195 312.066 179.442 311.812 179.751 311.812H216.209C216.518 311.812 216.765 312.059 216.765 312.374C216.765 312.683 216.518 312.936 216.209 312.936Z" fill="black"/>
<path d="M204.445 320.068H182.276C181.968 320.068 181.721 319.821 181.721 319.507C181.721 319.198 181.968 318.945 182.276 318.945H204.445C204.754 318.945 205.001 319.192 205.001 319.507C205.007 319.815 204.754 320.068 204.445 320.068Z" fill="black"/>
<path d="M127.381 196.819C127.127 196.819 126.899 196.646 126.837 196.387C126.813 196.288 126.263 193.948 125.948 189.94C125.923 189.632 126.152 189.366 126.461 189.341C126.806 189.341 127.041 189.551 127.06 189.854C127.368 193.769 127.918 196.103 127.924 196.128C127.998 196.424 127.813 196.727 127.51 196.801C127.467 196.813 127.424 196.819 127.381 196.819ZM126.3 184.043C125.985 184.037 125.738 183.784 125.744 183.475C125.775 181.338 125.899 179.159 126.115 177.01C126.146 176.707 126.386 176.503 126.726 176.509C127.035 176.54 127.257 176.818 127.226 177.121C127.01 179.239 126.893 181.382 126.862 183.487C126.85 183.796 126.603 184.043 126.3 184.043ZM127.578 171.273C127.171 171.205 126.973 170.915 127.029 170.606C127.424 168.494 127.918 166.37 128.492 164.307C128.572 164.011 128.869 163.826 129.178 163.918C129.474 163.999 129.647 164.307 129.567 164.604C128.999 166.635 128.517 168.723 128.122 170.816C128.078 171.081 127.844 171.273 127.578 171.273ZM131.018 158.91C130.536 158.762 130.388 158.441 130.493 158.157C131.24 156.156 132.086 154.149 133.006 152.198C133.142 151.926 133.475 151.803 133.747 151.932C134.025 152.062 134.149 152.396 134.013 152.673C133.105 154.6 132.271 156.576 131.537 158.546C131.456 158.768 131.24 158.91 131.018 158.91ZM136.501 147.313C136.409 147.313 136.31 147.289 136.223 147.239C135.958 147.085 135.865 146.745 136.02 146.474C137.1 144.615 138.274 142.775 139.496 141.021C139.675 140.762 140.021 140.712 140.274 140.879C140.527 141.058 140.589 141.404 140.41 141.657C139.206 143.392 138.051 145.195 136.983 147.036C136.884 147.208 136.693 147.313 136.501 147.313ZM143.825 136.779C143.701 136.779 143.578 136.735 143.473 136.649C143.238 136.458 143.201 136.099 143.399 135.865C144.727 134.247 146.159 132.617 147.672 131.03C147.888 130.801 148.24 130.795 148.462 131.011C148.685 131.221 148.691 131.573 148.481 131.795C146.987 133.37 145.566 134.976 144.257 136.575C144.146 136.705 143.986 136.779 143.825 136.779ZM152.662 127.479C152.513 127.479 152.359 127.417 152.248 127.3C152.038 127.071 152.056 126.713 152.285 126.51C153.829 125.095 155.477 123.687 157.194 122.317C157.435 122.125 157.787 122.162 157.978 122.403C158.17 122.644 158.133 122.996 157.892 123.187C156.2 124.546 154.57 125.941 153.044 127.331C152.933 127.43 152.797 127.479 152.662 127.479ZM162.671 119.451C162.499 119.451 162.326 119.365 162.214 119.217C162.035 118.97 162.097 118.618 162.35 118.439C164.104 117.197 165.907 115.993 167.71 114.851C167.97 114.684 168.315 114.764 168.482 115.024C168.649 115.283 168.569 115.629 168.309 115.796C166.525 116.926 164.734 118.124 162.999 119.353C162.894 119.414 162.783 119.451 162.671 119.451ZM173.521 112.597C173.323 112.597 173.138 112.492 173.033 112.307C172.885 112.041 172.984 111.695 173.249 111.547C175.151 110.485 177.078 109.491 178.98 108.577C179.264 108.453 179.591 108.558 179.727 108.836C179.863 109.114 179.746 109.448 179.468 109.584C177.584 110.485 175.676 111.473 173.799 112.523C173.706 112.572 173.614 112.597 173.521 112.597ZM185.099 107.052C184.877 107.052 184.667 106.916 184.581 106.7C184.463 106.416 184.605 106.088 184.889 105.971C186.872 105.181 188.916 104.44 190.966 103.779C191.25 103.686 191.571 103.841 191.67 104.143C191.762 104.433 191.602 104.748 191.312 104.841C189.286 105.496 187.267 106.224 185.309 107.008C185.235 107.039 185.167 107.052 185.099 107.052ZM241.416 106.298C241.342 106.298 241.268 106.28 241.194 106.249C239.317 105.434 237.304 104.693 235.223 104.044C234.926 103.958 234.766 103.643 234.852 103.347C234.945 103.05 235.254 102.871 235.55 102.982C237.668 103.643 239.718 104.396 241.633 105.224C241.917 105.347 242.046 105.675 241.923 105.959C241.836 106.169 241.633 106.298 241.416 106.298ZM197.326 103.149C197.073 103.149 196.845 102.976 196.783 102.717C196.715 102.42 196.9 102.118 197.196 102.044C199.29 101.55 201.42 101.13 203.538 100.796C203.853 100.753 204.131 100.957 204.174 101.266C204.218 101.568 204.014 101.852 203.711 101.902C201.618 102.229 199.518 102.637 197.456 103.131C197.413 103.143 197.369 103.149 197.326 103.149ZM229.171 102.47C226.991 102.031 224.873 101.698 222.768 101.463C222.459 101.426 222.243 101.154 222.274 100.846C222.305 100.537 222.539 100.339 222.891 100.352C225.028 100.586 227.183 100.932 229.282 101.364C229.585 101.426 229.776 101.723 229.715 102.025C229.659 102.285 229.431 102.47 229.171 102.47ZM210.004 101.204C209.713 101.204 209.466 100.975 209.448 100.679C209.423 100.37 209.658 100.105 209.967 100.086C212.103 99.938 214.314 99.8577 216.438 99.9318C216.747 99.938 216.988 100.191 216.982 100.506C216.975 100.809 216.728 101.05 216.426 101.05C214.326 101.012 212.146 101.056 210.047 101.198C210.028 101.198 210.016 101.204 210.004 101.204Z" fill="black"/>
<path d="M170.464 323.706C169.353 323.706 168.284 323.687 167.407 323.65C167.099 323.638 166.864 323.378 166.876 323.07C166.895 322.761 167.173 322.532 167.457 322.539C169.575 322.625 172.983 322.6 175.052 322.477C176.966 322.36 179.276 322.218 180.665 321.081C181.221 320.631 181.573 320.001 181.604 319.389C181.647 318.617 181.172 317.778 180.394 317.253C179.727 316.796 178.868 316.53 177.689 316.413C177.337 316.364 176.744 316.462 176.12 316.555C174.447 316.802 172.156 317.142 170.958 315.524C169.241 313.208 170.507 310.386 174.731 307.132C176.509 305.767 177.967 304.6 179.313 303.476C182.753 300.617 185.414 298.06 187.693 295.436L187.958 295.14C188.557 294.454 189.131 293.812 189.323 292.972C189.434 292.509 189.36 291.959 189.113 291.478C188.749 290.755 188.193 290.298 187.458 290.125C186.408 289.891 185.025 290.261 183.932 291.083C181.684 292.787 174.286 299.709 174.212 299.777C174.064 299.919 173.854 299.969 173.65 299.901C173.453 299.833 173.311 299.666 173.28 299.462C173.28 299.444 172.959 297.548 171.576 296.653C170.785 296.146 169.772 296.047 168.556 296.381C168.297 296.436 168.031 296.331 167.914 296.097C167.908 296.078 167.092 294.528 165.425 294.022C164.252 293.676 162.918 293.905 161.461 294.726C161.195 294.88 160.856 294.781 160.701 294.51C160.553 294.238 160.646 293.898 160.917 293.75C162.659 292.781 164.283 292.515 165.765 292.96C167.327 293.441 168.272 294.596 168.673 295.208C170.032 294.923 171.211 295.096 172.187 295.726C173.268 296.43 173.836 297.542 174.12 298.338C176.022 296.572 181.338 291.651 183.253 290.206C184.617 289.168 186.322 288.724 187.705 289.045C188.761 289.292 189.588 289.959 190.101 290.984C190.465 291.706 190.576 292.509 190.403 293.238C190.144 294.343 189.453 295.127 188.786 295.887L188.532 296.183C186.217 298.851 183.512 301.451 180.023 304.353C178.658 305.483 177.195 306.656 175.404 308.033C171.761 310.837 170.563 313.14 171.847 314.875C172.644 315.95 174.484 315.678 175.948 315.462C176.67 315.351 177.3 315.27 177.794 315.314C179.14 315.45 180.196 315.783 181.011 316.339C182.116 317.092 182.765 318.29 182.709 319.457C182.66 320.39 182.172 321.297 181.363 321.958C179.696 323.323 177.078 323.483 175.163 323.601C173.86 323.662 172.119 323.706 170.464 323.706Z" fill="black"/>
<path d="M162.8 301.901C162.695 301.901 162.584 301.87 162.491 301.809C162.238 301.636 162.164 301.29 162.337 301.037C165.295 296.547 168.265 295.319 168.389 295.269C168.679 295.177 169 295.294 169.111 295.578C169.228 295.862 169.086 296.189 168.802 296.3C168.772 296.313 166.011 297.48 163.263 301.648C163.158 301.815 162.979 301.901 162.8 301.901Z" fill="black"/>
<path d="M168.778 304.81C168.642 304.81 168.506 304.76 168.401 304.662C168.172 304.452 168.16 304.1 168.37 303.871C172.186 299.74 173.495 298.925 173.551 298.894C173.81 298.727 174.156 298.814 174.317 299.079C174.477 299.339 174.391 299.684 174.131 299.845C174.119 299.851 172.847 300.672 169.191 304.631C169.08 304.748 168.932 304.81 168.778 304.81Z" fill="black"/>
<path d="M152.179 302.371C152.068 302.371 151.963 302.34 151.864 302.272C151.611 302.099 151.543 301.747 151.716 301.494C155.464 295.979 161.522 293.411 161.775 293.299C162.059 293.188 162.387 293.312 162.504 293.602C162.621 293.886 162.485 294.207 162.201 294.331C162.14 294.355 156.193 296.887 152.63 302.124C152.531 302.278 152.358 302.371 152.179 302.371Z" fill="black"/>
<path d="M554.105 284.704C553.988 284.704 553.871 284.66 553.766 284.586C553.519 284.401 553.469 284.049 553.661 283.802C553.957 283.407 554.26 283.005 554.556 282.604C554.742 282.351 555.1 282.295 555.334 282.487C555.581 282.666 555.637 283.018 555.452 283.265C555.155 283.672 554.853 284.074 554.544 284.475C554.439 284.623 554.278 284.704 554.105 284.704ZM558.718 278.251C558.607 278.251 558.502 278.22 558.41 278.152C558.15 277.979 558.082 277.633 558.255 277.374C559.472 275.577 560.633 273.767 561.713 271.995C561.868 271.73 562.22 271.649 562.479 271.81C562.738 271.97 562.825 272.316 562.664 272.576C561.577 274.366 560.404 276.188 559.181 277.997C559.07 278.158 558.897 278.251 558.718 278.251ZM565.394 267.277C565.307 267.277 565.215 267.253 565.128 267.209C564.856 267.061 564.758 266.722 564.9 266.45C565.925 264.567 566.894 262.646 567.783 260.75C567.913 260.472 568.253 260.361 568.524 260.485C568.802 260.614 568.926 260.948 568.79 261.226C567.895 263.14 566.913 265.079 565.881 266.981C565.783 267.166 565.591 267.277 565.394 267.277ZM570.84 255.656C570.772 255.656 570.704 255.637 570.636 255.613C570.352 255.501 570.21 255.174 570.321 254.89C571.124 252.858 571.84 250.839 572.458 248.882C572.544 248.585 572.859 248.431 573.162 248.517C573.458 248.61 573.619 248.925 573.526 249.215C572.903 251.197 572.174 253.241 571.365 255.298C571.272 255.514 571.062 255.656 570.84 255.656ZM574.687 243.417C574.261 243.33 574.076 243.028 574.144 242.731C574.632 240.619 575.027 238.514 575.317 236.47C575.36 236.167 575.613 235.945 575.947 236C576.249 236.044 576.466 236.328 576.416 236.63C576.12 238.705 575.718 240.842 575.224 242.984C575.169 243.244 574.94 243.417 574.687 243.417ZM576.484 230.721C576.151 230.702 575.91 230.443 575.928 230.134C575.978 229.084 576.002 228.028 576.002 226.979C576.009 225.91 575.984 224.842 575.928 223.774C575.91 223.465 576.144 223.206 576.453 223.187C576.725 223.181 577.021 223.409 577.04 223.712C577.095 224.799 577.126 225.892 577.126 226.979C577.126 228.047 577.095 229.121 577.04 230.19C577.028 230.486 576.774 230.721 576.484 230.721ZM575.799 217.914C575.533 217.914 575.292 217.722 575.249 217.444C574.903 215.419 574.422 213.338 573.81 211.251C573.724 210.954 573.897 210.639 574.187 210.559C574.477 210.466 574.792 210.645 574.879 210.936C575.496 213.06 575.99 215.184 576.348 217.259C576.398 217.562 576.194 217.852 575.891 217.901C575.86 217.914 575.83 217.914 575.799 217.914ZM572.242 205.594C572.019 205.594 571.81 205.458 571.723 205.242C570.951 203.322 570.068 201.364 569.092 199.431C568.957 199.16 569.062 198.82 569.339 198.684C569.611 198.548 569.945 198.653 570.087 198.931C571.075 200.889 571.97 202.871 572.761 204.828C572.872 205.113 572.736 205.44 572.446 205.551C572.384 205.576 572.31 205.594 572.242 205.594ZM566.468 194.127C566.277 194.127 566.098 194.028 565.993 193.855C564.912 192.077 563.726 190.286 562.473 188.532C562.294 188.279 562.349 187.933 562.602 187.748C562.856 187.569 563.208 187.631 563.387 187.878C564.653 189.656 565.857 191.472 566.95 193.269C567.11 193.528 567.024 193.88 566.764 194.034C566.666 194.096 566.567 194.127 566.468 194.127ZM496.918 183.882C496.745 183.882 496.572 183.876 496.393 183.864C496.084 183.852 495.849 183.592 495.868 183.277C495.88 182.981 496.127 182.746 496.424 182.746C497.196 182.783 497.937 182.74 498.641 182.629C499.888 182.438 501.16 182.061 502.42 181.499C502.716 181.363 503.031 181.493 503.155 181.777C503.284 182.061 503.155 182.388 502.877 182.512C501.518 183.123 500.147 183.531 498.807 183.734C498.196 183.833 497.56 183.882 496.918 183.882ZM558.99 183.685C558.829 183.685 558.669 183.617 558.558 183.481C557.218 181.863 555.785 180.264 554.297 178.732C554.081 178.51 554.093 178.158 554.315 177.942C554.538 177.732 554.884 177.738 555.106 177.961C556.606 179.517 558.064 181.128 559.422 182.765C559.614 182.999 559.583 183.358 559.348 183.555C559.243 183.642 559.12 183.685 558.99 183.685ZM490.403 181.888C490.292 181.888 490.175 181.851 490.076 181.777C489.156 181.122 488.39 180.326 487.797 179.424C487.155 178.455 486.71 177.355 486.476 176.157C486.414 175.855 486.612 175.558 486.914 175.503C487.211 175.441 487.513 175.639 487.569 175.941C487.772 176.997 488.168 177.961 488.73 178.813C489.242 179.597 489.915 180.295 490.724 180.875C490.971 181.054 491.033 181.4 490.848 181.653C490.743 181.808 490.576 181.888 490.403 181.888ZM508.021 179.084C507.866 179.084 507.706 179.017 507.595 178.887C507.391 178.652 507.422 178.3 507.656 178.103C507.984 177.819 508.311 177.534 508.632 177.244C509.842 176.127 511.003 174.898 512.072 173.589C512.263 173.342 512.621 173.317 512.856 173.508C513.097 173.7 513.134 174.052 512.936 174.293C511.837 175.645 510.645 176.917 509.385 178.072C509.052 178.368 508.718 178.665 508.385 178.955C508.28 179.041 508.15 179.084 508.021 179.084ZM550.067 174.465C549.931 174.465 549.808 174.416 549.696 174.323C548.079 172.891 546.424 171.538 544.756 170.291C544.509 170.106 544.46 169.754 544.645 169.507C544.824 169.26 545.176 169.21 545.429 169.396C547.115 170.662 548.801 172.039 550.444 173.484C550.672 173.687 550.691 174.046 550.493 174.274C550.37 174.398 550.221 174.465 550.067 174.465ZM487.717 170.316C487.649 170.316 487.575 170.297 487.507 170.273C487.223 170.161 487.087 169.834 487.198 169.55C487.525 168.741 487.939 167.963 488.421 167.247C489.156 166.166 490.057 165.147 491.126 164.221C491.36 164.017 491.712 164.048 491.91 164.27C492.114 164.499 492.089 164.857 491.86 165.055C490.872 165.919 490.026 166.87 489.353 167.87C488.909 168.525 488.538 169.229 488.236 169.964C488.143 170.18 487.939 170.316 487.717 170.316ZM516.098 169.192C516.005 169.192 515.912 169.167 515.826 169.118C515.554 168.97 515.462 168.63 515.61 168.358C516.623 166.524 517.506 164.585 518.222 162.597C518.321 162.307 518.654 162.152 518.932 162.263C519.222 162.368 519.37 162.69 519.266 162.974C518.531 165.018 517.623 167.012 516.579 168.895C516.487 169.087 516.295 169.192 516.098 169.192ZM539.779 166.784C539.68 166.784 539.575 166.753 539.483 166.697C537.661 165.567 535.784 164.536 533.913 163.628C533.635 163.492 533.518 163.159 533.654 162.881C533.789 162.603 534.129 162.492 534.401 162.622C536.315 163.548 538.217 164.598 540.076 165.746C540.335 165.907 540.415 166.253 540.255 166.518C540.15 166.691 539.964 166.784 539.779 166.784ZM496.93 161.813C496.714 161.813 496.516 161.689 496.424 161.479C496.294 161.195 496.418 160.868 496.702 160.744C497.301 160.473 497.9 160.226 498.505 159.985C499.925 159.448 501.382 158.984 502.846 158.602C503.179 158.521 503.451 158.707 503.525 159.003C503.599 159.299 503.426 159.608 503.124 159.682C501.697 160.053 500.277 160.504 498.9 161.028C498.32 161.257 497.733 161.498 497.152 161.757C497.085 161.794 497.004 161.813 496.93 161.813ZM528.238 161.207C526.033 160.46 523.977 159.874 521.952 159.435C521.649 159.373 521.458 159.077 521.526 158.774C521.587 158.472 521.896 158.262 522.186 158.348C524.267 158.793 526.361 159.392 528.423 160.121C528.713 160.226 528.868 160.547 528.763 160.831C528.683 161.059 528.473 161.207 528.238 161.207ZM509.305 158.614C509.021 158.614 508.78 158.392 508.749 158.108C508.718 157.799 508.947 157.527 509.256 157.502C510.466 157.391 511.689 157.299 512.905 157.342C513.856 157.342 514.813 157.379 515.764 157.441C516.073 157.459 516.301 157.725 516.283 158.033C516.264 158.342 515.999 158.546 515.69 158.552C514.727 158.484 513.745 158.46 512.782 158.453C511.639 158.453 510.491 158.503 509.361 158.608C509.336 158.608 509.317 158.614 509.305 158.614ZM520.476 157.163C520.062 157.089 519.871 156.798 519.926 156.496C520.34 154.433 520.606 152.321 520.723 150.21C520.741 149.901 520.97 149.648 521.309 149.685C521.618 149.703 521.853 149.963 521.834 150.271C521.711 152.433 521.439 154.6 521.019 156.712C520.97 156.978 520.735 157.163 520.476 157.163ZM521.198 144.38C520.908 144.38 520.667 144.158 520.643 143.868C520.47 141.75 520.155 139.644 519.71 137.6C519.642 137.297 519.834 137.001 520.13 136.933C520.426 136.859 520.729 137.057 520.797 137.359C521.254 139.453 521.581 141.608 521.754 143.781C521.779 144.09 521.55 144.356 521.242 144.38C521.229 144.374 521.217 144.38 521.198 144.38ZM518.45 131.882C518.222 131.882 518.012 131.74 517.925 131.518C517.178 129.517 516.295 127.584 515.289 125.756C515.141 125.484 515.239 125.145 515.505 124.997C515.764 124.842 516.116 124.941 516.264 125.213C517.296 127.084 518.203 129.072 518.969 131.129C519.08 131.413 518.926 131.74 518.636 131.845C518.574 131.87 518.512 131.882 518.45 131.882ZM512.306 120.643C512.139 120.643 511.967 120.563 511.862 120.415C510.614 118.741 509.237 117.105 507.767 115.567C507.551 115.339 507.564 114.993 507.786 114.777C508.014 114.561 508.36 114.573 508.576 114.795C510.083 116.376 511.491 118.043 512.763 119.748C512.948 119.995 512.899 120.347 512.652 120.532C512.541 120.606 512.423 120.643 512.306 120.643ZM503.457 111.374C503.334 111.374 503.21 111.331 503.105 111.245C501.469 109.905 499.746 108.633 497.98 107.484C497.721 107.317 497.653 106.965 497.819 106.712C497.986 106.453 498.326 106.385 498.591 106.552C500.394 107.731 502.154 109.015 503.815 110.386C504.05 110.584 504.087 110.936 503.889 111.171C503.778 111.3 503.618 111.374 503.457 111.374ZM412.831 110.788C412.634 110.788 412.442 110.683 412.343 110.497C412.195 110.226 412.294 109.886 412.56 109.738C414.412 108.725 416.339 107.725 418.29 106.774C418.562 106.638 418.895 106.743 419.037 107.027C419.173 107.305 419.062 107.638 418.784 107.774C416.845 108.719 414.937 109.713 413.103 110.714C413.01 110.763 412.924 110.788 412.831 110.788ZM424.385 105.175C424.169 105.175 423.965 105.045 423.872 104.835C423.749 104.551 423.879 104.224 424.169 104.106C426.17 103.254 428.195 102.457 430.177 101.747C430.474 101.636 430.788 101.797 430.893 102.081C430.998 102.371 430.85 102.692 430.56 102.797C428.596 103.507 426.596 104.291 424.607 105.131C424.533 105.162 424.453 105.175 424.385 105.175ZM492.731 104.353C492.645 104.353 492.558 104.335 492.478 104.291C490.594 103.328 488.643 102.445 486.673 101.673C486.389 101.562 486.247 101.235 486.358 100.951C486.476 100.667 486.797 100.537 487.081 100.636C489.082 101.426 491.07 102.322 492.984 103.303C493.256 103.445 493.367 103.779 493.225 104.051C493.132 104.236 492.935 104.353 492.731 104.353ZM436.457 100.827C436.216 100.827 435.994 100.673 435.92 100.426C435.834 100.129 436 99.8207 436.297 99.7342C438.39 99.1167 440.49 98.5671 442.54 98.104C442.873 98.0546 443.145 98.2275 443.207 98.5239C443.275 98.8265 443.083 99.1229 442.787 99.1908C440.755 99.6478 438.68 100.191 436.605 100.809C436.562 100.815 436.513 100.827 436.457 100.827ZM480.801 99.6416C478.602 99.0303 476.521 98.5486 474.447 98.1596C474.138 98.104 473.94 97.8138 474.002 97.5112C474.051 97.2086 474.348 96.9863 474.65 97.0666C476.756 97.4556 478.874 97.9558 480.955 98.5486C481.252 98.6351 481.424 98.9376 481.338 99.2402C481.264 99.4811 481.042 99.6416 480.801 99.6416ZM448.987 97.999C448.715 97.999 448.48 97.8014 448.437 97.5235C448.388 97.2148 448.598 96.9369 448.906 96.8875C451.043 96.554 453.204 96.307 455.322 96.1403C455.619 96.1341 455.897 96.3379 455.921 96.6529C455.946 96.9616 455.717 97.2271 455.409 97.2518C453.315 97.4186 451.185 97.6656 449.073 97.9929C449.042 97.999 449.011 97.999 448.987 97.999ZM468.185 97.3012C468.123 97.2951 467.808 97.2704 467.808 97.2704C465.82 97.1036 463.788 97.0234 461.775 97.0172C461.466 97.011 461.213 96.764 461.213 96.4552C461.219 96.1465 461.466 95.8933 461.775 95.8933C463.819 95.8995 465.882 95.9859 467.901 96.1527L468.253 96.1835C468.562 96.2144 468.778 96.4923 468.747 96.8011C468.71 97.0851 468.469 97.3012 468.185 97.3012Z" fill="black"/>
<path d="M414.683 329.615H389.217C388.908 329.615 388.655 329.368 388.655 329.053V303.593C388.655 303.285 388.902 303.031 389.217 303.031H414.683C414.992 303.031 415.245 303.279 415.245 303.593V329.053C415.245 329.362 414.998 329.615 414.683 329.615ZM389.779 328.491H414.128V304.149H389.779V328.491Z" fill="black"/>
<path d="M434.012 329.615H430.541C430.233 329.615 429.979 329.368 429.979 329.053V314.696C429.979 314.387 430.226 314.134 430.541 314.134C430.85 314.134 431.103 314.381 431.103 314.696V328.491H434.012C434.321 328.491 434.574 328.738 434.574 329.053C434.574 329.362 434.327 329.615 434.012 329.615Z" fill="black"/>
<path d="M239.175 352.753C238.866 352.753 238.619 352.506 238.619 352.191V334.574C238.619 334.265 238.866 334.012 239.175 334.012C239.484 334.012 239.731 334.259 239.731 334.574V352.191C239.731 352.506 239.477 352.753 239.175 352.753Z" fill="black"/>
<path d="M239.175 280.609C238.866 280.609 238.619 280.362 238.619 280.048V247.579C238.619 247.27 238.866 247.017 239.175 247.017C239.484 247.017 239.731 247.264 239.731 247.579V280.048C239.731 280.362 239.477 280.609 239.175 280.609Z" fill="black"/>
<path d="M220.593 251.376C220.488 251.376 220.383 251.346 220.291 251.29C220.031 251.123 219.957 250.777 220.118 250.518C221.705 248.023 221.785 244.763 220.346 241.348C218.877 237.853 216.018 234.63 212.288 232.258C206.218 228.405 198.993 227.707 194.713 230.597C194.46 230.764 194.114 230.702 193.935 230.449C193.762 230.19 193.83 229.844 194.09 229.671C198.795 226.503 206.347 227.158 212.887 231.314C216.802 233.802 219.821 237.211 221.371 240.91C222.958 244.683 222.841 248.301 221.056 251.111C220.958 251.284 220.779 251.376 220.593 251.376Z" fill="black"/>
<path d="M174.218 360.948C167.734 360.948 161.553 360.151 155.835 358.521C133.567 352.179 118.679 334.525 108.188 319.852C108.009 319.599 108.064 319.254 108.317 319.068C108.564 318.895 108.916 318.951 109.095 319.198C119.476 333.728 134.21 351.204 156.137 357.453C178.911 363.943 209.089 357.027 236.865 338.952C237.118 338.785 237.464 338.859 237.637 339.113C237.803 339.372 237.729 339.718 237.476 339.885C216.388 353.606 193.898 360.948 174.218 360.948Z" fill="black"/>
<path d="M398.986 225.163C398.709 225.163 398.468 224.959 398.437 224.675C397.943 220.983 396.899 219.785 396.887 219.772C396.683 219.55 396.696 219.198 396.918 218.988C397.146 218.784 397.492 218.79 397.702 219.006C397.838 219.148 399.005 220.47 399.542 224.527C399.579 224.836 399.369 225.114 399.061 225.151C399.03 225.157 399.011 225.163 398.986 225.163Z" fill="black"/>
<path d="M448.912 234.426H435.709C435.401 234.426 435.147 234.179 435.147 233.864V220.662C435.147 220.353 435.394 220.1 435.709 220.1H448.912C449.221 220.1 449.474 220.347 449.474 220.662V233.864C449.468 234.179 449.221 234.426 448.912 234.426ZM436.265 233.308H448.35V221.223H436.265V233.308Z" fill="black"/>
<path d="M453.439 250.747H448.171C447.863 250.747 447.609 250.5 447.609 250.185V244.911C447.609 244.603 447.856 244.349 448.171 244.349H453.439C453.747 244.349 454.001 244.596 454.001 244.911V250.185C454.001 250.5 453.747 250.747 453.439 250.747ZM448.727 249.629H452.877V245.473H448.727V249.629Z" fill="black"/>
<path d="M148.326 403.717C143.182 403.717 139.026 401.957 135.994 398.486C128.133 389.502 130.338 372.304 130.431 371.575C130.468 371.297 130.702 371.087 130.986 371.087H162.584C162.844 371.087 163.072 371.266 163.128 371.52C163.294 372.255 167.222 389.607 160.09 398.579C157.385 401.988 153.427 403.717 148.326 403.717ZM131.48 372.205C131.184 375.077 130.017 389.959 136.834 397.752C139.65 400.969 143.516 402.599 148.326 402.599C153.069 402.599 156.73 401.018 159.219 397.887C165.413 390.094 162.696 374.953 162.134 372.211H131.48V372.205Z" fill="black"/>
<path d="M532.61 393.725C532.393 393.725 532.19 393.602 532.097 393.392C528.429 385.031 531.622 375.151 539.872 369.358C546.25 364.875 553.543 363.986 559.891 366.907C560.169 367.036 560.293 367.37 560.163 367.648C560.027 367.926 559.706 368.037 559.422 367.92C553.463 365.165 546.565 366.018 540.52 370.266C532.708 375.75 529.67 385.068 533.122 392.935C533.246 393.219 533.116 393.546 532.838 393.67C532.764 393.707 532.69 393.725 532.61 393.725Z" fill="black"/>
<path d="M399.542 177.417C425.089 177.417 445.8 156.707 445.8 131.159C445.8 105.612 425.089 84.9016 399.542 84.9016C373.995 84.9016 353.284 105.612 353.284 131.159C353.284 156.707 373.995 177.417 399.542 177.417Z" fill="white"/>
<path fill-rule="evenodd" clip-rule="evenodd" d="M399.542 85.9016C374.547 85.9016 354.284 106.164 354.284 131.159C354.284 156.155 374.547 176.417 399.542 176.417C424.537 176.417 444.8 156.155 444.8 131.159C444.8 106.164 424.537 85.9016 399.542 85.9016ZM352.284 131.159C352.284 105.06 373.442 83.9016 399.542 83.9016C425.642 83.9016 446.8 105.06 446.8 131.159C446.8 157.259 425.642 178.417 399.542 178.417C373.442 178.417 352.284 157.259 352.284 131.159Z" fill="black"/>
<path d="M398.523 147.357C393.071 146.566 389.187 143.25 388.229 137.798H393.855C394.923 141.176 397.622 142.688 401.166 142.688C404.989 142.688 407.354 140.947 407.354 137.909C407.354 135.606 406.057 134.253 402.685 133.463L397.171 132.111C392.725 131.042 389.069 128.455 389.069 123.113C389.069 117.939 392.781 114.061 398.517 113.493V108.429H403.581V113.77C408.416 114.783 411.343 117.988 412.356 122.601H406.903C406.113 120.125 403.92 118.155 400.042 118.155C396.554 118.155 394.361 120.013 394.361 122.712C394.361 124.96 395.769 126.312 398.635 127.041L404.26 128.393C409.324 129.573 412.64 132.666 412.64 137.619C412.64 143.078 408.984 146.56 403.587 147.351V152.921H398.523V147.357Z" fill="#4A7EFF"/>
<path fill-rule="evenodd" clip-rule="evenodd" d="M361.183 131.159C361.183 116.449 369.459 103.673 381.611 97.2388L382.547 99.0063C371.024 105.107 363.183 117.218 363.183 131.159C363.183 144.626 370.507 156.388 381.393 162.669L380.393 164.402C368.913 157.777 361.183 145.37 361.183 131.159Z" fill="black"/>
<path fill-rule="evenodd" clip-rule="evenodd" d="M417.283 97.1438C429.53 103.546 437.895 116.379 437.895 131.159C437.895 145.128 430.431 157.353 419.274 164.059L418.244 162.345C428.823 155.985 435.895 144.398 435.895 131.159C435.895 117.152 427.97 104.987 416.356 98.9162L417.283 97.1438Z" fill="black"/>
<path d="M457.779 325.225C457.779 325.225 458.063 324.799 463.948 330.634L473.761 338.359L477.577 353.581C477.577 353.581 477.49 354.884 475.323 353.229C475.249 353.173 475.168 353.105 475.088 353.044C472.692 351.105 468.03 340.848 468.03 340.848L458.193 328.213L457.779 325.225Z" fill="white"/>
<path d="M470.451 336.525L473.662 335.352L490.539 333.796L490.959 334.623L488.266 337.699C488.266 337.699 475.719 338.921 475.323 338.921C474.934 338.921 470.451 336.525 470.451 336.525Z" fill="white"/>
<path fill-rule="evenodd" clip-rule="evenodd" d="M286.643 113.035C287.165 113.754 288.023 114.228 289.001 114.228C289.935 114.228 290.755 113.8 291.281 113.137L292.848 114.379C291.953 115.507 290.563 116.228 289.001 116.228C287.362 116.228 285.91 115.43 285.024 114.21L286.643 113.035Z" fill="black"/>
<path d="M282.937 101.988C283.729 101.988 284.37 101.347 284.37 100.556C284.37 99.7645 283.729 99.123 282.937 99.123C282.146 99.123 281.505 99.7645 281.505 100.556C281.505 101.347 282.146 101.988 282.937 101.988Z" fill="black"/>
<path d="M295.065 102.84C295.857 102.84 296.498 102.199 296.498 101.408C296.498 100.617 295.857 99.9751 295.065 99.9751C294.274 99.9751 293.633 100.617 293.633 101.408C293.633 102.199 294.274 102.84 295.065 102.84Z" fill="black"/>
<path d="M476.725 238.711C477.304 238.711 477.774 238.241 477.774 237.662C477.774 237.082 477.304 236.612 476.725 236.612C476.145 236.612 475.675 237.082 475.675 237.662C475.675 238.241 476.145 238.711 476.725 238.711Z" fill="black"/>
<path d="M485.716 240.477C486.296 240.477 486.766 240.007 486.766 239.428C486.766 238.848 486.296 238.378 485.716 238.378C485.136 238.378 484.666 238.848 484.666 239.428C484.666 240.007 485.136 240.477 485.716 240.477Z" fill="black"/>
<path d="M344.263 447.368C384.39 447.368 416.919 414.839 416.919 374.712C416.919 334.585 384.39 302.056 344.263 302.056C304.136 302.056 271.606 334.585 271.606 374.712C271.606 414.839 304.136 447.368 344.263 447.368Z" fill="white"/>
<path fill-rule="evenodd" clip-rule="evenodd" d="M344.263 303.056C304.688 303.056 272.606 335.137 272.606 374.712C272.606 414.287 304.688 446.368 344.263 446.368C383.838 446.368 415.919 414.287 415.919 374.712C415.919 335.137 383.838 303.056 344.263 303.056ZM270.606 374.712C270.606 334.033 303.584 301.056 344.263 301.056C384.942 301.056 417.919 334.033 417.919 374.712C417.919 415.391 384.942 448.368 344.263 448.368C303.584 448.368 270.606 415.391 270.606 374.712Z" fill="black"/>
<path fill-rule="evenodd" clip-rule="evenodd" d="M284.593 374.718C284.593 351.837 297.476 331.961 316.377 321.951L317.313 323.719C299.04 333.395 286.593 352.607 286.593 374.718C286.593 396.083 298.209 414.736 315.474 424.704L314.474 426.436C296.615 416.125 284.593 396.826 284.593 374.718Z" fill="black"/>
<path fill-rule="evenodd" clip-rule="evenodd" d="M371.872 321.801C390.93 331.766 403.939 351.718 403.939 374.718C403.939 396.449 392.324 415.46 374.968 425.896L373.938 424.182C390.718 414.092 401.939 395.719 401.939 374.718C401.939 352.492 389.37 333.207 370.945 323.573L371.872 321.801Z" fill="black"/>
<path d="M334.988 385.5H375.355V401.08H325.88L334.988 385.5Z" fill="url(#paint0_linear)"/>
<path d="M371.723 385.5L346.739 342.212L333.24 350.005L353.735 385.5H371.723Z" fill="url(#paint1_linear)"/>
<path d="M375.354 401.08C379.658 401.08 383.147 397.591 383.147 393.287C383.147 388.983 379.658 385.494 375.354 385.494C371.051 385.494 367.562 388.983 367.562 393.287C367.562 397.591 371.051 401.08 375.354 401.08Z" fill="#4A7EFF"/>
<path d="M340.299 354.433C344.603 354.433 348.092 350.944 348.092 346.64C348.092 342.336 344.603 338.847 340.299 338.847C335.995 338.847 332.506 342.336 332.506 346.64C332.506 350.944 335.995 354.433 340.299 354.433Z" fill="#4A7EFF"/>
<path d="M310.251 397.183L335.365 353.686L344.362 369.266L323.744 404.976L310.251 397.183Z" fill="url(#paint2_linear)"/>
<path d="M317 408.873C321.304 408.873 324.793 405.384 324.793 401.08C324.793 396.776 321.304 393.287 317 393.287C312.696 393.287 309.207 396.776 309.207 401.08C309.207 405.384 312.696 408.873 317 408.873Z" fill="#4A7EFF"/>
<path d="M300.901 246.856C302.383 246.856 303.587 245.652 303.587 244.17C303.587 242.688 302.383 241.484 300.901 241.484C299.419 241.484 298.215 242.688 298.215 244.17C298.215 245.658 299.419 246.856 300.901 246.856Z" fill="#4A7EFF"/>
<path d="M321.761 246.998C323.317 246.998 324.583 245.732 324.583 244.176C324.583 242.62 323.317 241.354 321.761 241.354C320.198 241.354 318.938 242.62 318.938 244.176C318.938 245.732 320.204 246.998 321.761 246.998Z" fill="#4A7EFF"/>
<path d="M342.627 246.788C344.072 246.788 345.239 245.615 345.239 244.17C345.239 242.725 344.066 241.558 342.627 241.558C341.182 241.558 340.015 242.731 340.015 244.17C340.008 245.615 341.182 246.788 342.627 246.788Z" fill="#4A7EFF"/>
<path d="M300.901 267.858C302.463 267.858 303.723 266.592 303.723 265.036C303.723 263.474 302.457 262.214 300.901 262.214C299.345 262.214 298.079 263.48 298.079 265.036C298.073 266.598 299.339 267.858 300.901 267.858Z" fill="#4A7EFF"/>
<path d="M321.761 268C323.397 268 324.725 266.672 324.725 265.036C324.725 263.399 323.397 262.072 321.761 262.072C320.125 262.072 318.797 263.399 318.797 265.036C318.797 266.672 320.125 268 321.761 268Z" fill="#4A7EFF"/>
<path d="M342.626 267.79C344.145 267.79 345.38 266.555 345.38 265.036C345.38 263.517 344.145 262.282 342.626 262.282C341.107 262.282 339.872 263.517 339.872 265.036C339.872 266.555 341.107 267.79 342.626 267.79Z" fill="#4A7EFF"/>
<path d="M300.901 288.514C302.346 288.514 303.519 287.34 303.519 285.902C303.519 284.457 302.346 283.29 300.901 283.29C299.456 283.29 298.289 284.463 298.289 285.902C298.283 287.347 299.456 288.514 300.901 288.514Z" fill="#4A7EFF"/>
<path d="M321.761 288.656C323.28 288.656 324.515 287.421 324.515 285.902C324.515 284.382 323.28 283.147 321.761 283.147C320.242 283.147 319.007 284.382 319.007 285.902C319.007 287.421 320.242 288.656 321.761 288.656Z" fill="#4A7EFF"/>
<path d="M342.626 288.47C344.047 288.47 345.195 287.322 345.195 285.901C345.195 284.481 344.047 283.333 342.626 283.333C341.206 283.333 340.058 284.481 340.058 285.901C340.058 287.322 341.206 288.47 342.626 288.47Z" fill="#4A7EFF"/>
<path d="M300.543 272.322C311.828 272.322 320.976 263.174 320.976 251.889C320.976 240.604 311.828 231.456 300.543 231.456C289.258 231.456 280.109 240.604 280.109 251.889C280.109 263.174 289.258 272.322 300.543 272.322Z" fill="white"/>
<path fill-rule="evenodd" clip-rule="evenodd" d="M300.543 231.956C289.534 231.956 280.609 240.88 280.609 251.889C280.609 262.898 289.534 271.822 300.543 271.822C311.552 271.822 320.476 262.898 320.476 251.889C320.476 240.88 311.552 231.956 300.543 231.956ZM279.609 251.889C279.609 240.328 288.982 230.956 300.543 230.956C312.104 230.956 321.476 240.328 321.476 251.889C321.476 263.45 312.104 272.822 300.543 272.822C288.982 272.822 279.609 263.45 279.609 251.889Z" fill="black"/>
<path d="M294.473 249.932H295.844C296.541 247.029 298.567 245.183 301.086 245.183C303.47 245.183 305.112 246.535 305.65 249.005H303.513C303.198 247.906 302.346 247.227 301.086 247.227C299.623 247.227 298.591 248.283 298.116 249.925H302.364L302.025 251.654H297.844C297.82 251.877 297.82 252.08 297.82 252.309C297.82 252.581 297.82 252.828 297.844 253.075H301.846L301.488 254.804H298.159C298.629 256.378 299.641 257.391 301.086 257.391C302.346 257.391 303.198 256.718 303.513 255.613H305.65C305.112 258.089 303.47 259.435 301.086 259.435C298.591 259.435 296.609 257.657 295.868 254.804H294.473V253.075H295.597C295.572 252.828 295.572 252.581 295.572 252.309C295.572 252.087 295.572 251.883 295.597 251.654H294.473V249.932Z" fill="#4A7EFF"/>
<path fill-rule="evenodd" clip-rule="evenodd" d="M283.543 251.889C283.543 245.367 287.208 239.705 292.596 236.855L293.064 237.739C287.991 240.422 284.543 245.752 284.543 251.889C284.543 257.817 287.764 262.99 292.555 265.758L292.055 266.624C286.967 263.685 283.543 258.188 283.543 251.889Z" fill="black"/>
<path fill-rule="evenodd" clip-rule="evenodd" d="M308.407 236.811C313.839 239.654 317.543 245.335 317.543 251.889C317.543 258.08 314.234 263.5 309.291 266.471L308.776 265.614C313.43 262.817 316.543 257.715 316.543 251.889C316.543 245.722 313.059 240.374 307.943 237.697L308.407 236.811Z" fill="black"/>
</g>
<defs>
<linearGradient id="paint0_linear" x1="325.882" y1="393.289" x2="375.356" y2="393.289" gradientUnits="userSpaceOnUse">
<stop stop-color="white" stop-opacity="0"/>
<stop offset="0.88" stop-color="#4A7EFF"/>
</linearGradient>
<linearGradient id="paint1_linear" x1="364.998" y1="389.417" x2="340.007" y2="346.134" gradientUnits="userSpaceOnUse">
<stop stop-color="white" stop-opacity="0"/>
<stop offset="0.88" stop-color="#4A7EFF"/>
</linearGradient>
<linearGradient id="paint2_linear" x1="316.924" y1="401.104" x2="342.039" y2="357.603" gradientUnits="userSpaceOnUse">
<stop offset="0.1203" stop-color="#4A7EFF"/>
<stop offset="1" stop-color="white" stop-opacity="0"/>
</linearGradient>
<clipPath id="clip0">
<rect width="654" height="493.972" fill="white"/>
</clipPath>
</defs>
</svg>
