<svg width="700" height="529" viewBox="0 0 700 529" fill="none" xmlns="http://www.w3.org/2000/svg">
<g clip-path="url(#clip0)">
<path d="M149.585 199.182H109.954C104.938 199.182 100.873 195.118 100.873 190.101V160.378C100.873 155.362 104.938 151.297 109.954 151.297H149.585C154.601 151.297 158.666 155.362 158.666 160.378V190.101C158.666 195.111 154.601 199.182 149.585 199.182Z" fill="white"/>
<path d="M502.946 397.929H147.932C137.899 397.929 129.77 389.799 129.77 379.766V166.757C129.77 156.723 137.899 148.594 147.932 148.594H502.946C512.979 148.594 521.108 156.723 521.108 166.757V379.766C521.108 389.792 512.979 397.929 502.946 397.929Z" fill="white"/>
<path d="M471.61 120.761H410.565C405.436 120.761 401.232 116.564 401.232 111.429V74.1382C401.232 69.0093 405.429 64.8057 410.565 64.8057H471.61C476.739 64.8057 480.942 69.0027 480.942 74.1382V111.429C480.936 116.564 476.739 120.761 471.61 120.761Z" fill="#4A7EFF"/>
<path d="M401.557 216.955L401.286 219.797C401.286 219.797 399.006 219.586 398.603 223.016C398.199 226.44 397.492 231.212 397.492 231.212C397.492 231.212 391.008 233.155 391.464 234.768C391.914 236.387 395.628 241.78 395.628 241.78L396.501 242.349C396.501 242.349 391.782 257.973 409.68 259.328C409.68 259.328 412.819 246.903 426.157 244.16C426.157 244.16 434.875 247.94 437.506 240.544C440.136 233.148 433.785 228.76 431.458 228.727C429.132 228.694 424.657 230.227 424.657 230.227C424.657 230.227 417.79 229.969 415.906 221.251C414.029 212.534 414.782 205.931 414.782 205.931C414.782 205.931 412.813 208.469 412.595 212.111C412.383 215.746 412.806 218.601 412.806 218.601L401.557 216.955Z" fill="white"/>
<path d="M400.638 204.153C400.638 204.153 392.205 193.492 388.424 191.139C384.643 188.786 380.545 187.926 378.602 191.925C378.602 191.925 375.053 189.592 372.68 190.901C370.307 192.209 369.904 194.767 369.904 194.767C369.904 194.767 365.8 194.053 363.916 196.413C362.032 198.773 364.227 202.639 367.089 206.77C369.951 210.901 376.765 220.161 378.596 221.958C380.433 223.756 385.622 229.751 382.277 232.309C378.933 234.873 375.925 232.183 372.224 232.064C368.523 231.945 366.996 233.948 366.368 236.083C365.74 238.218 369.442 241.185 374.511 242.236C379.58 243.287 385.641 246.658 385.641 246.658L394.914 239.5L406.111 225.091L401.901 216.532L397.492 216.03C397.499 216.036 397.889 207.067 400.638 204.153Z" fill="white"/>
<path d="M326.076 266.467C326.076 266.467 329.209 256.691 329.85 252.481C330.498 248.277 333.115 241.913 327.418 241.245C321.721 240.571 321.886 247.24 321.291 248.826C320.696 250.412 319.579 253.34 316.341 252.699C313.095 252.058 311.661 247.035 309.903 240.961C308.138 234.887 305.257 226.387 303.849 223.433C302.441 220.478 301.469 217.497 297.477 217.907C293.485 218.317 293.809 221.721 293.809 221.721C293.809 221.721 290.511 220.452 288.753 221.489C286.995 222.527 286.697 227.088 286.697 227.088C286.697 227.088 285.355 226.096 282.93 227.167C280.504 228.231 280.762 233.386 281.099 235.647C281.436 237.907 282.289 243.36 283.849 248.813C285.408 254.272 290.934 270.082 293.994 273.658C293.994 273.658 300.048 268.172 307.748 266.817C315.448 265.469 326.076 266.467 326.076 266.467Z" fill="white"/>
<path d="M187.8 382.687H56.3513C47.6004 382.687 40.4424 375.529 40.4424 366.778V291.113C40.4424 282.362 47.6004 275.204 56.3513 275.204H187.807C196.558 275.204 203.716 282.362 203.716 291.113V366.778C203.709 375.529 196.551 382.687 187.8 382.687Z" fill="#4A7EFF"/>
<path d="M211.819 262.131H84.6933C74.7527 262.131 66.623 270.26 66.623 280.201V288.939H229.89V280.201C229.89 270.267 221.76 262.131 211.819 262.131Z" fill="#282828"/>
<path d="M412.793 272.792C412.793 272.792 394.65 275.198 386.355 294.087C378.06 312.977 373.143 332.211 363.209 331.226C353.275 330.234 353.229 326.632 347.882 310.281C342.528 293.929 335.046 271.093 335.046 271.093C335.046 271.093 329.124 264.041 309.91 266.513C290.697 268.985 289.626 278.661 289.626 278.661C289.626 278.661 296.989 322.23 302.785 336.414C302.785 336.414 313.288 369.356 333.024 377.829C352.759 386.302 363.05 384.214 376.395 381.378L376.401 385.304C376.401 385.304 373.678 444.069 374.002 447.453L473.719 447.38C473.719 447.38 467.07 410.017 466.832 394.062C466.541 374.848 470.13 350.096 470.13 350.096C470.13 350.096 462.787 350.076 460.467 342.369C457.605 332.858 460.467 323.513 460.612 317.181C460.758 310.842 462.456 296.592 453.613 291.781C444.776 286.969 439.356 289.249 430.031 285.165C420.711 281.067 413.15 275.178 412.793 272.792Z" fill="#4A7EFF"/>
<path d="M394.134 240.102C394.134 240.102 384.194 245.62 382.667 254.927L397.492 283.631L412.026 272.977C412.026 272.977 408.821 268.317 409.68 259.328C409.68 259.328 400.902 259.038 397.347 252.831C393.791 246.632 396.646 241.681 396.646 241.681L394.134 240.102Z" fill="#4A7EFF"/>
<path d="M135.17 134.238C135.17 139.109 131.217 143.062 126.346 143.062C121.475 143.062 117.522 139.109 117.522 134.238C117.522 129.367 121.475 125.414 126.346 125.414C131.217 125.414 135.17 129.367 135.17 134.238Z" fill="#4A7EFF"/>
<path d="M268.323 134.238C268.323 139.109 264.371 143.062 259.499 143.062C254.628 143.062 250.676 139.109 250.676 134.238C250.676 129.367 254.628 125.414 259.499 125.414C264.371 125.414 268.323 129.367 268.323 134.238Z" fill="#4A7EFF"/>
<path d="M426.157 244.166C426.157 244.166 414.954 246.539 410.89 256.215C406.825 265.892 410.962 270.604 415.668 276.169C420.374 281.735 427.585 284.742 432.264 286.044C436.944 287.353 452.661 287.954 456.634 294.187C460.606 300.42 461.24 309.389 460.606 317.168C459.971 324.947 458.101 333.05 459.892 339.072C461.683 345.093 463.54 350.777 481.974 351.2C500.408 351.63 502.219 331.094 502.027 326.593C501.836 322.092 500.838 305.971 492.133 290.419C483.428 274.867 474.73 273.156 468.59 270.016C462.456 266.877 451.326 259.553 450.474 251.186C450.474 251.186 449.905 245.667 452.569 238.251C455.232 230.835 456.634 223.988 456.634 223.988C456.634 223.988 457.228 209.731 451.617 205.924C446.006 202.117 438.966 200.498 438.966 200.498C438.966 200.498 428.603 196.215 420.612 196.03C412.621 195.838 408.629 196.506 404.73 199.929C400.83 203.353 397.578 208.35 397.492 216.03L412.43 218.667C412.43 218.667 411.048 209.07 414.782 205.924C414.782 205.924 412.621 228.079 424.227 229.791L425.371 230.174C425.371 230.174 427.426 227.993 430.824 228.747C434.221 229.507 439.865 232.825 438.134 238.872C436.402 244.927 428.94 246.361 426.157 244.166Z" fill="#282828"/>
<path d="M417.598 225.144L416.917 230.723L422.978 231.866C422.978 231.866 426.474 226.922 431.749 228.68C437.03 230.438 438.127 233.756 438.127 233.756L444.663 234.186L445.331 228.68L417.598 225.144Z" fill="white"/>
<path d="M445.536 228.627L447.724 228.852L447.01 234.939L444.967 234.464L445.536 228.627Z" fill="white"/>
<path d="M181.667 274.88C181.667 277.557 179.492 279.732 176.815 279.732C174.138 279.732 171.964 277.557 171.964 274.88C171.964 272.204 174.138 270.029 176.815 270.029C179.499 270.029 181.667 272.204 181.667 274.88Z" fill="white"/>
<path d="M198.363 274.881C198.363 277.425 196.294 279.494 193.749 279.494C191.205 279.494 189.136 277.432 189.136 274.881C189.136 272.336 191.198 270.267 193.749 270.267C196.294 270.267 198.363 272.336 198.363 274.881Z" fill="white"/>
<path d="M215.289 274.881C215.289 277.425 213.221 279.494 210.676 279.494C208.131 279.494 206.062 277.432 206.062 274.881C206.062 272.336 208.125 270.267 210.676 270.267C213.227 270.267 215.289 272.336 215.289 274.881Z" fill="white"/>
<path d="M438.649 89.9084C436.891 86.8945 434.009 86.8945 432.251 89.9084L418.728 113.068C416.97 116.082 418.384 118.547 421.874 118.547H449.039C452.529 118.547 453.943 116.082 452.185 113.068L438.649 89.9084Z" fill="white"/>
<path d="M499.204 229.56H472.383V256.381H499.204V229.56Z" fill="#4A7EFF"/>
<path d="M427.261 319.686C427.261 319.686 416.296 381.92 375.198 399.508L376.388 381.385C376.388 381.385 397.743 374.326 412.026 354.048C426.309 333.757 427.261 319.686 427.261 319.686Z" fill="#282828"/>
<path d="M406.11 217.623C407.703 193.782 429.964 197.609 430.783 197.768C427.578 196.889 423.903 196.115 420.618 196.036C412.627 195.845 408.635 196.512 404.735 199.936C400.836 203.359 397.584 208.356 397.498 216.036L405.185 217.391L406.11 217.623Z" fill="white"/>
<path d="M416.124 260.141C419.191 247.088 432.264 245.078 432.264 245.078L431.921 244.794C429.687 245.402 427.433 245.171 426.157 244.166C426.157 244.166 414.954 246.539 410.889 256.215C406.824 265.892 410.962 270.604 415.668 276.169C420.374 281.734 427.585 284.742 432.264 286.05C433.328 286.348 434.981 286.612 436.917 286.91C428.424 283.711 412.257 276.599 416.124 260.141Z" fill="white"/>
<path d="M384.313 378.279C384.313 378.279 370.043 385.113 355.634 383.784C341.226 382.456 333.023 377.836 333.023 377.836C333.023 377.836 337.016 361.755 358.668 361.623C380.321 361.484 384.313 378.279 384.313 378.279Z" fill="#282828"/>
<path d="M447.208 235.402C447.122 235.395 444.584 235.098 444.584 235.098C444.168 235.052 443.877 234.675 443.923 234.265C443.97 233.855 444.274 233.518 444.756 233.604L446.547 233.816L447.036 229.645L445.245 229.434C444.829 229.387 444.538 229.011 444.584 228.601C444.631 228.191 444.948 227.854 445.417 227.94L447.955 228.237C448.153 228.257 448.332 228.363 448.457 228.522C448.583 228.68 448.636 228.879 448.616 229.077L447.955 234.741C447.935 234.939 447.83 235.118 447.671 235.243C447.545 235.343 447.38 235.402 447.208 235.402Z" fill="black"/>
<path d="M444.677 235.105C444.591 235.098 437.611 234.278 437.611 234.278C437.195 234.232 436.904 233.855 436.95 233.446C436.997 233.036 437.301 232.705 437.783 232.785L444.009 233.518L444.498 229.341L417.697 225.924L412.661 227.728L416.62 230.306L423.579 231.126C423.996 231.172 424.287 231.549 424.24 231.958C424.194 232.362 423.85 232.672 423.408 232.619L416.269 231.78C416.157 231.767 416.045 231.727 415.946 231.661L410.572 228.158C410.334 227.999 410.202 227.722 410.235 227.438C410.268 227.153 410.46 226.915 410.724 226.816L417.36 224.444C417.472 224.404 417.578 224.391 417.71 224.404L445.43 227.94C445.84 227.993 446.131 228.363 446.078 228.773L445.417 234.437C445.397 234.635 445.291 234.814 445.133 234.939C445.014 235.045 444.842 235.105 444.677 235.105Z" fill="black"/>
<path d="M449.039 119.3H421.867C419.898 119.3 418.411 118.593 417.677 117.311C416.937 116.029 417.082 114.39 418.08 112.691L431.596 89.5314C432.588 87.8328 433.949 86.9009 435.443 86.9009C436.937 86.9009 438.305 87.8394 439.296 89.5314L452.833 112.691C453.824 114.39 453.969 116.035 453.236 117.318C452.495 118.593 451.008 119.3 449.039 119.3ZM435.45 88.4012C434.511 88.4012 433.606 89.0688 432.898 90.2915L419.376 113.451C418.662 114.667 418.523 115.771 418.979 116.564C419.428 117.357 420.46 117.793 421.867 117.793H449.039C450.447 117.793 451.471 117.357 451.927 116.564C452.383 115.771 452.238 114.667 451.53 113.451L437.994 90.2915C437.287 89.0754 436.382 88.4012 435.45 88.4012Z" fill="black"/>
<path d="M510.969 448.213H109.762C109.346 448.213 109.009 447.876 109.009 447.46C109.009 447.043 109.346 446.706 109.762 446.706H510.969C511.385 446.706 511.722 447.043 511.722 447.46C511.722 447.876 511.392 448.213 510.969 448.213Z" fill="black"/>
<path d="M410.929 223.756C410.677 223.756 410.433 223.631 410.287 223.399C408.252 220.101 404.861 221.185 404.722 221.231C404.326 221.357 403.903 221.152 403.771 220.756C403.638 220.366 403.843 219.936 404.24 219.804C405.833 219.262 409.428 219.15 411.57 222.606C411.788 222.963 411.682 223.426 411.325 223.644C411.2 223.723 411.067 223.756 410.929 223.756Z" fill="black"/>
<path d="M406.071 225.58C405.482 225.422 405.053 225.633 404.643 227.768C404.187 230.148 404.762 230.637 405.304 230.676C405.846 230.716 406.467 230.035 406.632 228.317C406.798 226.592 406.844 225.785 406.071 225.58Z" fill="black"/>
<path d="M430.189 245.792C428.318 245.786 426.553 245.224 425.053 244.173C424.709 243.935 424.623 243.466 424.868 243.122C425.106 242.785 425.575 242.699 425.912 242.937C427.168 243.816 428.635 244.285 430.169 244.285C434.286 244.285 437.631 240.961 437.644 236.863C437.651 234.873 436.884 232.996 435.483 231.588C434.082 230.174 432.211 229.394 430.222 229.388C427.617 229.388 425.258 230.69 423.883 232.877C423.665 233.228 423.196 233.34 422.845 233.115C422.495 232.891 422.389 232.428 422.608 232.078C424.267 229.454 427.095 227.887 430.189 227.887C432.621 227.894 434.868 228.839 436.553 230.531C438.239 232.23 439.158 234.483 439.151 236.876C439.131 241.793 435.113 245.786 430.189 245.792Z" fill="black"/>
<path d="M432.238 241.305C432.092 241.305 431.953 241.265 431.821 241.179L426.177 237.451C425.972 237.312 425.84 237.088 425.84 236.843C425.833 236.599 425.945 236.367 426.144 236.222L431.821 232.012C432.158 231.767 432.628 231.833 432.879 232.17C433.123 232.507 433.057 232.977 432.72 233.221L427.908 236.79L432.654 239.93C433.004 240.161 433.097 240.624 432.872 240.974C432.72 241.186 432.476 241.305 432.238 241.305Z" fill="black"/>
<path d="M374.009 447.222C373.592 447.222 373.262 446.891 373.255 446.475C373.077 432.185 375.542 383.242 375.648 381.167C375.668 380.75 376.031 380.4 376.441 380.453C376.858 380.473 377.175 380.83 377.155 381.24C377.049 383.315 374.59 432.212 374.762 446.455C374.769 446.871 374.438 447.208 374.022 447.215C374.015 447.222 374.015 447.222 374.009 447.222Z" fill="black"/>
<path d="M395.628 281.728C395.357 281.728 395.099 281.582 394.967 281.331C390.499 273.03 386.97 265.647 382.495 256.308L381.993 255.25C381.94 255.138 381.913 255.006 381.92 254.88C381.94 254.53 382.561 246.248 394.26 239.447C394.617 239.229 395.079 239.361 395.291 239.718C395.502 240.075 395.377 240.538 395.02 240.749C384.993 246.572 383.612 253.591 383.447 254.788L383.863 255.653C388.318 264.979 391.847 272.342 396.295 280.617C396.494 280.981 396.355 281.437 395.985 281.635C395.872 281.701 395.753 281.728 395.628 281.728Z" fill="black"/>
<path d="M473.712 447.387C473.368 447.387 473.064 447.149 472.978 446.805C472.892 446.422 464.168 408.55 466.058 380.228C466.27 377.089 466.593 373.612 466.937 369.938C467.585 363.024 468.259 355.873 468.272 349.765C468.272 349.349 468.609 349.012 469.026 349.012C469.442 349.012 469.779 349.356 469.779 349.765C469.766 355.939 469.092 363.123 468.437 370.07C468.094 373.738 467.77 377.201 467.565 380.321C465.695 408.411 474.366 446.078 474.452 446.455C474.545 446.865 474.294 447.268 473.89 447.361C473.831 447.38 473.771 447.387 473.712 447.387Z" fill="black"/>
<path d="M358.397 384.432C356.354 384.432 354.259 384.346 352.104 384.167L349.884 383.93C338.515 382.403 328.462 377.452 320.776 369.62C308.753 357.353 302.824 340.42 298.608 325.469C294.007 309.163 291.78 295.945 288.951 279.203L288.879 278.793C288.852 278.641 288.872 278.482 288.938 278.344C289.156 277.888 294.463 267.207 313.056 265.534C329.804 264.034 335.383 270.346 335.607 270.611C335.673 270.683 335.72 270.769 335.753 270.862L351.715 319.639C352.977 323.559 354.173 327.26 357.729 329.289C361.199 331.272 365.542 330.816 368.78 328.106C371.92 325.489 373.671 321.662 375.343 317.643C376.163 315.667 376.963 313.678 377.762 311.682C380.347 305.237 383.023 298.582 386.388 292.408C391.199 283.585 397.128 277.564 404.022 274.523C407.102 273.155 409.448 272.488 412.673 272.058C413.123 271.985 413.467 272.296 413.52 272.706C413.572 273.116 413.282 273.499 412.872 273.552C409.798 273.962 407.564 274.596 404.623 275.898C398.047 278.806 392.349 284.603 387.703 293.129C384.385 299.223 381.728 305.846 379.157 312.243C378.351 314.246 377.551 316.242 376.725 318.218C375.052 322.257 373.136 326.427 369.738 329.263C366.004 332.382 361.007 332.898 356.976 330.598C352.911 328.278 351.569 324.121 350.274 320.102L344.728 303.129L334.365 271.496C333.605 270.743 327.954 265.706 313.181 267.035C296.869 268.502 291.212 277.359 290.399 278.8C293.241 295.654 295.468 308.84 300.048 325.066C304.212 339.831 310.055 356.547 321.84 368.576C329.289 376.17 339.044 380.962 350.062 382.442L352.243 382.68C354.338 382.859 356.387 382.938 358.377 382.938C413.453 382.938 426.831 318.351 426.963 317.67C427.042 317.26 427.432 316.989 427.849 317.075C428.259 317.154 428.523 317.551 428.444 317.961C428.311 318.641 414.683 384.432 358.397 384.432Z" fill="black"/>
<path d="M409.68 260.088C403.791 259.48 399.66 257.392 397.32 253.889C394.273 249.322 395.264 243.842 395.648 242.23C394.425 241.06 390.684 237.273 390.717 234.768C390.737 232.778 395.694 230.511 397.954 229.579C399.131 228.436 400.175 222.686 400.545 218.885L400.816 216.856C400.876 216.446 401.206 216.169 401.662 216.208C402.079 216.268 402.363 216.645 402.31 217.054L402.039 219.05C401.874 220.69 400.955 229.084 398.833 230.809C395.324 232.276 392.323 234.087 392.224 234.788C392.204 236.407 395.145 239.718 397.009 241.43C397.221 241.622 397.307 241.926 397.221 242.197C397.201 242.256 395.443 248.35 398.589 253.056C400.671 256.169 404.432 258.026 409.772 258.582C410.188 258.628 410.486 258.998 410.44 259.408C410.387 259.798 410.063 260.088 409.68 260.088Z" fill="black"/>
<path d="M556.661 148.68C558.472 148.68 559.939 147.212 559.939 145.401C559.939 143.59 558.472 142.123 556.661 142.123C554.85 142.123 553.382 143.59 553.382 145.401C553.382 147.206 554.85 148.68 556.661 148.68Z" fill="#282828"/>
<path d="M582.153 148.845C584.057 148.845 585.603 147.298 585.603 145.395C585.603 143.491 584.057 141.945 582.153 141.945C580.25 141.945 578.703 143.491 578.703 145.395C578.703 147.305 580.25 148.845 582.153 148.845Z" fill="#282828"/>
<path d="M607.646 148.594C609.411 148.594 610.838 147.166 610.838 145.401C610.838 143.637 609.411 142.209 607.646 142.209C605.881 142.209 604.454 143.637 604.454 145.401C604.447 147.159 605.881 148.594 607.646 148.594Z" fill="#282828"/>
<path d="M556.661 174.337C558.564 174.337 560.111 172.791 560.111 170.887C560.111 168.984 558.564 167.437 556.661 167.437C554.757 167.437 553.21 168.984 553.21 170.887C553.21 172.791 554.757 174.337 556.661 174.337Z" fill="#282828"/>
<path d="M582.153 174.503C584.149 174.503 585.775 172.883 585.775 170.881C585.775 168.885 584.156 167.259 582.153 167.259C580.157 167.259 578.531 168.878 578.531 170.881C578.531 172.883 580.157 174.503 582.153 174.503Z" fill="#282828"/>
<path d="M607.646 174.252C609.503 174.252 611.01 172.745 611.01 170.887C611.01 169.03 609.503 167.523 607.646 167.523C605.789 167.523 604.282 169.03 604.282 170.887C604.282 172.745 605.789 174.252 607.646 174.252Z" fill="#282828"/>
<path d="M556.661 199.572C558.425 199.572 559.853 198.145 559.853 196.38C559.853 194.615 558.425 193.188 556.661 193.188C554.896 193.188 553.468 194.615 553.468 196.38C553.468 198.145 554.896 199.572 556.661 199.572Z" fill="#282828"/>
<path d="M582.153 199.744C584.011 199.744 585.518 198.237 585.518 196.38C585.518 194.523 584.011 193.016 582.153 193.016C580.296 193.016 578.789 194.523 578.789 196.38C578.789 198.237 580.296 199.744 582.153 199.744Z" fill="#282828"/>
<path d="M607.646 199.513C609.378 199.513 610.785 198.105 610.785 196.373C610.785 194.642 609.378 193.234 607.646 193.234C605.914 193.234 604.506 194.642 604.506 196.373C604.506 198.112 605.908 199.513 607.646 199.513Z" fill="#282828"/>
<path d="M129.769 255.27C129.353 255.27 129.016 254.933 129.016 254.517V166.664C129.016 156.287 137.456 147.84 147.839 147.84H179.558C179.974 147.84 180.312 148.177 180.312 148.594C180.312 149.01 179.974 149.347 179.558 149.347H147.839C138.295 149.347 130.523 157.113 130.523 166.664V254.517C130.523 254.926 130.185 255.27 129.769 255.27Z" fill="black"/>
<path d="M374.867 398.12H147.839C137.813 398.12 129.016 389.858 129.016 380.433C129.016 380.017 129.353 379.68 129.769 379.68C130.185 379.68 130.523 380.017 130.523 380.433C130.523 389.052 138.613 396.607 147.839 396.607H374.867C375.284 396.607 375.621 396.944 375.621 397.36C375.621 397.783 375.284 398.12 374.867 398.12Z" fill="black"/>
<path d="M502.846 398.12H484.287C483.871 398.12 483.534 397.783 483.534 397.367C483.534 396.95 483.871 396.613 484.287 396.613H502.846C512.391 396.613 520.163 388.847 520.163 379.297V297.69C520.163 297.273 520.5 296.936 520.917 296.936C521.333 296.936 521.67 297.273 521.67 297.69V379.297C521.67 389.68 513.23 398.12 502.846 398.12Z" fill="black"/>
<path d="M520.917 206.684C520.5 206.684 520.163 206.347 520.163 205.931V166.664C520.163 157.113 512.39 149.347 502.846 149.347H206.095C205.679 149.347 205.342 149.01 205.342 148.594C205.342 148.177 205.679 147.84 206.095 147.84H502.846C513.223 147.84 521.67 156.287 521.67 166.664V205.931C521.67 206.347 521.34 206.684 520.917 206.684Z" fill="black"/>
<path d="M213.98 370.367H82.5318C73.3447 370.367 65.876 362.892 65.876 353.705V278.04C65.876 268.853 73.3513 261.377 82.5318 261.377H213.987C223.174 261.377 230.65 268.853 230.65 278.04V353.705C230.643 362.892 223.168 370.367 213.98 370.367ZM82.5318 262.884C74.1774 262.884 67.3763 269.685 67.3763 278.04V353.705C67.3763 362.059 74.1774 368.86 82.5318 368.86H213.987C222.341 368.86 229.143 362.059 229.143 353.705V278.04C229.143 269.685 222.341 262.884 213.987 262.884H82.5318Z" fill="black"/>
<path d="M458.365 131.528H405.998C400.076 131.528 395.258 126.71 395.258 120.788V85.4073C395.258 79.4853 400.076 74.667 405.998 74.667H465.344C471.266 74.667 476.085 79.4853 476.085 85.4073V114.529C476.085 114.945 475.748 115.282 475.331 115.282C474.915 115.282 474.578 114.945 474.578 114.529V85.4073C474.578 80.3181 470.434 76.1739 465.344 76.1739H405.998C400.909 76.1739 396.765 80.3115 396.765 85.4073V120.788C396.765 125.877 400.909 130.021 405.998 130.021H458.365C458.781 130.021 459.118 130.358 459.118 130.775C459.118 131.191 458.781 131.528 458.365 131.528Z" fill="black"/>
<path d="M215.051 289.692H77.7134C77.297 289.692 76.96 289.355 76.96 288.939C76.96 288.522 77.297 288.185 77.7134 288.185H215.051C215.468 288.185 215.805 288.522 215.805 288.939C215.805 289.355 215.468 289.692 215.051 289.692Z" fill="black"/>
<path d="M210.676 280.009C207.847 280.009 205.554 277.709 205.554 274.88C205.554 272.052 207.854 269.751 210.676 269.751C213.505 269.751 215.798 272.052 215.798 274.88C215.805 277.709 213.505 280.009 210.676 280.009ZM210.676 271.258C208.68 271.258 207.054 272.884 207.054 274.88C207.054 276.876 208.68 278.502 210.676 278.502C212.672 278.502 214.298 276.876 214.298 274.88C214.298 272.884 212.672 271.258 210.676 271.258Z" fill="black"/>
<path d="M193.749 280.009C190.92 280.009 188.62 277.709 188.62 274.88C188.62 272.052 190.92 269.751 193.749 269.751C196.578 269.751 198.871 272.052 198.871 274.88C198.878 277.709 196.578 280.009 193.749 280.009ZM193.749 271.258C191.746 271.258 190.12 272.884 190.12 274.88C190.12 276.876 191.746 278.502 193.749 278.502C195.745 278.502 197.371 276.876 197.371 274.88C197.371 272.884 195.745 271.258 193.749 271.258Z" fill="black"/>
<path d="M176.816 280.009C173.987 280.009 171.693 277.709 171.693 274.88C171.693 272.052 173.993 269.751 176.816 269.751C179.638 269.751 181.938 272.052 181.938 274.88C181.945 277.709 179.645 280.009 176.816 280.009ZM176.816 271.258C174.82 271.258 173.194 272.884 173.194 274.88C173.194 276.876 174.82 278.502 176.816 278.502C178.812 278.502 180.438 276.876 180.438 274.88C180.438 272.884 178.812 271.258 176.816 271.258Z" fill="black"/>
<path d="M198.448 139.638H197.245C196.829 139.638 196.492 139.301 196.492 138.884C196.492 138.468 196.829 138.131 197.245 138.131H198.448C200.16 138.131 201.548 136.743 201.548 135.031V124.615C201.548 122.903 200.16 121.515 198.448 121.515H186.604C184.892 121.515 183.504 122.903 183.504 124.615V135.031C183.504 136.736 184.892 138.131 186.604 138.131H188.071C188.488 138.131 188.825 138.468 188.825 138.884C188.825 139.301 188.488 139.638 188.071 139.638H186.604C184.066 139.638 182.004 137.569 182.004 135.031V124.615C182.004 122.077 184.073 120.008 186.604 120.008H198.448C200.986 120.008 203.048 122.077 203.048 124.615V135.031C203.048 137.569 200.986 139.638 198.448 139.638Z" fill="black"/>
<path d="M126.795 127.767C126.293 127.708 125.995 127.331 126.048 126.921C128.765 105.269 142.889 89.5449 159.637 89.5449C173.206 89.5449 185.467 100.094 190.873 116.419C190.999 116.816 190.788 117.239 190.391 117.371C189.994 117.503 189.571 117.291 189.439 116.895C184.244 101.191 172.545 91.0519 159.637 91.0519C143.662 91.0519 130.166 106.214 127.548 127.106C127.489 127.483 127.165 127.767 126.795 127.767Z" fill="black"/>
<path d="M226.208 178.931C223.775 178.931 221.343 178.587 218.99 177.926C218.587 177.814 218.356 177.398 218.475 176.994C218.587 176.598 218.977 176.367 219.407 176.479C221.621 177.107 223.914 177.431 226.208 177.431C242.269 177.431 255.778 162.169 258.33 141.145C258.376 140.728 258.753 140.411 259.169 140.49C259.585 140.543 259.87 140.913 259.823 141.33C257.186 163.115 243.049 178.931 226.208 178.931Z" fill="black"/>
<path d="M126.346 141.211C122.499 141.211 119.373 138.078 119.373 134.238C119.373 130.391 122.499 127.265 126.346 127.265C130.193 127.265 133.319 130.391 133.319 134.238C133.312 138.078 130.193 141.211 126.346 141.211ZM126.346 128.772C123.332 128.772 120.88 131.224 120.88 134.238C120.88 137.252 123.332 139.704 126.346 139.704C129.36 139.704 131.812 137.252 131.812 134.238C131.812 131.224 129.36 128.772 126.346 128.772Z" fill="black"/>
<path d="M259.499 141.211C255.653 141.211 252.526 138.078 252.526 134.238C252.526 130.391 255.653 127.265 259.499 127.265C263.346 127.265 266.472 130.391 266.472 134.238C266.472 138.078 263.346 141.211 259.499 141.211ZM259.499 128.772C256.485 128.772 254.033 131.224 254.033 134.238C254.033 137.252 256.485 139.704 259.499 139.704C262.513 139.704 264.965 137.252 264.965 134.238C264.965 131.224 262.513 128.772 259.499 128.772Z" fill="black"/>
<path d="M326.361 266.804C326.249 266.804 326.143 266.777 326.037 266.731C325.661 266.552 325.509 266.103 325.68 265.726C326.355 264.318 327.115 260.862 327.782 257.808C328.304 255.448 328.787 253.214 329.217 252.018C330.089 249.573 331.127 246.631 330.459 244.312C330.188 243.38 329.587 242.606 328.853 242.249C327.914 241.793 326.626 241.939 325.555 242.626C324.643 243.214 323.856 244.133 323.083 245.534C322.845 245.964 322.64 246.737 322.429 247.55C321.847 249.764 321.06 252.785 318.423 253.419C314.61 254.312 311.801 251.258 310.003 244.298C309.461 242.21 308.727 239.454 307.894 236.678C306.169 230.914 304.411 226.255 302.343 222.025L302.105 221.529C301.576 220.425 301.08 219.374 300.148 218.693C299.626 218.31 298.846 218.105 298.179 218.165C297.081 218.237 296.229 218.68 295.627 219.5C294.768 220.676 294.504 222.593 294.953 224.391C295.878 228.092 303.671 250.24 303.75 250.465C303.889 250.862 303.678 251.285 303.288 251.423C302.904 251.569 302.468 251.357 302.323 250.967C301.999 250.055 294.431 228.528 293.492 224.761C292.931 222.52 293.288 220.161 294.418 218.621C295.277 217.444 296.546 216.77 298.086 216.671C299.177 216.598 300.234 216.889 301.047 217.49C302.276 218.396 302.884 219.665 303.466 220.888L303.697 221.37C305.799 225.68 307.59 230.405 309.335 236.255C310.181 239.057 310.915 241.826 311.464 243.928C313.017 249.936 315.224 252.626 318.073 251.965C319.824 251.542 320.466 249.123 320.975 247.18C321.226 246.228 321.437 245.402 321.768 244.814C322.667 243.188 323.612 242.097 324.749 241.37C326.269 240.399 328.086 240.22 329.514 240.908C330.638 241.456 331.51 242.547 331.907 243.902C332.713 246.684 331.583 249.883 330.671 252.448C330.248 253.644 329.765 255.825 329.263 258.145C328.542 261.43 327.802 264.827 327.049 266.387C326.916 266.645 326.645 266.804 326.361 266.804Z" fill="black"/>
<path d="M295.435 255.27C295.138 255.27 294.867 255.098 294.741 254.807C285.052 231.767 285.376 225.6 286.466 222.97C286.929 221.84 287.702 221.073 288.813 220.623C292.527 219.11 294.517 221.337 294.596 221.436C294.867 221.754 294.827 222.229 294.51 222.5C294.199 222.765 293.73 222.738 293.452 222.421C293.38 222.342 292.031 220.934 289.381 222.018C288.647 222.315 288.165 222.805 287.854 223.551C286.314 227.286 289.018 237.319 296.129 254.226C296.294 254.609 296.109 255.052 295.726 255.211C295.634 255.25 295.534 255.27 295.435 255.27Z" fill="black"/>
<path d="M293.803 274.418C293.571 274.418 293.34 274.305 293.195 274.107C285.66 263.677 278.383 233.413 280.392 228.998C281.06 227.53 282.025 226.592 283.247 226.215C285.184 225.614 287.048 226.717 287.127 226.764C287.484 226.982 287.59 227.438 287.378 227.795C287.16 228.152 286.698 228.264 286.347 228.052C286.328 228.046 284.992 227.253 283.677 227.656C282.884 227.9 282.243 228.561 281.76 229.626C280.101 233.274 286.843 262.745 294.418 273.228C294.662 273.565 294.583 274.034 294.246 274.279C294.113 274.371 293.961 274.418 293.803 274.418Z" fill="black"/>
<path d="M386.639 247.412C384.822 247.141 382.119 246.004 379.495 244.907C377.585 244.107 375.774 243.347 374.63 243.043C372.059 242.369 368.635 241.476 366.778 239.229C365.879 238.145 365.469 236.81 365.648 235.568C365.879 234.008 367.049 232.593 368.715 231.886C369.951 231.364 371.392 231.186 373.242 231.364C373.91 231.423 374.709 231.714 375.635 232.038C377.532 232.712 379.878 233.558 381.226 232.336C383.374 230.379 382.396 227.022 378.305 222.349C376.21 219.956 374.624 218.079 373.156 216.268C369.29 211.509 366.395 207.365 364.029 203.228L363.758 202.765C363.077 201.595 362.376 200.379 362.323 198.845C362.284 197.847 362.634 196.81 363.308 195.944C364.253 194.728 365.529 194.06 366.99 194.007C369.025 194.001 371.094 195.025 372.588 196.704C375.185 199.619 388.173 219.87 388.721 220.729C388.946 221.08 388.847 221.542 388.49 221.767C388.153 221.998 387.677 221.893 387.452 221.542C387.314 221.331 373.982 200.531 371.464 197.702C370.235 196.321 368.503 195.528 367.042 195.508C366.031 195.541 365.172 195.997 364.504 196.863C364.055 197.444 363.81 198.145 363.837 198.786C363.877 199.949 364.458 200.947 365.073 201.998L365.35 202.474C367.67 206.539 370.526 210.617 374.333 215.316C375.787 217.107 377.366 218.971 379.442 221.351C384.174 226.764 385.119 230.829 382.238 233.446C380.235 235.27 377.274 234.213 375.132 233.453C374.339 233.168 373.586 232.904 373.103 232.858C371.524 232.719 370.301 232.838 369.303 233.261C368.14 233.757 367.287 234.741 367.142 235.772C367.023 236.579 367.32 237.511 367.935 238.258C369.475 240.128 372.509 240.921 374.934 241.556C376.249 241.899 378.107 242.679 380.07 243.506C382.482 244.517 385.218 245.667 386.745 245.898C387.155 245.964 387.439 246.348 387.373 246.757C387.327 247.141 387.003 247.412 386.639 247.412Z" fill="black"/>
<path d="M396.012 215.713C395.768 215.713 395.523 215.587 395.378 215.369C385.463 200.042 378.728 192.19 374.802 191.37C373.983 191.211 373.329 191.33 372.654 191.78C370.235 193.379 370.672 195.289 370.691 195.375C370.79 195.779 370.546 196.188 370.149 196.287C369.733 196.387 369.343 196.155 369.237 195.759C369.204 195.633 368.464 192.745 371.815 190.524C372.833 189.85 373.904 189.638 375.106 189.896C377.876 190.478 383.117 193.657 396.64 214.549C396.865 214.9 396.766 215.362 396.415 215.594C396.29 215.673 396.151 215.713 396.012 215.713Z" fill="black"/>
<path d="M400.639 204.906C400.414 204.906 400.189 204.807 400.044 204.609C392.344 194.582 385.648 190.18 383.236 189.764C382.086 189.566 381.18 189.724 380.526 190.24C379.455 191.086 379.35 192.652 379.35 192.665C379.33 193.062 378.993 193.373 378.596 193.373C378.14 193.346 377.823 192.996 377.843 192.58C377.849 192.487 377.982 190.339 379.568 189.063C380.572 188.264 381.894 187.993 383.481 188.277C386.223 188.753 393.216 193.247 401.227 203.69C401.478 204.021 401.419 204.496 401.088 204.748C400.956 204.853 400.797 204.906 400.639 204.906Z" fill="black"/>
<path d="M391.464 194.529C391.048 194.529 390.711 194.192 390.711 193.776V191.178C390.711 181.628 382.938 173.862 373.394 173.862H350.79C350.373 173.862 350.036 173.525 350.036 173.108C350.036 172.692 350.373 172.355 350.79 172.355H373.394C383.771 172.355 392.218 180.802 392.218 191.178V193.776C392.218 194.192 391.881 194.529 391.464 194.529Z" fill="black"/>
<path d="M280.769 235.957H274.907C264.53 235.957 256.083 227.511 256.083 217.134V191.185C256.083 180.808 264.53 172.361 274.907 172.361H316.269C316.685 172.361 317.022 172.698 317.022 173.115C317.022 173.531 316.685 173.868 316.269 173.868H274.907C265.363 173.868 257.59 181.634 257.59 191.185V217.134C257.59 226.684 265.363 234.451 274.907 234.451H280.769C281.186 234.451 281.523 234.788 281.523 235.204C281.523 235.614 281.186 235.957 280.769 235.957Z" fill="black"/>
<path d="M366.024 235.957H308.238C307.821 235.957 307.484 235.62 307.484 235.204C307.484 234.788 307.821 234.45 308.238 234.45H366.024C366.441 234.45 366.778 234.788 366.778 235.204C366.778 235.614 366.441 235.957 366.024 235.957Z" fill="black"/>
<path d="M479.29 351.967C477.36 351.967 475.331 351.808 473.197 351.491C456.97 349.072 458.034 337.631 459.264 324.385C459.865 317.908 460.553 310.565 459.336 303.354C457.373 291.688 450.632 290.452 441.299 288.741C433.903 287.386 424.696 285.7 416.104 277.716C406.745 269.018 407.75 261.007 410.242 255.819C413.903 248.192 422.753 242.871 426.699 243.453C427.115 243.512 427.393 243.895 427.334 244.305C427.274 244.715 426.878 244.979 426.481 244.94C423.507 244.457 415.159 249.057 411.603 256.467C409.329 261.199 408.444 268.529 417.135 276.606C425.404 284.292 433.989 285.865 441.577 287.247C450.757 288.926 458.695 290.38 460.83 303.09C462.073 310.492 461.379 317.934 460.771 324.504C459.515 338.014 458.603 347.77 473.421 349.984C482.212 351.299 489.105 349.805 493.944 345.569C500.758 339.594 501.346 330.202 501.287 326.434C501.069 313.473 494.512 283.684 475.642 274.325C454.498 263.836 447.77 256.553 449.931 246.486C450.017 246.077 450.42 245.825 450.824 245.911C451.227 245.997 451.484 246.4 451.399 246.804C449.422 256.024 455.939 262.871 476.31 272.977C497.367 283.42 502.615 315.866 502.787 326.414C502.853 330.387 502.225 340.314 494.935 346.705C490.943 350.208 485.695 351.967 479.29 351.967Z" fill="black"/>
<path d="M450.473 248.826C449.984 248.78 449.68 248.41 449.726 247.993C450.202 243.419 452.093 235.667 455.344 224.946C455.47 224.523 455.549 224.265 455.569 224.193C456.514 217.576 455.358 212.137 452.126 208.099C447.017 201.714 438.325 200.96 438.239 200.954C438.153 200.947 438.067 200.927 437.995 200.888C435.728 199.89 419.078 194.847 411.716 197.206C399.27 201.218 398.298 212.738 398.245 215.475L411.901 217.94C411.577 215.157 411.055 207.695 414.458 205.223C414.703 205.038 415.02 205.032 415.278 205.184C415.536 205.336 415.681 205.62 415.648 205.917C415.635 206.036 414.392 217.57 417.935 224.463C418.127 224.834 417.981 225.29 417.611 225.481C417.241 225.673 416.792 225.528 416.6 225.157C413.89 219.89 413.791 212.381 413.963 208.422C412.766 211.502 413.183 216.605 413.533 218.746C413.573 218.991 413.493 219.235 413.315 219.407C413.143 219.579 412.899 219.672 412.654 219.612L397.366 216.856C397.023 216.797 396.765 216.506 396.745 216.155C396.739 216.003 396.071 200.669 411.246 195.778C419.045 193.267 435.655 198.283 438.477 199.467C439.667 199.579 448.048 200.617 453.289 207.153C456.799 211.535 458.061 217.365 457.05 224.483C457.043 224.516 456.951 224.84 456.785 225.395C452.773 238.628 451.544 245.078 451.22 248.158C451.181 248.535 450.857 248.826 450.473 248.826Z" fill="black"/>
<path d="M398.946 246.744C397.61 246.744 396.408 246.387 395.647 246.03C395.271 245.852 395.119 245.402 395.297 245.025C395.476 244.649 395.918 244.49 396.302 244.669C396.454 244.741 400.135 246.427 402.554 243.671C402.832 243.353 403.308 243.327 403.618 243.604C403.929 243.882 403.962 244.351 403.691 244.669C402.29 246.242 400.532 246.744 398.946 246.744Z" fill="black"/>
<path d="M416.673 231.813C416.144 231.734 415.866 231.35 415.932 230.941L416.878 225.025C416.944 224.615 417.347 224.351 417.737 224.404C418.147 224.47 418.424 224.853 418.358 225.263L417.413 231.179C417.36 231.549 417.036 231.813 416.673 231.813Z" fill="black"/>
<path d="M106.18 359.521C105.764 359.521 105.427 359.184 105.427 358.767V288.939C105.427 288.522 105.764 288.185 106.18 288.185C106.597 288.185 106.934 288.522 106.934 288.939V358.767C106.934 359.184 106.597 359.521 106.18 359.521Z" fill="black"/>
<path d="M356.83 195.778H341.628C341.212 195.778 340.875 195.441 340.875 195.025C340.875 194.609 341.212 194.271 341.628 194.271H356.83C357.247 194.271 357.584 194.609 357.584 195.025C357.577 195.435 357.247 195.778 356.83 195.778Z" fill="black"/>
<path d="M329.071 195.778H291.139C290.723 195.778 290.386 195.441 290.386 195.025C290.386 194.609 290.723 194.271 291.139 194.271H329.071C329.487 194.271 329.824 194.609 329.824 195.025C329.824 195.435 329.487 195.778 329.071 195.778Z" fill="black"/>
<path d="M333.638 214.04H291.139C290.723 214.04 290.386 213.703 290.386 213.287C290.386 212.871 290.723 212.533 291.139 212.533H333.638C334.054 212.533 334.391 212.871 334.391 213.287C334.391 213.703 334.054 214.04 333.638 214.04Z" fill="black"/>
<path d="M307.174 348.378H269.738C269.321 348.378 268.984 348.041 268.984 347.624V309.124C268.984 308.708 269.321 308.371 269.738 308.371H295.468C295.885 308.371 296.222 308.708 296.222 309.124C296.222 309.54 295.885 309.878 295.468 309.878H270.491V346.871H307.174C307.59 346.871 307.927 347.208 307.927 347.624C307.927 348.041 307.59 348.378 307.174 348.378Z" fill="black"/>
<path d="M490.996 199.592H464.174C463.758 199.592 463.421 199.255 463.421 198.839V172.018C463.421 171.601 463.758 171.264 464.174 171.264H490.996C491.412 171.264 491.749 171.601 491.749 172.018V198.839C491.749 199.255 491.419 199.592 490.996 199.592ZM464.928 198.085H490.249V172.771H464.928V198.085Z" fill="black"/>
<path d="M490.996 251.001H464.174C463.758 251.001 463.421 250.663 463.421 250.247V223.426C463.421 223.009 463.758 222.672 464.174 222.672H490.996C491.412 222.672 491.749 223.009 491.749 223.426V250.247C491.749 250.657 491.419 251.001 490.996 251.001ZM464.928 249.487H490.249V224.173H464.928V249.487Z" fill="black"/>
<path d="M384.313 379.032C383.989 379.032 383.692 378.821 383.593 378.497C380.698 369.006 370.334 362.37 358.391 362.37C346.791 362.37 336.507 368.761 333.381 377.922C333.248 378.312 332.819 378.53 332.429 378.391C332.032 378.259 331.821 377.829 331.96 377.433C335.291 367.677 346.163 360.863 358.397 360.863C370.995 360.863 381.953 367.935 385.04 378.054C385.159 378.45 384.934 378.873 384.538 378.992C384.458 379.019 384.386 379.032 384.313 379.032Z" fill="black"/>
<path d="M195.196 185.045C214.557 185.045 230.253 169.349 230.253 149.988C230.253 130.627 214.557 114.932 195.196 114.932C175.835 114.932 160.14 130.627 160.14 149.988C160.14 169.349 175.835 185.045 195.196 185.045Z" fill="white"/>
<path fill-rule="evenodd" clip-rule="evenodd" d="M195.196 115.682C176.249 115.682 160.89 131.041 160.89 149.988C160.89 168.935 176.249 184.295 195.196 184.295C214.143 184.295 229.503 168.935 229.503 149.988C229.503 131.041 214.143 115.682 195.196 115.682ZM159.39 149.988C159.39 130.213 175.421 114.182 195.196 114.182C214.972 114.182 231.003 130.213 231.003 149.988C231.003 169.764 214.972 185.795 195.196 185.795C175.421 185.795 159.39 169.764 159.39 149.988Z" fill="black"/>
<path d="M192.599 162.262C188.468 161.667 185.527 159.149 184.8 155.018H189.063C189.876 157.576 191.918 158.726 194.602 158.726C197.497 158.726 199.288 157.404 199.288 155.104C199.288 153.359 198.31 152.334 195.752 151.74L191.574 150.715C188.21 149.902 185.434 147.946 185.434 143.894C185.434 139.975 188.25 137.034 192.592 136.604V132.771H196.426V136.815C200.094 137.582 202.308 140.014 203.075 143.504H198.944C198.349 141.627 196.684 140.14 193.742 140.14C191.099 140.14 189.44 141.548 189.44 143.59C189.44 145.295 190.504 146.32 192.678 146.875L196.941 147.9C200.775 148.792 203.293 151.138 203.293 154.892C203.293 159.023 200.524 161.667 196.432 162.268V166.485H192.599V162.262Z" fill="#4A7EFF"/>
<path fill-rule="evenodd" clip-rule="evenodd" d="M166.139 149.988C166.139 138.847 172.409 129.172 181.614 124.295L182.316 125.621C173.583 130.248 167.639 139.424 167.639 149.988C167.639 160.198 173.19 169.11 181.441 173.873L180.691 175.172C171.995 170.153 166.139 160.756 166.139 149.988Z" fill="black"/>
<path fill-rule="evenodd" clip-rule="evenodd" d="M208.63 124.221C217.91 129.071 224.248 138.786 224.248 149.988C224.248 160.566 218.595 169.827 210.143 174.908L209.37 173.622C217.389 168.802 222.748 160.019 222.748 149.988C222.748 139.366 216.74 130.152 207.936 125.55L208.63 124.221Z" fill="black"/>
<path d="M585.947 420.724C611.163 420.724 631.605 400.282 631.605 375.066C631.605 349.85 611.163 329.408 585.947 329.408C560.731 329.408 540.289 349.85 540.289 375.066C540.289 400.282 560.731 420.724 585.947 420.724Z" fill="white"/>
<path fill-rule="evenodd" clip-rule="evenodd" d="M585.947 330.158C561.145 330.158 541.039 350.264 541.039 375.066C541.039 399.868 561.145 419.974 585.947 419.974C610.749 419.974 630.855 399.868 630.855 375.066C630.855 350.264 610.749 330.158 585.947 330.158ZM539.539 375.066C539.539 349.436 560.317 328.658 585.947 328.658C611.578 328.658 632.355 349.436 632.355 375.066C632.355 400.697 611.578 421.474 585.947 421.474C560.317 421.474 539.539 400.697 539.539 375.066Z" fill="black"/>
<path fill-rule="evenodd" clip-rule="evenodd" d="M548.33 375.066C548.33 360.64 556.451 348.11 568.365 341.799L569.067 343.125C557.624 349.186 549.83 361.217 549.83 375.066C549.83 388.449 557.106 400.13 567.921 406.373L567.171 407.672C555.911 401.172 548.33 389.007 548.33 375.066Z" fill="black"/>
<path fill-rule="evenodd" clip-rule="evenodd" d="M603.347 341.705C615.363 347.982 623.565 360.566 623.565 375.066C623.565 388.771 616.246 400.754 605.303 407.335L604.53 406.05C615.041 399.729 622.065 388.223 622.065 375.066C622.065 361.146 614.192 349.063 602.652 343.034L603.347 341.705Z" fill="black"/>
<path d="M580.118 381.848H605.485V391.636H574.394L580.118 381.848Z" fill="url(#paint0_linear)"/>
<path d="M603.205 381.848L587.5 354.643L579.021 359.541L591.902 381.848H603.205Z" fill="url(#paint1_linear)"/>
<path d="M605.485 391.636C608.189 391.636 610.382 389.444 610.382 386.739C610.382 384.034 608.189 381.841 605.485 381.841C602.78 381.841 600.587 384.034 600.587 386.739C600.587 389.444 602.78 391.636 605.485 391.636Z" fill="#4A7EFF"/>
<path d="M583.456 362.323C586.161 362.323 588.353 360.131 588.353 357.426C588.353 354.721 586.161 352.528 583.456 352.528C580.751 352.528 578.558 354.721 578.558 357.426C578.558 360.131 580.751 362.323 583.456 362.323Z" fill="#4A7EFF"/>
<path d="M564.572 389.191L580.356 361.854L586.013 371.643L573.052 394.088L564.572 389.191Z" fill="url(#paint2_linear)"/>
<path d="M568.816 396.534C571.52 396.534 573.713 394.341 573.713 391.636C573.713 388.931 571.52 386.739 568.816 386.739C566.111 386.739 563.918 388.931 563.918 391.636C563.918 394.341 566.111 396.534 568.816 396.534Z" fill="#4A7EFF"/>
<path d="M604.764 326.533C604.533 326.474 604.334 326.289 604.268 326.038C603.958 324.868 603.62 323.691 603.237 322.515C603.125 322.151 603.323 321.761 603.687 321.642C604.063 321.537 604.44 321.728 604.566 322.092C604.949 323.295 605.306 324.491 605.617 325.687C605.716 326.057 605.491 326.441 605.121 326.533C604.995 326.566 604.876 326.56 604.764 326.533ZM600.884 315.502C600.686 315.449 600.514 315.317 600.421 315.112C599.357 312.72 598.161 310.34 596.852 308.033C596.661 307.696 596.78 307.273 597.11 307.088C597.441 306.91 597.864 307.016 598.055 307.353C599.384 309.692 600.613 312.118 601.69 314.55C601.843 314.901 601.691 315.31 601.34 315.469C601.188 315.529 601.03 315.535 600.884 315.502ZM549.793 301.569C549.476 301.483 549.165 301.391 548.868 301.279C548.511 301.14 548.326 300.743 548.458 300.38C548.59 300.023 548.987 299.858 549.35 299.97C551.518 300.783 554.235 300.684 556.713 299.785C557.083 299.653 557.473 299.838 557.606 300.201C557.738 300.558 557.553 300.961 557.189 301.094C554.75 301.986 552.047 302.158 549.793 301.569ZM546.098 294.934C545.636 294.735 545.484 294.325 545.642 293.975C546.257 292.607 547.367 291.173 548.941 289.732C549.661 289.064 550.454 288.45 551.28 287.901C551.604 287.676 552.034 287.775 552.245 288.093C552.457 288.41 552.371 288.846 552.054 289.058C551.287 289.573 550.553 290.142 549.886 290.756C548.458 292.072 547.453 293.347 546.918 294.55C546.773 294.861 546.422 295.019 546.098 294.934ZM563.098 296.381C562.999 296.355 562.906 296.308 562.82 296.236C562.53 295.984 562.496 295.548 562.741 295.257C564.387 293.321 565.781 291.107 566.879 288.674C567.031 288.324 567.447 288.152 567.797 288.324C568.148 288.483 568.306 288.892 568.148 289.243C566.998 291.794 565.537 294.127 563.799 296.156C563.62 296.374 563.349 296.447 563.098 296.381ZM593.006 301.596C592.854 301.556 592.708 301.464 592.609 301.318C591.181 299.263 589.602 297.181 587.93 295.145C587.566 294.709 587.599 294.273 587.897 294.028C588.194 293.777 588.637 293.83 588.875 294.114C590.706 296.335 592.299 298.443 593.753 300.532C593.971 300.849 593.891 301.279 593.581 301.497C593.409 301.616 593.197 301.649 593.006 301.596ZM558.848 286.143C558.604 286.077 558.399 285.879 558.346 285.614C558.266 285.237 558.504 284.867 558.881 284.788C561.426 284.246 564.162 284.068 567.031 284.253C567.401 284.306 567.705 284.61 567.678 284.993C567.658 285.376 567.328 285.667 566.938 285.641C564.202 285.462 561.591 285.634 559.172 286.143C559.06 286.176 558.954 286.169 558.848 286.143ZM581.994 290.208C579.648 288.866 577.229 287.828 574.638 287.048C574.268 286.936 574.063 286.553 574.175 286.183C574.288 285.812 574.638 285.634 575.041 285.72C577.738 286.526 580.256 287.61 582.523 288.932C582.854 289.13 582.966 289.553 582.768 289.884C582.609 290.161 582.285 290.287 581.994 290.208ZM569.648 281.992C569.304 281.9 569.079 281.563 569.139 281.206C569.582 278.628 569.694 276.004 569.489 273.407C569.456 273.023 569.74 272.686 570.124 272.66C570.501 272.62 570.844 272.911 570.871 273.301C571.089 276.011 570.97 278.747 570.514 281.444C570.448 281.82 570.091 282.078 569.714 282.012C569.688 282.005 569.661 281.999 569.648 281.992ZM568.346 266.215C568.128 266.156 567.943 265.997 567.863 265.766C567.037 263.347 565.907 260.968 564.512 258.694C564.314 258.37 564.407 257.94 564.737 257.736C565.061 257.531 565.497 257.636 565.689 257.96C567.143 260.32 568.319 262.792 569.179 265.31C569.304 265.674 569.106 266.07 568.742 266.189C568.61 266.249 568.471 266.249 568.346 266.215ZM560.044 252.686C559.919 252.653 559.813 252.593 559.714 252.494C557.91 250.597 555.907 248.872 553.765 247.372C553.448 247.154 553.375 246.718 553.594 246.407C553.818 246.09 554.248 246.004 554.559 246.235C556.773 247.788 558.848 249.573 560.712 251.536C560.983 251.82 560.963 252.256 560.686 252.521C560.514 252.693 560.269 252.745 560.044 252.686ZM508.207 237.286C507.975 237.226 507.784 237.048 507.711 236.803C507.605 236.433 507.817 236.05 508.187 235.944C510.5 235.283 513.223 234.926 516.277 234.893C516.667 234.893 516.977 235.197 516.984 235.581C516.99 235.964 516.68 236.281 516.297 236.281C513.355 236.314 510.758 236.651 508.563 237.279C508.451 237.319 508.325 237.319 508.207 237.286ZM547.05 243.525C544.664 242.415 542.192 241.423 539.582 240.525C539.218 240.399 539.026 240.002 539.145 239.639C539.278 239.275 539.667 239.09 540.031 239.209C542.688 240.128 545.213 241.139 547.52 242.223C547.87 242.388 548.015 242.798 547.85 243.149C547.711 243.453 547.374 243.605 547.05 243.525ZM524.096 236.79C523.759 236.704 523.534 236.38 523.58 236.024C523.626 235.64 523.983 235.376 524.36 235.429C526.911 235.772 529.581 236.281 532.291 236.936C532.668 237.035 532.893 237.405 532.807 237.775C532.721 238.145 532.338 238.376 531.967 238.284C529.304 237.636 526.68 237.141 524.175 236.803C524.149 236.803 524.122 236.797 524.096 236.79Z" fill="black"/>
</g>
<defs>
<linearGradient id="paint0_linear" x1="574.396" y1="386.742" x2="605.487" y2="386.742" gradientUnits="userSpaceOnUse">
<stop stop-color="white" stop-opacity="0"/>
<stop offset="0.88" stop-color="#4A7EFF"/>
</linearGradient>
<linearGradient id="paint1_linear" x1="598.99" y1="384.333" x2="583.286" y2="357.133" gradientUnits="userSpaceOnUse">
<stop stop-color="white" stop-opacity="0"/>
<stop offset="0.88" stop-color="#4A7EFF"/>
</linearGradient>
<linearGradient id="paint2_linear" x1="568.754" y1="391.663" x2="584.537" y2="364.326" gradientUnits="userSpaceOnUse">
<stop offset="0.1203" stop-color="#4A7EFF"/>
<stop offset="1" stop-color="white" stop-opacity="0"/>
</linearGradient>
<clipPath id="clip0">
<rect width="700" height="528.716" fill="white"/>
</clipPath>
</defs>
</svg>
